<svg width="86" height="86" viewBox="0 0 86 86" fill="none" xmlns="http://www.w3.org/2000/svg">
<g clip-path="url(#clip0_1318_4380)">
<path d="M52.499 43.3496C51.5827 43.3496 50.8389 44.0934 50.8389 45.0098C50.8389 45.9261 51.5827 46.6699 52.499 46.6699C53.4153 46.6699 54.1592 45.9261 54.1592 45.0098C54.1592 44.0934 53.4153 43.3496 52.499 43.3496Z" fill="#157B7D"/>
<path d="M16.9994 61.5756L0.397893 82.4935C0.00166118 82.9922 -0.0735646 83.6738 0.203344 84.2471C0.480252 84.821 1.06131 85.1854 1.69813 85.1854H83.3777C84.0145 85.1854 84.5956 84.821 84.8725 84.2471C85.1501 83.6738 85.0742 82.9922 84.6779 82.4935L68.0764 61.5756C67.7619 61.1787 67.2826 60.9472 66.7762 60.9472H52.2336L64.6491 41.4741C67.5615 37.1078 69.1004 32.0158 69.1004 26.748C69.1004 12.1017 57.1849 0.185547 42.5379 0.185547C27.891 0.185547 15.9755 12.1017 15.9755 26.748C15.9755 32.0158 17.5143 37.1071 20.4267 41.4741L32.8422 60.9472H18.2997C17.7932 60.9472 17.3146 61.1787 16.9994 61.5756ZM10.8011 74.7265H20.8392L15.1739 81.8651H5.13517L10.8011 74.7265ZM34.9596 64.2675L39.5107 71.4062H27.7133L33.3792 64.2675H34.9596ZM50.1169 64.2675H51.6973L57.3626 71.4062H45.5658L50.1169 64.2675ZM59.9981 74.7265L65.6633 81.8651H19.4125L25.0784 74.7265H59.9981ZM69.9026 81.8651L64.2367 74.7265H74.2754L79.9407 81.8651H69.9026ZM71.6399 71.4062H61.6018L55.9359 64.2675H65.9746L71.6399 71.4062ZM23.1984 39.6453C20.6453 35.8231 19.2958 31.3634 19.2958 26.748C19.2958 13.9324 29.7223 3.50586 42.5379 3.50586C55.3535 3.50586 65.7801 13.9324 65.7801 26.748C65.7801 31.3634 64.4306 35.8231 61.8781 39.6453C61.8709 39.6551 61.8651 39.6648 61.8586 39.6745C60.7685 41.3846 43.3777 68.6617 42.5379 69.9782C40.4258 66.665 25.3683 43.048 23.2172 39.6745C23.2114 39.6648 23.2049 39.6551 23.1984 39.6453ZM29.14 64.2675L23.4747 71.4062H13.4359L19.1019 64.2675H29.14Z" fill="#157B7D"/>
<path d="M42.5381 43.3496C51.6521 43.3496 59.1396 35.969 59.1396 26.748C59.1396 17.5938 51.6923 10.1465 42.5381 10.1465C33.3839 10.1465 25.9365 17.5938 25.9365 26.748C25.9365 35.9716 33.4267 43.3496 42.5381 43.3496ZM42.5381 13.4668C49.8615 13.4668 55.8193 19.4245 55.8193 26.748C55.8193 34.1396 49.8136 40.0293 42.5381 40.0293C35.2606 40.0293 29.2568 34.1396 29.2568 26.748C29.2568 19.4245 35.2146 13.4668 42.5381 13.4668Z" fill="#157B7D"/>
<path d="M49.531 49.015C48.7463 48.5416 47.7255 48.7945 47.2521 49.5798L41.1161 59.7599C40.6426 60.5453 40.8956 61.5654 41.6809 62.0388C42.4695 62.5141 43.4883 62.256 43.9597 61.4739L50.0958 51.2938C50.5692 50.5085 50.3163 49.4884 49.531 49.015Z" fill="#157B7D"/>
</g>
<defs>
<clipPath id="clip0_1318_4380">
<rect width="85" height="85" fill="white" transform="translate(0.0380859 0.185547)"/>
</clipPath>
</defs>
</svg>
