<svg width="86" height="86" viewBox="0 0 86 86" fill="none" xmlns="http://www.w3.org/2000/svg">
<g clip-path="url(#clip0_1318_4402)">
<path d="M83.9342 40.5322C84.6282 40.5322 85.1905 39.9698 85.1905 39.276V23.3609C85.1905 23.3462 85.1888 23.3318 85.1883 23.317C85.1878 23.3023 85.1871 23.2879 85.1861 23.2731C85.1779 23.1547 85.1533 23.0412 85.1146 22.9341C85.1129 22.9291 85.1121 22.9241 85.1102 22.919C85.1087 22.9152 85.1065 22.9117 85.105 22.9078C85.0838 22.8529 85.0593 22.7996 85.0308 22.7487C85.0275 22.7427 85.0236 22.7371 85.0201 22.7311C84.994 22.6862 84.965 22.6432 84.9337 22.602C84.9275 22.5938 84.9215 22.5852 84.9151 22.577C84.8809 22.5343 84.8439 22.4939 84.8044 22.4561C84.7958 22.4479 84.787 22.4402 84.7781 22.4321C84.7407 22.3981 84.7015 22.3661 84.6603 22.3368C84.6551 22.3331 84.6504 22.3291 84.6452 22.3256C84.5992 22.2939 84.5506 22.2658 84.5004 22.2403C84.4908 22.2355 84.4811 22.231 84.4714 22.2264C84.3695 22.178 84.2603 22.1432 84.1456 22.1236C84.133 22.1214 84.1205 22.1196 84.1079 22.1179C84.051 22.11 83.9933 22.1045 83.9342 22.1045H23.5712C23.5121 22.1045 23.4544 22.11 23.3975 22.1179C23.3849 22.1196 23.3724 22.1216 23.3598 22.1236C23.2451 22.143 23.1359 22.178 23.034 22.2264C23.0243 22.231 23.0146 22.2355 23.005 22.2403C22.9548 22.2658 22.9062 22.2938 22.8602 22.3256C22.855 22.3291 22.8501 22.3333 22.8451 22.3368C22.8037 22.3661 22.7647 22.3981 22.7273 22.4321C22.7186 22.4402 22.7096 22.4477 22.701 22.4561C22.6615 22.4939 22.6246 22.5343 22.5903 22.577C22.5838 22.5851 22.5779 22.5936 22.5717 22.602C22.5404 22.6432 22.5114 22.6862 22.4853 22.7311C22.4818 22.7371 22.4779 22.7427 22.4746 22.7487C22.4461 22.7996 22.4218 22.8527 22.4005 22.9077C22.399 22.9115 22.3967 22.915 22.3952 22.919C22.3933 22.9241 22.3927 22.9291 22.3908 22.9341C22.3521 23.0413 22.3275 23.1549 22.3193 23.2733C22.3183 23.2879 22.3176 23.3025 22.3171 23.317C22.3166 23.3318 22.3149 23.3462 22.3149 23.3611V30.735C22.3149 31.4287 22.8772 31.9912 23.5712 31.9912C24.2652 31.9912 24.8274 31.4287 24.8274 30.735V26.1294L47.0168 45.5433L24.8274 59.7172V36.2623C24.8274 35.5685 24.2652 35.0061 23.5712 35.0061C22.8772 35.0061 22.3149 35.5685 22.3149 36.2623V61.9192C22.3149 61.9304 22.3163 61.9412 22.3166 61.9522C22.3103 62.0881 22.3257 62.2264 22.3654 62.3624C22.522 62.8983 23.0131 63.2664 23.5712 63.2664H83.9342C84.4923 63.2664 84.9836 62.8983 85.14 62.3624C85.1797 62.2264 85.195 62.0881 85.1888 61.9522C85.1891 61.9412 85.1905 61.9303 85.1905 61.9192V44.8035C85.1905 44.1097 84.6282 43.5472 83.9342 43.5472C83.2403 43.5472 82.678 44.1097 82.678 44.8035V59.7171L60.4888 45.5432L82.678 26.1292V39.276C82.678 39.9699 83.2403 40.5322 83.9342 40.5322ZM79.4914 60.663H28.014L48.9862 47.2664L49.0288 47.3038C50.4636 48.5594 52.1079 49.187 53.7526 49.1868C55.397 49.1867 57.042 48.5589 58.4766 47.3038L58.5192 47.2666L79.4914 60.663ZM56.8224 45.4127C54.929 47.0691 52.5766 47.0693 50.6833 45.4127L49.9177 44.7429C49.916 44.7414 49.9142 44.7398 49.9125 44.7383L26.9148 24.6172H80.5906L56.8224 45.4127Z" fill="#157B7D"/>
<path d="M18.1024 34.5037H1.44668C0.752729 34.5037 0.19043 35.0661 0.19043 35.7599C0.19043 36.4537 0.752729 37.0162 1.44668 37.0162H18.1024C18.7964 37.0162 19.3587 36.4537 19.3587 35.7599C19.3587 35.0661 18.7962 34.5037 18.1024 34.5037Z" fill="#157B7D"/>
<path d="M18.1022 41.8816H6.83682C6.14287 41.8816 5.58057 42.4441 5.58057 43.1378C5.58057 43.8316 6.14287 44.3941 6.83682 44.3941H18.1022C18.7962 44.3941 19.3585 43.8316 19.3585 43.1378C19.3585 42.4441 18.796 41.8816 18.1022 41.8816Z" fill="#157B7D"/>
<path d="M18.1023 48.355H12.4696C11.7757 48.355 11.2134 48.9174 11.2134 49.6112C11.2134 50.305 11.7757 50.8675 12.4696 50.8675H18.1023C18.7963 50.8675 19.3586 50.305 19.3586 49.6112C19.3586 48.9174 18.7961 48.355 18.1023 48.355Z" fill="#157B7D"/>
</g>
<defs>
<clipPath id="clip0_1318_4402">
<rect width="85" height="85" fill="white" transform="translate(0.19043 0.185547)"/>
</clipPath>
</defs>
</svg>
