<svg width="199" height="199" viewBox="0 0 199 199" fill="none" xmlns="http://www.w3.org/2000/svg">
<path d="M61.7835 48.8862H56.1719V55.9544H61.7835V48.8862Z" fill="#FDA4FF"/>
<path d="M56.1719 51.0138V48.8862H61.7835V53.5825C61.2769 53.6834 60.2676 53.8103 59.1085 53.4284C57.2941 52.8306 56.4035 51.4117 56.1719 51.0138Z" fill="black"/>
<path d="M59.7379 52.2172C62.2305 52.2172 64.2512 49.9839 64.2512 47.2289C64.2512 44.4738 62.2305 42.2405 59.7379 42.2405C57.2453 42.2405 55.2246 44.4738 55.2246 47.2289C55.2246 49.9839 57.2453 52.2172 59.7379 52.2172Z" fill="#FDA4FF"/>
<path d="M65.2066 41.261C64.6047 42.7495 62.0906 42.2405 59.7368 42.2405C57.3101 42.2405 55.3314 44.3577 55.2285 47.0119C57.5323 47.2264 67.5998 47.0251 65.2066 41.261Z" fill="black"/>
<path d="M57.8066 49.394C58.2429 49.7936 58.8046 50.0635 59.4384 50.1279C60.8518 50.2714 62.1254 49.3539 62.4759 48.022L57.8066 49.394Z" fill="white"/>
<path d="M93.6288 81.0762L74.2515 58.8021C73.1066 57.4861 71.5142 56.7908 69.8979 56.7439L69.8976 56.7431H69.8791C69.7697 56.7402 69.6604 56.7402 69.5509 56.7433L40.3242 56.7642V89.3949L81.0266 90.0123L79.5207 83.1389L84.5768 88.9509L93.6288 81.0762Z" fill="#FED101"/>
<path d="M81.0271 87.5098C80.9291 87.5098 80.8369 87.4493 80.8015 87.352L72.3974 64.3C72.352 64.1753 72.4161 64.0377 72.5406 63.9921C72.6649 63.9473 72.803 64.0108 72.8485 64.1353L81.2525 87.1874C81.2979 87.3121 81.2338 87.4497 81.1093 87.4952C81.0822 87.5051 81.0545 87.5098 81.0271 87.5098Z" fill="black"/>
<path d="M51.8852 89.7935C51.8842 89.7935 51.8832 89.7935 51.882 89.7935L40.3207 89.6347C40.1895 89.6329 40.084 89.526 40.084 89.3946V71.2953C40.084 71.1626 40.1913 71.0552 40.3241 71.0552C40.4568 71.0552 40.5642 71.1625 40.5642 71.2953V89.1579L51.8887 89.3133C52.0214 89.3151 52.1274 89.4242 52.1254 89.5566C52.1235 89.6882 52.0163 89.7935 51.8852 89.7935Z" fill="black"/>
<path d="M40.3241 57.0041C40.1916 57.0041 40.084 56.8968 40.084 56.7642C40.084 56.6316 40.1913 56.5239 40.3239 56.5239L55.7151 56.5129C55.7153 56.5129 55.7153 56.5129 55.7153 56.5129C55.8477 56.5129 55.9554 56.6203 55.9554 56.7528C55.9554 56.8855 55.848 56.9932 55.7155 56.9932L40.3243 57.0041C40.3241 57.0041 40.3241 57.0041 40.3241 57.0041Z" fill="black"/>
<path d="M93.9869 81.7301C93.9198 81.7301 93.8532 81.7022 93.8056 81.6476L74.0702 58.9597C73.0183 57.7505 71.4949 57.0303 69.8908 56.9839C69.8835 56.9834 69.8742 56.9831 69.872 56.9831C69.7677 56.9799 69.6627 56.9803 69.5578 56.9833L67.3536 56.9847C67.3534 56.9847 67.3534 56.9847 67.3534 56.9847C67.2209 56.9847 67.1133 56.8774 67.1133 56.7449C67.1133 56.6122 67.2206 56.5045 67.3532 56.5045L69.5503 56.5031C69.6577 56.4999 69.7712 56.5001 69.8856 56.5029C69.8919 56.5031 69.8982 56.5037 69.9048 56.5043V56.5037C71.6425 56.5541 73.2927 57.3346 74.4326 58.6446L94.1679 81.3326C94.2549 81.4327 94.2444 81.5841 94.1442 81.6713C94.0989 81.7107 94.0429 81.7301 93.9869 81.7301Z" fill="black"/>
<path d="M52.1749 56.6665L81.6198 83.3925H74.7965L45.3516 56.6665H52.1749Z" fill="black"/>
<path d="M65.4478 48.1032L58.25 54.785L59.8529 56.5116L67.0507 49.8298C67.5051 49.4079 67.5316 48.6975 67.1096 48.243L67.0346 48.1621C66.6127 47.7077 65.9023 47.6812 65.4478 48.1032Z" fill="#FDA4FF"/>
<path d="M59.5074 53.6165L55.7148 57.1372L55.8718 61.5529L59.9556 65.9783L65.8657 60.4919L59.5074 53.6165Z" fill="#FDA4FF"/>
<path d="M66.0279 53.6842L65.1737 52.7642L63.4471 54.367L64.4187 55.4137L61.7344 57.9056L63.3373 59.6323L65.8951 57.2578C66.9186 56.3077 66.9781 54.7077 66.0279 53.6842Z" fill="#FDA4FF"/>
<path d="M66.7262 56.5812L65.6972 55.4858L63.9706 57.0887L64.9422 58.1354L62.2578 60.6274L63.8607 62.3541L66.61 59.8183C67.5417 58.959 67.5938 57.505 66.7262 56.5812Z" fill="#FDA4FF"/>
<path d="M63.032 56.8966L55.7227 57.1379L56.0269 66.3521L63.3362 66.1108L63.032 56.8966Z" fill="#FDA4FF"/>
<path d="M55.9492 64.218L56.0196 66.3508L63.3285 66.1097L63.2842 62.7817L55.9492 64.218Z" fill="black"/>
<path d="M57.6428 58.947L60.1082 57.1736C60.1082 57.1736 57.0713 54.4505 56.3447 53.7726C56.2141 53.6744 55.5337 52.8341 53.9876 52.3816C53.9532 52.3808 52.5685 51.8138 51.4929 52.9667L51.4651 52.9965C51.0147 53.4793 51.232 54.2691 51.8666 54.4518C52.6169 54.6678 53.1765 54.7801 53.8191 55.3797L57.6428 58.947Z" fill="#FDA4FF"/>
<path d="M55.7868 66.5984L55.4735 57.2507L53.6558 55.5552C53.1187 55.054 52.6566 54.9238 52.017 54.7438L51.8033 54.6831C51.423 54.5736 51.133 54.2808 51.0277 53.8998C50.9227 53.5203 51.0204 53.1216 51.2891 52.8336L51.3179 52.8029C52.3089 51.7404 53.5453 51.9878 54.0314 52.1442H54.0316L54.0558 52.1512C55.4388 52.5561 56.1535 53.2541 56.4227 53.5168C56.4533 53.5468 56.4758 53.5696 56.4908 53.5817C56.7509 53.8223 57.2867 54.3101 58.0185 54.9704C58.117 55.0592 58.1247 55.2109 58.0358 55.3093C57.9467 55.4078 57.795 55.4156 57.6968 55.3267C56.9691 54.6703 56.4339 54.1831 56.1875 53.9536C56.164 53.9342 56.1305 53.9025 56.0871 53.8603C55.8419 53.621 55.1915 52.9862 53.9291 52.6145C53.9147 52.611 53.9007 52.6065 53.8845 52.6013C53.3894 52.4421 52.4436 52.3001 51.6691 53.1305L51.6403 53.1612C51.4862 53.3263 51.4302 53.5547 51.4902 53.7719C51.5507 53.9906 51.7174 54.1589 51.9358 54.2218L52.1471 54.2818C52.7986 54.4652 53.361 54.6234 53.9835 55.2041L55.9465 57.0355L56.2505 66.1029L63.0831 65.8775L63.0259 62.8028L66.4574 59.6346C66.859 59.2639 67.0916 58.7592 67.1122 58.2132C67.1331 57.6674 66.9394 57.1466 66.5674 56.7463L66.3536 56.5163C66.2634 56.4192 66.269 56.2673 66.366 56.177C66.4628 56.0872 66.6147 56.0922 66.7053 56.1894L66.9191 56.4194C67.3789 56.9134 67.6178 57.557 67.5922 58.2314C67.5665 58.9059 67.2793 59.5294 66.7834 59.9871L63.5099 63.0096L63.5722 66.3417L55.7868 66.5984Z" fill="black"/>
<path d="M65.2579 51.4358L60.1738 56.1555L61.7767 57.8821L65.5978 54.3349C66.2953 53.6873 66.3359 52.5969 65.6883 51.8995L65.2579 51.4358Z" fill="#FDA4FF"/>
<path d="M63.3357 59.8725C63.2712 59.8725 63.207 59.8467 63.1599 59.7958C63.0696 59.6985 63.0753 59.5466 63.1723 59.4565L65.7303 57.0819C66.6472 56.2307 66.7072 54.7865 65.8641 53.8624C65.7748 53.7644 65.7818 53.6127 65.8798 53.5231C65.9775 53.434 66.1297 53.4405 66.2191 53.5388C67.2386 54.6569 67.166 56.4042 66.057 57.4336L63.4991 59.8082C63.453 59.8512 63.3943 59.8725 63.3357 59.8725Z" fill="black"/>
<path d="M61.9002 58.0076C61.8357 58.0076 61.7714 57.9819 61.7243 57.931C61.6341 57.8337 61.6397 57.6817 61.7367 57.5917L65.4345 54.159C66.034 53.6025 66.069 52.662 65.5126 52.0629L65.1106 51.6299C65.0203 51.5325 65.026 51.3806 65.123 51.2906C65.2198 51.2003 65.3722 51.2058 65.4623 51.303L65.8643 51.736C66.6009 52.5294 66.5547 53.7743 65.7614 54.5106L62.0636 57.9433C62.0174 57.9862 61.9588 58.0076 61.9002 58.0076Z" fill="black"/>
<path d="M60.0812 56.5392C60.0167 56.5392 59.9525 56.5135 59.9054 56.4626C59.8151 56.3652 59.8208 56.2133 59.9178 56.1233L66.8866 49.6538C67.0596 49.4932 67.1595 49.2752 67.1683 49.0396C67.177 48.804 67.0935 48.5792 66.9332 48.4064L66.858 48.3253C66.6976 48.1525 66.4795 48.0527 66.244 48.0438C66.0108 48.0337 65.7836 48.1186 65.6106 48.2789L57.2804 56.0119C57.1833 56.1018 57.0312 56.0965 56.9411 55.9995C56.8509 55.9022 56.8565 55.7503 56.9535 55.6603L65.2837 47.9272C65.5504 47.6792 65.9012 47.5483 66.2618 47.564C66.6255 47.5774 66.9624 47.7319 67.21 47.9987L67.2852 48.0798C67.5328 48.3463 67.6618 48.6935 67.6481 49.0574C67.6347 49.421 67.4802 49.7579 67.2135 50.0055L60.2446 56.475C60.1984 56.5179 60.1398 56.5392 60.0812 56.5392Z" fill="black"/>
<path d="M60.704 91.5806C57.3909 91.5806 54.7051 88.8948 54.7051 85.5817V64.218H66.7029V85.5817C66.7029 88.8948 64.0171 91.5806 60.704 91.5806Z" fill="#FED101"/>
<path d="M64.7324 81.0763L55.6804 88.951L36.3031 66.6769C34.1286 64.1772 34.3921 60.3882 36.8918 58.2135C39.3913 56.039 43.1805 56.3025 45.355 58.8022L64.7324 81.0763Z" fill="#FED101"/>
<path d="M55.9503 89.4808C55.8835 89.4808 55.8166 89.453 55.7693 89.3983L36.1221 66.8346C35.0282 65.5774 34.4895 63.9693 34.6053 62.3069C34.7209 60.6442 35.477 59.1265 36.7343 58.0325C37.9918 56.9389 39.6005 56.3999 41.262 56.5157C42.9245 56.6315 44.4424 57.3876 45.5364 58.6449L54.8864 69.3926C54.9734 69.4928 54.9629 69.6441 54.8627 69.7313C54.7629 69.8179 54.6114 69.808 54.524 69.7076L45.1739 58.9599C43.09 56.5642 39.4449 56.3103 37.0493 58.3949C35.8888 59.4043 35.1909 60.8054 35.0842 62.3401C34.9773 63.8748 35.4746 65.359 36.4843 66.5195L56.1312 89.0832C56.2184 89.183 56.2079 89.3347 56.1077 89.4217C56.0624 89.4614 56.0064 89.4808 55.9503 89.4808Z" fill="black"/>
<path d="M60.7039 91.8204C58.7538 91.8204 56.9518 90.9335 55.7598 89.3874C55.6788 89.2823 55.6983 89.1316 55.8034 89.0507C55.9084 88.9694 56.0589 88.9893 56.14 89.0943C57.2405 90.5216 58.9038 91.3403 60.704 91.3403C63.8795 91.3403 66.4628 88.757 66.4628 85.5815V64.458H54.945V81.7326C54.945 81.8653 54.8377 81.9727 54.7049 81.9727C54.5723 81.9727 54.4648 81.8654 54.4648 81.7326V64.2179C54.4648 64.0852 54.5722 63.9778 54.7049 63.9778H66.7028C66.8355 63.9778 66.9429 64.0851 66.9429 64.2179V85.5815C66.9429 89.0217 64.1441 91.8204 60.7039 91.8204Z" fill="black"/>
<path d="M57.1958 83.5377L56.0664 85.3981C56.2577 86.2563 57.0615 86.835 57.936 86.7442L58.2566 86.711L59.7114 84.7055L61.2102 84.2133L63.9926 84.2684L63.9245 80.9312L61.6101 80.9852C59.7997 81.0275 58.1356 81.9897 57.1958 83.5377Z" fill="#FDA4FF"/>
<path d="M68.8742 87.0615L62.8351 94.6578C61.9874 95.7243 60.5962 96.1998 59.273 95.8752L56.2452 95.1323C55.4766 94.9438 54.7579 94.5911 54.1384 94.0985L52.7092 92.9621C52.0986 92.4765 51.9972 91.588 52.4828 90.9774L52.6049 90.8237C53.0904 90.2131 53.979 90.1118 54.5896 90.5973L55.523 91.3396C56.1279 91.8206 56.8295 92.1649 57.58 92.349L59.1509 92.7343C59.8406 92.9035 60.5656 92.6558 61.0076 92.1L66.5095 85.1812L68.8742 87.0615Z" fill="#FDA4FF"/>
<path d="M65.9784 90.7126L60.1234 98.0374C59.7045 98.5517 59.1794 98.9694 58.5839 99.2616L57.2099 99.936C56.6229 100.224 55.9135 99.9817 55.6255 99.3947L55.553 99.2471C55.2649 98.6601 55.5072 97.9507 56.0942 97.6627L56.9917 97.2223C57.5731 96.9369 58.0859 96.5291 58.4948 96.027L63.5381 89.699L65.9784 90.7126Z" fill="#FDA4FF"/>
<path d="M56.692 100.297C56.1655 100.297 55.6584 100.004 55.4112 99.5004L55.3388 99.3527C54.993 98.6477 55.2851 97.793 55.9898 97.4472L56.8873 97.0067C57.4337 96.7385 57.9257 96.3471 58.3099 95.8753L58.4932 95.6459C58.5764 95.5431 58.7269 95.5257 58.8309 95.6084C58.9343 95.6914 58.9511 95.8424 58.8684 95.9461L58.6836 96.1771C58.2546 96.7038 57.7069 97.1392 57.0988 97.4376L56.2013 97.8781C55.7343 98.1075 55.5407 98.674 55.7697 99.1413L55.8422 99.2889C56.0717 99.7562 56.6386 99.9496 57.1055 99.7205L58.4794 99.0463C59.0402 98.7709 59.5448 98.3697 59.9386 97.8861L63.0506 93.9826C63.1336 93.879 63.2844 93.8617 63.388 93.9444C63.4918 94.0272 63.5087 94.1782 63.4261 94.2818L60.3125 98.1871C59.8736 98.7261 59.3136 99.1715 58.6908 99.4772L57.3169 100.151C57.1159 100.25 56.9023 100.297 56.692 100.297Z" fill="black"/>
<path d="M65.4707 87.7186L61.9757 92.1156C61.1279 93.1821 59.7367 93.6575 58.4136 93.3329L55.3858 92.5901C54.6172 92.4016 53.8985 92.0489 53.279 91.5563L51.8498 90.4198C51.2392 89.9343 51.1379 89.0457 51.6234 88.4351L51.7455 88.2815C52.2311 87.6709 53.1196 87.5696 53.7302 88.0551L54.6637 88.7974C55.2685 89.2783 55.9702 89.6226 56.7206 89.8067L58.2915 90.1921C58.9812 90.3613 59.7062 90.1136 60.1482 89.5578L63.106 85.8381L65.4707 87.7186Z" fill="#FDA4FF"/>
<path d="M64.9454 85.273L61.4504 89.6699C60.6026 90.7364 59.2115 91.2119 57.8883 90.8873L54.8604 90.1444C54.0918 89.9559 53.3731 89.6032 52.7536 89.1106L51.3244 87.9742C50.7138 87.4886 50.6125 86.6001 51.098 85.9895L51.2201 85.8358C51.7057 85.2252 52.5942 85.1239 53.2048 85.6094L54.1383 86.3517C54.7431 86.8327 55.4447 87.177 56.1952 87.3611L57.7662 87.7464C58.4558 87.9156 59.1808 87.6679 59.6228 87.1121L62.5806 83.3926L64.9454 85.273Z" fill="#FDA4FF"/>
<path d="M62.0391 80.9388L68.4497 80.8779L68.6898 89.9103L67.6647 89.908C67.0397 89.9057 66.448 90.1898 66.059 90.6791L64.2704 92.9283L58.5762 88.4003L61.9106 84.2072L62.0391 80.9388Z" fill="#FDA4FF"/>
<path d="M67.4849 89.9177L65.4824 80.9012L68.4487 80.8782L68.6888 89.9106L67.4849 89.9177Z" fill="#020202"/>
<path d="M58.7144 91.2272C58.4205 91.2272 58.124 91.1923 57.8313 91.1203L54.8035 90.3778C53.996 90.1797 53.2562 89.8166 52.6044 89.2987L51.1751 88.1623C50.8296 87.8875 50.6117 87.4946 50.5616 87.0559C50.5117 86.6173 50.6354 86.1855 50.9102 85.8401L51.0324 85.6865C51.3069 85.3409 51.6998 85.1229 52.1385 85.073C52.5764 85.0229 53.009 85.1466 53.3544 85.4216L54.2879 86.1636C54.8609 86.6196 55.5403 86.953 56.2528 87.1281L57.8236 87.5131C58.42 87.6593 59.0528 87.4433 59.4349 86.9629L61.6966 84.1191C61.7789 84.0153 61.9301 83.9979 62.0337 84.0806C62.1375 84.1631 62.1546 84.3141 62.0722 84.4177L59.8108 87.2615C59.3124 87.8886 58.4874 88.1709 57.7092 87.9793L56.1384 87.5943C55.3591 87.4028 54.6159 87.0382 53.9891 86.5393L53.0557 85.7973C52.8105 85.6023 52.5053 85.5148 52.193 85.5501C51.8819 85.5854 51.6032 85.7401 51.4083 85.9851L51.2859 86.1387C51.0911 86.3839 51.0034 86.6901 51.0389 87.0015C51.0746 87.3126 51.2291 87.5913 51.474 87.7864L52.9032 88.9225C53.5003 89.3973 54.1781 89.7299 54.918 89.9112L57.9458 90.6539C59.175 90.9557 60.4762 90.5105 61.2627 89.5206L61.8251 88.8128C61.9074 88.7094 62.0586 88.6919 62.1624 88.7741C62.2663 88.8566 62.2837 89.0075 62.2012 89.1114L61.6387 89.8192C60.9229 90.7196 59.836 91.2272 58.7144 91.2272Z" fill="black"/>
<path d="M59.2398 93.6729C58.9455 93.6729 58.6492 93.638 58.3564 93.5662L55.3287 92.8235C54.5213 92.6254 53.7814 92.2623 53.1296 91.7443L51.7005 90.608C51.3549 90.3332 51.1371 89.9403 51.087 89.5016C51.0371 89.0629 51.1608 88.6311 51.4356 88.2858L51.5161 88.1845C51.5984 88.0809 51.7491 88.0636 51.8534 88.1463C51.9571 88.2289 51.9741 88.3798 51.8916 88.4837L51.8112 88.5847C51.6164 88.8297 51.5287 89.1359 51.5642 89.4472C51.5998 89.7584 51.7544 90.0371 51.9992 90.2321L53.4285 91.3683C54.0256 91.8431 54.7034 92.1757 55.4432 92.357L58.4709 93.0997C59.7003 93.4017 61.0014 92.9563 61.788 91.9664L62.8207 90.6671C62.9035 90.5635 63.0544 90.5462 63.158 90.6284C63.2619 90.7109 63.2793 90.8619 63.1967 90.9657L62.164 92.265C61.4483 93.1654 60.3614 93.6729 59.2398 93.6729Z" fill="black"/>
<path d="M60.0984 96.2149C59.8042 96.2149 59.5078 96.18 59.215 96.108L56.1871 95.3655C55.3907 95.17 54.6305 94.797 53.9882 94.2861L52.559 93.15C51.8457 92.5827 51.7267 91.541 52.2941 90.8279C52.3765 90.724 52.5274 90.7066 52.6312 90.7894C52.7351 90.8719 52.7522 91.0229 52.6697 91.1265C52.4749 91.3717 52.3872 91.6779 52.4227 91.9893C52.4583 92.3004 52.6128 92.5791 52.8578 92.7742L54.287 93.9103C54.8754 94.3783 55.572 94.7201 56.3015 94.899L59.3294 95.6417C60.5574 95.9433 61.8595 95.4985 62.6463 94.5084L65.81 90.5285C66.2477 89.9783 66.899 89.655 67.605 89.6665L68.4419 89.6696L68.2146 81.121L61.1464 81.2036C60.094 81.2121 59.1156 81.6887 58.4609 82.5115L56.6866 84.7432C56.3211 85.2029 56.3976 85.8741 56.857 86.2394L56.947 86.3109C57.1695 86.488 57.4478 86.5685 57.7305 86.5358C58.0133 86.5035 58.2664 86.363 58.4437 86.1405L59.508 84.8021C59.9224 84.2807 60.542 83.9787 61.2075 83.9734L63.1156 83.9969C63.2481 83.9985 63.3543 84.1073 63.3527 84.24C63.351 84.3715 63.2439 84.4771 63.1126 84.4771C63.1116 84.4771 63.1107 84.4771 63.1095 84.4771L61.2063 84.4536C60.6912 84.4578 60.2076 84.6937 59.8838 85.1009L58.8192 86.4393C58.289 87.1064 57.3149 87.2177 56.6482 86.687L56.5582 86.6157C56.2351 86.3588 56.0314 85.9916 55.9848 85.5814C55.9381 85.1713 56.0537 84.7676 56.3105 84.4448L58.0849 82.2132C58.8305 81.2761 59.9443 80.7334 61.1416 80.7237L68.6819 80.6355L68.9351 90.1517L67.6032 90.1468C67.6012 90.1468 67.599 90.1468 67.5971 90.1468C67.0443 90.1468 66.5301 90.3947 66.1857 90.8274L63.0222 94.8073C62.3067 95.7074 61.22 96.2149 60.0984 96.2149Z" fill="black"/>
<path d="M95.9758 85.9501C95.9758 89.2632 93.2899 91.949 89.9768 91.949H68.6133V79.9512H89.977C93.29 79.9512 95.9758 82.637 95.9758 85.9501Z" fill="#FED101"/>
<path d="M89.9766 92.1892H68.6132C68.4805 92.1892 68.373 92.0819 68.373 91.9491V79.9513C68.373 79.8186 68.4804 79.7112 68.6132 79.7112H86.0494C86.182 79.7112 86.2895 79.8185 86.2895 79.9513C86.2895 80.0841 86.182 80.1914 86.0494 80.1914H68.8531V91.709H89.9766C93.1521 91.709 95.7354 89.1257 95.7354 85.9502C95.7354 84.3846 94.8884 82.7278 93.146 80.8851C93.0548 80.7887 93.0593 80.6366 93.1554 80.5456C93.2515 80.4543 93.4039 80.4584 93.4949 80.5549C95.3257 82.4912 96.2155 84.2561 96.2155 85.9501C96.2156 89.3904 93.4168 92.1892 89.9766 92.1892Z" fill="black"/>
<path d="M79.1672 66.969H68.6875V72.3298H79.1672V66.969Z" fill="white"/>
<path d="M79.167 72.5697H68.6874C68.5547 72.5697 68.4473 72.4624 68.4473 72.3296V66.9689C68.4473 66.8362 68.5546 66.7288 68.6874 66.7288H79.167C79.2996 66.7288 79.4071 66.8361 79.4071 66.9689V72.3296C79.4071 72.4622 79.2997 72.5697 79.167 72.5697ZM68.9275 72.0895H78.9268V67.2089H68.9275V72.0895Z" fill="black"/>
<path d="M171.892 180.115H160.478C154.572 180.115 149.768 175.31 149.768 169.404V151.127C149.768 150.994 149.875 150.887 150.008 150.887H182.363C182.495 150.887 182.603 150.994 182.603 151.127V169.404C182.603 175.31 177.798 180.115 171.892 180.115ZM150.248 151.367V169.404C150.248 175.045 154.837 179.634 160.478 179.634H171.892C177.533 179.634 182.123 175.045 182.123 169.404V151.367H150.248Z" fill="black"/>
<path d="M166.185 180.115C166.053 180.115 165.945 180.007 165.945 179.874V148.861C165.945 148.729 166.053 148.621 166.185 148.621C166.318 148.621 166.426 148.729 166.426 148.861V179.874C166.426 180.007 166.318 180.115 166.185 180.115Z" fill="black"/>
<path d="M166.185 170.655C166.15 170.655 166.114 170.647 166.082 170.631L149.904 162.9C149.785 162.842 149.734 162.699 149.791 162.579C149.848 162.46 149.991 162.409 150.111 162.466L166.185 170.149L182.259 162.466C182.379 162.409 182.522 162.46 182.58 162.579C182.637 162.699 182.586 162.842 182.467 162.9L166.289 170.631C166.256 170.647 166.221 170.655 166.185 170.655Z" fill="black"/>
<path d="M166.185 177.609C166.15 177.609 166.114 177.602 166.082 177.586L149.904 169.854C149.785 169.797 149.734 169.654 149.791 169.534C149.848 169.415 149.991 169.364 150.111 169.421L166.185 177.103L182.259 169.421C182.379 169.364 182.522 169.415 182.58 169.534C182.637 169.654 182.586 169.797 182.467 169.854L166.289 177.586C166.256 177.602 166.221 177.609 166.185 177.609Z" fill="black"/>
<path d="M166.185 163.7C166.15 163.7 166.115 163.693 166.082 163.677L149.988 155.985C149.869 155.928 149.818 155.785 149.875 155.665C149.932 155.545 150.076 155.495 150.195 155.552L166.185 163.194L182.259 155.431C182.378 155.374 182.522 155.424 182.579 155.543C182.637 155.663 182.587 155.806 182.468 155.864L166.29 163.676C166.257 163.693 166.221 163.7 166.185 163.7Z" fill="black"/>
<path d="M38.2536 180.114H26.8397C20.9338 180.114 16.1289 175.309 16.1289 169.404V151.127C16.1289 150.994 16.2362 150.887 16.369 150.887H48.7241C48.8568 150.887 48.9642 150.994 48.9642 151.127V169.404C48.9642 175.309 44.1594 180.114 38.2536 180.114ZM16.6091 151.367V169.404C16.6091 175.045 21.1985 179.634 26.8397 179.634H38.2535C43.8946 179.634 48.484 175.045 48.484 169.404V151.367H16.6091Z" fill="black"/>
<path d="M32.5467 180.114C32.4141 180.114 32.3066 180.007 32.3066 179.874V148.861C32.3066 148.729 32.414 148.621 32.5467 148.621C32.6794 148.621 32.7869 148.728 32.7869 148.861V179.874C32.7869 180.007 32.6794 180.114 32.5467 180.114Z" fill="black"/>
<path d="M32.5468 170.655C32.5113 170.655 32.476 170.647 32.4432 170.631L16.2654 162.9C16.1458 162.842 16.0953 162.699 16.1525 162.579C16.2097 162.46 16.3527 162.409 16.4727 162.466L32.5468 170.149L48.6207 162.466C48.7405 162.409 48.8837 162.46 48.9409 162.579C48.9981 162.699 48.9474 162.842 48.8279 162.9L32.6504 170.631C32.6176 170.647 32.5822 170.655 32.5468 170.655Z" fill="black"/>
<path d="M32.5468 177.609C32.5113 177.609 32.476 177.602 32.4432 177.586L16.2654 169.854C16.1458 169.797 16.0953 169.654 16.1525 169.534C16.2097 169.415 16.3527 169.364 16.4727 169.421L32.5468 177.103L48.6207 169.421C48.7405 169.364 48.8837 169.415 48.9409 169.534C48.9981 169.654 48.9474 169.797 48.8279 169.854L32.6504 177.586C32.6176 177.602 32.5822 177.609 32.5468 177.609Z" fill="black"/>
<path d="M32.5468 163.7C32.5113 163.7 32.476 163.693 32.4432 163.677L16.2654 155.945C16.1458 155.888 16.0953 155.744 16.1525 155.625C16.2097 155.505 16.3527 155.455 16.4727 155.512L32.5468 163.194L48.6207 155.512C48.7405 155.454 48.8837 155.505 48.9409 155.625C48.9981 155.744 48.9474 155.888 48.8279 155.945L32.6504 163.677C32.6176 163.693 32.5822 163.7 32.5468 163.7Z" fill="black"/>
<path d="M194.926 80.1249L186.538 78.2793C183.871 77.6925 181.245 79.4212 180.732 82.1021L179.586 88.0841L173.527 89.776L174.283 92.4784L178.997 91.1621L178.986 91.219H193.883C196.562 91.219 198.733 89.0486 198.733 86.3714V84.8591C198.734 82.5834 197.15 80.6141 194.926 80.1249Z" fill="#8C7BFF"/>
<path d="M174.283 92.9172C174.178 92.9172 174.081 92.8478 174.052 92.7418L173.296 90.0394C173.279 89.978 173.287 89.9123 173.318 89.8568C173.349 89.8015 173.401 89.7607 173.463 89.7436L179.379 88.0915L180.496 82.2556C180.757 80.8953 181.537 79.7264 182.694 78.9642C183.852 78.2016 185.235 77.9453 186.59 78.2436L194.978 80.0891C197.293 80.5985 198.974 82.6881 198.974 85.0579V86.5703C198.974 89.3756 196.69 91.6579 193.883 91.6579H178.986C178.954 91.6579 178.922 91.6514 178.893 91.6392L174.347 92.9085C174.326 92.9144 174.304 92.9172 174.283 92.9172ZM173.823 90.1414L174.45 92.3813L178.932 91.1297C179.009 91.1074 179.092 91.1262 179.152 91.1777H193.883C196.425 91.1777 198.494 89.1108 198.494 86.5703V85.0579C198.494 82.9118 196.972 81.0194 194.874 80.558L186.487 78.7124C185.26 78.4426 184.007 78.6742 182.959 79.3651C181.911 80.0553 181.204 81.114 180.968 82.346L179.822 88.3281C179.805 88.4174 179.739 88.4896 179.651 88.5141L173.823 90.1414Z" fill="black"/>
<path d="M4.22561 80.1651L12.6133 78.3195C15.2804 77.7328 17.9062 79.4615 18.4195 82.1424L19.5652 88.1244L25.6243 89.8163L24.8688 92.5188L20.1547 91.2023L20.1655 91.2593H5.26824C2.58957 91.2593 0.417969 89.0889 0.417969 86.4117V84.8994C0.418077 82.6237 2.00181 80.6544 4.22561 80.1651Z" fill="#8C7BFF"/>
<path d="M24.8686 92.9573C24.8471 92.9573 24.8255 92.9545 24.8039 92.9484L20.2581 91.6791C20.2291 91.6913 20.1975 91.6978 20.1651 91.6978H5.2679C2.46113 91.6978 0.177734 89.4155 0.177734 86.6099V85.0978C0.177734 82.7278 1.85825 80.6382 4.17383 80.129L12.5615 78.2832C13.9161 77.9854 15.2991 78.2412 16.4568 79.0038C17.6137 79.766 18.3945 80.9349 18.6552 82.2953L19.7727 88.1313L25.6884 89.7834C25.7499 89.8005 25.802 89.8412 25.8331 89.8966C25.8645 89.9522 25.8722 90.0178 25.8552 90.0793L25.0998 92.7817C25.07 92.8879 24.9735 92.9573 24.8686 92.9573ZM20.1545 91.1608C20.176 91.1608 20.1979 91.1637 20.219 91.1698L24.7018 92.4214L25.328 90.1815L19.5004 88.554C19.4126 88.5297 19.3461 88.4575 19.329 88.3681L18.1833 82.386C17.9475 81.1538 17.2404 80.0952 16.1925 79.4048C15.1441 78.7144 13.8909 78.4828 12.6646 78.7522L4.27692 80.598C2.17981 81.0591 0.657836 82.9515 0.657836 85.0979V86.6101C0.657836 89.1507 2.72581 91.2178 5.2679 91.2178H19.9993C20.0432 91.1807 20.0982 91.1608 20.1545 91.1608Z" fill="black"/>
<path d="M39.2443 58.0202C42.7506 50.4035 49.5165 38.5921 65.0896 39.1115H134.442C149.214 39.1115 156.543 48.5372 160.287 58.0202L172.668 89.3787H175.695L161.683 53.8885C157.517 43.3356 148.398 36.5635 138.355 36.5635H61.1768C51.1333 36.5635 42.0145 43.3355 37.8481 53.8885L23.8359 89.3787H26.8635L39.2443 58.0202Z" fill="#8C7BFF"/>
<path d="M115.745 48.7751H86.6639C86.5313 48.7751 86.4238 48.6677 86.4238 48.5349V42.2403C86.4238 42.1077 86.5313 42.0002 86.6639 42.0002H115.745C115.877 42.0002 115.985 42.1076 115.985 42.2403V48.5349C115.985 48.6677 115.877 48.7751 115.745 48.7751ZM86.904 48.295H115.505V42.4806H86.904V48.295Z" fill="black"/>
<path d="M101.205 42.4805C101.072 42.4805 100.965 42.3731 100.965 42.2403V39.1954C100.965 39.0628 101.072 38.9553 101.205 38.9553C101.338 38.9553 101.445 39.0627 101.445 39.1954V42.2403C101.445 42.373 101.338 42.4805 101.205 42.4805Z" fill="black"/>
<path d="M189.963 154.716H9.93555V115.892C9.93555 105.926 14.9549 96.3899 23.8371 89.4807H176.061C184.944 96.3899 189.963 105.926 189.963 115.892L189.963 154.716Z" fill="#8C7BFF"/>
<path d="M189.963 154.957H9.93542C9.80275 154.957 9.69531 154.849 9.69531 154.717V115.893C9.69531 105.905 14.796 96.2095 23.6894 89.2914C23.7316 89.2586 23.7834 89.2407 23.8368 89.2407H176.061C176.115 89.2407 176.166 89.2586 176.209 89.2914C185.102 96.2093 190.203 105.905 190.203 115.893V154.717C190.203 154.849 190.096 154.957 189.963 154.957ZM10.1754 154.477H189.723V115.893C189.723 106.079 184.715 96.5441 175.979 89.7209H23.9197C15.1835 96.5439 10.1755 106.078 10.1755 115.893V154.477H10.1754Z" fill="black"/>
<path d="M189.963 154.717H9.93555V133.603L59.9053 133.33L60.2073 139.223H139.841V133.547L189.963 133.603V154.717Z" fill="white"/>
<path d="M189.963 154.957H9.93542C9.80275 154.957 9.69531 154.849 9.69531 154.717V133.603C9.69531 133.471 9.80199 133.364 9.934 133.363L59.904 133.09C59.9044 133.09 59.905 133.09 59.9054 133.09C60.0332 133.09 60.1387 133.19 60.1453 133.318L60.4355 138.983H139.601V133.547C139.601 133.483 139.626 133.422 139.671 133.377C139.716 133.332 139.777 133.307 139.841 133.307H139.841L189.963 133.363C190.096 133.363 190.203 133.47 190.203 133.603V154.716C190.203 154.849 190.096 154.957 189.963 154.957ZM10.1754 154.477H189.723V133.843L140.081 133.788V139.224C140.081 139.356 139.973 139.464 139.841 139.464H60.2073C60.0795 139.464 59.974 139.364 59.9674 139.236L59.6772 133.571L10.1754 133.842V154.477Z" fill="black"/>
<path d="M131.765 133.547H68.8125V144.9H131.765V133.547Z" fill="#FED101"/>
<path d="M131.765 145.14H68.8124C68.6797 145.14 68.5723 145.033 68.5723 144.9V133.547C68.5723 133.414 68.6796 133.307 68.8124 133.307H131.765C131.898 133.307 132.005 133.414 132.005 133.547V144.9C132.005 145.033 131.898 145.14 131.765 145.14ZM69.0524 144.66H131.525V133.787H69.0524V144.66Z" fill="black"/>
<path d="M131.765 125.228H68.8123L56.9961 113.875H143.582L131.765 125.228Z" fill="white"/>
<path d="M131.765 125.468H68.8122C68.7503 125.468 68.6905 125.444 68.6459 125.401L56.8297 114.048C56.759 113.98 56.7367 113.876 56.7732 113.786C56.8097 113.695 56.8979 113.635 56.9959 113.635H143.581C143.679 113.635 143.768 113.695 143.804 113.786C143.841 113.876 143.818 113.98 143.748 114.048L131.931 125.401C131.887 125.444 131.827 125.468 131.765 125.468ZM68.9087 124.988H131.668L142.985 114.115H57.5924L68.9087 124.988Z" fill="black"/>
<path d="M50.6949 121.86H18.5391C18.5391 109.455 30.086 102.431 38.0841 109.971L50.6949 121.86Z" fill="#FED101"/>
<path d="M149.215 121.86H181.371C181.371 109.455 169.824 102.431 161.826 109.971L149.215 121.86Z" fill="#FED101"/>
<path d="M50.6948 122.1H18.5389C18.4063 122.1 18.2988 121.992 18.2988 121.859C18.2988 115.312 21.563 109.672 26.6145 107.492C30.6202 105.763 34.8611 106.603 38.2485 109.796L50.8594 121.685C50.9311 121.752 50.9543 121.857 50.918 121.948C50.8816 122.04 50.7932 122.1 50.6948 122.1ZM18.7805 121.619H50.0902L37.9194 110.146C34.6777 107.09 30.627 106.283 26.8047 107.933C21.9909 110.01 18.859 115.366 18.7805 121.619Z" fill="black"/>
<path d="M181.371 122.1H149.215C149.116 122.1 149.028 122.039 148.992 121.948C148.955 121.857 148.978 121.752 149.05 121.685L161.661 109.796C165.048 106.603 169.289 105.763 173.295 107.492C178.347 109.672 181.611 115.312 181.611 121.859C181.611 121.992 181.503 122.1 181.371 122.1ZM149.819 121.619H181.129C181.051 115.366 177.919 110.011 173.105 107.933C169.283 106.283 165.231 107.09 161.99 110.146L149.819 121.619Z" fill="black"/>
<path d="M149.214 109.375H50.6953C50.6444 109.375 50.5947 109.359 50.5535 109.328L23.6939 89.6744C23.6102 89.6132 23.5753 89.5049 23.6077 89.4062C23.6398 89.3075 23.732 89.2407 23.8358 89.2407H175.695C175.799 89.2407 175.891 89.3071 175.923 89.4056C175.956 89.5038 175.922 89.6119 175.838 89.6735L149.357 109.328C149.315 109.358 149.265 109.375 149.214 109.375ZM50.7738 108.895H149.134L174.969 89.7207H24.5702L50.7738 108.895Z" fill="black"/>
<path d="M175.695 89.619H23.8357C23.7562 89.619 23.682 89.5796 23.6372 89.5139C23.5926 89.4482 23.5832 89.3646 23.6126 89.2908L37.6247 53.8007C41.8163 43.1838 51.061 36.3237 61.1767 36.3237H138.354C148.47 36.3237 157.715 43.1838 161.906 53.8007L175.918 89.2908C175.948 89.3646 175.938 89.4484 175.894 89.5139C175.849 89.5796 175.775 89.619 175.695 89.619ZM24.1885 89.1389H175.342L161.46 53.977C157.341 43.5448 148.272 36.8038 138.354 36.8038H61.1767C51.2594 36.8038 42.19 43.5447 38.0711 53.977L24.1885 89.1389Z" fill="black"/>
<path d="M185.89 137.09H152.572V144.023H185.89V137.09Z" fill="#FED101"/>
<path d="M46.8744 137.09H13.5566V144.023H46.8744V137.09Z" fill="#FED101"/>
<path d="M170.522 89.3788H104.172L116.196 63.9519C117.649 60.8795 120.743 58.9202 124.142 58.9202H150.552C153.95 58.9202 157.045 60.8796 158.497 63.9519L170.522 89.3788Z" fill="#4ADA85"/>
<path d="M145.191 58.9666L115.746 85.6926H122.569L152.014 58.9666H145.191Z" fill="white"/>
<path d="M122.569 85.9325H115.746C115.647 85.9325 115.558 85.8716 115.522 85.779C115.486 85.6863 115.511 85.5813 115.585 85.5147L145.03 58.7888C145.128 58.7002 145.279 58.7067 145.369 58.8052C145.458 58.9034 145.45 59.0551 145.352 59.1442L116.368 85.4524H122.477L151.853 58.7888C151.951 58.7002 152.103 58.7067 152.192 58.8052C152.281 58.9034 152.274 59.0551 152.176 59.1442L122.731 85.8701C122.687 85.9102 122.629 85.9325 122.569 85.9325Z" fill="black"/>
<path d="M170.522 89.6188H104.172C104.089 89.6188 104.013 89.5766 103.969 89.5072C103.925 89.4376 103.919 89.3504 103.955 89.276L115.681 64.4798C117.347 60.9566 120.942 58.6799 124.839 58.6799H149.854C153.752 58.6799 157.346 60.9566 159.012 64.4798L170.739 89.276C170.774 89.3503 170.769 89.4375 170.725 89.5072C170.681 89.5766 170.604 89.6188 170.522 89.6188ZM104.551 89.1387H170.143L158.578 64.6852C156.991 61.3289 153.567 59.16 149.854 59.16H124.839C121.127 59.16 117.702 61.3289 116.115 64.6852L104.551 89.1387Z" fill="black"/>
<path d="M126.413 75.7874L135.762 80.5261C136.994 81.1505 138.463 81.08 139.63 80.3406L149.395 74.1497L152.325 78.3636L142.533 85.5797C141.531 86.3179 140.94 87.4882 140.94 88.7325V89.379H134.625C134.625 87.9472 133.843 86.6296 132.587 85.9426L122.576 80.4688L126.413 75.7874Z" fill="black"/>
<path d="M119.4 86.2787L114.156 85.5472L117.888 77.7219L126.717 78.9536L122.504 84.9327C121.803 85.9274 120.605 86.4468 119.4 86.2787Z" fill="#955B50"/>
<path d="M115.756 77.4287L123.795 78.5503L120.828 85.4533L122.014 85.6188L121.784 89.1685L113.451 89.3857L113.689 86.9064C113.568 85.2615 113.622 83.6085 113.85 81.975L114.334 78.5021C114.43 77.8131 115.067 77.3326 115.756 77.4287Z" fill="#955B50"/>
<path d="M154.387 81.9222L158.726 78.8888L151.848 73.6121L144.541 78.7195L151.01 82.1328C152.086 82.7006 153.389 82.6194 154.387 81.9222Z" fill="#955B50"/>
<path d="M153.614 72.3823L146.961 77.0329L152.74 81.835L151.759 82.5211L155.921 89.4861L165.688 89.1961L159.76 79.8874C159.121 78.3671 158.322 76.9189 157.377 75.567L155.368 72.6931C154.97 72.123 154.185 71.9838 153.614 72.3823Z" fill="#955B50"/>
<path d="M168.628 89.6741L155.921 89.4863L154.824 87.631L163.607 81.9338L168.628 89.6741Z" fill="#4ADA85"/>
<path d="M155.921 89.7261C155.836 89.7261 155.757 89.6813 155.714 89.6083L154.617 87.7529C154.552 87.642 154.586 87.4994 154.694 87.4294L163.477 81.7322C163.587 81.6608 163.734 81.6914 163.807 81.7999L168.828 89.3002C168.877 89.3738 168.882 89.4683 168.84 89.5464C168.799 89.6247 168.717 89.6734 168.629 89.6739L155.922 89.7262C155.921 89.7261 155.921 89.7261 155.921 89.7261ZM155.148 87.707L156.057 89.2456L168.18 89.1957L163.54 82.2637L155.148 87.707Z" fill="black"/>
<path d="M123.599 89.4862C123.517 88.8625 123.47 88.2277 123.47 87.5819C123.47 79.5337 130.018 72.9863 138.066 72.9863C146.114 72.9863 152.661 79.5338 152.661 87.5819C152.661 88.2277 152.615 88.8625 152.533 89.4862H155.92C155.987 88.8603 156.022 88.2252 156.022 87.5819C156.022 77.6805 147.967 69.6252 138.066 69.6252C128.165 69.6252 120.109 77.6804 120.109 87.5819C120.109 88.2252 120.145 88.8602 120.211 89.4862H123.599Z" fill="black"/>
<path d="M150.817 71.6215L145.643 75.2379C145.153 75.5807 144.778 76.0646 144.569 76.6251C144.176 77.6814 144.326 78.8635 144.972 79.7873L145.324 80.2901L146.207 77.9466C146.336 77.6051 146.565 77.3105 146.864 77.1014L153.623 72.3766L153.417 72.0822C152.826 71.2368 151.662 71.0305 150.817 71.6215Z" fill="#955B50"/>
<path d="M151.848 73.6121L147.041 76.9334C146.634 77.2139 146.323 77.6126 146.151 78.0758L144.485 82.5447C144.287 83.0739 144.556 83.6629 145.086 83.8601L145.258 83.9244C145.787 84.1217 146.376 83.8526 146.574 83.3234L148.094 79.2457C148.254 78.8174 148.541 78.4484 148.918 78.1891L153.051 75.3326L151.848 73.6121Z" fill="#955B50"/>
<path d="M148.086 79.2479L147.008 82.1375C146.804 82.6849 147.083 83.2941 147.63 83.4982L147.737 83.538C148.284 83.7421 148.893 83.4637 149.097 82.9164L150.02 80.4407C150.172 80.0336 150.446 79.6831 150.803 79.4366L154.256 77.0561L153.053 75.3357L148.907 78.1948C148.532 78.4534 148.245 78.821 148.086 79.2479Z" fill="#955B50"/>
<path d="M155.396 88.8925C155.314 88.8925 155.235 88.8507 155.19 88.7752L151.463 82.5159C151.414 82.4321 151.419 82.3269 151.478 82.2491C151.536 82.1713 151.635 82.1362 151.73 82.1607L152.304 82.3092C153.375 82.5862 154.51 82.3814 155.417 81.7472C155.527 81.6713 155.676 81.6977 155.752 81.8062C155.828 81.915 155.801 82.0646 155.693 82.1405C154.671 82.8553 153.392 83.0869 152.184 82.7737L152.174 82.7714L155.602 88.5296C155.67 88.6436 155.633 88.791 155.519 88.8588C155.48 88.8817 155.438 88.8925 155.396 88.8925Z" fill="black"/>
<path d="M161.727 83.2154C161.648 83.2154 161.57 83.1763 161.524 83.1043L159.558 80.0164C159.551 80.0049 159.545 79.9929 159.539 79.9805C158.908 78.478 158.114 77.0394 157.181 75.7045L155.172 72.8304C154.85 72.3695 154.21 72.2591 153.745 72.5842C153.636 72.6607 153.487 72.6339 153.411 72.5252L153.205 72.2307C152.69 71.4951 151.674 71.315 150.938 71.8291L145.78 75.4346C145.328 75.7512 144.987 76.1917 144.794 76.7089C144.428 77.6915 144.568 78.7908 145.169 79.6497L145.52 80.1527C145.596 80.2614 145.57 80.411 145.461 80.4869C145.352 80.5629 145.203 80.5366 145.127 80.4279L144.775 79.9251C144.084 78.9367 143.923 77.6718 144.344 76.5416C144.571 75.9328 144.972 75.4139 145.505 75.0414L150.663 71.4359C151.616 70.7701 152.933 71.0033 153.598 71.9557L153.677 72.0689C154.332 71.7517 155.138 71.9446 155.566 72.5554L157.574 75.4295C158.523 76.7867 159.331 78.2489 159.974 79.7758L161.93 82.8465C162.001 82.9583 161.968 83.1068 161.856 83.1781C161.816 83.2032 161.771 83.2154 161.727 83.2154Z" fill="black"/>
<path d="M145.616 84.2294C145.467 84.2294 145.317 84.2029 145.174 84.1495L145.001 84.085C144.349 83.8419 144.016 83.1131 144.259 82.4606L145.926 77.9919C146.116 77.4802 146.455 77.0457 146.905 76.7357L151.086 73.8469C151.195 73.7715 151.345 73.7985 151.42 73.908C151.495 74.017 151.468 74.1665 151.359 74.2418L147.177 77.1309C146.809 77.385 146.531 77.7407 146.375 78.1596L144.709 82.6285C144.558 83.0329 144.765 83.4844 145.169 83.6355L145.342 83.6995C145.538 83.7729 145.751 83.7652 145.94 83.6782C146.13 83.5912 146.275 83.4356 146.348 83.2397L147.869 79.1619C148.046 78.685 148.362 78.2801 148.781 77.9916L152.289 75.5677C152.397 75.4922 152.547 75.5192 152.622 75.6286C152.698 75.7377 152.67 75.8872 152.561 75.9624L149.054 78.3865C148.716 78.6194 148.461 78.9455 148.318 79.3297L146.798 83.4073C146.68 83.7233 146.446 83.9746 146.14 84.1149C145.972 84.1911 145.794 84.2294 145.616 84.2294Z" fill="black"/>
<path d="M150.017 80.4401L149.462 81.9337C149.261 82.4767 149.537 83.0803 150.08 83.2827L150.201 83.3279C150.745 83.5307 151.35 83.2535 151.552 82.7093L151.951 81.6328C152.103 81.2257 152.376 80.8752 152.734 80.6287L155.45 78.7636L154.247 77.0432L150.838 79.387C150.462 79.6454 150.176 80.0131 150.017 80.4401Z" fill="#955B50"/>
<path d="M150.568 83.6348C150.416 83.6348 150.264 83.6076 150.117 83.5529L149.995 83.5072C149.33 83.2594 148.99 82.516 149.237 81.8502C149.283 81.7259 149.422 81.6622 149.545 81.7086C149.67 81.7548 149.733 81.8928 149.687 82.0171C149.532 82.4351 149.745 82.9016 150.163 83.0576L150.285 83.103C150.488 83.1785 150.708 83.1701 150.905 83.0803C151.101 82.99 151.251 82.8288 151.327 82.6257L151.726 81.5492C151.896 81.0932 152.197 80.7066 152.598 80.4309L154.689 78.9992C154.798 78.9243 154.948 78.9525 155.023 79.0618C155.097 79.1711 155.07 79.3206 154.96 79.3954L152.869 80.8267C152.551 81.0459 152.311 81.3537 152.176 81.7166L151.777 82.7928C151.657 83.1161 151.418 83.3732 151.105 83.517C150.933 83.5952 150.751 83.6348 150.568 83.6348Z" fill="black"/>
<path d="M148.105 83.8448C147.955 83.8448 147.802 83.8186 147.653 83.7632L147.546 83.7231C147.222 83.6021 146.963 83.3619 146.819 83.0465C146.675 82.7312 146.663 82.3786 146.784 82.0537C146.83 81.9294 146.969 81.8666 147.092 81.9128C147.217 81.959 147.28 82.0973 147.233 82.2215C147.157 82.4261 147.165 82.6482 147.256 82.847C147.347 83.0455 147.509 83.197 147.714 83.2731L147.821 83.3133C148.243 83.4706 148.715 83.2551 148.872 82.8326L149.796 80.3569C149.966 79.9013 150.267 79.5147 150.667 79.2391L153.495 77.292C153.605 77.2164 153.754 77.2446 153.829 77.3535C153.904 77.4628 153.877 77.6123 153.768 77.6873L150.94 79.6344C150.621 79.854 150.381 80.1619 150.245 80.5247L149.322 83.0005C149.128 83.5219 148.632 83.8448 148.105 83.8448Z" fill="black"/>
<path d="M117.903 75.4798L124.155 76.3519C124.748 76.4346 125.301 76.6955 125.742 77.1002C126.572 77.8625 126.975 78.9842 126.819 80.1004L126.734 80.708L124.883 79.0212C124.613 78.7755 124.275 78.6169 123.914 78.5666L115.746 77.4272L115.796 77.0714C115.938 76.0499 116.882 75.3373 117.903 75.4798Z" fill="#955B50"/>
<path d="M117.888 77.7219L123.679 78.4977C124.169 78.5627 124.627 78.7768 124.991 79.111L128.505 82.3357C128.921 82.7176 128.949 83.3645 128.567 83.7807L128.443 83.9163C128.061 84.3324 127.414 84.3601 126.998 83.9782L123.791 81.0359C123.454 80.7267 123.03 80.5287 122.577 80.4687L117.598 79.801L117.888 77.7219Z" fill="#955B50"/>
<path d="M123.799 81.0341L126.071 83.1192C126.502 83.5141 126.531 84.1834 126.136 84.6139L126.059 84.6977C125.664 85.1281 124.994 85.1568 124.564 84.7619L122.617 82.9754C122.297 82.6817 121.895 82.4935 121.464 82.4364L117.307 81.8836L117.597 79.8047L122.589 80.4687C123.041 80.5287 123.463 80.7261 123.799 81.0341Z" fill="#955B50"/>
<path d="M121.826 88.8898C121.82 88.8898 121.815 88.8896 121.81 88.8894C121.677 88.8807 121.577 88.7663 121.586 88.6341L121.756 86.0301L121.749 86.0364C120.815 86.8631 119.571 87.2383 118.336 87.0659C118.205 87.0476 118.113 86.9264 118.131 86.7951C118.149 86.6639 118.269 86.5714 118.402 86.5904C119.5 86.7438 120.602 86.4099 121.431 85.6768L121.875 85.2839C121.948 85.2196 122.053 85.2052 122.14 85.2482C122.227 85.2909 122.28 85.3823 122.274 85.4794L122.065 88.6655C122.057 88.7925 121.951 88.8898 121.826 88.8898Z" fill="black"/>
<path d="M113.451 89.6254C113.443 89.6254 113.436 89.6252 113.428 89.6242C113.296 89.6116 113.199 89.4944 113.212 89.3624L113.448 86.9033C113.328 85.2514 113.383 83.5821 113.612 81.9415L114.096 78.4687C114.199 77.73 114.83 77.1917 115.557 77.1774L115.577 77.0407C115.655 76.4832 115.945 75.9893 116.394 75.65C116.844 75.3107 117.398 75.1665 117.955 75.2446L124.188 76.1139C124.832 76.2037 125.425 76.4836 125.904 76.9232C126.792 77.7391 127.223 78.9391 127.056 80.1336L126.972 80.7408C126.953 80.8721 126.832 80.9649 126.701 80.9454C126.57 80.9272 126.478 80.8059 126.496 80.6747L126.581 80.0672C126.726 79.0289 126.351 77.9859 125.579 77.2767C125.173 76.9035 124.669 76.6658 124.122 76.5893L117.889 75.72C117.458 75.6602 117.03 75.7711 116.683 76.033C116.336 76.2951 116.112 76.6765 116.052 77.1069L116.003 77.4628C115.984 77.5941 115.864 77.6865 115.732 77.6673C115.17 77.5888 114.65 77.978 114.572 78.5349L114.087 82.0074C113.862 83.6213 113.809 85.2634 113.928 86.8883C113.929 86.9016 113.929 86.9152 113.928 86.9288L113.69 89.4081C113.678 89.5325 113.574 89.6254 113.451 89.6254Z" fill="black"/>
<path d="M127.689 84.487C127.383 84.487 127.077 84.3773 126.835 84.155L123.629 81.2127C123.327 80.9353 122.952 80.7605 122.546 80.7065L118.32 80.1399C118.188 80.1223 118.096 80.0013 118.113 79.87C118.131 79.7387 118.252 79.6471 118.383 79.6639L122.609 80.2306C123.113 80.2974 123.578 80.5147 123.953 80.8591L127.16 83.8014C127.478 84.093 127.974 84.0719 128.266 83.7541L128.39 83.6184C128.531 83.4643 128.604 83.2644 128.595 83.0557C128.587 82.8468 128.497 82.6539 128.343 82.5125L124.829 79.2878C124.5 78.9856 124.091 78.7947 123.647 78.7357L118.61 78.0609C118.478 78.0433 118.386 77.9226 118.404 77.791C118.421 77.6598 118.541 77.5683 118.673 77.585L123.711 78.2597C124.252 78.3317 124.751 78.565 125.153 78.934L128.667 82.159C128.916 82.3869 129.061 82.6983 129.075 83.0352C129.09 83.3721 128.972 83.6945 128.744 83.943L128.619 84.0787C128.371 84.3497 128.03 84.487 127.689 84.487Z" fill="black"/>
<path d="M122.621 82.9732L123.793 84.052C124.22 84.4443 124.247 85.1075 123.856 85.5342L123.768 85.6297C123.376 86.0574 122.711 86.0853 122.284 85.6921L121.439 84.9144C121.119 84.6206 120.716 84.4324 120.286 84.3753L117.02 83.9469L117.31 81.8679L121.411 82.4076C121.863 82.4677 122.285 82.6651 122.621 82.9732Z" fill="#955B50"/>
<path d="M122.992 86.2097C122.668 86.2097 122.36 86.0897 122.12 85.8686L121.275 85.091C120.99 84.8293 120.637 84.6643 120.253 84.6134L117.74 84.288C117.609 84.2709 117.516 84.1503 117.533 84.0189C117.55 83.8874 117.669 83.797 117.802 83.8116L120.315 84.1373C120.798 84.2013 121.242 84.4088 121.6 84.7377L122.445 85.5155C122.604 85.6623 122.814 85.7368 123.027 85.7288C123.243 85.7199 123.443 85.6269 123.59 85.4674L123.678 85.3717C123.979 85.0436 123.957 84.5306 123.629 84.2288C123.531 84.139 123.525 83.9871 123.615 83.8896C123.705 83.7918 123.857 83.7855 123.954 83.8755C124.477 84.3564 124.511 85.1732 124.031 85.6964L123.943 85.7921C123.71 86.0463 123.392 86.1942 123.047 86.2085C123.029 86.2094 123.011 86.2097 122.992 86.2097Z" fill="black"/>
<path d="M125.279 85.2797C124.965 85.2799 124.651 85.1672 124.402 84.9391L122.455 83.1525C122.17 82.8906 121.817 82.7256 121.433 82.6747L118.029 82.2246C117.897 82.2072 117.805 82.0865 117.822 81.9552C117.84 81.824 117.959 81.7311 118.092 81.7487L121.496 82.1988C121.978 82.2625 122.422 82.47 122.78 82.799L124.727 84.5854C125.059 84.8902 125.577 84.8679 125.882 84.5357L125.959 84.4517C126.264 84.1195 126.242 83.6012 125.91 83.2962C125.812 83.2066 125.805 83.0547 125.895 82.9572C125.984 82.8592 126.137 82.8529 126.234 82.9426C126.489 83.1769 126.638 83.4969 126.653 83.8431C126.668 84.1893 126.547 84.5209 126.313 84.7762L126.236 84.8602C125.98 85.1386 125.63 85.2797 125.279 85.2797Z" fill="black"/>
<path d="M140.442 59.2064L135.762 62.8682L135.277 53.1798L140.128 52.937L140.442 59.2064Z" fill="#955B50"/>
<path d="M140.22 54.7761L140.128 52.937L135.277 53.1798L135.48 57.2391C135.923 57.3045 136.801 57.3705 137.786 56.9902C139.328 56.3949 140.037 55.13 140.22 54.7761Z" fill="black"/>
<path d="M140.881 51.5693L136.957 50.8068L133.076 51.9061L132.768 51.0836C131.728 48.3048 133.691 45.3173 136.654 45.169C139.604 45.0213 141.853 47.774 141.12 50.6352L140.881 51.5693Z" fill="black"/>
<path d="M137.182 55.9638C139.337 55.856 140.986 53.8382 140.867 51.457C140.748 49.0759 138.905 47.233 136.75 47.3408C134.596 47.4487 132.946 49.4664 133.065 51.8476C133.185 54.2288 135.028 56.0717 137.182 55.9638Z" fill="#955B50"/>
<path d="M136.389 52.8126C136.231 52.4263 135.79 52.2412 135.403 52.3992C135.017 52.5572 134.832 52.9985 134.99 53.3848C135.148 53.771 135.589 53.9561 135.976 53.7981C136.362 53.6401 136.547 53.1988 136.389 52.8126Z" fill="white"/>
<path d="M173.666 92.1237H25.867C25.7875 92.1237 25.7132 92.0843 25.6684 92.0187C25.6238 91.953 25.6145 91.8693 25.6438 91.7955L39.2811 57.254C43.6024 46.309 52.8166 38.9556 62.2093 38.9556H137.324C146.717 38.9556 155.931 46.3091 160.252 57.254L173.889 91.7955C173.919 91.8693 173.909 91.9531 173.865 92.0187C173.82 92.0843 173.746 92.1237 173.666 92.1237ZM26.2199 91.6436H173.313L159.806 57.4303C155.556 46.667 146.522 39.4357 137.324 39.4357H62.2093C53.0119 39.4357 43.9772 46.6673 39.7274 57.4303L26.2199 91.6436Z" fill="black"/>
<path d="M113.886 147.542L108.033 151.099L54.5342 113.384L51.5566 115.339L69.7069 174.389L63.9252 177.903L65.8874 195.736L130.532 157.117L113.886 147.542Z" fill="black"/>
<path d="M124.531 160.247L61.1537 198.76L59.123 180.303L109.084 149.943L124.531 160.247Z" fill="#FDA4FF"/>
<path d="M61.1533 199C61.1169 199 61.0808 198.992 61.0474 198.975C60.9737 198.939 60.9236 198.868 60.9147 198.786L58.8842 180.33C58.8741 180.237 58.9185 180.147 58.9982 180.098L108.959 149.738C109.039 149.689 109.139 149.691 109.217 149.743L124.664 160.047C124.732 160.093 124.772 160.17 124.771 160.252C124.769 160.334 124.726 160.409 124.655 160.452L61.2781 198.965C61.2398 198.988 61.1967 199 61.1533 199ZM59.3781 180.429L61.3507 198.359L124.084 160.237L109.078 150.227L59.3781 180.429Z" fill="black"/>
<path d="M51.7256 115.53L66.9121 186.12L110.587 159.579L54.9279 113.584C53.4778 112.386 51.3298 113.691 51.7256 115.53Z" fill="white"/>
<path d="M51.7316 115.557L55.1073 131.248L67.3214 123.825L54.9493 113.602C53.4922 112.398 51.3341 113.709 51.7316 115.557Z" fill="#FDA4FF"/>
<path d="M89.7818 142.019L61.2734 159.343L58.2832 144.975L78.4064 132.747L89.7818 142.019Z" fill="#FDA4FF"/>
<path d="M110.733 159.491L66.7119 186.242L64.3242 172.866L99.9599 151.21L110.733 159.491Z" fill="#FDA4FF"/>
<path d="M66.9123 186.36C66.8803 186.36 66.8478 186.353 66.8174 186.34C66.7462 186.31 66.6941 186.246 66.6777 186.17L51.4994 115.619C51.2959 114.674 51.6984 113.739 52.5244 113.237C53.3505 112.735 54.3664 112.808 55.1115 113.424L110.741 159.394C110.801 159.443 110.833 159.519 110.827 159.596C110.822 159.674 110.779 159.744 110.713 159.784L67.0373 186.325C66.9989 186.348 66.9557 186.36 66.9123 186.36ZM53.7046 113.383C53.3548 113.383 53.0292 113.492 52.7739 113.647C52.2577 113.961 51.775 114.617 51.9688 115.518L67.0761 185.739L110.175 159.549L54.8057 113.794C54.4463 113.497 54.0628 113.383 53.7046 113.383Z" fill="black"/>
<path d="M119.635 196.114C119.591 196.114 119.547 196.102 119.507 196.078L101.644 184.879C101.531 184.809 101.498 184.661 101.568 184.548C101.638 184.436 101.787 184.402 101.899 184.472L119.081 195.244L113.127 182.271C113.089 182.188 113.102 182.091 113.159 182.019C113.217 181.949 113.309 181.917 113.398 181.937L140.719 188.077L122.008 176.958C121.936 176.916 121.891 176.838 121.89 176.754C121.89 176.67 121.933 176.592 122.004 176.548L140.956 164.807L124.358 167.721C124.227 167.742 124.103 167.656 124.08 167.526C124.058 167.395 124.145 167.271 124.275 167.248L142.1 164.119C142.213 164.1 142.325 164.162 142.366 164.27C142.407 164.377 142.366 164.499 142.268 164.559L122.594 176.748L142.264 188.436C142.366 188.496 142.408 188.621 142.365 188.731C142.321 188.841 142.206 188.903 142.089 188.876L113.766 182.511L119.854 195.774C119.898 195.871 119.873 195.985 119.794 196.055C119.748 196.094 119.692 196.114 119.635 196.114Z" fill="#8C7BFF"/>
<path d="M196.006 52.2163H148.488L165.293 44.1621V0.23999H196.006V52.2163Z" fill="white"/>
<path d="M196.006 52.4565H148.488C148.376 52.4565 148.279 52.3789 148.254 52.2697C148.229 52.1604 148.283 52.0484 148.384 52.0001L165.053 44.0111V0.240106C165.053 0.107439 165.16 0 165.293 0H196.006C196.138 0 196.246 0.10733 196.246 0.240106V52.2164C196.246 52.3491 196.138 52.4565 196.006 52.4565ZM149.545 51.9763H195.766V0.480102H165.533V44.1621C165.533 44.2544 165.48 44.3386 165.397 44.3785L149.545 51.9763Z" fill="black"/>
<path d="M186.412 42.6857H175.182C173.521 42.6857 172.174 41.3389 172.174 39.6776V11.8182C172.174 10.1568 173.521 8.81006 175.182 8.81006H186.412C188.073 8.81006 189.42 10.1568 189.42 11.8182V39.6777C189.42 41.3389 188.073 42.6857 186.412 42.6857Z" fill="black"/>
<path d="M185.317 16.0324C185.885 13.6256 184.395 11.2138 181.988 10.6454C179.581 10.0771 177.17 11.5675 176.601 13.9743C176.033 16.3812 177.523 18.793 179.93 19.3613C182.337 19.9296 184.749 18.4392 185.317 16.0324Z" fill="#FDA4FF"/>
<path d="M183.481 17.2001C183.429 17.2001 183.377 17.1835 183.334 17.1494C183.229 17.0679 183.21 16.9168 183.292 16.8123C183.701 16.2878 183.917 15.6577 183.917 14.9904C183.917 13.7955 183.206 12.7227 182.106 12.2571C181.983 12.2055 181.926 12.0646 181.978 11.9425C182.03 11.8201 182.171 11.7634 182.293 11.8149C183.571 12.3558 184.397 13.6021 184.397 14.9904C184.397 15.7658 184.146 16.4979 183.671 17.1077C183.623 17.1685 183.552 17.2001 183.481 17.2001Z" fill="white"/>
<path d="M180.953 30.1566C183.426 30.1566 185.43 28.1517 185.43 25.6786C185.43 23.2055 183.426 21.2007 180.953 21.2007C178.479 21.2007 176.475 23.2055 176.475 25.6786C176.475 28.1517 178.479 30.1566 180.953 30.1566Z" fill="#FED101"/>
<path d="M183.483 27.8883C183.431 27.8883 183.379 27.8716 183.336 27.8376C183.231 27.7561 183.212 27.605 183.294 27.5005C183.703 26.976 183.919 26.3459 183.919 25.6786C183.919 24.4839 183.208 23.4109 182.107 22.9453C181.985 22.8937 181.928 22.7528 181.98 22.6307C182.031 22.508 182.173 22.4518 182.295 22.5031C183.573 23.0442 184.399 24.2905 184.399 25.6786C184.399 26.454 184.148 27.1861 183.673 27.7958C183.625 27.8566 183.554 27.8883 183.483 27.8883Z" fill="white"/>
<path d="M184.116 39.5343C185.865 37.7855 185.865 34.9503 184.116 33.2016C182.368 31.4528 179.532 31.4528 177.784 33.2016C176.035 34.9503 176.035 37.7855 177.784 39.5343C179.532 41.283 182.368 41.283 184.116 39.5343Z" fill="#4ADA85"/>
<path d="M183.483 38.5767C183.431 38.5767 183.38 38.5601 183.336 38.526C183.231 38.4445 183.212 38.2936 183.294 38.1891C183.703 37.6642 183.919 37.0341 183.919 36.3668C183.919 35.1721 183.208 34.0993 182.107 33.6337C181.985 33.5821 181.928 33.4412 181.98 33.3191C182.031 33.1964 182.173 33.1398 182.295 33.1915C183.573 33.7324 184.399 34.9787 184.399 36.3668C184.399 37.1419 184.148 37.874 183.673 38.484C183.625 38.5448 183.554 38.5767 183.483 38.5767Z" fill="white"/>
<path d="M0.240234 42.2677H43.9923L52.1762 47.8034L43.9923 32.1411V3.26953H0.240234V42.2677Z" fill="white"/>
<path d="M52.1762 48.0436C52.1295 48.0436 52.0824 48.03 52.0417 48.0023L43.9188 42.508H0.240106C0.107439 42.508 0 42.4007 0 42.2679V3.26964C0 3.13698 0.10733 3.02954 0.240106 3.02954H43.9922C44.1248 3.02954 44.2323 3.13687 44.2323 3.26964V32.0823L52.389 47.6924C52.4399 47.7898 52.418 47.9095 52.336 47.9827C52.2908 48.023 52.2336 48.0436 52.1762 48.0436ZM0.480212 42.0279H43.9923C44.0403 42.0279 44.087 42.0421 44.1268 42.0691L51.5229 47.0718L43.7794 32.2523C43.7615 32.2181 43.7522 32.1799 43.7522 32.1412V3.50964H0.480212V42.0279Z" fill="black"/>
<path d="M30.9665 29.3146H36.3095L37.1921 10.4333H30.084L30.9665 29.3146Z" fill="#FDA4FF"/>
<path d="M30.9656 35.7424H36.3086V31.0883H30.9656V35.7424Z" fill="#FDA4FF"/>
<path d="M19.9353 29.3146H25.2783L26.1609 10.4333H19.0527L19.9353 29.3146Z" fill="#FDA4FF"/>
<path d="M19.9363 35.7424H25.2793V31.0883H19.9363V35.7424Z" fill="#FDA4FF"/>
<path d="M8.90209 29.3146H14.2451L15.1276 10.4333H8.01953L8.90209 29.3146Z" fill="#FDA4FF"/>
<path d="M8.90115 35.7424H14.2441V31.0883H8.90115V35.7424Z" fill="#FDA4FF"/>
<path d="M36.3114 29.5546H30.9684C30.8402 29.5546 30.7347 29.4538 30.7286 29.3258L29.846 10.4445C29.8429 10.3788 29.8668 10.3151 29.9121 10.2675C29.9573 10.2202 30.0202 10.1931 30.0858 10.1931H37.1942C37.2599 10.1931 37.3226 10.2201 37.3678 10.2675C37.4131 10.3151 37.437 10.3788 37.434 10.4445L36.5513 29.3258C36.5451 29.4538 36.4396 29.5546 36.3114 29.5546ZM31.1975 29.0744H36.0824L36.9425 10.6733H30.3374L31.1975 29.0744Z" fill="black"/>
<path d="M36.3116 35.9822H30.9686C30.836 35.9822 30.7285 35.8749 30.7285 35.7421V31.088C30.7285 30.9553 30.8358 30.8479 30.9686 30.8479H36.3116C36.4443 30.8479 36.5517 30.9552 36.5517 31.088V35.7421C36.5516 35.8748 36.4443 35.9822 36.3116 35.9822ZM31.2087 35.502H36.0715V31.328H31.2087V35.502Z" fill="black"/>
<path d="M25.2783 29.5546H19.9351C19.8069 29.5546 19.7013 29.4538 19.6952 29.3258L18.8128 10.4445C18.8097 10.3788 18.8336 10.3149 18.8789 10.2675C18.9241 10.2202 18.987 10.1931 19.0525 10.1931H26.1606C26.2263 10.1931 26.2891 10.2201 26.3344 10.2675C26.3797 10.3149 26.4036 10.3788 26.4005 10.4445L25.5181 29.3258C25.5121 29.4538 25.4066 29.5546 25.2783 29.5546ZM20.1642 29.0744H25.0493L25.9092 10.6733H19.3043L20.1642 29.0744Z" fill="black"/>
<path d="M25.2786 35.9822H19.9354C19.8028 35.9822 19.6953 35.8749 19.6953 35.7421V31.088C19.6953 30.9553 19.8026 30.8479 19.9354 30.8479H25.2786C25.4113 30.8479 25.5187 30.9552 25.5187 31.088V35.7421C25.5187 35.8748 25.4114 35.9822 25.2786 35.9822ZM20.1755 35.502H25.0385V31.328H20.1755V35.502Z" fill="black"/>
<path d="M14.2471 29.5546H8.90406C8.77586 29.5546 8.67037 29.4538 8.66417 29.3258L7.78151 10.4445C7.77846 10.3788 7.80239 10.3151 7.84762 10.2675C7.89286 10.2202 7.95571 10.1931 8.0214 10.1931H15.1297C15.1954 10.1931 15.2581 10.2201 15.3035 10.2675C15.3487 10.3151 15.3727 10.3788 15.3696 10.4445L14.4869 29.3258C14.4807 29.4538 14.3753 29.5546 14.2471 29.5546ZM9.13319 29.0744H14.018L14.8782 10.6733H8.27303L9.13319 29.0744Z" fill="black"/>
<path d="M14.2472 35.9822H8.90417C8.7715 35.9822 8.66406 35.8749 8.66406 35.7421V31.088C8.66406 30.9553 8.77139 30.8479 8.90417 30.8479H14.2472C14.3798 30.8479 14.4873 30.9552 14.4873 31.088V35.7421C14.4873 35.8748 14.3798 35.9822 14.2472 35.9822ZM9.14427 35.502H14.007V31.328H9.14427V35.502Z" fill="black"/>
</svg>
