<svg width="107" height="107" viewBox="0 0 107 107" fill="none" xmlns="http://www.w3.org/2000/svg">
<path d="M35.6297 32.6062H56.8223V36.1375H35.6297V32.6062Z" fill="url(#paint0_linear_1168_2045)"/>
<path d="M60.3544 32.6062H63.8856V36.1375H60.3544V32.6062Z" fill="url(#paint1_linear_1168_2045)"/>
<path d="M67.4186 32.6062H70.9499V36.1375H67.4186V32.6062Z" fill="url(#paint2_linear_1168_2045)"/>
<path d="M35.6297 46.7312H56.8223V50.2625H35.6297V46.7312Z" fill="url(#paint3_linear_1168_2045)"/>
<path d="M60.3544 46.7312H63.8856V50.2625H60.3544V46.7312Z" fill="url(#paint4_linear_1168_2045)"/>
<path d="M67.4186 46.7312H70.9499V50.2625H67.4186V46.7312Z" fill="url(#paint5_linear_1168_2045)"/>
<path d="M35.6297 60.8562H56.8223V64.3875H35.6297V60.8562Z" fill="url(#paint6_linear_1168_2045)"/>
<path d="M60.3544 60.8562H63.8856V64.3875H60.3544V60.8562Z" fill="url(#paint7_linear_1168_2045)"/>
<path d="M67.4186 60.8562H70.9499V64.3875H67.4186V60.8562Z" fill="url(#paint8_linear_1168_2045)"/>
<path d="M99.2076 73.2156C97.6419 73.2176 96.1211 73.7386 94.8832 74.6971C93.6454 75.6556 92.7605 76.9974 92.367 78.5125H72.7168V71.45C74.1214 71.4483 75.4681 70.8898 76.4613 69.8968C77.4546 68.9038 78.0133 67.5574 78.0149 66.1531V60.8562H88.6112C91.0511 60.8545 93.4641 60.3473 95.6982 59.3666C97.9322 58.386 99.9388 56.9532 101.591 55.1586C103.244 53.364 104.507 51.2466 105.3 48.9398C106.093 46.633 106.399 44.1869 106.2 41.7558C106 39.3247 105.299 36.9613 104.14 34.8147C102.981 32.668 101.39 30.7847 99.4672 29.2835C97.5442 27.7823 95.3308 26.6957 92.9667 26.0924C90.6027 25.489 88.1392 25.382 85.7317 25.7779C84.0041 19.2622 80.3536 13.4179 75.2558 9.00621C70.1581 4.59457 63.8494 1.82022 57.1519 1.04465C50.4543 0.269069 43.6784 1.52822 37.7069 4.65805C31.7355 7.78788 26.8453 12.6433 23.6737 18.5916C22.9519 18.5181 22.2268 18.4813 21.5012 18.4812C15.8806 18.4812 10.4902 20.7135 6.51577 24.6869C2.54138 28.6603 0.308594 34.0495 0.308594 39.6687C0.308594 45.288 2.54138 50.6771 6.51577 54.6506C10.4902 58.624 15.8806 60.8562 21.5012 60.8562H28.5654V66.1531C28.5671 67.5574 29.1258 68.9038 30.119 69.8968C31.1123 70.8898 32.4589 71.4483 33.8636 71.45V78.5125H14.2134C13.7835 76.8481 12.7613 75.3976 11.3382 74.4328C9.91519 73.4681 8.18905 73.0553 6.48338 73.2719C4.7777 73.4885 3.20959 74.3196 2.07297 75.6094C0.936362 76.8992 0.309286 78.5591 0.309286 80.2781C0.309286 81.9971 0.936362 83.657 2.07297 84.9468C3.20959 86.2366 4.7777 87.0677 6.48338 87.2843C8.18905 87.5009 9.91519 87.0882 11.3382 86.1234C12.7613 85.1586 13.7835 83.7081 14.2134 82.0437H35.6297C36.098 82.0437 36.5472 81.8577 36.8784 81.5266C37.2096 81.1955 37.3957 80.7464 37.3957 80.2781V71.45H40.9278V85.575H26.7994C26.331 85.575 25.8818 85.761 25.5506 86.0921C25.2194 86.4232 25.0333 86.8723 25.0333 87.3406V92.8611C23.3685 93.2908 21.9177 94.3128 20.9527 95.7355C19.9877 97.1582 19.5748 98.8839 19.7915 100.589C20.0081 102.294 20.8394 103.862 22.1295 104.999C23.4196 106.135 25.08 106.762 26.7994 106.762C28.5188 106.762 30.1791 106.135 31.4692 104.999C32.7594 103.862 33.5906 102.294 33.8073 100.589C34.0239 98.8839 33.6111 97.1582 32.6461 95.7355C31.6811 94.3128 30.2302 93.2908 28.5654 92.8611V89.1062H42.6939C43.1623 89.1062 43.6115 88.9202 43.9426 88.5891C44.2738 88.258 44.4599 87.8089 44.4599 87.3406V71.45H51.5241V89.3298C49.8593 89.7595 48.4085 90.7815 47.4435 92.2043C46.4785 93.627 46.0656 95.3527 46.2823 97.0579C46.4989 98.7632 47.3302 100.331 48.6203 101.467C49.9104 102.604 51.5708 103.231 53.2902 103.231C55.0096 103.231 56.6699 102.604 57.96 101.467C59.2501 100.331 60.0814 98.7632 60.2981 97.0579C60.5147 95.3527 60.1019 93.627 59.1369 92.2043C58.1719 90.7815 56.721 89.7595 55.0562 89.3298V71.45H62.1204V87.3406C62.1204 87.8089 62.3065 88.258 62.6377 88.5891C62.9689 88.9202 63.4181 89.1062 63.8865 89.1062H78.0149V92.8611C76.3501 93.2908 74.8993 94.3128 73.9343 95.7355C72.9693 97.1582 72.5564 98.8839 72.7731 100.589C72.9897 102.294 73.821 103.862 75.1111 104.999C76.4012 106.135 78.0616 106.762 79.781 106.762C81.5004 106.762 83.1607 106.135 84.4508 104.999C85.7409 103.862 86.5722 102.294 86.7889 100.589C87.0055 98.8839 86.5927 97.1582 85.6277 95.7355C84.6627 94.3128 83.2118 93.2908 81.547 92.8611V87.3406C81.547 86.8723 81.361 86.4232 81.0298 86.0921C80.6986 85.761 80.2494 85.575 79.781 85.575H65.6525V71.45H69.1847V80.2781C69.1847 80.7464 69.3707 81.1955 69.7019 81.5266C70.0331 81.8577 70.4823 82.0437 70.9507 82.0437H92.367C92.6973 83.3227 93.3797 84.4834 94.3368 85.394C95.2938 86.3047 96.4871 86.9287 97.7812 87.1953C99.0752 87.4619 100.418 87.3603 101.657 86.9021C102.896 86.4439 103.982 85.6475 104.791 84.6033C105.601 83.559 106.101 82.3089 106.235 80.9948C106.369 79.6807 106.131 78.3554 105.55 77.1694C104.968 75.9833 104.066 74.9841 102.945 74.2852C101.823 73.5863 100.529 73.2157 99.2076 73.2156ZM7.37281 83.8094C6.67422 83.8094 5.99132 83.6023 5.41047 83.2142C4.82962 82.8262 4.3769 82.2747 4.10956 81.6295C3.84223 80.9842 3.77228 80.2742 3.90857 79.5892C4.04485 78.9042 4.38126 78.275 4.87523 77.7811C5.3692 77.2873 5.99856 76.951 6.68373 76.8147C7.36889 76.6785 8.07908 76.7484 8.72448 77.0157C9.36989 77.2829 9.92153 77.7355 10.3096 78.3162C10.6978 78.897 10.9049 79.5797 10.9049 80.2781C10.9038 81.2143 10.5313 82.1119 9.86915 82.7739C9.207 83.4359 8.30924 83.8083 7.37281 83.8094ZM30.3315 99.7C30.3315 100.398 30.1243 101.081 29.7362 101.662C29.3481 102.243 28.7965 102.695 28.1511 102.962C27.5057 103.23 26.7955 103.3 26.1103 103.163C25.4251 103.027 24.7958 102.691 24.3018 102.197C23.8078 101.703 23.4714 101.074 23.3351 100.389C23.1989 99.7039 23.2688 98.9939 23.5361 98.3486C23.8035 97.7034 24.2562 97.1519 24.8371 96.7639C25.4179 96.3758 26.1008 96.1687 26.7994 96.1687C27.7358 96.1698 28.6336 96.5422 29.2957 97.2042C29.9579 97.8662 30.3304 98.7638 30.3315 99.7ZM56.8223 96.1687C56.8223 96.8671 56.6151 97.5499 56.227 98.1306C55.8389 98.7113 55.2873 99.1639 54.6419 99.4312C53.9964 99.6985 53.2863 99.7684 52.6011 99.6321C51.9159 99.4959 51.2866 99.1596 50.7926 98.6657C50.2986 98.1719 49.9622 97.5426 49.8259 96.8577C49.6897 96.1727 49.7596 95.4626 50.0269 94.8174C50.2943 94.1721 50.747 93.6206 51.3278 93.2326C51.9087 92.8446 52.5916 92.6375 53.2902 92.6375C54.2266 92.6386 55.1244 93.011 55.7865 93.673C56.4487 94.335 56.8212 95.2325 56.8223 96.1687ZM83.3131 99.7C83.3131 100.398 83.1059 101.081 82.7178 101.662C82.3297 102.243 81.7781 102.695 81.1326 102.962C80.4872 103.23 79.777 103.3 79.0919 103.163C78.4067 103.027 77.7774 102.691 77.2834 102.197C76.7894 101.703 76.453 101.074 76.3167 100.389C76.1805 99.7039 76.2504 98.9939 76.5177 98.3486C76.7851 97.7034 77.2378 97.1519 77.8186 96.7639C78.3995 96.3758 79.0824 96.1687 79.781 96.1687C80.7174 96.1698 81.6152 96.5422 82.2773 97.2042C82.9395 97.8662 83.312 98.7638 83.3131 99.7ZM32.0975 37.9031V30.8406C32.0981 30.3725 32.2843 29.9237 32.6154 29.5927C32.9465 29.2617 33.3954 29.0755 33.8636 29.075H72.7168C73.185 29.0755 73.6339 29.2617 73.965 29.5927C74.2961 29.9237 74.4823 30.3725 74.4828 30.8406V37.9031C74.4823 38.3712 74.2961 38.82 73.965 39.151C73.6339 39.482 73.185 39.6682 72.7168 39.6687H33.8636C33.3954 39.6682 32.9465 39.482 32.6154 39.151C32.2843 38.82 32.0981 38.3712 32.0975 37.9031ZM32.0975 52.0281V44.9656C32.0981 44.4975 32.2843 44.0487 32.6154 43.7177C32.9465 43.3867 33.3954 43.2005 33.8636 43.2H72.7168C73.185 43.2005 73.6339 43.3867 73.965 43.7177C74.2961 44.0487 74.4823 44.4975 74.4828 44.9656V52.0281C74.4823 52.4962 74.2961 52.945 73.965 53.276C73.6339 53.607 73.185 53.7932 72.7168 53.7937H33.8636C33.3954 53.7932 32.9465 53.607 32.6154 53.276C32.2843 52.945 32.0981 52.4962 32.0975 52.0281ZM3.8407 39.6687C3.84602 34.9876 5.70838 30.4998 9.01922 27.1897C12.3301 23.8797 16.819 22.0178 21.5012 22.0125C22.47 22.0123 23.4371 22.0908 24.3931 22.2473C24.7688 22.3095 25.1546 22.2486 25.4928 22.0736C25.831 21.8985 26.1035 21.6188 26.2696 21.2762C29.0043 15.6397 33.4341 10.9996 38.9384 8.00592C44.4428 5.01222 50.7459 3.81488 56.965 4.58161C63.184 5.34834 69.0073 8.04075 73.6193 12.2817C78.2313 16.5226 81.4008 22.0996 82.6839 28.2315C82.733 28.4678 82.8301 28.6916 82.9691 28.889C83.1082 29.0863 83.2862 29.2531 83.4923 29.379C83.6983 29.5048 83.928 29.5871 84.1671 29.6207C84.4062 29.6544 84.6497 29.6386 84.8824 29.5744C86.8251 29.0438 88.8587 28.9345 90.8471 29.2538C92.8354 29.5731 94.7325 30.3137 96.4111 31.4259C98.0898 32.5381 99.5112 33.9963 100.58 35.7026C101.649 37.4089 102.341 39.324 102.609 41.3194C102.877 43.3148 102.715 45.3445 102.135 47.2723C101.554 49.2002 100.568 50.9817 99.2425 52.4974C97.9169 54.0131 96.2826 55.2279 94.449 56.0605C92.6155 56.8932 90.6251 57.3243 88.6112 57.325H77.7112C77.4798 56.6736 77.1232 56.0738 76.6615 55.5594C77.5337 54.59 78.0158 53.332 78.0149 52.0281V44.9656C78.0158 43.6617 77.5337 42.4037 76.6615 41.4344C77.5337 40.465 78.0158 39.207 78.0149 37.9031V30.8406C78.0133 29.4363 77.4546 28.09 76.4613 27.097C75.4681 26.104 74.1214 25.5454 72.7168 25.5437H33.8636C32.4589 25.5454 31.1123 26.104 30.119 27.097C29.1258 28.09 28.5671 29.4363 28.5654 30.8406V37.9031C28.5645 39.207 29.0467 40.465 29.9189 41.4344C29.0467 42.4037 28.5645 43.6617 28.5654 44.9656V52.0281C28.5645 53.332 29.0467 54.59 29.9189 55.5594C29.4572 56.0738 29.1006 56.6736 28.8692 57.325H21.5012C16.819 57.3197 12.3301 55.4578 9.01922 52.1477C5.70838 48.8377 3.84602 44.3498 3.8407 39.6687ZM32.0975 66.1531V59.0906C32.0981 58.6225 32.2843 58.1737 32.6154 57.8427C32.9465 57.5117 33.3954 57.3255 33.8636 57.325H72.7168C73.185 57.3255 73.6339 57.5117 73.965 57.8427C74.2961 58.1737 74.4823 58.6225 74.4828 59.0906V66.1531C74.4823 66.6212 74.2961 67.07 73.965 67.401C73.6339 67.732 73.185 67.9182 72.7168 67.9187H33.8636C33.3954 67.9182 32.9465 67.732 32.6154 67.401C32.2843 67.07 32.0981 66.6212 32.0975 66.1531ZM99.2076 83.8094C98.509 83.8094 97.8261 83.6023 97.2452 83.2142C96.6644 82.8262 96.2116 82.2747 95.9443 81.6295C95.677 80.9842 95.607 80.2742 95.7433 79.5892C95.8796 78.9042 96.216 78.275 96.71 77.7811C97.2039 77.2873 97.8333 76.951 98.5185 76.8147C99.2036 76.6785 99.9138 76.7484 100.559 77.0157C101.205 77.2829 101.756 77.7355 102.144 78.3162C102.533 78.897 102.74 79.5797 102.74 80.2781C102.739 81.2143 102.366 82.1119 101.704 82.7739C101.042 83.4359 100.144 83.8083 99.2076 83.8094Z" fill="url(#paint9_linear_1168_2045)"/>
<defs>
<linearGradient id="paint0_linear_1168_2045" x1="107.097" y1="23.979" x2="-32.3385" y2="35.5371" gradientUnits="userSpaceOnUse">
<stop stop-color="#FF36A5"/>
<stop offset="1" stop-color="#40FBFF"/>
</linearGradient>
<linearGradient id="paint1_linear_1168_2045" x1="107.097" y1="23.979" x2="-32.3385" y2="35.5371" gradientUnits="userSpaceOnUse">
<stop stop-color="#FF36A5"/>
<stop offset="1" stop-color="#40FBFF"/>
</linearGradient>
<linearGradient id="paint2_linear_1168_2045" x1="107.097" y1="23.979" x2="-32.3385" y2="35.5371" gradientUnits="userSpaceOnUse">
<stop stop-color="#FF36A5"/>
<stop offset="1" stop-color="#40FBFF"/>
</linearGradient>
<linearGradient id="paint3_linear_1168_2045" x1="107.097" y1="23.979" x2="-32.3385" y2="35.5371" gradientUnits="userSpaceOnUse">
<stop stop-color="#FF36A5"/>
<stop offset="1" stop-color="#40FBFF"/>
</linearGradient>
<linearGradient id="paint4_linear_1168_2045" x1="107.097" y1="23.979" x2="-32.3385" y2="35.5371" gradientUnits="userSpaceOnUse">
<stop stop-color="#FF36A5"/>
<stop offset="1" stop-color="#40FBFF"/>
</linearGradient>
<linearGradient id="paint5_linear_1168_2045" x1="107.097" y1="23.979" x2="-32.3385" y2="35.5371" gradientUnits="userSpaceOnUse">
<stop stop-color="#FF36A5"/>
<stop offset="1" stop-color="#40FBFF"/>
</linearGradient>
<linearGradient id="paint6_linear_1168_2045" x1="107.097" y1="23.979" x2="-32.3385" y2="35.5371" gradientUnits="userSpaceOnUse">
<stop stop-color="#FF36A5"/>
<stop offset="1" stop-color="#40FBFF"/>
</linearGradient>
<linearGradient id="paint7_linear_1168_2045" x1="107.097" y1="23.979" x2="-32.3385" y2="35.5371" gradientUnits="userSpaceOnUse">
<stop stop-color="#FF36A5"/>
<stop offset="1" stop-color="#40FBFF"/>
</linearGradient>
<linearGradient id="paint8_linear_1168_2045" x1="107.097" y1="23.979" x2="-32.3385" y2="35.5371" gradientUnits="userSpaceOnUse">
<stop stop-color="#FF36A5"/>
<stop offset="1" stop-color="#40FBFF"/>
</linearGradient>
<linearGradient id="paint9_linear_1168_2045" x1="107.097" y1="23.979" x2="-32.3385" y2="35.5371" gradientUnits="userSpaceOnUse">
<stop stop-color="#FF36A5"/>
<stop offset="1" stop-color="#40FBFF"/>
</linearGradient>
</defs>
</svg>
