<svg width="107" height="85" viewBox="0 0 107 85" fill="none" xmlns="http://www.w3.org/2000/svg">
<path d="M95.5822 17.9802C96.5719 17.9802 97.2318 17.3204 97.2318 16.3306V6.92816C97.2318 6.10337 96.407 5.27859 95.5822 5.27859C95.2523 5.27859 86.0147 5.27859 86.1797 5.27859C85.19 5.27859 84.5301 5.93842 84.5301 6.92816C84.5301 7.91789 85.19 8.57772 86.1797 8.57772H91.2933L65.7252 31.3416C64.7354 30.5169 63.4158 30.022 62.0961 30.022C60.7765 30.022 59.6218 30.5169 58.632 31.1767L48.0749 22.7639C48.2398 22.2691 48.2398 21.7742 48.2398 21.2793C48.2398 18.1452 45.7655 15.6708 42.6313 15.6708C39.4971 15.6708 37.0228 18.1452 37.0228 21.2793C37.0228 22.1041 37.1878 22.9289 37.5177 23.5887L23.9913 37.1151C23.3314 36.7852 22.5067 36.6202 21.6819 36.6202C18.5477 36.6202 16.0734 39.0946 16.0734 42.2287C16.0734 45.3629 18.5477 47.8373 21.6819 47.8373C24.8161 47.8373 27.2904 45.3629 27.2904 42.2287C27.2904 41.0741 26.9605 40.0843 26.4656 39.2595L39.8271 26.0631C40.6518 26.5579 41.6416 26.8878 42.7963 26.8878C44.1159 26.8878 45.4356 26.393 46.4253 25.5682L56.8175 33.9809C56.6526 34.4758 56.4876 35.1356 56.4876 35.6305C56.4876 38.7647 58.962 41.239 62.0961 41.239C65.2303 41.239 67.7046 38.7647 67.7046 35.6305C67.7046 35.1356 67.5397 34.6408 67.5397 34.1459L93.9326 10.5572V16.1657C93.9326 17.1554 94.7574 17.9802 95.5822 17.9802ZM21.5169 44.5381C20.1973 44.5381 19.2075 43.5484 19.2075 42.2287C19.2075 40.9091 20.1973 39.9194 21.5169 39.9194C22.8366 39.9194 23.9913 40.9091 23.9913 42.2287C23.9913 43.5484 22.8366 44.5381 21.5169 44.5381ZM42.6313 23.5887C41.3117 23.5887 40.3219 22.599 40.3219 21.2793C40.3219 19.9597 41.3117 18.9699 42.6313 18.9699C43.951 18.9699 44.9407 19.9597 44.9407 21.2793C44.9407 22.434 43.951 23.5887 42.6313 23.5887ZM62.0961 37.9399C60.7765 37.9399 59.7867 36.9502 59.7867 35.6305C59.7867 34.3109 60.7765 33.3211 62.0961 33.3211C63.4158 33.3211 64.4055 34.3109 64.4055 35.6305C64.4055 36.9502 63.4158 37.9399 62.0961 37.9399Z" fill="url(#paint0_linear_1473_4344)"/>
<path d="M89.1489 70.6012C98.7164 70.6012 106.469 62.8483 106.469 53.2808C106.469 44.3732 99.5411 36.6202 90.3036 35.9604C91.1284 32.4963 90.9634 28.8673 89.6438 25.4032C89.3139 24.5785 88.3241 24.0836 87.4994 24.4135C86.6746 24.7434 86.1797 25.7331 86.5096 26.5579C87.8293 29.857 87.8293 33.651 86.5096 36.9502C86.3447 37.445 86.3447 38.1048 86.6746 38.5997C87.0045 39.0946 87.4994 39.2595 88.1592 39.2595C96.5719 38.5997 103.17 45.3629 103.17 53.2808C103.17 61.0337 96.9018 67.3021 89.1489 67.3021H83.5404V43.3834C83.5404 42.3937 82.8806 41.7339 81.8908 41.7339H72.9832C71.9935 41.7339 71.3337 42.3937 71.3337 43.3834V80.9934H66.385V53.1158C66.385 52.1261 65.7252 51.4663 64.7354 51.4663H55.8278C54.8381 51.4663 54.1782 52.1261 54.1782 53.1158V80.9934H49.2295V42.8886C49.2295 41.8988 48.5697 41.239 47.58 41.239H38.8373C37.8476 41.239 37.1878 41.8988 37.1878 42.8886V80.9934H32.2391V58.7244C32.2391 57.7346 31.5793 57.0748 30.5895 57.0748H21.6819C20.6922 57.0748 20.0323 57.7346 20.0323 58.7244V66.3123H17.7229C10.6298 66.3123 4.69142 61.0337 4.19655 54.2705C3.86664 49.8167 5.5162 45.6928 8.81532 42.7236C9.14523 42.3937 9.47514 41.8988 9.31019 41.404C8.48541 33.9809 14.2589 26.5579 22.5067 26.228C23.4964 26.228 24.1562 25.4032 23.9913 24.4135C23.0015 13.3614 31.5793 3.46408 43.1262 3.46408C52.5287 3.46408 60.6115 10.2273 62.0961 19.4648C62.2611 20.6195 63.7457 21.2793 64.7354 20.4545C67.2098 18.64 70.014 17.6503 73.1482 17.6503C74.1379 17.6503 74.7977 16.9905 74.7977 16.0007C74.7977 15.011 74.1379 14.3512 73.1482 14.3512C70.179 14.3512 67.3747 15.011 64.9004 16.4956C62.2611 6.7632 53.3535 0 43.1262 0C30.4246 0 20.3622 10.3922 20.5272 22.9289C11.4546 24.2485 5.18628 32.3314 5.68115 40.9091C2.05212 44.5381 0.237603 49.4868 0.567515 54.6005C1.22734 63.0132 8.65036 69.6115 17.393 69.6115H19.7024V81.1584H16.7332C15.7435 81.1584 15.0836 81.8182 15.0836 82.8079C15.0836 83.7977 15.7435 84.4575 16.7332 84.4575C21.8468 84.4575 89.6438 84.4575 86.1797 84.4575C87.1694 84.4575 87.8293 83.7977 87.8293 82.8079C87.8293 81.8182 87.1694 81.1584 86.1797 81.1584H83.2105V70.6012H89.1489ZM23.3314 81.1584V60.3739H28.94V80.9934H23.3314V81.1584ZM40.4869 81.1584V44.5381H46.0954V80.9934H40.4869V81.1584ZM57.4774 81.1584V54.7654H63.0859V80.9934H57.4774V81.1584ZM74.6328 81.1584V45.033H80.2413V80.9934H74.6328V81.1584Z" fill="url(#paint1_linear_1473_4344)"/>
<defs>
<linearGradient id="paint0_linear_1473_4344" x1="107.295" y1="18.4614" x2="-31.5681" y2="32.8968" gradientUnits="userSpaceOnUse">
<stop stop-color="#FF36A5"/>
<stop offset="1" stop-color="#40FBFF"/>
</linearGradient>
<linearGradient id="paint1_linear_1473_4344" x1="107.295" y1="18.4614" x2="-31.5681" y2="32.8968" gradientUnits="userSpaceOnUse">
<stop stop-color="#FF36A5"/>
<stop offset="1" stop-color="#40FBFF"/>
</linearGradient>
</defs>
</svg>
