<svg width="107" height="106" viewBox="0 0 107 106" fill="none" xmlns="http://www.w3.org/2000/svg">
<path d="M101.401 19.2865C101.401 19.2592 101.402 19.2323 101.402 19.205C101.402 8.61523 92.7871 0 82.1973 0C71.6075 0 62.9923 8.61523 62.9923 19.205C62.9923 29.7946 71.6075 38.4098 82.1973 38.4098C91.7035 38.4098 99.6169 31.4672 101.137 22.3863C102.395 22.6044 103.356 23.7008 103.356 25.0202V71.4314H3.60429V25.0202C3.60429 23.5446 4.80462 22.3443 6.28019 22.3443H57.2638C58.1212 22.3443 58.816 21.6495 58.816 20.7921C58.816 19.9347 58.1212 19.24 57.2638 19.24H6.28019C3.09312 19.24 0.5 21.8329 0.5 25.0202V78.7265C0.5 81.9138 3.09291 84.5069 6.2804 84.5069H31.7099V102.73H26.0011C25.1437 102.73 24.449 103.424 24.449 104.282C24.449 105.139 25.1437 105.834 26.0011 105.834H80.9589C81.8163 105.834 82.511 105.139 82.511 104.282C82.511 103.424 81.8163 102.73 80.9589 102.73H75.2501V90.2361C75.2501 89.3787 74.5553 88.684 73.6979 88.684C72.8405 88.684 72.1458 89.3787 72.1458 90.2361V102.73H34.8142V84.5069H37.2976V98.6943C37.2976 99.5517 37.9924 100.246 38.8498 100.246H68.1102C68.9676 100.246 69.6624 99.5517 69.6624 98.6943V84.5069H100.68C103.867 84.5069 106.46 81.914 106.46 78.7265V25.0202C106.46 22.0773 104.249 19.6429 101.401 19.2865ZM82.1973 35.3053C73.3194 35.3053 66.0966 28.0827 66.0966 19.2048C66.0966 10.3269 73.3192 3.10408 82.1973 3.10408C91.0753 3.10408 98.298 10.3267 98.298 19.2048C98.298 28.0827 91.0751 35.3053 82.1973 35.3053ZM40.4019 97.1417V84.5065H66.5581V97.1417H40.4019ZM103.356 78.7263C103.356 80.2018 102.155 81.4024 100.679 81.4024H6.2804C4.80482 81.4024 3.60429 80.2018 3.60429 78.7263V74.5355H103.356V78.7263Z" fill="url(#paint0_linear_1473_4368)"/>
<path d="M92.5263 20.3165H89.6896V18.0931H92.5263C93.3837 18.0931 94.0784 17.3983 94.0784 16.5409C94.0784 15.6835 93.3837 14.9888 92.5263 14.9888H89.6871C89.6604 13.1945 88.2074 11.7415 86.4131 11.7148V8.87579C86.4131 8.01838 85.7184 7.32364 84.861 7.32364C84.0036 7.32364 83.3088 8.01838 83.3088 8.87579V11.7123H81.0857V8.87579C81.0857 8.01838 80.391 7.32364 79.5336 7.32364C78.6762 7.32364 77.9814 8.01838 77.9814 8.87579V11.7148C76.1874 11.7413 74.7342 13.1945 74.7075 14.9888H71.8683C71.0109 14.9888 70.3161 15.6835 70.3161 16.5409C70.3161 17.3983 71.0109 18.0931 71.8683 18.0931H74.705V20.3163H71.8683C71.0109 20.3163 70.3161 21.0111 70.3161 21.8685C70.3161 22.7259 71.0109 23.4206 71.8683 23.4206H74.7075C74.7342 25.2149 76.1872 26.6679 77.9814 26.6946V29.5336C77.9814 30.391 78.6762 31.0857 79.5336 31.0857C80.391 31.0857 81.0857 30.391 81.0857 29.5336V26.6971H83.3088V29.5336C83.3088 30.391 84.0036 31.0857 84.861 31.0857C85.7184 31.0857 86.4131 30.391 86.4131 29.5336V26.6946C88.2072 26.6681 89.6604 25.2149 89.6871 23.4206H92.5263C93.3837 23.4206 94.0784 22.7259 94.0784 21.8685C94.0784 21.0111 93.3835 20.3165 92.5263 20.3165ZM86.5853 23.371C86.5853 23.4933 86.486 23.5928 86.3637 23.5928H78.0309C77.9086 23.5928 77.8093 23.4933 77.8093 23.371V15.0386C77.8093 14.9163 77.9086 14.8168 78.0309 14.8168H86.3637C86.486 14.8168 86.5853 14.9163 86.5853 15.0386V23.371Z" fill="url(#paint1_linear_1473_4368)"/>
<path d="M38.6428 58.9679C43.9613 58.9679 48.2883 54.6409 48.2883 49.3222C48.2883 44.0037 43.9613 39.6768 38.6428 39.6768C33.3242 39.6768 28.9972 44.0037 28.9972 49.3222C28.997 54.6409 33.3239 58.9679 38.6428 58.9679ZM38.6428 42.7809C42.2498 42.7809 45.184 45.7152 45.184 49.322C45.184 52.9288 42.2496 55.8634 38.6428 55.8634C35.0361 55.8634 32.1015 52.9288 32.1015 49.322C32.1015 45.7152 35.0359 42.7809 38.6428 42.7809Z" fill="url(#paint2_linear_1473_4368)"/>
<path d="M15.3184 41.2343C10.4973 44.8042 8.38221 48.3918 8.29467 48.5426C8.01466 49.0246 8.01466 49.6196 8.29467 50.1016C8.38242 50.2525 10.4975 53.84 15.3184 57.4101C19.7205 60.6698 27.3403 64.5554 38.6428 64.5554C49.9451 64.5554 57.5651 60.6698 61.9672 57.4101C66.7882 53.84 68.9033 50.2525 68.9908 50.1016C69.2708 49.6196 69.2708 49.0246 68.9908 48.5426C68.9031 48.3918 66.788 44.8042 61.967 41.2343C57.5649 37.9746 49.9451 34.089 38.6428 34.089C27.3401 34.0888 19.7203 37.9746 15.3184 41.2343ZM50.7717 49.3222C50.7717 56.0101 45.3307 61.4513 38.6428 61.4513C31.955 61.4513 26.5138 56.0101 26.5138 49.3222C26.5138 42.6343 31.955 37.1933 38.6428 37.1933C45.3307 37.1933 50.7717 42.6341 50.7717 49.3222ZM11.5066 49.3216C13.048 47.2016 18.063 41.32 27.831 38.6031C25.0996 41.3576 23.4095 45.1459 23.4095 49.3222C23.4095 53.5128 25.1106 57.3131 27.8583 60.0701C23.9672 58.9995 20.4347 57.3102 17.2928 55.0093C14.217 52.7566 12.347 50.4783 11.5066 49.3216ZM65.7783 49.3222C64.9364 50.4809 63.0666 52.7576 59.9927 55.0091C56.851 57.3102 53.3183 58.9995 49.4271 60.0699C52.1747 57.3131 53.876 53.5126 53.876 49.322C53.876 45.1316 52.1747 41.3312 49.4271 38.5743C53.3183 39.6449 56.851 41.3343 59.9927 43.6352C63.0666 45.8868 64.9362 48.1637 65.7783 49.3222Z" fill="url(#paint3_linear_1473_4368)"/>
<path d="M74.4521 58.9534C75.0773 58.9534 75.6669 58.5726 75.9028 57.9532L76.8047 55.5854H82.9361L83.8281 57.949C84.1306 58.751 85.0267 59.1558 85.8283 58.853C86.6302 58.5504 87.035 57.655 86.7322 56.8528L81.6294 43.3309C81.624 43.3167 81.6182 43.3022 81.6124 43.2879C81.3235 42.5867 80.6476 42.1343 79.8898 42.1343C79.8887 42.1343 79.8877 42.1343 79.8869 42.1343C79.128 42.1354 78.4521 42.59 78.1652 43.2926C78.1607 43.304 78.1561 43.3154 78.1518 43.3272L73.002 56.8487C72.6967 57.6496 73.099 58.5463 73.9001 58.8516C74.0816 58.9207 74.2683 58.9534 74.4521 58.9534ZM79.8844 47.499L81.7645 52.4809H77.9868L79.8844 47.499Z" fill="url(#paint4_linear_1473_4368)"/>
<path d="M92.5292 57.4008V43.6863C92.5292 42.8289 91.8344 42.1341 90.9771 42.1341C90.1196 42.1341 89.4249 42.8289 89.4249 43.6863V57.4008C89.4249 58.2582 90.1196 58.953 90.9771 58.953C91.8344 58.953 92.5292 58.2582 92.5292 57.4008Z" fill="url(#paint5_linear_1473_4368)"/>
<defs>
<linearGradient id="paint0_linear_1473_4368" x1="107.285" y1="23.134" x2="-32.1444" y2="34.703" gradientUnits="userSpaceOnUse">
<stop stop-color="#FF36A5"/>
<stop offset="1" stop-color="#40FBFF"/>
</linearGradient>
<linearGradient id="paint1_linear_1473_4368" x1="107.285" y1="23.134" x2="-32.1444" y2="34.703" gradientUnits="userSpaceOnUse">
<stop stop-color="#FF36A5"/>
<stop offset="1" stop-color="#40FBFF"/>
</linearGradient>
<linearGradient id="paint2_linear_1473_4368" x1="107.285" y1="23.134" x2="-32.1444" y2="34.703" gradientUnits="userSpaceOnUse">
<stop stop-color="#FF36A5"/>
<stop offset="1" stop-color="#40FBFF"/>
</linearGradient>
<linearGradient id="paint3_linear_1473_4368" x1="107.285" y1="23.134" x2="-32.1444" y2="34.703" gradientUnits="userSpaceOnUse">
<stop stop-color="#FF36A5"/>
<stop offset="1" stop-color="#40FBFF"/>
</linearGradient>
<linearGradient id="paint4_linear_1473_4368" x1="107.285" y1="23.134" x2="-32.1444" y2="34.703" gradientUnits="userSpaceOnUse">
<stop stop-color="#FF36A5"/>
<stop offset="1" stop-color="#40FBFF"/>
</linearGradient>
<linearGradient id="paint5_linear_1473_4368" x1="107.285" y1="23.134" x2="-32.1444" y2="34.703" gradientUnits="userSpaceOnUse">
<stop stop-color="#FF36A5"/>
<stop offset="1" stop-color="#40FBFF"/>
</linearGradient>
</defs>
</svg>
