<svg width="19" height="15" viewBox="0 0 19 15" fill="none" xmlns="http://www.w3.org/2000/svg">
<path d="M14.4727 9.94336C14.7461 10.0527 14.8828 10.2533 14.8828 10.5449C14.8828 10.5996 14.8737 10.6452 14.8555 10.6816L14.1992 13.5254C14.181 13.6165 14.1354 13.6986 14.0625 13.7715C14.0078 13.8626 13.9349 13.9264 13.8438 13.9629C13.7526 14.0176 13.6615 14.0449 13.5703 14.0449C10.0703 14.0449 7.08073 12.8053 4.60156 10.3262C2.1224 7.84701 0.882812 4.85742 0.882812 1.35742C0.882812 1.26628 0.901042 1.17513 0.9375 1.08398C0.992188 0.992839 1.05599 0.919922 1.12891 0.865234C1.22005 0.792318 1.3112 0.746745 1.40234 0.728516L4.24609 0.0722656C4.28255 0.0540365 4.32812 0.0449219 4.38281 0.0449219C4.67448 0.0449219 4.875 0.181641 4.98438 0.455078L6.29688 3.51758C6.33333 3.59049 6.35156 3.67253 6.35156 3.76367C6.35156 3.96419 6.26953 4.13737 6.10547 4.2832L4.46484 5.62305C4.88411 6.53451 5.56771 7.46419 6.51562 8.41211C7.46354 9.36003 8.39323 10.0436 9.30469 10.4629L10.6445 8.82227C10.7904 8.6582 10.9635 8.57617 11.1641 8.57617C11.2552 8.57617 11.3372 8.5944 11.4102 8.63086L14.4727 9.94336Z" fill="#AD186A"/>
</svg>
