<svg width="106" height="106" viewBox="0 0 106 106" fill="none" xmlns="http://www.w3.org/2000/svg">
<path d="M101.725 52.5089H56.6648C53.7997 52.5089 51.4688 54.8398 51.4688 57.7049V66.8192H39.8129C38.9838 66.8192 38.3117 67.4913 38.3117 68.3204C38.3117 69.1494 38.9838 69.8215 39.8129 69.8215H51.4688V76.5033H43.2465L43.7506 75.9993C44.3367 75.413 44.3367 74.4625 43.7506 73.8762C43.1643 73.2903 42.2139 73.2903 41.6276 73.8762L38.5609 76.9429C37.9748 77.5292 37.9748 78.4797 38.5609 79.0658L41.6276 82.1327C41.9207 82.4258 42.3048 82.5725 42.6891 82.5725C43.0732 82.5725 43.4575 82.4258 43.7504 82.1329C44.3368 81.5468 44.3367 80.5961 43.7506 80.01L43.2463 79.5056H51.4688V87.2493C51.4688 90.1144 53.7997 92.4453 56.6648 92.4453H70.5101C70.3954 94.7243 69.882 96.9411 69.2835 98.4389H66.6744C64.6062 98.4389 62.9241 100.121 62.9241 102.189C62.9241 104.257 64.6065 105.94 66.6744 105.94H90.7353C92.8032 105.94 94.4854 104.257 94.4854 102.19C94.4854 100.122 92.803 98.4393 90.7353 98.4393H88.1116C87.482 96.9216 86.9332 94.6983 86.7934 92.4457H100.744C103.609 92.4457 105.94 90.1148 105.94 87.2497V56.7249C105.94 54.4002 104.049 52.5089 101.725 52.5089ZM63.1544 76.5033H54.4712V69.8215H59.7208L59.2168 70.3255C58.6305 70.9116 58.6305 71.8623 59.2166 72.4484C59.5098 72.7415 59.8938 72.8882 60.2781 72.8882C60.6622 72.8882 61.0465 72.7415 61.3395 72.4486L64.4064 69.3819C64.688 69.1003 64.8462 68.7184 64.8462 68.3204C64.8462 67.9223 64.6882 67.5404 64.4066 67.2588L61.3397 64.1919C60.7534 63.606 59.8029 63.606 59.2166 64.1919C58.6305 64.7782 58.6305 65.7287 59.2166 66.315L59.721 66.8192H54.4712V57.7049C54.4712 56.4952 55.4553 55.5113 56.6648 55.5113H101.724C102.393 55.5113 102.937 56.0558 102.937 56.7249V82.0936H54.4712V79.5058H63.1544C63.9835 79.5058 64.6556 78.8337 64.6556 78.0047C64.6556 77.1756 63.9835 76.5033 63.1544 76.5033ZM91.4831 102.19C91.4831 102.595 91.1406 102.938 90.7353 102.938H66.6744C66.2689 102.938 65.9264 102.595 65.9264 102.19C65.9264 101.784 66.2691 101.442 66.6744 101.442H90.7353C91.1406 101.441 91.4831 101.784 91.4831 102.19ZM84.9109 98.4391H72.4685C73.0424 96.6342 73.4203 94.4865 73.5136 92.4455H83.7887C83.9006 94.4691 84.3064 96.6179 84.9109 98.4391ZM100.744 89.4432H56.6648C55.4551 89.4432 54.4712 88.459 54.4712 87.2495V85.096H102.938V87.2495C102.938 88.459 101.954 89.4432 100.744 89.4432ZM82.2371 87.2695C82.2371 88.0985 81.565 88.7706 80.7359 88.7706H76.6733C75.8442 88.7706 75.1721 88.0985 75.1721 87.2695C75.1721 86.4404 75.8442 85.7683 76.6733 85.7683H80.7359C81.565 85.7683 82.2371 86.4404 82.2371 87.2695ZM16.7492 52.014C8.68215 52.014 0 54.0024 0 58.3682V87.9568C0 92.3224 8.68215 94.311 16.7492 94.311C24.8163 94.311 33.4985 92.3226 33.4985 87.9568V58.3682C33.4983 54.0024 24.8161 52.014 16.7492 52.014ZM27.0758 89.9579C24.339 90.829 20.6718 91.3087 16.7492 91.3087C12.8267 91.3087 9.15909 90.829 6.42267 89.9579C3.61097 89.0632 3.00235 88.1378 3.00235 87.9568V81.9343C6.23867 83.6433 11.618 84.4483 16.7492 84.4483C21.8805 84.4483 27.2596 83.6435 30.4961 81.9343V87.9568C30.4959 88.1378 29.8873 89.0629 27.0758 89.9579ZM27.0758 80.0949C24.339 80.966 20.6718 81.4458 16.7492 81.4458C12.8267 81.4458 9.15909 80.966 6.42267 80.0949C3.61097 79.2002 3.00235 78.2751 3.00235 78.0939V72.0714C6.23867 73.7806 11.618 74.5854 16.7492 74.5854C21.8805 74.5854 27.2596 73.7806 30.4961 72.0714V78.0939C30.4959 78.2751 29.8873 79.2002 27.0758 80.0949ZM27.0758 70.2322C24.339 71.1033 20.6718 71.5831 16.7492 71.5831C12.8267 71.5831 9.15909 71.1033 6.42267 70.2322C3.61097 69.3373 3.00235 68.4121 3.00235 68.2309V62.2087C6.23867 63.9178 11.618 64.7227 16.7492 64.7227C21.8805 64.7227 27.2596 63.9178 30.4961 62.2087V68.2309C30.4959 68.4121 29.8873 69.3373 27.0758 70.2322ZM27.0758 60.3695C24.339 61.2406 20.6718 61.7203 16.7492 61.7203C12.8267 61.7203 9.15909 61.2406 6.42267 60.3695C3.61097 59.4746 3.00235 58.5494 3.00235 58.3682C3.00235 58.187 3.61097 57.2619 6.42245 56.3672C9.15909 55.496 12.8265 55.0163 16.749 55.0163C20.6716 55.0163 24.339 55.496 27.0756 56.3672C29.8871 57.2621 30.4957 58.187 30.4957 58.3682C30.4957 58.5494 29.8873 59.4746 27.0758 60.3695ZM11.1014 87.5663C10.9779 88.2993 10.3424 88.818 9.62296 88.818C9.53996 88.818 9.45611 88.8112 9.3714 88.7968C8.13465 88.5884 6.98153 88.3271 5.94401 88.0198C5.14903 87.7846 4.69524 86.9495 4.9305 86.1545C5.16575 85.3593 6.00105 84.906 6.79581 85.141C7.71818 85.4138 8.75249 85.6478 9.87065 85.8363C10.6881 85.9742 11.2391 86.7488 11.1014 87.5663ZM11.1014 77.7036C10.9779 78.4366 10.3424 78.9553 9.62296 78.9553C9.53996 78.9553 9.45611 78.9485 9.3714 78.9341C8.13465 78.7256 6.98153 78.4644 5.94401 78.1571C5.14903 77.9219 4.69524 77.0868 4.9305 76.2918C5.16575 75.4966 6.00105 75.0435 6.79581 75.2783C7.71818 75.5511 8.75249 75.7851 9.87065 75.9736C10.6881 76.1115 11.2391 76.8861 11.1014 77.7036ZM11.1014 67.8408C10.9779 68.5738 10.3424 69.0926 9.62296 69.0926C9.53996 69.0926 9.45611 69.0857 9.3714 69.0714C8.13465 68.8629 6.98153 68.6017 5.94401 68.2944C5.14903 68.0592 4.69524 67.2241 4.9305 66.4291C5.16575 65.6341 6.00105 65.181 6.79581 65.4156C7.71818 65.6884 8.75249 65.9223 9.87065 66.1108C10.6881 66.2487 11.2391 67.0231 11.1014 67.8408ZM30.5247 20.9967C30.5247 16.5193 33.3437 12.5961 37.5056 11.0965C37.7622 8.25152 38.9879 5.61418 41.0215 3.57494C43.3205 1.26956 46.3801 0 49.6372 0C55.7609 0 60.8928 4.6041 61.7066 10.5314H64.95C70.7205 10.5314 75.4153 15.2262 75.4153 20.9967C75.4153 26.7672 70.7205 31.462 64.95 31.462C64.1209 31.462 63.4488 30.7899 63.4488 29.9609C63.4488 29.1318 64.1209 28.4597 64.95 28.4597C69.0649 28.4597 72.413 25.1119 72.413 20.9967C72.413 16.8816 69.0652 13.5337 64.95 13.5337H60.317C59.496 13.5337 58.8274 12.8743 58.816 12.0534C58.7469 7.0626 54.6294 3.00235 49.6372 3.00235C47.1838 3.00235 44.8789 3.9586 43.1472 5.69503C41.4122 7.43467 40.4571 9.75377 40.4573 12.2247C40.4573 12.9165 39.9848 13.5185 39.3132 13.683C35.9062 14.5172 33.527 17.5247 33.527 20.9967C33.527 25.1116 36.8748 28.4597 40.99 28.4597C41.8191 28.4597 42.4912 29.1318 42.4912 29.9609C42.4912 30.7899 41.8191 31.462 40.99 31.462C35.2195 31.462 30.5247 26.7672 30.5247 20.9967ZM52.97 22.1192C52.1409 22.1192 51.4688 22.7913 51.4688 23.6203V40.7039C49.6507 41.3295 48.3389 43.0528 48.3389 45.0805C48.3389 47.6342 50.4165 49.7118 52.97 49.7118C55.5237 49.7118 57.6013 47.6342 57.6013 45.0805C57.6013 43.0526 56.2893 41.3293 54.4712 40.7037V23.6201C54.4712 22.791 53.7991 22.1192 52.97 22.1192ZM52.97 46.7095C52.0719 46.7095 51.3412 45.9788 51.3412 45.0805C51.3412 44.1821 52.0719 43.4515 52.97 43.4515C53.8681 43.4515 54.599 44.1821 54.599 45.0805C54.599 45.9788 53.8681 46.7095 52.97 46.7095ZM60.5807 22.1192C59.7517 22.1192 59.0796 22.7913 59.0796 23.6203V38.1004C59.0796 38.9295 59.7517 39.6016 60.5807 39.6016H64.5644C65.19 41.4195 66.9133 42.7316 68.941 42.7316C71.4947 42.7316 73.5723 40.6539 73.5723 38.1004C73.5723 35.5467 71.4947 33.4691 68.941 33.4691C66.9131 33.4691 65.1898 34.7811 64.5642 36.5993H62.0817V23.6203C62.0819 22.791 61.4098 22.1192 60.5807 22.1192ZM68.9412 36.4712C69.8393 36.4712 70.5702 37.2019 70.5702 38.1002C70.5702 38.9984 69.8396 39.729 68.9412 39.729C68.0429 39.729 67.3122 38.9984 67.3122 38.1002C67.3122 37.2021 68.0429 36.4712 68.9412 36.4712ZM41.3756 39.6014H45.3593C46.1883 39.6014 46.8604 38.9293 46.8604 38.1002V23.6201C46.8604 22.791 46.1883 22.1189 45.3593 22.1189C44.5302 22.1189 43.8581 22.791 43.8581 23.6201V36.5991H41.3756C40.75 34.7809 39.0267 33.4689 36.9988 33.4689C34.4451 33.4689 32.3675 35.5465 32.3675 38.1002C32.3675 40.6537 34.4451 42.7313 36.9988 42.7313C39.0267 42.7313 40.75 41.4193 41.3756 39.6014ZM36.9988 39.729C36.1007 39.729 35.3698 38.9984 35.3698 38.1002C35.3698 37.2021 36.1004 36.4712 36.9988 36.4712C37.8971 36.4712 38.6278 37.2019 38.6278 38.1002C38.6278 38.9984 37.8971 39.729 36.9988 39.729Z" fill="url(#paint0_linear_1473_4375)"/>
<defs>
<linearGradient id="paint0_linear_1473_4375" x1="106.765" y1="23.1572" x2="-32.6406" y2="34.7104" gradientUnits="userSpaceOnUse">
<stop stop-color="#FF36A5"/>
<stop offset="1" stop-color="#40FBFF"/>
</linearGradient>
</defs>
</svg>
