<svg width="14" height="14" viewBox="0 0 14 14" fill="none" xmlns="http://www.w3.org/2000/svg">
<g clip-path="url(#clip0_1522_1646)">
<path d="M7.19623 6.6672C7.19623 6.21659 7.05742 5.8223 6.77979 5.48434C6.55423 5.2157 6.25492 5.00339 5.88186 4.84741C5.59557 4.71743 5.32228 4.63944 5.06201 4.61344L7.26129 2.29971C7.28732 2.57701 7.3654 2.86731 7.49554 3.17061C7.66905 3.56923 7.89895 3.88986 8.18525 4.13249C8.54095 4.43579 8.96606 4.59611 9.46057 4.61344C9.50395 6.17326 9.5213 7.34746 9.51263 8.13603C9.50395 8.71663 9.4866 8.99827 9.46057 8.98094C8.94003 8.94627 8.49758 9.08926 8.1332 9.40989C7.83823 9.66119 7.60398 10.0078 7.43047 10.4498C7.30033 10.7791 7.22225 11.104 7.19623 11.4247L5.06201 8.85095C5.32228 8.80762 5.59557 8.7123 5.88186 8.56498C6.25492 8.383 6.55423 8.15336 6.77979 7.87606C7.05742 7.52077 7.19623 7.11782 7.19623 6.6672ZM5.12708 13.2314C4.75403 13.2314 4.407 13.134 4.086 12.939C3.765 12.744 3.51124 12.4797 3.32471 12.1461C3.13819 11.8124 3.04492 11.4463 3.04492 11.0477C3.04492 10.6491 3.13819 10.283 3.32471 9.94932C3.51124 9.6157 3.765 9.34923 4.086 9.14992C4.407 8.95061 4.75403 8.85095 5.12708 8.85095C5.50013 8.85095 5.84499 8.95061 6.16165 9.14992C6.47832 9.34923 6.72991 9.6157 6.91644 9.94932C7.10296 10.283 7.19623 10.6491 7.19623 11.0477C7.19623 11.4463 7.10296 11.8124 6.91644 12.1461C6.72991 12.4797 6.47832 12.744 6.16165 12.939C5.84499 13.134 5.50013 13.2314 5.12708 13.2314ZM9.64276 8.98094C9.26971 8.98094 8.92268 8.88345 8.60168 8.68847C8.28068 8.49349 8.02692 8.22919 7.84039 7.89556C7.65387 7.56193 7.5606 7.19581 7.5606 6.79719C7.5606 6.39857 7.65387 6.03244 7.84039 5.69881C8.02692 5.36519 8.28068 5.10088 8.60168 4.90591C8.92268 4.71093 9.26971 4.61344 9.64276 4.61344C10.0158 4.61344 10.3628 4.71093 10.6838 4.90591C11.0048 5.10088 11.2586 5.36519 11.4451 5.69881C11.6317 6.03244 11.7249 6.39857 11.7249 6.79719C11.7249 7.19581 11.6317 7.56193 11.4451 7.89556C11.2586 8.22919 11.0048 8.49349 10.6838 8.68847C10.3628 8.88345 10.0158 8.98094 9.64276 8.98094ZM5.2442 4.61344C4.87115 4.61344 4.52412 4.51378 4.20312 4.31447C3.88212 4.11516 3.62836 3.84869 3.44183 3.51507C3.25531 3.18144 3.16204 2.81531 3.16204 2.41669C3.16204 2.01807 3.25531 1.65195 3.44183 1.31832C3.62836 0.984691 3.88212 0.720388 4.20312 0.525411C4.52412 0.330433 4.87115 0.232944 5.2442 0.232944C5.61726 0.232944 5.96428 0.330433 6.28528 0.525411C6.60628 0.720388 6.86004 0.984691 7.04657 1.31832C7.2331 1.65195 7.32636 2.01807 7.32636 2.41669C7.32636 2.81531 7.2331 3.18144 7.04657 3.51507C6.86004 3.84869 6.60628 4.11516 6.28528 4.31447C5.96428 4.51378 5.61726 4.61344 5.2442 4.61344Z" fill="#5D5D5D"/>
</g>
<defs>
<clipPath id="clip0_1522_1646">
<rect width="8.68" height="13" fill="white" transform="matrix(1 0 0 -1 3.04492 13.2324)"/>
</clipPath>
</defs>
</svg>
