<svg width="232" height="215" viewBox="0 0 232 215" fill="none" xmlns="http://www.w3.org/2000/svg">
<path d="M0.816406 15.2383V164.588C0.816185 166.34 1.16115 168.075 1.83158 169.694C2.50201 171.313 3.48478 172.784 4.72375 174.023C5.96273 175.262 7.43364 176.244 9.05247 176.915C10.6713 177.585 12.4063 177.93 14.1585 177.929H217.28C220.818 177.929 224.211 176.523 226.713 174.021C229.215 171.519 230.621 168.126 230.621 164.588V15.2383C230.621 6.96811 223.913 0.265869 215.643 0.265869H15.7897C13.8234 0.265648 11.8763 0.65276 10.0596 1.40511C8.24291 2.15745 6.59222 3.2603 5.20179 4.65065C3.81135 6.04101 2.70842 7.69164 1.95597 9.50828C1.20352 11.3249 0.816296 13.272 0.816406 15.2383Z" fill="#E4E4E4"/>
<path d="M0.816406 15.2383V28.7188H230.621V15.2383C230.621 6.96811 223.913 0.265869 215.643 0.265869H15.7897C13.8234 0.265648 11.8763 0.65276 10.0596 1.40511C8.24291 2.15745 6.59222 3.2603 5.20179 4.65065C3.81135 6.041 2.70842 7.69163 1.95597 9.50828C1.20352 11.3249 0.816295 13.272 0.816406 15.2383Z" fill="#15AD8B"/>
<path d="M207.176 14.2601C207.176 15.2026 207.457 16.1238 207.981 16.9071C208.505 17.6904 209.25 18.3007 210.121 18.6607C210.992 19.0208 211.95 19.1145 212.874 18.93C213.799 18.7455 214.647 18.291 215.313 17.624C215.979 16.9571 216.433 16.1076 216.616 15.1831C216.799 14.2586 216.704 13.3004 216.343 12.4299C215.981 11.5594 215.37 10.8156 214.586 10.2925C213.802 9.76939 212.88 9.49054 211.938 9.49121C211.312 9.4911 210.692 9.61442 210.114 9.85412C209.536 10.0938 209.01 10.4452 208.568 10.8881C208.126 11.3311 207.775 11.8569 207.536 12.4355C207.297 13.0141 207.175 13.6341 207.176 14.2601Z" fill="white"/>
<path d="M189.678 14.8551C189.677 15.7977 189.956 16.7192 190.479 17.5033C191.002 18.2873 191.746 18.8987 192.616 19.26C193.487 19.6213 194.445 19.7163 195.37 19.5331C196.294 19.3499 197.144 18.8966 197.811 18.2306C198.478 17.5646 198.932 16.7158 199.117 15.7915C199.301 14.8672 199.207 13.909 198.847 13.038C198.487 12.1669 197.877 11.4222 197.094 10.898C196.31 10.3738 195.389 10.0937 194.447 10.093C193.183 10.0944 191.972 10.5963 191.078 11.4889C190.185 12.3815 189.681 13.5919 189.678 14.8551Z" fill="white"/>
<path d="M172.186 14.8551C172.185 15.7982 172.464 16.7203 172.987 17.5048C173.51 18.2892 174.255 18.9008 175.126 19.2621C175.997 19.6234 176.956 19.7181 177.881 19.5343C178.806 19.3505 179.655 18.8965 180.322 18.2297C180.989 17.5628 181.443 16.7132 181.627 15.7882C181.811 14.8632 181.716 13.9045 181.355 13.0334C180.993 12.1623 180.382 11.4179 179.597 10.8945C178.813 10.3711 177.891 10.0922 176.948 10.093C175.685 10.0946 174.475 10.5968 173.582 11.4895C172.689 12.3823 172.187 13.5926 172.186 14.8551Z" fill="white"/>
<path d="M213.748 28.4175H87.8915C87.8237 28.4136 87.7599 28.384 87.7133 28.3347C87.6666 28.2853 87.6406 28.22 87.6406 28.1521C87.6406 28.0841 87.6666 28.0188 87.7133 27.9695C87.7599 27.9201 87.8237 27.8905 87.8915 27.8867H213.748C213.784 27.8846 213.82 27.89 213.854 27.9024C213.888 27.9148 213.919 27.934 213.946 27.9589C213.972 27.9837 213.993 28.0137 214.007 28.0469C214.021 28.0801 214.029 28.1159 214.029 28.1521C214.029 28.1882 214.021 28.224 214.007 28.2572C213.993 28.2905 213.972 28.3204 213.946 28.3453C213.919 28.3701 213.888 28.3893 213.854 28.4017C213.82 28.4142 213.784 28.4195 213.748 28.4175Z" fill="black"/>
<path d="M74.7388 178.194C74.7041 178.192 74.6701 178.183 74.6389 178.168C74.6076 178.152 74.5796 178.131 74.5566 178.105C74.5336 178.079 74.5159 178.049 74.5046 178.016C74.4933 177.983 74.4886 177.948 74.4907 177.913C74.4929 177.878 74.5019 177.844 74.5172 177.813C74.5325 177.782 74.5538 177.754 74.5799 177.731C74.606 177.708 74.6363 177.69 74.6693 177.679C74.7022 177.668 74.737 177.663 74.7718 177.665C82.6513 178.16 211.393 178.516 218.112 177.479C220.943 177.043 224.16 176.411 226.535 174.417C230.566 171.031 230.881 164.993 230.859 159.599C230.793 143.705 230.633 127.217 230.478 111.271C230.357 98.893 230.233 86.0936 230.154 73.6553C230.153 73.6204 230.16 73.5858 230.173 73.5535C230.186 73.5211 230.206 73.4917 230.23 73.4669C230.255 73.4421 230.284 73.4225 230.316 73.409C230.348 73.3956 230.383 73.3887 230.418 73.3887C230.488 73.3884 230.555 73.416 230.605 73.4654C230.655 73.5147 230.683 73.5818 230.684 73.652C230.763 86.0894 230.887 98.8845 231.008 111.266C231.163 127.216 231.323 143.701 231.389 159.597C231.412 165.111 231.084 171.29 226.875 174.823C224.395 176.906 221.093 177.557 218.192 178.003C211.45 179.043 82.5955 178.69 74.7388 178.194Z" fill="black"/>
<path d="M230.357 20.1962V14.8492C230.357 6.95457 223.933 0.53081 216.038 0.53081H37.8329C37.7651 0.526986 37.7013 0.497361 37.6547 0.448007C37.608 0.398654 37.582 0.333318 37.582 0.265408C37.582 0.197498 37.608 0.132162 37.6547 0.0828086C37.7013 0.0334551 37.7651 0.00382479 37.8329 0H216.038C224.224 0 230.891 6.66174 230.891 14.8526V20.1996C230.885 20.5472 230.357 20.5472 230.357 20.1962Z" fill="black"/>
<path d="M147.107 15.1211H34.8095C34.7417 15.1173 34.6779 15.0876 34.6312 15.0383C34.5846 14.9889 34.5586 14.9236 34.5586 14.8557C34.5586 14.7878 34.5846 14.7224 34.6312 14.6731C34.6779 14.6237 34.7417 14.5941 34.8095 14.5903H147.107C147.143 14.5882 147.179 14.5936 147.213 14.606C147.247 14.6184 147.278 14.6376 147.305 14.6625C147.331 14.6873 147.352 14.7173 147.366 14.7505C147.38 14.7837 147.388 14.8195 147.388 14.8557C147.388 14.8918 147.38 14.9276 147.366 14.9609C147.352 14.9941 147.331 15.024 147.305 15.0489C147.278 15.0737 147.247 15.0929 147.213 15.1053C147.179 15.1178 147.143 15.1231 147.107 15.1211Z" fill="black"/>
<path d="M193.004 101.946C192.947 126.152 173.313 145.767 149.086 145.767C124.879 145.767 105.226 126.173 105.17 101.946H124.118C124.175 115.697 135.324 126.818 149.086 126.818C162.835 126.818 173.998 115.709 174.055 101.946H193.004Z" fill="#362B42"/>
<path d="M180.182 70.8445L166.788 84.2422C164.47 81.9064 161.713 80.0533 158.674 78.7903C155.636 77.5274 152.377 76.8795 149.086 76.8842C135.296 76.8842 124.118 88.06 124.118 101.853V101.944H105.17V101.853C105.17 89.7453 110.065 78.7889 117.991 70.8419C135.135 53.6525 163.002 53.6154 180.182 70.8445Z" fill="#362B42"/>
<path d="M193.004 99.4905C192.947 123.699 173.311 143.311 149.086 143.311C124.879 143.311 105.226 123.717 105.17 99.4905H124.118C124.175 113.241 135.324 124.363 149.086 124.363C162.835 124.363 173.998 113.254 174.055 99.4905H193.004Z" fill="#FF4654"/>
<path d="M127.107 111.797C126.933 111.492 127.396 111.229 127.568 111.537C136.534 127.402 158.983 128.426 169.377 113.492C169.574 113.205 170.013 113.506 169.812 113.796C159.214 129.026 136.27 128.014 127.107 111.797Z" fill="black"/>
<path d="M180.182 68.3898L166.788 81.7892C164.47 79.4535 161.713 77.6006 158.674 76.3377C155.636 75.0749 152.377 74.4272 149.086 74.4321C135.297 74.4321 124.118 85.6079 124.118 99.4005V99.4908H105.17V99.4005C105.17 87.2931 110.065 76.3368 117.991 68.3898C135.135 51.197 163.002 51.1616 180.182 68.3898Z" fill="#927BF4"/>
<path d="M124.885 62.4317C139.237 53.0172 157.271 53.0501 171.247 61.1659C171.551 61.3431 171.281 61.8005 170.98 61.625C156.918 53.456 139.119 53.7235 125.177 62.8722C124.883 63.068 124.593 62.6241 124.885 62.4317Z" fill="black"/>
<path d="M196.121 102.899L172.661 105.937C172.598 105.641 173.425 93.8415 163.658 84.0253V80.9814L166.17 81.5139L180.253 67.4385C190.063 77.2691 196.121 87.9089 196.121 102.899Z" fill="#362B42"/>
<path d="M172.661 102.899H196.121C196.205 88.7966 190.658 74.8343 180.256 64.397L163.668 80.9855C169.246 86.5966 172.677 94.3022 172.661 102.899Z" fill="#FFC520"/>
<path d="M195.978 99.0332C195.911 99.0332 195.846 99.0077 195.797 98.962C195.748 98.9163 195.718 98.8537 195.713 98.7868C195.23 92.072 193.487 85.5083 190.575 79.4387C190.422 79.1214 190.902 78.8935 191.052 79.2092C193.994 85.3385 195.755 91.9669 196.243 98.7479C196.248 98.8182 196.225 98.8877 196.179 98.941C196.133 98.9943 196.068 99.0272 195.997 99.0324L195.978 99.0332Z" fill="black"/>
<path d="M127.809 70.5347L117.361 57.5901H101.91C101.559 57.5901 101.559 57.0593 101.91 57.0593H117.487C117.527 57.0593 117.566 57.0683 117.602 57.0855C117.638 57.1027 117.669 57.1278 117.694 57.1589L128.223 70.2014C128.443 70.4739 128.03 70.8081 127.809 70.5347Z" fill="black"/>
<path d="M184.976 81.6591C184.926 81.6589 184.877 81.6447 184.835 81.618C184.792 81.5912 184.759 81.5531 184.737 81.508C184.715 81.4629 184.707 81.4125 184.713 81.3628C184.718 81.3131 184.738 81.266 184.769 81.227L195.299 68.1837C195.323 68.1528 195.355 68.1279 195.39 68.1108C195.426 68.0937 195.465 68.0849 195.505 68.085H208.728C209.079 68.085 209.08 68.6158 208.728 68.6158H195.63L185.18 81.5595C185.156 81.5902 185.125 81.6151 185.089 81.6323C185.054 81.6495 185.015 81.6587 184.976 81.6591Z" fill="black"/>
<path d="M114.833 142H98.3082C97.9572 142 97.9572 141.469 98.3082 141.469H114.707L125.156 128.526C125.379 128.252 125.789 128.587 125.57 128.858L115.04 141.902C115.015 141.932 114.984 141.957 114.948 141.974C114.912 141.991 114.873 142 114.833 142Z" fill="black"/>
<path d="M107.621 53.1892H94.0254V61.9362H107.621V53.1892Z" fill="#927BF4"/>
<path d="M218.783 63.803H204.154V73.215H218.783V63.803Z" fill="#FFC520"/>
<path d="M105.414 137.629H91.7734V146.405H105.414V137.629Z" fill="#FF4654"/>
<path d="M159.093 62.2663C155.226 60.3751 150.612 59.8874 146.434 60.927C146.09 61.0114 145.967 60.4958 146.306 60.4114C150.61 59.3422 155.352 59.8443 159.328 61.7895C159.641 61.9431 159.411 62.4191 159.093 62.2663Z" fill="black"/>
<path d="M146.429 62.2859C147.528 61.7736 148.779 61.6967 149.932 62.0707C150.269 62.1812 150.1 62.6834 149.763 62.577C148.739 62.2454 147.627 62.3135 146.651 62.7677C146.341 62.9171 146.109 62.4361 146.429 62.2859Z" fill="black"/>
<path d="M162.36 137.944C167.592 136.605 172.29 133.7 175.825 129.619C176.052 129.353 176.457 129.697 176.228 129.965C172.621 134.129 167.828 137.093 162.49 138.459C162.148 138.546 162.015 138.03 162.36 137.944Z" fill="black"/>
<path d="M161.955 135.393C163.38 134.854 164.667 134.005 165.721 132.906C165.961 132.652 166.348 133.018 166.104 133.273C164.994 134.43 163.639 135.324 162.138 135.889C161.813 136.013 161.627 135.516 161.955 135.393Z" fill="black"/>
<path d="M192.642 94.6155C192.574 94.6156 192.508 94.5893 192.459 94.5421C192.41 94.4949 192.38 94.4305 192.377 94.3623C192.272 92.2804 191.66 90.2556 190.596 88.4635C190.416 88.1597 190.873 87.8921 191.052 88.1917C192.161 90.0584 192.798 92.167 192.909 94.3353C192.912 94.4058 192.887 94.4746 192.84 94.5268C192.792 94.579 192.726 94.6103 192.656 94.6138L192.642 94.6155Z" fill="black"/>
<path d="M191.233 94.606L190.597 92.2887C190.504 91.9511 191.019 91.8093 191.109 92.1486L191.744 94.4651C191.837 94.8052 191.324 94.9427 191.233 94.606Z" fill="black"/>
<path d="M214.11 67.9061L207.858 67.8006C207.824 67.8 207.789 67.7926 207.757 67.7787C207.725 67.7649 207.696 67.7448 207.672 67.7197C207.648 67.6946 207.629 67.665 207.616 67.6325C207.603 67.6001 207.597 67.5654 207.598 67.5305C207.604 67.4621 207.635 67.3982 207.684 67.3503C207.733 67.3025 207.798 67.2739 207.867 67.2698L214.112 67.3753C214.18 67.3796 214.243 67.4097 214.289 67.4594C214.336 67.5092 214.361 67.5747 214.361 67.6427C214.36 67.7106 214.334 67.7758 214.287 67.8247C214.239 67.8737 214.175 67.9028 214.108 67.9061H214.11Z" fill="black"/>
<path d="M207.686 70.1432C207.338 70.1432 207.335 69.6166 207.686 69.6124L210.791 69.5769C211.141 69.5769 211.142 70.1043 210.791 70.1077L207.69 70.1432H207.686Z" fill="black"/>
<path d="M103.67 56.6038L97.3404 56.3793C97.0029 56.3675 96.9877 55.84 97.3598 55.8485L103.682 56.073C103.75 56.0778 103.814 56.1085 103.86 56.1587C103.905 56.2088 103.93 56.2747 103.929 56.3428C103.928 56.4108 103.901 56.4758 103.853 56.5243C103.805 56.5729 103.741 56.6013 103.673 56.6038H103.67Z" fill="black"/>
<path d="M99.8331 58.7676C99.0721 58.5518 98.2741 58.4988 97.4913 58.6123C97.136 58.657 97.0693 58.138 97.4145 58.0866C98.272 57.9619 99.1462 58.0195 99.98 58.2553C100.318 58.3549 100.165 58.8663 99.8331 58.7676Z" fill="black"/>
<path d="M100.067 141.154H94.4313C94.0802 141.154 94.0802 140.623 94.4313 140.623H100.067C100.418 140.623 100.418 141.154 100.067 141.154Z" fill="black"/>
<path d="M96.1447 143.719L94.5016 143.635C94.4666 143.633 94.4322 143.625 94.4005 143.61C94.3687 143.595 94.3403 143.574 94.3167 143.548C94.2932 143.522 94.275 143.492 94.2633 143.459C94.2516 143.426 94.2465 143.391 94.2484 143.356C94.2532 143.285 94.285 143.22 94.3371 143.173C94.3892 143.125 94.4575 143.1 94.5278 143.102L96.1548 143.187C96.2251 143.189 96.2918 143.218 96.3402 143.269C96.3887 143.32 96.4149 143.388 96.4131 143.459C96.4113 143.529 96.3816 143.596 96.3307 143.644C96.2797 143.692 96.2116 143.719 96.1413 143.717L96.1447 143.719Z" fill="black"/>
<path d="M74.3194 51.7673H20.612C19.2352 51.7673 18.1191 52.8834 18.1191 54.2602V70.4428C18.1191 71.8196 19.2352 72.9357 20.612 72.9357H74.3194C75.6962 72.9357 76.8123 71.8196 76.8123 70.4428V54.2602C76.8123 52.8834 75.6962 51.7673 74.3194 51.7673Z" fill="#FFC520"/>
<path d="M54.9032 73.2015H20.6114C19.8802 73.2004 19.1792 72.9093 18.6622 72.3922C18.1452 71.8751 17.8544 71.174 17.8535 70.4428V60.9169C17.8535 60.5658 18.3843 60.5658 18.3843 60.9169V70.4428C18.385 71.0333 18.6198 71.5995 19.0373 72.0171C19.4548 72.4348 20.0209 72.6698 20.6114 72.6707H54.9032C55.2543 72.6707 55.2551 73.2015 54.9032 73.2015Z" fill="black"/>
<path d="M70.6152 52.0323H47.2535C46.9025 52.0323 46.9025 51.5015 47.2535 51.5015H70.6135C70.9671 51.4989 70.9671 52.0323 70.6152 52.0323Z" fill="black"/>
<path d="M88.6873 90.6922H72.6051C72.254 90.6922 72.254 90.1614 72.6051 90.1614H88.6873C89.0383 90.1614 89.0392 90.6922 88.6873 90.6922Z" fill="black"/>
<path d="M49.2223 90.6922H18.1188C17.7677 90.6922 17.7677 90.1614 18.1188 90.1614H49.2223C49.5734 90.1614 49.5734 90.6922 49.2223 90.6922Z" fill="black"/>
<path d="M88.6881 101.002H18.1188C17.7677 101.002 17.7677 100.471 18.1188 100.471H88.6881C89.0392 100.471 89.04 101.002 88.6881 101.002Z" fill="black"/>
<path d="M88.6871 111.312H39.9097C39.8736 111.314 39.8374 111.309 39.8035 111.296C39.7695 111.284 39.7384 111.265 39.7121 111.24C39.6859 111.215 39.6649 111.185 39.6506 111.152C39.6363 111.119 39.6289 111.083 39.6289 111.047C39.6289 111.01 39.6363 110.975 39.6506 110.941C39.6649 110.908 39.6859 110.878 39.7121 110.853C39.7384 110.829 39.7695 110.809 39.8035 110.797C39.8374 110.785 39.8736 110.779 39.9097 110.781H88.6871C89.0381 110.781 89.039 111.312 88.6871 111.312Z" fill="black"/>
<path d="M26.9662 111.312H18.1188C17.7677 111.312 17.7677 110.781 18.1188 110.781H26.9662C27.3173 110.781 27.3173 111.312 26.9662 111.312Z" fill="black"/>
<path d="M53.403 121.622H18.1188C17.7677 121.622 17.7677 121.091 18.1188 121.091H53.403C53.4391 121.089 53.4753 121.094 53.5093 121.107C53.5432 121.119 53.5743 121.138 53.6006 121.163C53.6269 121.188 53.6478 121.218 53.6621 121.251C53.6764 121.284 53.6838 121.32 53.6838 121.356C53.6838 121.393 53.6764 121.428 53.6621 121.462C53.6478 121.495 53.6269 121.525 53.6006 121.55C53.5743 121.574 53.5432 121.594 53.5093 121.606C53.4753 121.619 53.4391 121.624 53.403 121.622Z" fill="black"/>
<path d="M66.7075 192.764C78.988 180.484 78.988 160.573 66.7075 148.293C54.427 136.012 34.5163 136.012 22.2358 148.293C9.95531 160.573 9.95532 180.484 22.2358 192.764C34.5163 205.045 54.427 205.045 66.7075 192.764Z" fill="black"/>
<path d="M65.6228 187.664C55.0665 201.455 35.3268 204.077 21.5384 193.521C7.74992 182.965 5.1254 163.225 15.6817 149.437C26.2381 135.648 45.9777 133.024 59.7661 143.58C73.5546 154.136 76.1791 173.873 65.6228 187.664Z" fill="#FFC520"/>
<path d="M9.41673 174.02C8.66633 169.701 8.81683 165.274 9.85881 161.015C10.9008 156.757 12.8117 152.76 15.4717 149.276C26.8525 134.408 48.6217 132.522 62.4035 145.47C62.6566 145.71 62.2963 146.098 62.0397 145.857C48.5103 133.14 27.0964 134.962 15.8937 149.598C13.278 153.024 11.3988 156.954 10.3741 161.141C9.34937 165.329 9.20129 169.682 9.9391 173.929C9.99986 174.274 9.4758 174.367 9.41673 174.02Z" fill="#362B42"/>
<path d="M24.9938 189.011C13.6855 180.356 11.5361 164.201 20.1937 152.893C28.8301 141.611 45.0338 139.458 56.3125 148.093C67.5912 156.729 69.7474 172.933 61.1118 184.212C56.9584 189.638 50.8198 193.192 44.0463 194.092C37.2728 194.992 30.4191 193.164 24.9929 189.011H24.9938ZM40.6836 143.324C33.0885 143.324 25.5778 146.729 20.6148 153.212C12.137 164.287 14.2383 180.111 25.3153 188.589C36.3923 197.068 52.2146 194.967 60.6941 183.89C69.1516 172.84 67.0427 156.969 55.9936 148.512C51.6016 145.142 46.2192 143.319 40.6836 143.324Z" fill="#362B42"/>
<path d="M60.6588 175.384C59.2242 174.984 57.7161 175.792 57.3161 177.221C57.31 177.248 57.2982 177.273 57.2815 177.295C57.2563 177.328 57.2215 177.353 57.1818 177.365C57.142 177.378 57.0994 177.378 57.0596 177.366C57.0341 177.36 57.0101 177.349 56.9895 177.334C56.9562 177.308 56.9314 177.273 56.9182 177.233C56.9049 177.193 56.9039 177.15 56.9153 177.109C57.3203 175.679 56.4503 174.209 55.0157 173.807C54.7515 173.733 54.8646 173.329 55.1279 173.407C56.5726 173.81 58.0723 172.985 58.468 171.566C58.483 171.513 58.5185 171.468 58.5666 171.441C58.6147 171.415 58.6715 171.408 58.7246 171.423C58.7776 171.438 58.8225 171.473 58.8494 171.521C58.8764 171.57 58.8831 171.626 58.8681 171.679C58.4672 173.114 59.3407 174.585 60.7719 174.984C61.0327 175.06 60.9331 175.464 60.6588 175.384Z" fill="white"/>
<path d="M59.9122 167.26C57.8986 166.7 57.2851 168.707 57.2302 168.779C57.2054 168.807 57.1721 168.825 57.1357 168.832C57.0993 168.838 57.0617 168.833 57.0287 168.816C56.9957 168.799 56.9691 168.772 56.9531 168.739C56.937 168.705 56.9324 168.668 56.94 168.631C57.2615 167.498 56.5729 166.33 55.4311 166.009C55.3971 165.991 55.3703 165.962 55.3552 165.927C55.3401 165.891 55.3377 165.851 55.3482 165.814C55.3588 165.777 55.3817 165.745 55.4132 165.723C55.4447 165.7 55.4829 165.69 55.5214 165.692C56.0667 165.849 56.652 165.784 57.1491 165.51C57.6461 165.236 58.0143 164.776 58.1729 164.231C58.1789 164.211 58.1881 164.191 58.1999 164.173C58.2248 164.146 58.258 164.127 58.2944 164.12C58.3308 164.114 58.3685 164.119 58.4015 164.136C58.4345 164.153 58.4611 164.18 58.4771 164.213C58.4931 164.247 58.4977 164.285 58.4902 164.321C58.1721 165.459 58.8657 166.627 60.0016 166.944C60.2067 167.003 60.1299 167.322 59.9122 167.26Z" fill="white"/>
<path d="M36.5804 180.306C38.1888 174.139 38.1838 174.27 40.0564 168.756C40.1686 168.424 40.6724 168.593 40.5627 168.925C38.7061 174.39 38.7061 174.257 37.0977 180.44C37.0057 180.781 36.4926 180.647 36.5804 180.306Z" fill="black"/>
<path d="M40.0565 168.921L35.8505 155.497C35.7442 155.16 36.2522 155.005 36.3568 155.339L40.4421 168.375L50.8221 159.494C51.0904 159.266 51.4339 159.67 51.1672 159.898L40.4835 169.04C40.4502 169.069 40.4104 169.089 40.3675 169.099C40.3246 169.108 40.2801 169.107 40.2377 169.095C40.1954 169.083 40.1567 169.061 40.1251 169.031C40.0935 169 40.0699 168.962 40.0565 168.921Z" fill="black"/>
<path d="M42.2138 172.473L36.623 170.87C36.2855 170.773 36.4323 170.263 36.7699 170.359L42.3607 171.967C42.6957 172.058 42.5607 172.571 42.2138 172.473Z" fill="black"/>
<path d="M41.4281 175.224L35.8364 173.62C35.4988 173.524 35.644 173.015 35.9832 173.114L41.5741 174.718C41.9116 174.811 41.7656 175.321 41.4281 175.224Z" fill="black"/>
</svg>
