<svg width="68" height="68" viewBox="0 0 68 68" fill="none" xmlns="http://www.w3.org/2000/svg">
<path d="M67.6602 37.1445V21.8867H61.1211V17.5273H65.4805V0.0898438H45.8633V8.80859H36.944C36.4928 7.54329 35.294 6.62891 33.875 6.62891C32.0724 6.62891 30.6055 8.09584 30.6055 9.89844C30.6055 11.3174 31.5198 12.5162 32.7852 12.9674V19.707H28.4258V32.7852H36.0547V39.3242H33.875V42.2014C33.875 42.7234 33.5404 43.1877 32.9563 43.4297C32.4102 43.6585 31.8392 43.5681 31.4664 43.1953L29.4415 41.1595L24.8119 45.7881L26.8466 47.8152C27.215 48.1814 27.3065 48.7666 27.0613 49.3508C26.8422 49.8804 26.3671 50.2227 25.8516 50.2227H22.8305L22.6115 48.6914C22.1003 45.1146 20.6072 41.7557 18.2946 38.9798C17.3257 37.8159 16.7307 36.3991 16.5301 34.9104C17.6004 34.785 18.6205 34.3218 19.3877 33.5557C20.2966 32.6478 20.7969 31.4392 20.7969 30.1543V28.1228L24.0664 27.033V26.2472C24.0664 22.5635 22.6932 19.3877 21.6687 17.5273H24.0664C25.2685 17.5273 26.2461 16.5498 26.2461 15.3477V13.168C26.2461 11.9659 25.2685 10.9883 24.0664 10.9883H23.8702L23.5923 9.60091C22.4905 4.08957 17.6113 0.0898438 11.9909 0.0898438C5.88672 0.0898438 0.825488 4.67046 0.217355 10.7442L0.0898438 12.0781V15.3477C0.0898438 15.861 0.276207 16.3274 0.573734 16.7002C0.25768 17.6047 0.0898438 18.5649 0.0898438 19.5196V19.973C0.0898438 23.5694 1.83686 26.9643 4.76418 29.0557L7.71875 31.1656V36.5135C6.68885 36.9593 5.81043 37.7113 5.20884 38.7074C4.72386 39.5084 4.4732 40.4762 4.4623 41.5039H4.44922V67.6602H22.9766V61.1222H24.7377L29.4415 65.826L31.4664 63.7901C31.8403 63.4163 32.4092 63.3248 33.0031 63.5754C33.5415 63.7977 33.875 64.262 33.875 64.7841V67.6602H40.4141V64.783C40.4141 64.2609 40.7486 63.7967 41.3328 63.5547C41.8777 63.3248 42.4499 63.4163 42.8226 63.789L44.8475 65.8249L49.4772 61.1963L47.4425 59.1703C47.0686 58.7965 46.9782 58.2265 47.2267 57.6336C47.4457 57.1039 47.9209 56.7617 48.4364 56.7617H51.3125V54.582H59.1419C59.5931 55.8473 60.792 56.7617 62.2109 56.7617C64.0135 56.7617 65.4805 55.2948 65.4805 53.4922C65.4805 52.0732 64.5661 50.8744 63.3008 50.4232V37.1445H67.6602ZM54.582 34.9648V24.0664H65.135L59.9691 30.0922L58.6221 28.7451L57.081 30.2861L60.0934 33.2985L65.4805 27.0123V34.9648H54.582ZM48.043 2.26953H63.3008V15.3477H48.043V2.26953ZM33.875 8.80859C34.4755 8.80859 34.9648 9.29684 34.9648 9.89844C34.9648 10.5 34.4755 10.9883 33.875 10.9883C33.2745 10.9883 32.7852 10.5 32.7852 9.89844C32.7852 9.29684 33.2745 8.80859 33.875 8.80859ZM30.6055 21.8867H38.3499L34.918 25.748L33.5557 24.3857L32.0146 25.9268L35.0117 28.9238L39.3242 24.0719V30.6055H30.6055V21.8867ZM20.4558 49.0009L20.6192 50.1464C18.336 49.7834 16.4996 48.019 16.1073 45.6736L15.3858 41.3699C16.0789 41.4429 16.7754 41.4865 17.4718 41.4941C19.04 43.7217 20.0678 46.2894 20.4558 49.0009ZM21.8627 25.469L18.6172 26.5513V28.4258H16.6947C15.607 28.4258 14.6294 27.8209 14.1434 26.8488L12.1936 27.8242C13.0524 29.5396 14.7766 30.6066 16.6947 30.6066H18.5736C18.482 31.1373 18.2357 31.6277 17.8467 32.0168C17.3562 32.5062 16.6784 32.7873 15.9863 32.7873L12.0781 32.7852V34.9648L14.3276 34.9659C14.4954 36.4797 15.0022 37.9368 15.8054 39.2294C15.4566 39.1967 15.1101 39.1433 14.7646 39.0932C13.8676 37.2818 12.016 36.0558 9.89844 36.0547V26.6973C9.89844 26.124 9.6663 25.5617 9.25979 25.1562L8.16994 24.0664C7.87896 23.7743 7.71875 23.3885 7.71875 22.9766C7.71875 22.375 8.20809 21.8867 8.80859 21.8867H9.89844V19.707C9.89844 18.5049 10.876 17.5273 12.0781 17.5273H19.1316C19.8476 18.6314 21.6361 21.7287 21.8627 25.469ZM24.0664 13.168V15.3477H2.26953L2.26626 13.168H24.0664ZM4.44922 10.9883H2.38396L2.38614 10.9621C2.46134 10.2112 2.62918 9.49411 2.86132 8.80859H4.44922V10.9883ZM13.168 10.9883H10.9883V6.62891H13.168V10.9883ZM21.4551 10.0281L21.647 10.9883H19.707V8.80859H21.1173C21.2524 9.20421 21.3712 9.60854 21.4551 10.0281ZM11.9909 2.26953C15.3073 2.26953 18.3011 3.98277 20.0471 6.62891H19.707C18.5049 6.62891 17.5273 7.6065 17.5273 8.80859V10.9883H15.3477V6.62891C15.3477 5.42681 14.3701 4.44922 13.168 4.44922H10.9883C9.78618 4.44922 8.80859 5.42681 8.80859 6.62891V10.9883H6.62891V8.80859C6.62891 7.6065 5.65132 6.62891 4.44922 6.62891H3.9152C5.6426 3.98495 8.62005 2.26953 11.9909 2.26953ZM6.03167 27.2825C3.67543 25.5998 2.26953 22.8665 2.26953 19.973V19.5196C2.26953 18.8461 2.38288 18.1693 2.5943 17.5273H8.32579C7.9498 18.1714 7.71875 18.9093 7.71875 19.707V19.8934C6.45017 20.3435 5.53906 21.5554 5.53906 22.9766C5.53906 23.9694 5.92596 24.9045 6.62891 25.6074L7.71875 26.6973V28.4879L6.03167 27.2825ZM7.07356 39.8354C7.6065 38.9515 8.49363 38.3782 9.52135 38.2573C9.62598 38.2431 9.76221 38.2344 9.89626 38.2344C11.5506 38.2344 12.9424 39.4768 13.144 41.177L13.957 46.0333C14.575 49.7246 17.741 52.4034 21.4846 52.4034L27.3316 52.4023V58.9414L19.4989 58.9425C13.5886 58.9425 8.48709 54.5352 7.63047 48.6903L6.65942 42.0586C6.56134 41.2293 6.70847 40.4391 7.07356 39.8354ZM20.7969 65.4805H6.62891V52.8557C8.90123 57.7578 13.8884 61.1222 19.4989 61.1222H20.7969V65.4805ZM49.1328 54.582H48.4364C47.036 54.582 45.7717 55.4528 45.1974 56.8358C44.6263 58.1949 44.9031 59.7174 45.9036 60.7135L46.3908 61.1985L44.8508 62.7384L44.3658 62.2523C43.3697 61.2508 41.8472 60.974 40.4511 61.5603C39.1052 62.1194 38.2344 63.3836 38.2344 64.783V65.4805H36.0547V64.783C36.0547 63.3836 35.1839 62.1194 33.802 61.545C32.4397 60.9718 30.9183 61.2497 29.9221 62.2513L29.4382 62.7373L27.7751 61.0742C28.7658 60.8693 29.5124 59.9898 29.5124 58.9403H31.825C33.2451 60.3266 35.1534 61.12 37.1467 61.12C41.3535 61.12 44.7756 57.6968 44.7756 53.4911C44.7756 49.2854 41.3535 45.8622 37.1467 45.8622C35.1338 45.8622 33.2211 46.661 31.7988 48.0637C31.6931 48.0528 31.5874 48.0419 31.4795 48.0419C30.6948 48.0419 29.9603 48.334 29.3761 48.8473C29.4132 47.8882 29.0764 46.9531 28.3876 46.2698L27.9005 45.7848L29.4404 44.2449L29.9254 44.7309C30.9226 45.7325 32.4451 46.0115 33.8401 45.423C35.1839 44.865 36.0547 43.6008 36.0547 42.2014V41.5039H38.2344V42.2014C38.2344 43.6008 39.1052 44.865 40.4871 45.4393C41.8483 46.0115 43.3708 45.7347 44.3669 44.7331L44.8508 44.247L46.3908 45.787L45.9047 46.2709C44.9042 47.2659 44.6263 48.7895 45.2126 50.1867C45.7717 51.5316 47.036 52.4023 48.4364 52.4023H49.1328V54.582ZM37.1434 50.2227H34.5463L34.3415 49.8129C34.2161 49.5622 34.0581 49.3366 33.8805 49.1328C34.8155 48.432 35.9566 48.043 37.1445 48.043C40.1492 48.043 42.5938 50.4875 42.5938 53.4922C42.5938 56.4969 40.1492 58.9414 37.1445 58.9414C36.7783 58.9414 36.4165 58.9011 36.0634 58.8292C38.5439 58.3191 40.4141 56.1198 40.4141 53.4922C40.4141 51.6896 38.9471 50.2227 37.1434 50.2227ZM32.3917 50.7883L33.1993 52.4023H37.1434C37.745 52.4023 38.2344 52.8906 38.2344 53.4922C38.2344 55.2948 36.7664 56.7617 34.9638 56.7617H29.5113V51.7637L30.7537 50.5224C31.2212 50.057 32.0975 50.1987 32.3917 50.7883ZM62.2109 54.582C61.6104 54.582 61.1211 54.0938 61.1211 53.4922C61.1211 52.8906 61.6104 52.4023 62.2109 52.4023C62.8114 52.4023 63.3008 52.8906 63.3008 53.4922C63.3008 54.0938 62.8114 54.582 62.2109 54.582ZM61.1211 50.4232C60.198 50.7523 59.4711 51.4792 59.1419 52.4023H51.3125V50.2227H48.4364C47.9209 50.2227 47.4457 49.8815 47.2071 49.305C46.9815 48.7666 47.073 48.1814 47.4425 47.8141L49.4772 45.7881L44.8475 41.1595L42.8226 43.1953C42.4488 43.5692 41.8799 43.6607 41.2859 43.41C40.7476 43.1877 40.4141 42.7234 40.4141 42.2014V39.3242H38.2344V32.7852H41.5039V21.6197L44.4988 18.251L42.8695 16.8037L40.2876 19.707H34.9648V12.9674C35.8879 12.6383 36.6149 11.9114 36.944 10.9883H45.8633V17.5273H58.9414V21.8867H52.4023V37.1445H61.1211V50.4232Z" fill="url(#paint0_linear_1168_1157)"/>
<path d="M53.4301 10.475L52.083 9.12792L50.542 10.669L53.5543 13.6813L60.8584 5.15762L59.2041 3.74082L53.4301 10.475Z" fill="url(#paint1_linear_1168_1157)"/>
<defs>
<linearGradient id="paint0_linear_1168_1157" x1="68.1866" y1="14.8599" x2="-20.7288" y2="22.2288" gradientUnits="userSpaceOnUse">
<stop stop-color="#FF36A5"/>
<stop offset="1" stop-color="#40FBFF"/>
</linearGradient>
<linearGradient id="paint1_linear_1168_1157" x1="68.1866" y1="14.8599" x2="-20.7288" y2="22.2288" gradientUnits="userSpaceOnUse">
<stop stop-color="#FF36A5"/>
<stop offset="1" stop-color="#40FBFF"/>
</linearGradient>
</defs>
</svg>
