<svg width="104" height="97" viewBox="0 0 104 97" fill="none" xmlns="http://www.w3.org/2000/svg">
<path d="M97.114 52.3723C95.9942 52.3723 94.9458 52.6831 94.0496 53.2223L85.2868 44.4595C85.0151 44.1878 84.6466 44.0353 84.2626 44.0353H70.981C70.0062 42.7938 70.0666 41.3245 70.4896 40.3034C70.9547 39.1803 72.1107 37.9802 73.9601 37.9802C75.6111 37.9802 76.9546 36.6369 76.9546 34.9857V34.0805H84.5276C85.1765 36.6706 87.5234 38.5949 90.3117 38.5949C93.5998 38.5949 96.2746 35.9199 96.2746 32.6321C96.2746 29.344 93.5996 26.6692 90.3117 26.6692C87.5231 26.6692 85.1765 28.5935 84.5276 31.1837H76.9546V30.2784C76.9546 28.6272 75.6113 27.284 73.9601 27.284C72.1107 27.284 70.9547 26.0839 70.4896 24.9607C70.0666 23.9396 70.0062 22.4703 70.981 21.2288H84.2626C84.6466 21.2288 85.0151 21.0763 85.2868 20.8047L94.0496 12.0418C94.9458 12.5811 95.9942 12.8918 97.1142 12.8918C100.402 12.8918 103.077 10.2169 103.077 6.929C103.077 3.64113 100.402 0.965942 97.114 0.965942C93.8262 0.965942 91.1512 3.64093 91.1512 6.92879C91.1512 8.04861 91.462 9.09704 92.0012 9.9934L83.6628 18.332H72.1463C72.0578 17.6896 71.7675 17.0953 71.3011 16.6289L67.9725 13.3005C67.4072 12.7348 66.655 12.4232 65.8551 12.4232C65.0552 12.4232 64.303 12.7346 63.7375 13.3003C62.4301 14.608 60.764 14.5767 59.6406 14.1116C58.5175 13.6465 57.3174 12.4904 57.3174 10.6408C57.3174 8.98966 55.9741 7.64637 54.323 7.64637H49.6157C47.9647 7.64637 46.6212 8.98966 46.6212 10.6408C46.6212 12.4902 45.4211 13.6465 44.2978 14.1116C43.1753 14.577 41.5088 14.608 40.2011 13.3003C39.6356 12.7348 38.8834 12.4232 38.0835 12.4232C37.2836 12.4232 36.5315 12.7348 35.9662 13.3003L32.6377 16.6287C32.1712 17.0953 31.8808 17.6894 31.7923 18.3318H20.2759L11.9374 9.99319C12.4764 9.09704 12.7874 8.04861 12.7874 6.92859C12.7872 3.64093 10.1122 0.965942 6.82418 0.965942C3.53611 0.965942 0.861328 3.64093 0.861328 6.92879C0.861328 10.2167 3.53631 12.8916 6.82418 12.8916C7.944 12.8916 8.99243 12.5809 9.88878 12.0416L18.6516 20.8044C18.9233 21.0761 19.2918 21.2286 19.6758 21.2286H32.9576C33.9322 22.4701 33.8718 23.9392 33.4491 24.9605C32.9839 26.0837 31.8277 27.2838 29.9783 27.2838C28.3273 27.2838 26.9838 28.627 26.9838 30.2782V31.1835H19.4108C18.7619 28.5933 16.4153 26.669 13.6269 26.669C10.3388 26.669 7.66404 29.344 7.66404 32.6319C7.66404 35.9197 10.339 38.5947 13.6269 38.5947C16.4153 38.5947 18.7619 36.6704 19.4108 34.0803H26.9838V34.9855C26.9838 36.6367 28.3271 37.98 29.9783 37.98C31.8277 37.98 32.9839 39.1801 33.4491 40.3032C33.872 41.3245 33.9324 42.7938 32.9576 44.0351H19.6758C19.2918 44.0351 18.9233 44.1876 18.6516 44.4593L9.88878 53.2221C8.99264 52.6829 7.9442 52.3721 6.82438 52.3721C3.53631 52.3723 0.861328 55.0473 0.861328 58.3351C0.861328 61.6232 3.53631 64.298 6.82418 64.298C10.112 64.298 12.787 61.623 12.787 58.3351C12.787 57.2153 12.4762 56.1669 11.937 55.271L20.2755 46.9321H31.7919C31.8804 47.5748 32.1707 48.1688 32.6371 48.6352L35.9657 51.9636C36.531 52.5291 37.2832 52.8407 38.0831 52.8407C38.883 52.8407 39.6352 52.5293 40.2007 51.9638C41.158 51.0065 42.2172 50.8302 42.9363 50.8538C43.8274 50.8809 44.6793 51.2204 45.3441 51.7944L45.346 70.8944C42.5665 70.2608 39.5462 70.3821 37.4897 73.5239C35.3239 76.8333 36.1439 81.2515 39.3562 83.5818C42.1959 85.6422 44.3309 87.4306 46.2146 89.0083C51.8505 93.7284 54.9551 96.3283 65.6097 96.9383C66.0256 96.9621 66.439 96.9741 66.8514 96.9739C72.1751 96.9737 77.1832 94.9991 81.0654 91.3429C85.3427 87.3147 87.805 81.633 87.8211 75.7391L87.7038 60.9143C87.7052 59.2149 87.0408 57.613 85.8329 56.4038C84.6251 55.1948 83.024 54.5287 81.3248 54.5277C81.3232 54.5277 81.3217 54.5277 81.3203 54.5277C79.6217 54.5277 78.0217 55.1925 76.8141 56.4001C76.6643 56.5499 76.5232 56.7055 76.3903 56.8667C76.2596 56.7082 76.1207 56.5551 75.9738 56.4075C74.7659 55.1965 73.1637 54.529 71.4623 54.5277C71.4606 54.5277 71.4594 54.5277 71.4579 54.5277C69.7602 54.5277 68.1599 55.1923 66.9524 56.399C66.8019 56.5495 66.66 56.7057 66.5265 56.8677C66.3945 56.7076 66.254 56.5526 66.1053 56.4038C64.8977 55.1952 63.297 54.529 61.5979 54.5279C61.5962 54.5279 61.595 54.5279 61.5935 54.5279C60.3398 54.5279 59.1289 54.9115 58.0861 55.625L58.0896 52.323C58.7118 51.5291 59.6593 50.9978 60.6932 50.88C61.8273 50.7511 62.9084 51.1358 63.7367 51.9643C64.3022 52.5298 65.0543 52.8412 65.8543 52.8412C66.6542 52.8412 67.4063 52.5295 67.9716 51.9643L71.3 48.6358C71.7666 48.1695 72.0569 47.5752 72.1455 46.9325H83.6619L92.0004 55.2714C91.4611 56.1675 91.1503 57.2157 91.1503 58.3356C91.1503 61.6236 93.8253 64.2984 97.1132 64.2984C100.401 64.2984 103.077 61.623 103.077 58.3351C103.077 55.0473 100.402 52.3723 97.114 52.3723ZM90.3115 29.566C92.0022 29.566 93.3776 30.9414 93.3776 32.6321C93.3776 34.3226 92.0022 35.6981 90.3115 35.6981C88.6208 35.6981 87.2455 34.3228 87.2455 32.6321C87.2453 30.9414 88.6208 29.566 90.3115 29.566ZM97.114 3.86274C98.8047 3.86274 100.18 5.2381 100.18 6.92879C100.18 8.61949 98.8047 9.99485 97.114 9.99485C95.4233 9.99485 94.048 8.61949 94.048 6.92879C94.048 5.2381 95.4233 3.86274 97.114 3.86274ZM6.82418 9.99505C5.13348 9.99505 3.75813 8.61949 3.75813 6.92879C3.75813 5.2381 5.13348 3.86274 6.82418 3.86274C8.51487 3.86274 9.89023 5.2381 9.89023 6.92879C9.89023 8.61949 8.51487 9.99505 6.82418 9.99505ZM13.6267 35.6981C11.936 35.6981 10.5606 34.3228 10.5606 32.6321C10.5606 30.9414 11.936 29.566 13.6267 29.566C15.3172 29.566 16.6925 30.9414 16.6925 32.6321C16.6927 34.3226 15.3172 35.6981 13.6267 35.6981ZM6.82418 61.4012C5.13348 61.4012 3.75813 60.0258 3.75813 58.3351C3.75813 56.6447 5.13348 55.2693 6.82418 55.2693C8.51487 55.2693 9.89023 56.6447 9.89023 58.3351C9.89044 60.0258 8.51487 61.4012 6.82418 61.4012ZM56.2375 30.045C55.03 28.8362 53.4291 28.1698 51.7297 28.1685C51.7281 28.1685 51.7268 28.1685 51.7254 28.1685C50.028 28.1685 48.4278 28.8329 47.2198 30.0394C46.0104 31.247 45.3439 32.8481 45.3429 34.5485L45.3435 40.1987C43.1864 38.3174 41.9154 35.5878 41.9154 32.6323C41.9154 27.0886 46.4255 22.5785 51.9693 22.5785C57.513 22.5785 62.0231 27.0886 62.0231 32.6323C62.0231 35.7898 60.5372 38.7187 58.1027 40.597L58.1091 34.556C58.1103 32.8564 57.4457 31.2542 56.2375 30.045ZM59.1755 58.4713C59.8482 57.7959 60.7069 57.4241 61.5939 57.4241H61.5964C62.5221 57.4247 63.3959 57.7895 64.0568 58.4508C64.7158 59.1102 65.0783 59.9801 65.0786 60.9009V60.9048V60.9077V60.9106C65.0788 61.7099 65.7266 62.358 66.5259 62.3586H66.527C67.3256 62.3586 67.9739 61.7116 67.9753 60.9127C67.9753 60.9087 67.9753 60.9052 67.9753 60.9013C67.9772 59.9778 68.3414 59.1069 69.0006 58.4481C69.6613 57.7879 70.534 57.4245 71.459 57.4245H71.4612C72.3882 57.4251 73.2626 57.7905 73.9235 58.4533C74.5803 59.1117 74.9419 59.9799 74.9424 60.8984V60.9071V60.9075V60.9114C74.943 61.7105 75.5906 62.3582 76.3897 62.3588H76.3908C77.1894 62.3588 77.8375 61.7122 77.8392 60.9133C77.8392 60.9083 77.8392 60.9032 77.8392 60.8982C77.8416 59.9764 78.205 59.1069 78.863 58.4485C79.5234 57.7883 80.3962 57.4247 81.3213 57.4247H81.324C82.2499 57.4251 83.1235 57.7899 83.7846 58.4514C84.4453 59.1129 84.8089 59.9867 84.808 60.9249L84.9253 75.747C84.9115 80.8333 82.7811 85.7496 79.0804 89.2347C75.4824 92.6229 70.7573 94.3301 65.7763 94.0469C56.0799 93.4915 53.4047 91.2512 48.0752 86.7879C46.1554 85.18 43.9791 83.3575 41.0581 81.2378C39.0984 79.8163 38.596 77.1248 39.9141 75.1109C40.4843 74.2398 41.1744 73.48 42.837 73.48C43.7014 73.48 44.8285 73.6853 46.3384 74.187C46.7807 74.3339 47.2653 74.2595 47.6427 73.9872C48.0201 73.7149 48.2436 73.2776 48.2436 72.8123L48.2397 34.55C48.2403 33.6244 48.6051 32.7506 49.2668 32.09C49.9279 31.4297 50.8011 31.0661 51.7256 31.0661H51.7278C52.6538 31.0668 53.5274 31.4316 54.1887 32.0931C54.8496 32.7546 55.2131 33.6288 55.2123 34.5539L55.1845 61.0143C55.1843 61.037 55.1843 61.06 55.1843 61.0828C55.1885 61.8802 55.8357 62.5241 56.6327 62.5241H56.6356C57.4337 62.5225 58.0803 61.8754 58.0811 61.0774V61.0248C58.0886 60.0918 58.4861 59.1638 59.1755 58.4713ZM69.2522 46.5868L65.9236 49.9154C65.9166 49.9224 65.895 49.944 65.8547 49.944C65.8141 49.944 65.7926 49.9224 65.7856 49.9152C64.3413 48.4709 62.3641 47.7732 60.3659 48.0012C59.568 48.0921 58.7993 48.3273 58.094 48.6807L58.0989 44.0421C62.2718 41.7977 64.9196 37.4178 64.9196 32.6321C64.9196 25.4911 59.1101 19.6815 51.9691 19.6815C44.8281 19.6815 39.0184 25.4913 39.0184 32.6321C39.0184 37.2446 41.4198 41.4305 45.3437 43.7618L45.3441 48.4459C44.6119 48.1512 43.8268 47.9826 43.025 47.9582C41.1976 47.9009 39.4703 48.5976 38.1524 49.9152C38.1454 49.9222 38.1239 49.944 38.0833 49.944C38.043 49.944 38.0214 49.9224 38.0144 49.9152L34.6856 46.5866C34.6785 46.5795 34.657 46.5582 34.657 46.5177C34.657 46.4771 34.6785 46.4558 34.6858 46.4486C36.6239 44.5102 37.1754 41.7307 36.1251 39.1948C35.0746 36.6588 32.7191 35.0834 29.9779 35.0834C29.9241 35.0834 29.8802 35.0395 29.8802 34.9857V30.2784C29.8802 30.2246 29.9241 30.1808 29.9779 30.1808C32.7191 30.1808 35.0746 28.6053 36.1251 26.0692C37.1754 23.533 36.6239 20.7538 34.6856 18.8154C34.6785 18.8083 34.657 18.7868 34.657 18.7465C34.657 18.7061 34.6785 18.6846 34.6858 18.6774L38.0144 15.3485C38.0214 15.3415 38.043 15.3202 38.0833 15.3202C38.1239 15.3202 38.1454 15.3417 38.1524 15.3487C40.0908 17.2871 42.8705 17.8385 45.4062 16.7882C47.9423 15.7377 49.5178 13.3824 49.5178 10.6412C49.5178 10.5874 49.5617 10.5436 49.6155 10.5436H54.3228C54.3765 10.5436 54.4204 10.5874 54.4204 10.6412C54.4204 13.3824 55.9959 15.7377 58.5318 16.7882C61.0681 17.839 63.8474 17.2871 65.7858 15.349C65.7928 15.3419 65.8143 15.3204 65.8549 15.3204C65.8952 15.3204 65.9168 15.3419 65.9238 15.349L69.2526 18.6776C69.2597 18.6846 69.2812 18.7061 69.2812 18.7465C69.2812 18.7868 69.2597 18.8083 69.2526 18.8156C67.3143 20.7538 66.7628 23.5332 67.8131 26.0694C68.8636 28.6055 71.2189 30.181 73.9601 30.181C74.0139 30.181 74.0578 30.2248 74.0578 30.2786V34.9859C74.0578 35.0397 74.0139 35.0836 73.9601 35.0836C71.2191 35.0836 68.8636 36.659 67.8131 39.195C66.7628 41.7309 67.3143 44.5106 69.2526 46.449C69.2597 46.456 69.2812 46.4775 69.2812 46.5179C69.2812 46.5582 69.2595 46.5795 69.2522 46.5868ZM97.114 61.4012C95.4233 61.4012 94.048 60.0258 94.048 58.3351C94.048 56.6447 95.4233 55.2693 97.114 55.2693C98.8047 55.2693 100.18 56.6447 100.18 58.3351C100.18 60.0258 98.8047 61.4012 97.114 61.4012Z" fill="url(#paint0_linear_1168_2039)"/>
<defs>
<linearGradient id="paint0_linear_1168_2039" x1="103.873" y1="21.9521" x2="-30.5094" y2="33.8092" gradientUnits="userSpaceOnUse">
<stop stop-color="#FF36A5"/>
<stop offset="1" stop-color="#40FBFF"/>
</linearGradient>
</defs>
</svg>
