<svg width="68" height="68" viewBox="0 0 68 68" fill="none" xmlns="http://www.w3.org/2000/svg">
<path d="M19.5944 23.6864L33.2857 29.0101C33.4238 29.0638 33.5695 29.0907 33.7153 29.0907C33.8611 29.0907 34.0066 29.0638 34.1449 29.0101L47.8365 23.6864C48.292 23.5093 48.5921 23.0706 48.5921 22.5817V6.77214C48.5921 6.28328 48.292 5.84459 47.8363 5.66745L34.1447 0.343906C33.8684 0.236439 33.5621 0.236439 33.2857 0.343906L19.5945 5.66745C19.1388 5.84459 18.8387 6.28328 18.8387 6.77214V22.5817C18.8387 23.0706 19.1388 23.5093 19.5944 23.6864ZM21.2092 8.50465L23.3444 9.33488V12.7577C23.3444 13.2647 23.6668 13.7153 24.1464 13.8794L28.8263 15.4788C28.9513 15.5215 29.0808 15.5424 29.2096 15.5424C29.4538 15.5424 29.6953 15.4669 29.899 15.3213C30.2102 15.0987 30.3949 14.7397 30.3949 14.3571V12.0763L32.53 12.9066V26.1726L21.2092 21.7707V8.50465ZM33.7153 10.8241L32.4535 10.3334L42.8743 6.28143L44.1361 6.77228L33.7153 10.8241ZM25.7149 10.2566L28.0243 11.1546V12.6994L25.7149 11.9101V10.2566ZM29.1827 9.06174L27.827 8.53454L38.2478 4.48269L39.6035 5.00975L29.1827 9.06174ZM34.9006 26.1726V12.9066L46.2216 8.50465V21.7707L34.9006 26.1726ZM33.7153 2.72029L34.9772 3.211L24.5565 7.26286L23.2947 6.77228L33.7153 2.72029ZM23.2154 57.931L26.3237 54.823C26.546 54.6007 26.6708 54.2992 26.6708 53.9849C26.6708 53.6705 26.546 53.369 26.3237 53.1469L25.4231 52.2462C25.8902 51.4107 26.2558 50.5288 26.5162 49.6094H27.7888C28.4435 49.6094 28.9741 49.0788 28.9741 48.4241V44.0287C28.9741 43.374 28.4435 42.8434 27.7888 42.8434H26.5162C26.2557 41.9236 25.8904 41.0419 25.4232 40.2065L26.3237 39.3061C26.7866 38.8431 26.7866 38.0927 26.3237 37.6298L23.2157 34.5217C22.7529 34.0588 22.0025 34.0586 21.5394 34.5216L20.6389 35.4221C19.8034 34.9549 18.9214 34.5894 18.002 34.329V33.0564C18.002 32.4017 17.4714 31.8711 16.8167 31.8711H12.4212C11.7667 31.8711 11.2359 32.4017 11.2359 33.0564V34.329C10.3163 34.5895 9.43442 34.955 8.59905 35.4221L7.69875 34.5217C7.47644 34.2994 7.17498 34.1744 6.86062 34.1744C6.54625 34.1744 6.24479 34.2993 6.02248 34.5216L2.91425 37.6297C2.69194 37.852 2.56709 38.1536 2.56709 38.4678C2.56709 38.782 2.69194 39.0836 2.91425 39.3059L3.81468 40.2064C3.34741 41.0421 2.98194 41.9239 2.72157 42.8432H1.44896C0.794288 42.8432 0.263672 43.3739 0.263672 44.0285V48.424C0.263672 49.0787 0.794288 49.6093 1.44896 49.6093H2.72157C2.98194 50.5289 3.34754 51.4111 3.81455 52.2463L2.91425 53.1467C2.45146 53.6097 2.45146 54.3601 2.91425 54.823L6.02235 57.9311C6.24466 58.1534 6.54612 58.2783 6.86049 58.2783C7.17485 58.2783 7.47631 58.1534 7.69862 57.931L8.59892 57.0305C9.43442 57.4977 10.3163 57.8633 11.2358 58.1238V59.3961C11.2358 60.0508 11.7665 60.5814 12.4211 60.5814H16.8166C17.4712 60.5814 18.0018 60.0508 18.0018 59.3961V58.1236C18.9216 57.8631 19.8035 57.4977 20.6389 57.0305L21.5392 57.931C22.0021 58.3938 22.7525 58.3938 23.2154 57.931ZM20.1592 54.547C19.0694 55.2743 17.8669 55.7729 16.5849 56.0284C16.0306 56.1389 15.6314 56.6256 15.6314 57.1908V58.2108H13.6065V57.191C13.6065 56.6257 13.2073 56.1391 12.653 56.0286C11.3717 55.7732 10.169 55.2746 9.07856 54.5468C8.6084 54.2331 7.98217 54.2949 7.58246 54.6947L6.86049 55.4167L5.42865 53.9849L6.15063 53.2628C6.55033 52.8632 6.6121 52.2368 6.29826 51.7667C5.57089 50.677 5.07241 49.4744 4.81678 48.1923C4.70628 47.638 4.21965 47.2388 3.6544 47.2388H2.63426V45.214H3.6544C4.21965 45.214 4.70628 44.8148 4.81678 44.2603C5.07201 42.9793 5.57049 41.7769 6.29839 40.6859C6.6121 40.2158 6.5502 39.5896 6.1505 39.1899L5.42852 38.4679L6.86035 37.0361L7.58233 37.7581C7.98217 38.158 8.60853 38.2198 9.07843 37.9058C10.1684 37.1785 11.3709 36.6799 12.6529 36.4244C13.2072 36.3137 13.6064 35.8272 13.6064 35.262V34.2418H15.6313V35.262C15.6313 35.8272 16.0306 36.3139 16.5849 36.4244C17.8662 36.6796 19.0686 37.1782 20.1592 37.906C20.6292 38.2197 21.2556 38.158 21.6552 37.7582L22.3773 37.0361L23.8091 38.4679L23.087 39.1899C22.6873 39.5896 22.6255 40.216 22.9392 40.686C23.6668 41.776 24.1652 42.9785 24.4209 44.2605C24.5314 44.8148 25.018 45.214 25.5832 45.214H26.6034V47.2388H25.5832C25.018 47.2388 24.5314 47.638 24.4209 48.1923C24.1654 49.4738 23.6669 50.6763 22.9392 51.7667C22.6255 52.2368 22.6873 52.8631 23.087 53.2626L23.8091 53.9847L22.3772 55.4166L21.6552 54.6946C21.2557 54.295 20.6292 54.2332 20.1592 54.547ZM14.6189 38.1927C10.1892 38.1927 6.58523 41.7965 6.58523 46.2263C6.58523 50.6562 10.1892 54.26 14.6189 54.26C19.0486 54.26 22.6525 50.6562 22.6525 46.2263C22.6525 41.7965 19.0486 38.1927 14.6189 38.1927ZM14.6189 51.8894C11.4963 51.8894 8.95582 49.3489 8.95582 46.2263C8.95582 43.1037 11.4963 40.5633 14.6189 40.5633C17.7415 40.5633 20.282 43.1037 20.282 46.2263C20.282 49.3489 17.7415 51.8894 14.6189 51.8894ZM48.7748 38.1363C50.6293 37.0657 52.6877 36.5229 54.7732 36.525L54.425 36.1247C53.9954 35.6309 54.0474 34.8822 54.5413 34.4526C55.0353 34.023 55.7839 34.0751 56.2135 34.5688L58.628 37.3443C58.8523 37.6021 58.9544 37.9442 58.9081 38.2826C58.8619 38.6212 58.6719 38.9234 58.3866 39.1115L55.3162 41.1379C55.1152 41.2705 54.8886 41.334 54.6644 41.334C54.2794 41.334 53.9019 41.1467 53.674 40.8014C53.3134 40.2551 53.4641 39.52 54.0105 39.1592L54.4013 38.9014C52.8558 38.9604 51.3377 39.3939 49.9601 40.1892C47.7294 41.4771 46.1337 43.5567 45.4671 46.0447C45.3338 46.542 45.2395 47.0543 45.1868 47.5673C45.1241 48.1773 44.6093 48.6316 44.0092 48.6316C43.9686 48.6316 43.9278 48.6294 43.8865 48.6252C43.2354 48.5582 42.7617 47.9761 42.8287 47.325C42.8943 46.6869 43.0117 46.0499 43.1773 45.4313C44.0078 42.3316 45.9958 39.7408 48.7748 38.1363ZM66.2082 56.7415L62.5973 57.4449C62.5221 57.4595 62.4463 57.4667 62.3707 57.4667C62.1099 57.4667 61.854 57.3806 61.6445 57.2182C61.3745 57.0088 61.2079 56.6933 61.1875 56.3522L60.9681 52.6799C60.9291 52.0264 61.427 51.4649 62.0805 51.426C62.7331 51.3828 63.2953 51.8849 63.3344 52.5383L63.3623 53.0056C64.0839 51.6376 64.4676 50.1061 64.4676 48.5154C64.4676 45.9395 63.4646 43.5179 61.6432 41.6967C61.2793 41.3328 60.8828 40.9951 60.4647 40.6929C59.9342 40.3094 59.815 39.5684 60.1985 39.0379C60.582 38.5074 61.323 38.3881 61.8535 38.7718C62.3734 39.1476 62.8666 39.5679 63.3193 40.0204C65.5883 42.2895 66.838 45.3065 66.838 48.5155C66.838 50.6567 66.2788 52.7108 65.2345 54.516L65.7548 54.4146C66.3976 54.2894 67.0196 54.7088 67.1449 55.3514C67.2701 55.9939 66.8508 56.6163 66.2082 56.7415ZM60.3455 57.9582C60.6131 58.5556 60.3458 59.2568 59.7484 59.5245C59.163 59.7867 58.5526 60.0038 57.9344 60.1693C56.8971 60.4472 55.8539 60.58 54.8277 60.58C50.553 60.58 46.5641 58.2771 44.4241 54.5772L44.2507 55.0817C44.0817 55.5729 43.622 55.8817 43.1299 55.8817C43.002 55.8817 42.8721 55.8609 42.7444 55.8171C42.1255 55.6042 41.7962 54.9298 42.009 54.3107L43.2054 50.8319C43.3165 50.5088 43.5616 50.2492 43.878 50.1202C44.1943 49.9911 44.551 50.0044 44.8566 50.1573L48.1465 51.8033C48.7319 52.0962 48.9691 52.8083 48.6762 53.3937C48.3833 53.9789 47.6713 54.2161 47.0858 53.9232L46.6717 53.7161C48.8683 57.1879 53.1479 58.9968 57.3208 57.8793C57.8177 57.7462 58.3085 57.5717 58.7794 57.3607C59.3767 57.0934 60.0779 57.3608 60.3455 57.9582ZM46.1736 62.1453C46.4431 62.7419 46.1778 63.4439 45.5812 63.7134C41.9357 65.3597 38.0403 66.1817 34.15 66.1817C30.9608 66.1817 27.7756 65.6271 24.7311 64.5245L25.1787 65.4772C25.4569 66.0696 25.2022 66.7755 24.6099 67.0539C24.4469 67.1304 24.2755 67.1666 24.1066 67.1666C23.6615 67.1666 23.2349 66.9147 23.033 66.485L21.2644 62.7201C21.1192 62.4109 21.1144 62.0539 21.2514 61.7409C21.3884 61.4278 21.6539 61.1892 21.9796 61.0861L25.9452 59.8311C26.5693 59.6333 27.2353 59.9796 27.4328 60.6034C27.6304 61.2275 27.2845 61.8937 26.6604 62.0911L25.7583 62.3766C31.8803 64.5296 38.6103 64.2603 44.6054 61.5527C45.2021 61.2834 45.9042 61.5489 46.1736 62.1453ZM50.0976 13.1667C50.4795 12.635 51.2202 12.5138 51.7517 12.8955C57.6635 17.1428 61.6198 23.4691 62.8794 30.5464L63.4806 29.6825C63.8546 29.1452 64.5935 29.013 65.1305 29.3869C65.6679 29.7609 65.8001 30.4995 65.4262 31.0368L63.05 34.4507C62.8548 34.7311 62.5481 34.9138 62.2084 34.9516C62.1645 34.9564 62.1207 34.9589 62.077 34.9589C61.7826 34.9589 61.4968 34.8492 61.2772 34.6484L58.2075 31.8416C57.7244 31.3999 57.6909 30.6501 58.1326 30.1671C58.5744 29.684 59.3241 29.6504 59.8071 30.0923L60.5053 30.7306C59.3088 24.3523 55.7105 18.6589 50.3684 14.8208C49.8371 14.4389 49.7157 13.6982 50.0976 13.1667ZM1.79784 33.6231C2.52021 26.3801 6.02077 19.7905 11.5199 15.1609L10.4714 15.0721C9.81911 15.0169 9.33511 14.4434 9.39043 13.7911C9.44561 13.1386 10.0188 12.6544 10.6715 12.7099L14.8162 13.0608C15.1566 13.0896 15.4681 13.264 15.6706 13.5391C15.8732 13.8144 15.9472 14.1635 15.8736 14.4971L14.9776 18.559C14.8555 19.1122 14.3654 19.4892 13.8213 19.4892C13.7368 19.4892 13.6509 19.4801 13.5649 19.4611C12.9256 19.3201 12.5217 18.6875 12.6628 18.0482L12.8665 17.1244C7.94095 21.3497 4.8094 27.3126 4.1567 33.8582C4.09572 34.4695 3.58038 34.9259 2.97865 34.9259C2.93927 34.9259 2.89963 34.9238 2.8596 34.9198C2.20834 34.8552 1.73291 34.2745 1.79784 33.6231Z" fill="url(#paint0_linear_1168_1177)"/>
<defs>
<linearGradient id="paint0_linear_1168_1177" x1="67.6882" y1="14.8876" x2="-20.3495" y2="22.1837" gradientUnits="userSpaceOnUse">
<stop stop-color="#FF36A5"/>
<stop offset="1" stop-color="#40FBFF"/>
</linearGradient>
</defs>
</svg>
