<svg width="70" height="68" viewBox="0 0 70 68" fill="none" xmlns="http://www.w3.org/2000/svg">
<path d="M16.1048 38.4181L18.592 38.909C18.8211 39.6836 19.1157 40.4472 19.4757 41.2L17.9702 43.2509C17.6648 43.6654 17.7084 44.2327 18.0575 44.6036L22.2902 49.0327C22.6393 49.4036 23.2066 49.4581 23.632 49.1745L25.7484 47.7563C26.4793 48.16 27.232 48.4872 27.9957 48.749L28.3666 51.2472C28.4429 51.7491 28.8684 52.1309 29.3811 52.1418L35.5011 52.2727H35.5229C36.0248 52.2727 36.4502 51.9236 36.5484 51.4327L37.0502 48.9345C37.8357 48.7054 38.6102 48.4 39.3629 48.04L40.9884 49.24C41.0102 49.2618 41.0648 49.2945 41.1084 49.3163L41.392 49.5345C41.7957 49.84 42.3739 49.7963 42.7448 49.4472L47.1739 45.2145C47.5448 44.8654 47.5993 44.2981 47.3266 43.8727L45.9302 41.7563C46.3229 41.0472 46.6611 40.2945 46.923 39.509L49.443 39.1163C49.9448 39.04 50.3157 38.6145 50.3266 38.1018L50.4793 31.9818C50.4902 31.469 50.1411 31.0218 49.6393 30.9236L47.1629 30.4218C46.9229 29.6145 46.6284 28.8509 46.2684 28.12L47.7739 26.08C48.0793 25.6654 48.0466 25.0981 47.6866 24.7272L43.4648 20.2981C43.1157 19.9272 42.5484 19.8727 42.1229 20.1454L40.0066 21.5636C39.2866 21.1709 38.5339 20.8436 37.7593 20.5709L37.3775 18.0618C37.3011 17.56 36.8757 17.1781 36.3629 17.1672L30.2429 17.0472C29.7302 17.0581 29.2939 17.3963 29.1957 17.8872L28.6939 20.3854C27.8975 20.6145 27.1229 20.92 26.392 21.28L24.352 19.7854C23.9375 19.48 23.3702 19.5236 23.0102 19.8727L18.5811 24.1054C18.2102 24.4545 18.1557 25.0218 18.4284 25.4472L19.8248 27.5527C19.6829 27.8036 19.552 28.0763 19.4211 28.36C19.2029 28.829 19.0066 29.309 18.832 29.8109L16.312 30.2036C15.8102 30.28 15.4393 30.7054 15.4284 31.2181L15.2757 37.3381C15.2429 37.8727 15.6029 38.32 16.1048 38.4181ZM17.4902 32.1672L19.7811 31.8072C20.1848 31.7418 20.512 31.4581 20.6211 31.0654C20.8066 30.4436 21.0357 29.8436 21.2975 29.2763C21.5157 28.8181 21.7229 28.4363 21.9302 28.0872C22.1484 27.7381 22.1375 27.3018 21.9084 26.9527L20.6429 25.0327L23.8066 22.0109L25.6611 23.3745C25.9884 23.6145 26.4248 23.6472 26.7848 23.4509C27.6684 22.96 28.6175 22.589 29.6975 22.2945C29.7411 22.2836 29.7848 22.2727 29.8393 22.2618C30.232 22.1636 30.5266 21.8472 30.6029 21.4545L31.0611 19.1854L35.4248 19.2727L35.7739 21.5527C35.8393 21.9563 36.1229 22.2836 36.5157 22.4036C37.5629 22.709 38.5666 23.1563 39.4939 23.7127C39.8429 23.92 40.2793 23.909 40.6175 23.6909L42.5375 22.4036L45.5375 25.5563L44.1629 27.4109C43.9229 27.7381 43.8902 28.1854 44.0866 28.5454C44.5993 29.4727 44.992 30.4981 45.2648 31.589C45.3629 31.9818 45.6793 32.2872 46.072 32.3636L48.3193 32.8218L48.2102 37.1854L45.9193 37.5454C45.5157 37.6109 45.1884 37.8945 45.0793 38.2872C44.763 39.3454 44.3266 40.349 43.7593 41.2545C43.5411 41.6036 43.552 42.04 43.7811 42.3781L45.0575 44.309L41.8939 47.3418L40.0502 45.9781C39.7229 45.7381 39.2866 45.7054 38.9266 45.9018C37.9557 46.4363 36.9302 46.829 35.872 47.08C35.4793 47.1781 35.1739 47.4945 35.0866 47.8872L34.6284 50.1672L30.2648 50.08L29.9266 47.8109C29.8611 47.4072 29.5775 47.069 29.1739 46.96C28.1484 46.6654 27.1448 46.2181 26.2066 45.64C25.8575 45.4327 25.4211 45.4327 25.072 45.6618L23.1411 46.96L20.1302 43.8072L21.5048 41.9418C21.7448 41.6145 21.7775 41.1781 21.5811 40.829C21.0575 39.8472 20.6648 38.8218 20.4139 37.7854C20.3157 37.3818 19.9993 37.0763 19.5957 37L17.3375 36.5527L17.4902 32.1672Z" fill="url(#paint0_linear_1168_1140)"/>
<path d="M29.7957 42.3345C30.7666 42.7272 31.792 42.9236 32.8611 42.9236C33.9193 42.9236 34.9448 42.7272 35.9157 42.3345C39.0793 41.0799 41.1193 38.069 41.1193 34.6654C41.1193 30.1163 37.4211 26.4181 32.872 26.4181C28.3229 26.4181 24.6248 30.1163 24.6248 34.6654C24.6139 38.0581 26.6539 41.069 29.7957 42.3345ZM32.872 28.5127C36.2648 28.5127 39.0248 31.2727 39.0248 34.6654C39.0248 37.2072 37.4975 39.4545 35.1411 40.3927C33.7229 40.9709 32.0211 40.9709 30.5811 40.3927C28.2357 39.4436 26.7084 37.1963 26.7084 34.6654C26.7193 31.2727 29.4793 28.5127 32.872 28.5127Z" fill="url(#paint1_linear_1168_1140)"/>
<path d="M68.9593 28.48C68.5666 28.3163 68.1193 28.4036 67.8139 28.709L59.4357 37.0872V10.589C59.4357 7.31632 56.7739 4.64359 53.4902 4.64359H50.872V3.32359C50.872 1.64359 49.5084 0.269043 47.8284 0.269043H47.7193C46.0393 0.269043 44.6757 1.63268 44.6757 3.32359V4.64359H40.5739V3.32359C40.5739 1.64359 39.2102 0.269043 37.4211 0.269043C35.7411 0.269043 34.3666 1.63268 34.3666 3.32359V4.64359H30.2648V3.32359C30.2648 1.64359 28.9011 0.269043 27.112 0.269043C25.432 0.269043 24.0575 1.63268 24.0575 3.32359V4.64359H19.9557V3.32359C19.9557 1.64359 18.592 0.269043 16.8029 0.269043C15.1229 0.269043 13.7484 1.63268 13.7484 3.32359V4.64359H11.1411C7.85749 4.64359 5.19567 7.30541 5.19567 10.5781V16.5127H3.62477C1.83567 16.5127 0.384766 17.9636 0.384766 19.7527V55.8181C0.384766 55.829 0.395675 55.8509 0.395675 55.8618C0.395675 55.9818 0.417493 56.0909 0.461129 56.2109C0.461129 56.2218 0.461129 56.2327 0.472038 56.2327V56.2436L5.31567 67.0763C5.35931 67.1854 5.43567 67.2836 5.51204 67.36C5.53386 67.3818 5.56658 67.4036 5.5884 67.4254C5.65386 67.4799 5.73022 67.5345 5.80658 67.5781C5.83931 67.589 5.87204 67.6109 5.90477 67.6218C6.02477 67.6654 6.14477 67.6981 6.26477 67.6981H68.5448C69.1229 67.6981 69.592 67.229 69.592 66.6509V29.44C69.6139 29.0254 69.352 28.6327 68.9593 28.48ZM46.792 3.32359C46.792 2.79995 47.2175 2.3745 47.7302 2.3745H47.8393C48.3629 2.3745 48.7775 2.79995 48.7775 3.32359V8.22177C48.7775 8.74541 48.352 9.17086 47.8393 9.17086H47.7302C47.2066 9.17086 46.792 8.74541 46.792 8.22177V3.32359ZM36.4939 3.32359C36.4939 2.79995 36.9193 2.3745 37.552 2.3745C38.0757 2.3745 38.5011 2.79995 38.5011 3.32359V5.65813C38.5011 5.66904 38.4902 5.67995 38.4902 5.69086C38.4902 5.70177 38.5011 5.71268 38.5011 5.72359V8.22177C38.5011 8.74541 38.0757 9.17086 37.443 9.17086C36.9193 9.17086 36.4939 8.74541 36.4939 8.22177V3.32359ZM26.1848 3.32359C26.1848 2.79995 26.6102 2.3745 27.2429 2.3745C27.7666 2.3745 28.192 2.79995 28.192 3.32359V8.22177C28.192 8.74541 27.7666 9.17086 27.1339 9.17086C26.6102 9.17086 26.1848 8.74541 26.1848 8.22177V3.32359ZM15.8866 3.32359C15.8866 2.79995 16.312 2.3745 16.9448 2.3745C17.4684 2.3745 17.8939 2.79995 17.8939 3.32359V5.65813C17.8939 5.66904 17.8829 5.67995 17.8829 5.69086C17.8829 5.70177 17.8939 5.71268 17.8939 5.72359V8.22177C17.8939 8.74541 17.4684 9.17086 16.8357 9.17086C16.312 9.17086 15.8866 8.74541 15.8866 8.22177V3.32359ZM7.32295 10.589C7.32295 8.47268 9.04658 6.74904 11.1739 6.74904H13.7811V8.23268C13.7811 9.91268 15.1448 11.2872 16.9339 11.2872C18.6139 11.2872 19.9884 9.92359 19.9884 8.23268V6.73813H24.0902V8.22177C24.0902 9.90177 25.4539 11.2763 27.2429 11.2763C28.9229 11.2763 30.2975 9.91268 30.2975 8.22177V6.73813H34.3993V8.22177C34.3993 9.90177 35.763 11.2763 37.552 11.2763C39.232 11.2763 40.6066 9.91268 40.6066 8.22177V6.73813H44.7084V8.22177C44.7084 9.90177 46.072 11.2763 47.752 11.2763H47.8611C49.5411 11.2763 50.9048 9.91268 50.9048 8.22177V6.73813H53.5229C55.6393 6.73813 57.3629 8.46177 57.3629 10.5781V39.1818L30.8975 65.6254H7.90113L12.0902 56.2654C12.1448 56.1345 12.1775 55.9927 12.1775 55.8509C12.1775 55.84 12.1775 55.84 12.1775 55.829V55.7636C12.1775 55.7527 12.1775 55.7527 12.1775 55.7418V19.7636C12.1775 17.9745 10.7266 16.5236 8.93749 16.5236H7.32295V10.589ZM10.072 27.1272V54.7818H7.33386V27.1272H10.072ZM2.49022 54.7818V27.1272H5.23931V54.7818H2.49022ZM9.50477 56.8872L6.67931 63.2036L6.27567 64.109L3.04658 56.8981H9.50477V56.8872ZM2.49022 19.7636C2.49022 19.1309 3.00295 18.6181 3.63567 18.6181H8.93749C9.57022 18.6181 10.0829 19.1309 10.0829 19.7636V25.0218H2.49022V19.7636ZM65.5448 65.6254V64.2945C65.5448 63.7163 65.0757 63.2472 64.4975 63.2472C63.9193 63.2472 63.4502 63.7163 63.4502 64.2945V65.6254H59.6539V64.2945C59.6539 63.7163 59.1848 63.2472 58.6066 63.2472C58.0284 63.2472 57.5593 63.7163 57.5593 64.2945V65.6254H53.763V64.2945C53.763 63.7163 53.2939 63.2472 52.7157 63.2472C52.1375 63.2472 51.6684 63.7163 51.6684 64.2945V65.6254H47.872V64.2945C47.872 63.7163 47.403 63.2472 46.8248 63.2472C46.2466 63.2472 45.7775 63.7163 45.7775 64.2945V65.6254H41.9811V64.2945C41.9811 63.7163 41.512 63.2472 40.9339 63.2472C40.3557 63.2472 39.8866 63.7163 39.8866 64.2945V65.6254H33.8866L67.5302 31.9818V40.0763H66.0684C65.4902 40.0763 65.0211 40.5454 65.0211 41.1236C65.0211 41.7018 65.4902 42.1709 66.0684 42.1709H67.5302V45.9672H66.0684C65.4902 45.9672 65.0211 46.4363 65.0211 47.0145C65.0211 47.5927 65.4902 48.0618 66.0684 48.0618H67.5302V51.8581H66.0684C65.4902 51.8581 65.0211 52.3272 65.0211 52.9054C65.0211 53.4836 65.4902 53.9527 66.0684 53.9527H67.5302V57.749H66.0684C65.4902 57.749 65.0211 58.2181 65.0211 58.7963C65.0211 59.3745 65.4902 59.8436 66.0684 59.8436H67.5302V65.6145H65.5448V65.6254Z" fill="url(#paint2_linear_1168_1140)"/>
<path d="M61.1702 45.9454C60.7775 45.7818 60.3302 45.869 60.0248 46.1745L48.0684 58.1418C47.7629 58.4472 47.6757 58.8945 47.8393 59.2872C48.0029 59.68 48.3848 59.9309 48.8102 59.9309H60.7775C61.3557 59.9309 61.8248 59.4618 61.8248 58.8836V46.9163C61.8139 46.4909 61.563 46.109 61.1702 45.9454ZM59.7193 57.8363H51.3302L59.7193 49.4581V57.8363Z" fill="url(#paint3_linear_1168_1140)"/>
<defs>
<linearGradient id="paint0_linear_1168_1140" x1="70.1325" y1="15.0082" x2="-20.9055" y2="22.7521" gradientUnits="userSpaceOnUse">
<stop stop-color="#FF36A5"/>
<stop offset="1" stop-color="#40FBFF"/>
</linearGradient>
<linearGradient id="paint1_linear_1168_1140" x1="70.1325" y1="15.0082" x2="-20.9055" y2="22.7521" gradientUnits="userSpaceOnUse">
<stop stop-color="#FF36A5"/>
<stop offset="1" stop-color="#40FBFF"/>
</linearGradient>
<linearGradient id="paint2_linear_1168_1140" x1="70.1325" y1="15.0082" x2="-20.9055" y2="22.7521" gradientUnits="userSpaceOnUse">
<stop stop-color="#FF36A5"/>
<stop offset="1" stop-color="#40FBFF"/>
</linearGradient>
<linearGradient id="paint3_linear_1168_1140" x1="70.1325" y1="15.0082" x2="-20.9055" y2="22.7521" gradientUnits="userSpaceOnUse">
<stop stop-color="#FF36A5"/>
<stop offset="1" stop-color="#40FBFF"/>
</linearGradient>
</defs>
</svg>
