<svg width="104" height="104" viewBox="0 0 104 104" fill="none" xmlns="http://www.w3.org/2000/svg">
<path d="M78.7625 48.2357H95.9555C96.3128 49.1375 96.9734 49.8865 97.8235 50.3537C98.6736 50.8208 99.66 50.9769 100.613 50.795C101.566 50.6131 102.425 50.1047 103.043 49.3573C103.662 48.6098 104 47.6702 104 46.7001C104 45.7301 103.662 44.7905 103.043 44.043C102.425 43.2956 101.566 42.7871 100.613 42.6053C99.66 42.4234 98.6736 42.5795 97.8235 43.0466C96.9734 43.5138 96.3128 44.2628 95.9555 45.1646H78.7625V37.6272H89.8448C90.252 37.627 90.6425 37.4651 90.9304 37.1772C91.2183 36.8893 91.3802 36.4988 91.3804 36.0916V25.9745H95.9555C96.3128 26.8763 96.9734 27.6253 97.8235 28.0925C98.6736 28.5597 99.66 28.7157 100.613 28.5339C101.566 28.352 102.425 27.8435 103.043 27.0961C103.662 26.3486 104 25.409 104 24.439C104 23.469 103.662 22.5293 103.043 21.7819C102.425 21.0344 101.566 20.526 100.613 20.3441C99.66 20.1622 98.6736 20.3183 97.8235 20.7855C96.9734 21.2526 96.3128 22.0016 95.9555 22.9034H89.8448C89.4377 22.9037 89.0472 23.0655 88.7593 23.3534C88.4714 23.6414 88.3095 24.0318 88.3093 24.439V34.5561H78.7625V26.773C78.7623 26.3658 78.6004 25.9754 78.3125 25.6875C78.0246 25.3996 77.6342 25.2377 77.227 25.2375H69.4439V15.6907H79.561C79.9682 15.6905 80.3586 15.5286 80.6466 15.2407C80.9345 14.9528 81.0963 14.5623 81.0966 14.1551V8.04452C81.9979 7.68724 82.7464 7.02685 83.2132 6.17709C83.6801 5.32733 83.836 4.34138 83.6541 3.38905C83.4722 2.43671 82.964 1.5776 82.2169 0.95966C81.4698 0.341723 80.5306 0.00364264 79.561 0.00364264C78.5915 0.00364264 77.6523 0.341723 76.9052 0.95966C76.1581 1.5776 75.6498 2.43671 75.4679 3.38905C75.2861 4.34138 75.442 5.32733 75.9088 6.17709C76.3756 7.02685 77.1242 7.68724 78.0255 8.04452V12.6196H67.9083C67.5012 12.6198 67.1107 12.7817 66.8228 13.0696C66.5349 13.3575 66.373 13.748 66.3728 14.1551V25.2375H58.8354V8.04539C59.7367 7.68812 60.4853 7.02773 60.9521 6.17797C61.4189 5.32821 61.5748 4.34226 61.3929 3.38993C61.2111 2.43759 60.7028 1.57847 59.9557 0.960537C59.2086 0.3426 58.2694 0.00452004 57.2999 0.00452004C56.3303 0.00452004 55.3911 0.3426 54.644 0.960537C53.8969 1.57847 53.3886 2.43759 53.2068 3.38993C53.0249 4.34226 53.1808 5.32821 53.6476 6.17797C54.1145 7.02773 54.863 7.68812 55.7643 8.04539V25.2375H48.2357V8.04452C49.1375 7.68722 49.8865 7.02662 50.3537 6.17651C50.8208 5.3264 50.9769 4.33998 50.795 3.38717C50.6131 2.43436 50.1047 1.5748 49.3573 0.956531C48.6098 0.338265 47.6702 0 46.7001 0C45.7301 0 44.7905 0.338265 44.043 0.956531C43.2956 1.5748 42.7871 2.43436 42.6053 3.38717C42.4234 4.33998 42.5795 5.3264 43.0466 6.17651C43.5138 7.02662 44.2628 7.68722 45.1646 8.04452V25.2375H37.6272V14.1551C37.627 13.748 37.4651 13.3575 37.1772 13.0696C36.8893 12.7817 36.4988 12.6198 36.0916 12.6196H25.9745V8.04452C26.8763 7.68722 27.6253 7.02662 28.0925 6.17651C28.5597 5.3264 28.7157 4.33998 28.5339 3.38717C28.352 2.43436 27.8435 1.5748 27.0961 0.956531C26.3486 0.338265 25.409 0 24.439 0C23.469 0 22.5293 0.338265 21.7819 0.956531C21.0344 1.5748 20.526 2.43436 20.3441 3.38717C20.1622 4.33998 20.3183 5.3264 20.7855 6.17651C21.2526 7.02662 22.0016 7.68722 22.9034 8.04452V14.1551C22.9037 14.5623 23.0655 14.9528 23.3534 15.2407C23.6414 15.5286 24.0318 15.6905 24.439 15.6907H34.5561V25.2375H26.773C26.3658 25.2377 25.9754 25.3996 25.6875 25.6875C25.3996 25.9754 25.2377 26.3658 25.2375 26.773V34.5561H15.6907V24.439C15.6905 24.0318 15.5286 23.6414 15.2407 23.3534C14.9528 23.0655 14.5623 22.9037 14.1551 22.9034H8.04539C7.68811 22.0019 7.02762 21.2531 6.17768 20.7861C5.32774 20.3191 4.34156 20.1631 3.38899 20.345C2.43641 20.5269 1.57707 21.0352 0.958973 21.7825C0.340871 22.5298 0.00269872 23.4692 0.00269872 24.439C0.00269872 25.4088 0.340871 26.3482 0.958973 27.0955C1.57707 27.8427 2.43641 28.3511 3.38899 28.533C4.34156 28.7148 5.32774 28.5588 6.17768 28.0918C7.02762 27.6249 7.68811 26.8761 8.04539 25.9745H12.6196V36.0916C12.6198 36.4988 12.7817 36.8893 13.0696 37.1772C13.3575 37.4651 13.748 37.627 14.1551 37.6272H25.2375V45.1646H8.04539C7.68812 44.2633 7.02773 43.5147 6.17797 43.0479C5.32821 42.5811 4.34226 42.4252 3.38993 42.607C2.43759 42.7889 1.57847 43.2972 0.960537 44.0443C0.3426 44.7914 0.00452004 45.7306 0.00452004 46.7001C0.00452004 47.6697 0.3426 48.6089 0.960537 49.356C1.57847 50.1031 2.43759 50.6114 3.38993 50.7932C4.34226 50.9751 5.32821 50.8192 6.17797 50.3524C7.02773 49.8855 7.68812 49.137 8.04539 48.2357H25.2375V55.7643H8.04452C7.68722 54.8625 7.02662 54.1135 6.17651 53.6463C5.3264 53.1792 4.33998 53.0231 3.38717 53.205C2.43436 53.3869 1.5748 53.8953 0.956531 54.6427C0.338265 55.3902 0 56.3298 0 57.2999C0 58.2699 0.338265 59.2095 0.956531 59.957C1.5748 60.7044 2.43436 61.2129 3.38717 61.3947C4.33998 61.5766 5.3264 61.4205 6.17651 60.9534C7.02662 60.4862 7.68722 59.7372 8.04452 58.8354H25.2375V66.3728H14.1551C13.748 66.373 13.3575 66.5349 13.0696 66.8228C12.7817 67.1107 12.6198 67.5012 12.6196 67.9083V78.0255H8.04452C7.68722 77.1237 7.02662 76.3747 6.17651 75.9075C5.3264 75.4403 4.33998 75.2843 3.38717 75.4661C2.43436 75.648 1.5748 76.1565 0.956531 76.9039C0.338265 77.6514 0 78.591 0 79.561C0 80.531 0.338265 81.4707 0.956531 82.2181C1.5748 82.9656 2.43436 83.474 3.38717 83.6559C4.33998 83.8378 5.3264 83.6817 6.17651 83.2145C7.02662 82.7474 7.68722 81.9984 8.04452 81.0966H14.1551C14.5623 81.0963 14.9528 80.9345 15.2407 80.6466C15.5286 80.3586 15.6905 79.9682 15.6907 79.561V69.4439H25.2375V77.227C25.2377 77.6342 25.3996 78.0246 25.6875 78.3125C25.9754 78.6004 26.3658 78.7623 26.773 78.7625H34.5561V88.3093H24.439C24.0318 88.3095 23.6414 88.4714 23.3534 88.7593C23.0655 89.0472 22.9037 89.4377 22.9034 89.8448V95.9555C22.0021 96.3128 21.2536 96.9731 20.7868 97.8229C20.3199 98.6727 20.164 99.6586 20.3459 100.611C20.5278 101.563 21.036 102.422 21.7831 103.04C22.5302 103.658 23.4694 103.996 24.439 103.996C25.4085 103.996 26.3477 103.658 27.0948 103.04C27.8419 102.422 28.3502 101.563 28.5321 100.611C28.7139 99.6586 28.558 98.6727 28.0912 97.8229C27.6244 96.9731 26.8759 96.3128 25.9745 95.9555V91.3804H36.0916C36.4988 91.3802 36.8893 91.2183 37.1772 90.9304C37.4651 90.6425 37.627 90.252 37.6272 89.8448V78.7625H45.1646V95.9546C44.2633 96.3119 43.5147 96.9723 43.0479 97.822C42.5811 98.6718 42.4252 99.6577 42.607 100.61C42.7889 101.562 43.2972 102.422 44.0443 103.039C44.7914 103.657 45.7306 103.995 46.7001 103.995C47.6697 103.995 48.6089 103.657 49.356 103.039C50.1031 102.422 50.6114 101.562 50.7932 100.61C50.9751 99.6577 50.8192 98.6718 50.3524 97.822C49.8855 96.9723 49.137 96.3119 48.2357 95.9546V78.7625H55.7643V95.9555C54.8625 96.3128 54.1135 96.9734 53.6463 97.8235C53.1792 98.6736 53.0231 99.66 53.205 100.613C53.3869 101.566 53.8953 102.425 54.6427 103.043C55.3902 103.662 56.3298 104 57.2999 104C58.2699 104 59.2095 103.662 59.957 103.043C60.7044 102.425 61.2129 101.566 61.3947 100.613C61.5766 99.66 61.4205 98.6736 60.9534 97.8235C60.4862 96.9734 59.7372 96.3128 58.8354 95.9555V78.7625H66.3728V89.8448C66.373 90.252 66.5349 90.6425 66.8228 90.9304C67.1107 91.2183 67.5012 91.3802 67.9083 91.3804H78.0255V95.9555C77.1239 96.3128 76.3751 96.9733 75.9081 97.8232C75.4412 98.6731 75.2852 99.6593 75.467 100.612C75.6489 101.564 76.1573 102.424 76.9045 103.042C77.6518 103.66 78.5912 103.998 79.561 103.998C80.5308 103.998 81.4702 103.66 82.2175 103.042C82.9648 102.424 83.4731 101.564 83.655 100.612C83.8369 99.6593 83.6809 98.6731 83.2139 97.8232C82.7469 96.9733 81.9981 96.3128 81.0966 95.9555V89.8448C81.0963 89.4377 80.9345 89.0472 80.6466 88.7593C80.3586 88.4714 79.9682 88.3095 79.561 88.3093H69.4439V78.7625H77.227C77.6342 78.7623 78.0246 78.6004 78.3125 78.3125C78.6004 78.0246 78.7623 77.6342 78.7625 77.227V69.4439H88.3093V79.561C88.3095 79.9682 88.4714 80.3586 88.7593 80.6466C89.0472 80.9345 89.4377 81.0963 89.8448 81.0966H95.9555C96.3128 81.9979 96.9731 82.7464 97.8229 83.2132C98.6727 83.6801 99.6586 83.836 100.611 83.6541C101.563 83.4722 102.422 82.964 103.04 82.2169C103.658 81.4698 103.996 80.5306 103.996 79.561C103.996 78.5915 103.658 77.6523 103.04 76.9052C102.422 76.1581 101.563 75.6498 100.611 75.4679C99.6586 75.2861 98.6727 75.442 97.8229 75.9088C96.9731 76.3756 96.3128 77.1242 95.9555 78.0255H91.3804V67.9083C91.3802 67.5012 91.2183 67.1107 90.9304 66.8228C90.6425 66.5349 90.252 66.373 89.8448 66.3728H78.7625V58.8354H95.9546C96.3119 59.7367 96.9723 60.4853 97.822 60.9521C98.6718 61.4189 99.6577 61.5748 100.61 61.3929C101.562 61.2111 102.422 60.7028 103.039 59.9557C103.657 59.2086 103.995 58.2694 103.995 57.2999C103.995 56.3303 103.657 55.3911 103.039 54.644C102.422 53.8969 101.562 53.3886 100.61 53.2068C99.6577 53.0249 98.6718 53.1808 97.822 53.6476C96.9723 54.1145 96.3119 54.863 95.9546 55.7643H78.7625V48.2357ZM99.8216 45.6033C100.039 45.6033 100.251 45.6676 100.431 45.7882C100.611 45.9087 100.752 46.08 100.835 46.2804C100.918 46.4808 100.94 46.7014 100.897 46.9141C100.855 47.1269 100.751 47.3223 100.597 47.4757C100.444 47.6291 100.248 47.7336 100.036 47.7759C99.8228 47.8182 99.6023 47.7965 99.4018 47.7135C99.2014 47.6305 99.0301 47.4899 98.9096 47.3095C98.7891 47.1291 98.7247 46.9171 98.7247 46.7001C98.7247 46.4091 98.8402 46.1299 99.0459 45.9239C99.2515 45.718 99.5305 45.602 99.8216 45.6016V45.6033ZM99.8216 23.343C100.039 23.343 100.251 23.4074 100.431 23.5279C100.611 23.6484 100.752 23.8197 100.835 24.0201C100.918 24.2205 100.94 24.4411 100.897 24.6538C100.855 24.8666 100.751 25.062 100.597 25.2154C100.444 25.3688 100.248 25.4733 100.036 25.5156C99.8228 25.5579 99.6023 25.5362 99.4018 25.4532C99.2014 25.3702 99.0301 25.2296 98.9096 25.0492C98.7891 24.8688 98.7247 24.6568 98.7247 24.4399C98.7247 24.1488 98.8402 23.8696 99.0459 23.6637C99.2515 23.4577 99.5305 23.3417 99.8216 23.3413V23.343ZM79.5619 3.0816C79.7788 3.0816 79.9909 3.14593 80.1713 3.26645C80.3516 3.38697 80.4922 3.55827 80.5752 3.75869C80.6582 3.95911 80.68 4.17964 80.6376 4.39241C80.5953 4.60517 80.4909 4.80061 80.3375 4.954C80.1841 5.10739 79.9886 5.21185 79.7759 5.25418C79.5631 5.2965 79.3426 5.27478 79.1422 5.19176C78.9417 5.10874 78.7704 4.96816 78.6499 4.78779C78.5294 4.60742 78.4651 4.39536 78.4651 4.17843C78.4655 3.88767 78.5812 3.60896 78.7868 3.40337C78.9924 3.19777 79.2711 3.08207 79.5619 3.0816ZM57.3016 3.0816C57.5185 3.0816 57.7306 3.14593 57.911 3.26645C58.0914 3.38697 58.2319 3.55827 58.3149 3.75869C58.398 3.95911 58.4197 4.17964 58.3774 4.39241C58.335 4.60517 58.2306 4.80061 58.0772 4.954C57.9238 5.10739 57.7284 5.21185 57.5156 5.25418C57.3028 5.2965 57.0823 5.27478 56.8819 5.19176C56.6815 5.10874 56.5102 4.96816 56.3896 4.78779C56.2691 4.60742 56.2048 4.39536 56.2048 4.17843C56.2052 3.88767 56.321 3.60896 56.5266 3.40337C56.7321 3.19777 57.0109 3.08207 57.3016 3.0816ZM46.6984 3.0816C46.9153 3.0816 47.1274 3.14593 47.3077 3.26645C47.4881 3.38697 47.6287 3.55827 47.7117 3.75869C47.7947 3.95911 47.8165 4.17964 47.7741 4.39241C47.7318 4.60517 47.6274 4.80061 47.474 4.954C47.3206 5.10739 47.1251 5.21185 46.9124 5.25418C46.6996 5.2965 46.4791 5.27478 46.2786 5.19176C46.0782 5.10874 45.9069 4.96816 45.7864 4.78779C45.6659 4.60742 45.6016 4.39536 45.6016 4.17843C45.6018 3.8876 45.7174 3.60876 45.9231 3.40311C46.1287 3.19747 46.4076 3.08183 46.6984 3.0816ZM24.4381 3.0816C24.655 3.0816 24.8671 3.14593 25.0475 3.26645C25.2278 3.38697 25.3684 3.55827 25.4514 3.75869C25.5345 3.95911 25.5562 4.17964 25.5139 4.39241C25.4715 4.60517 25.3671 4.80061 25.2137 4.954C25.0603 5.10739 24.8648 5.21185 24.6521 5.25418C24.4393 5.2965 24.2188 5.27478 24.0184 5.19176C23.8179 5.10874 23.6466 4.96816 23.5261 4.78779C23.4056 4.60742 23.3413 4.39536 23.3413 4.17843C23.3415 3.8876 23.4571 3.60876 23.6628 3.40311C23.8684 3.19747 24.1473 3.08183 24.4381 3.0816ZM4.17843 25.5349C3.96149 25.5349 3.74943 25.4706 3.56906 25.3501C3.38869 25.2296 3.24811 25.0583 3.16509 24.8578C3.08208 24.6574 3.06036 24.4369 3.10268 24.2241C3.145 24.0114 3.24946 23.8159 3.40285 23.6625C3.55625 23.5091 3.75168 23.4047 3.96445 23.3624C4.17721 23.32 4.39774 23.3418 4.59816 23.4248C4.79858 23.5078 4.96988 23.6484 5.0904 23.8287C5.21092 24.0091 5.27525 24.2212 5.27525 24.4381C5.27502 24.7289 5.15939 25.0078 4.95374 25.2134C4.7481 25.4191 4.46925 25.5347 4.17843 25.5349ZM4.17843 47.7952C3.96149 47.7952 3.74943 47.7309 3.56906 47.6104C3.38869 47.4898 3.24811 47.3185 3.16509 47.1181C3.08208 46.9177 3.06036 46.6972 3.10268 46.4844C3.145 46.2716 3.24946 46.0762 3.40285 45.9228C3.55625 45.7694 3.75168 45.665 3.96445 45.6226C4.17721 45.5803 4.39774 45.602 4.59816 45.6851C4.79858 45.7681 4.96988 45.9086 5.0904 46.089C5.21092 46.2694 5.27525 46.4815 5.27525 46.6984C5.27502 46.9892 5.15939 47.2681 4.95374 47.4737C4.7481 47.6793 4.46925 47.795 4.17843 47.7952ZM4.17843 58.3984C3.96149 58.3984 3.74943 58.3341 3.56906 58.2136C3.38869 58.0931 3.24811 57.9218 3.16509 57.7214C3.08208 57.5209 3.06036 57.3004 3.10268 57.0876C3.145 56.8749 3.24946 56.6794 3.40285 56.526C3.55625 56.3727 3.75168 56.2682 3.96445 56.2259C4.17721 56.1835 4.39774 56.2053 4.59816 56.2883C4.79858 56.3713 4.96988 56.5119 5.0904 56.6922C5.21092 56.8726 5.27525 57.0847 5.27525 57.3016C5.27479 57.5924 5.15908 57.8711 4.95349 58.0767C4.74789 58.2823 4.46918 58.398 4.17843 58.3984ZM4.17843 80.6587C3.96149 80.6587 3.74943 80.5944 3.56906 80.4739C3.38869 80.3534 3.24811 80.1821 3.16509 79.9816C3.08208 79.7812 3.06036 79.5607 3.10268 79.3479C3.145 79.1352 3.24946 78.9397 3.40285 78.7863C3.55625 78.6329 3.75168 78.5285 3.96445 78.4862C4.17721 78.4438 4.39774 78.4655 4.59816 78.5486C4.79858 78.6316 4.96988 78.7722 5.0904 78.9525C5.21092 79.1329 5.27525 79.345 5.27525 79.5619C5.27479 79.8527 5.15908 80.1314 4.95349 80.337C4.74789 80.5425 4.46918 80.6583 4.17843 80.6587ZM24.4381 100.918C24.2212 100.918 24.0091 100.854 23.8287 100.734C23.6484 100.613 23.5078 100.442 23.4248 100.241C23.3418 100.041 23.32 99.8204 23.3624 99.6076C23.4047 99.3948 23.5091 99.1994 23.6625 99.046C23.8159 98.8926 24.0114 98.7881 24.2241 98.7458C24.4369 98.7035 24.6574 98.7252 24.8578 98.8082C25.0583 98.8913 25.2296 99.0318 25.3501 99.2122C25.4706 99.3926 25.5349 99.6046 25.5349 99.8216C25.5345 100.112 25.4188 100.391 25.2132 100.597C25.0076 100.802 24.7289 100.918 24.4381 100.918ZM46.6984 100.918C46.4815 100.918 46.2694 100.854 46.089 100.734C45.9086 100.613 45.7681 100.442 45.6851 100.241C45.602 100.041 45.5803 99.8204 45.6226 99.6076C45.665 99.3948 45.7694 99.1994 45.9228 99.046C46.0762 98.8926 46.2716 98.7881 46.4844 98.7458C46.6972 98.7035 46.9177 98.7252 47.1181 98.8082C47.3185 98.8913 47.4898 99.0318 47.6104 99.2122C47.7309 99.3926 47.7952 99.6046 47.7952 99.8216C47.7947 100.112 47.679 100.391 47.4734 100.597C47.2679 100.802 46.9891 100.918 46.6984 100.918ZM57.3016 100.918C57.0847 100.918 56.8726 100.854 56.6922 100.734C56.5119 100.613 56.3713 100.442 56.2883 100.241C56.2053 100.041 56.1835 99.8204 56.2259 99.6076C56.2682 99.3948 56.3727 99.1994 56.526 99.046C56.6794 98.8926 56.8749 98.7881 57.0876 98.7458C57.3004 98.7035 57.5209 98.7252 57.7214 98.8082C57.9218 98.8913 58.0931 99.0318 58.2136 99.2122C58.3341 99.3926 58.3984 99.6046 58.3984 99.8216C58.3982 100.112 58.2826 100.391 58.0769 100.597C57.8713 100.803 57.5924 100.918 57.3016 100.918ZM79.5619 100.918C79.345 100.918 79.1329 100.854 78.9525 100.734C78.7722 100.613 78.6316 100.442 78.5486 100.241C78.4655 100.041 78.4438 99.8204 78.4862 99.6076C78.5285 99.3948 78.6329 99.1994 78.7863 99.046C78.9397 98.8926 79.1352 98.7881 79.3479 98.7458C79.5607 98.7035 79.7812 98.7252 79.9816 98.8082C80.1821 98.8913 80.3534 99.0318 80.4739 99.2122C80.5944 99.3926 80.6587 99.6046 80.6587 99.8216C80.6585 100.112 80.5429 100.391 80.3372 100.597C80.1316 100.803 79.8527 100.918 79.5619 100.918ZM99.8216 78.4651C100.039 78.4651 100.251 78.5294 100.431 78.6499C100.611 78.7704 100.752 78.9417 100.835 79.1422C100.918 79.3426 100.94 79.5631 100.897 79.7759C100.855 79.9886 100.751 80.1841 100.597 80.3375C100.444 80.4909 100.248 80.5953 100.036 80.6376C99.8228 80.68 99.6023 80.6582 99.4018 80.5752C99.2014 80.4922 99.0301 80.3516 98.9096 80.1713C98.7891 79.9909 98.7247 79.7788 98.7247 79.5619C98.725 79.2711 98.8406 78.9922 99.0463 78.7866C99.2519 78.5809 99.5307 78.4653 99.8216 78.4651ZM99.8216 56.2048C100.039 56.2048 100.251 56.2691 100.431 56.3896C100.611 56.5102 100.752 56.6815 100.835 56.8819C100.918 57.0823 100.94 57.3028 100.897 57.5156C100.855 57.7284 100.751 57.9238 100.597 58.0772C100.444 58.2306 100.248 58.335 100.036 58.3774C99.8228 58.4197 99.6023 58.398 99.4018 58.3149C99.2014 58.2319 99.0301 58.0914 98.9096 57.911C98.7891 57.7306 98.7247 57.5185 98.7247 57.3016C98.725 57.0108 98.8406 56.7319 99.0463 56.5263C99.2519 56.3207 99.5307 56.205 99.8216 56.2048ZM75.6914 75.6914H28.3086V28.3086H75.6914V75.6914Z" fill="url(#paint0_linear_1473_4381)"/>
<path d="M69.3298 33.1346H34.6702C34.263 33.1348 33.8725 33.2967 33.5846 33.5846C33.2967 33.8725 33.1348 34.263 33.1346 34.6702V69.3298C33.1348 69.737 33.2967 70.1275 33.5846 70.4154C33.8725 70.7033 34.263 70.8652 34.6702 70.8654H69.3298C69.737 70.8652 70.1275 70.7033 70.4154 70.4154C70.7033 70.1275 70.8652 69.737 70.8654 69.3298V34.6702C70.8652 34.263 70.7033 33.8725 70.4154 33.5846C70.1275 33.2967 69.737 33.1348 69.3298 33.1346ZM67.7943 67.7943H36.2057V36.2057H67.7943V67.7943Z" fill="url(#paint1_linear_1473_4381)"/>
<path d="M64.0651 54.2665C64.4723 54.2662 64.8627 54.1044 65.1506 53.8165C65.4385 53.5285 65.6004 53.1381 65.6006 52.7309V44.066C65.6006 43.6588 65.4388 43.2682 65.1509 42.9802C64.8629 42.6922 64.4723 42.5304 64.0651 42.5304C63.6578 42.5304 63.2672 42.6922 62.9793 42.9802C62.6913 43.2682 62.5295 43.6588 62.5295 44.066V52.7309C62.5298 53.1381 62.6916 53.5285 62.9795 53.8165C63.2675 54.1044 63.6579 54.2662 64.0651 54.2665Z" fill="url(#paint2_linear_1473_4381)"/>
<defs>
<linearGradient id="paint0_linear_1473_4381" x1="104.81" y1="22.7331" x2="-32.0428" y2="34.0748" gradientUnits="userSpaceOnUse">
<stop stop-color="#FF36A5"/>
<stop offset="1" stop-color="#40FBFF"/>
</linearGradient>
<linearGradient id="paint1_linear_1473_4381" x1="104.81" y1="22.7331" x2="-32.0428" y2="34.0748" gradientUnits="userSpaceOnUse">
<stop stop-color="#FF36A5"/>
<stop offset="1" stop-color="#40FBFF"/>
</linearGradient>
<linearGradient id="paint2_linear_1473_4381" x1="104.81" y1="22.7331" x2="-32.0428" y2="34.0748" gradientUnits="userSpaceOnUse">
<stop stop-color="#FF36A5"/>
<stop offset="1" stop-color="#40FBFF"/>
</linearGradient>
</defs>
</svg>
