<svg width="107" height="100" viewBox="0 0 107 100" fill="none" xmlns="http://www.w3.org/2000/svg">
<path d="M104.611 51.5596H56.9277V3.8877C56.9278 3.65583 56.8821 3.42623 56.7933 3.21201C56.7046 2.9978 56.5745 2.80315 56.4105 2.6392C56.2465 2.47524 56.0518 2.34519 55.8375 2.25646C55.6233 2.16773 55.3936 2.12207 55.1617 2.12207H5.71222C4.30755 2.12368 2.96088 2.68226 1.96763 3.67527C0.974382 4.66827 0.415669 6.01462 0.414062 7.41895V69.2158C0.415669 70.6201 0.974382 71.9665 1.96763 72.9595C2.96088 73.9525 4.30755 74.5111 5.71222 74.5127H42.7993V88.6377H37.5012C37.2692 88.6377 37.0396 88.6834 36.8253 88.7721C36.611 88.8608 36.4164 88.9909 36.2524 89.1548C36.0884 89.3188 35.9583 89.5134 35.8695 89.7276C35.7808 89.9419 35.7351 90.1715 35.7351 90.4033V97.4658C35.7351 97.6977 35.7808 97.9273 35.8695 98.1415C35.9583 98.3557 36.0884 98.5504 36.2524 98.7143C36.4164 98.8783 36.611 99.0083 36.8253 99.0971C37.0396 99.1858 37.2692 99.2315 37.5012 99.2314H69.2901C69.522 99.2315 69.7517 99.1858 69.966 99.0971C70.1802 99.0083 70.3749 98.8783 70.5389 98.7143C70.7029 98.5504 70.833 98.3557 70.9217 98.1415C71.0105 97.9273 71.0562 97.6977 71.0562 97.4658V90.4033C71.0562 90.1715 71.0105 89.9419 70.9217 89.7276C70.833 89.5134 70.7029 89.3188 70.5389 89.1548C70.3749 88.9909 70.1802 88.8608 69.966 88.7721C69.7517 88.6834 69.522 88.6377 69.2901 88.6377H63.992V74.5127H101.079C102.484 74.5111 103.83 73.9525 104.824 72.9595C105.817 71.9665 106.376 70.6201 106.377 69.2158V53.3252C106.377 53.0933 106.332 52.8637 106.243 52.6495C106.154 52.4353 106.024 52.2407 105.86 52.0767C105.696 51.9127 105.501 51.7827 105.287 51.694C105.073 51.6052 104.843 51.5596 104.611 51.5596ZM5.71222 5.65332H53.3956V12.7158H3.94617V7.41895C3.9467 6.95084 4.13294 6.50206 4.46402 6.17105C4.79511 5.84005 5.244 5.65386 5.71222 5.65332ZM67.5241 95.7002H39.2672V92.1689H67.5241V95.7002ZM60.4599 88.6377H46.3314V74.5127H51.6296V79.8096C51.6296 80.2778 51.8157 80.7269 52.1469 81.0581C52.4781 81.3892 52.9273 81.5752 53.3956 81.5752C53.864 81.5752 54.3132 81.3892 54.6444 81.0581C54.9756 80.7269 55.1617 80.2778 55.1617 79.8096V74.5127H60.4599V88.6377ZM102.845 69.2158C102.845 69.6839 102.658 70.1327 102.327 70.4637C101.996 70.7947 101.547 70.9809 101.079 70.9814H5.71222C5.244 70.9809 4.79511 70.7947 4.46402 70.4637C4.13294 70.1327 3.9467 69.6839 3.94617 69.2158V16.2471H53.3956V53.3252C53.3956 53.5571 53.4413 53.7867 53.5301 54.0009C53.6188 54.2151 53.7489 54.4097 53.9129 54.5737C54.0769 54.7377 54.2716 54.8677 54.4859 54.9564C54.7001 55.0452 54.9298 55.0908 55.1617 55.0908H102.845V69.2158Z" fill="url(#paint0_linear_1168_2057)"/>
<path d="M7.47785 10.9502C8.45297 10.9502 9.24347 10.1597 9.24347 9.18457C9.24347 8.20944 8.45297 7.41895 7.47785 7.41895C6.50272 7.41895 5.71222 8.20944 5.71222 9.18457C5.71222 10.1597 6.50272 10.9502 7.47785 10.9502Z" fill="url(#paint1_linear_1168_2057)"/>
<path d="M12.776 10.9502C13.7511 10.9502 14.5416 10.1597 14.5416 9.18457C14.5416 8.20944 13.7511 7.41895 12.776 7.41895C11.8009 7.41895 11.0104 8.20944 11.0104 9.18457C11.0104 10.1597 11.8009 10.9502 12.776 10.9502Z" fill="url(#paint2_linear_1168_2057)"/>
<path d="M18.0742 10.9502C19.0493 10.9502 19.8398 10.1597 19.8398 9.18457C19.8398 8.20944 19.0493 7.41895 18.0742 7.41895C17.099 7.41895 16.3085 8.20944 16.3085 9.18457C16.3085 10.1597 17.099 10.9502 18.0742 10.9502Z" fill="url(#paint3_linear_1168_2057)"/>
<path d="M49.8635 21.5439C49.8636 21.3121 49.8179 21.0825 49.7291 20.8683C49.6404 20.654 49.5103 20.4594 49.3463 20.2954C49.1823 20.1315 48.9876 20.0014 48.7733 19.9127C48.5591 19.824 48.3294 19.7783 48.0975 19.7783H41.0333C40.8014 19.7783 40.5717 19.824 40.3574 19.9127C40.1432 20.0014 39.9485 20.1315 39.7845 20.2954C39.6205 20.4594 39.4904 20.654 39.4016 20.8683C39.3129 21.0825 39.2672 21.3121 39.2672 21.5439V28.6064H33.9691C33.7371 28.6064 33.5075 28.6521 33.2932 28.7408C33.0789 28.8296 32.8843 28.9596 32.7203 29.1236C32.5563 29.2875 32.4262 29.4822 32.3374 29.6964C32.2487 29.9106 32.203 30.1402 32.203 30.3721V35.6689H26.9049C26.6729 35.6689 26.4433 35.7146 26.229 35.8033C26.0147 35.8921 25.82 36.0221 25.6561 36.1861C25.4921 36.35 25.362 36.5447 25.2732 36.7589C25.1845 36.9731 25.1388 37.2027 25.1388 37.4346V44.4971H19.8406C19.6087 44.4971 19.3791 44.5427 19.1648 44.6315C18.9505 44.7202 18.7558 44.8502 18.5918 45.0142C18.4278 45.1782 18.2978 45.3728 18.209 45.587C18.1203 45.8012 18.0746 46.0308 18.0746 46.2627V51.5596H12.7764C12.5445 51.5596 12.3149 51.6052 12.1006 51.694C11.8863 51.7827 11.6916 51.9127 11.5276 52.0767C11.3636 52.2407 11.2335 52.4353 11.1448 52.6495C11.056 52.8637 11.0104 53.0933 11.0104 53.3252V58.6221H7.47827V62.1533H56.9278V58.6221H49.8635V21.5439ZM14.5425 55.0908H18.0746V58.6221H14.5425V55.0908ZM21.6067 48.0283H25.1388V58.6221H21.6067V48.0283ZM28.6709 39.2002H32.203V58.6221H28.6709V39.2002ZM35.7351 32.1377H39.2672V58.6221H35.7351V32.1377ZM42.7993 58.6221V23.3096H46.3314V58.6221H42.7993Z" fill="url(#paint4_linear_1168_2057)"/>
<path d="M63.9911 58.6221H60.4599V62.1533H63.9911V58.6221Z" fill="url(#paint5_linear_1168_2057)"/>
<path d="M72.8222 40.9658C73.7936 40.966 74.7463 40.6991 75.5762 40.1945C76.4061 39.6898 77.0813 38.9668 77.5279 38.1044C77.9745 37.2421 78.1754 36.2735 78.1086 35.3047C78.0418 34.3359 77.7099 33.4041 77.1492 32.6111C76.5884 31.8182 75.8204 31.1946 74.9291 30.8085C74.0378 30.4225 73.0574 30.2889 72.0953 30.4223C71.1331 30.5557 70.2262 30.9509 69.4736 31.5648C68.7209 32.1788 68.1516 32.9877 67.8279 33.9033H60.4599V37.4346H67.8279C68.1941 38.4665 68.8707 39.3599 69.7649 39.9921C70.6591 40.6243 71.727 40.9645 72.8222 40.9658ZM72.8222 33.9033C73.1715 33.9033 73.513 34.0069 73.8034 34.2009C74.0938 34.3949 74.3202 34.6707 74.4538 34.9933C74.5875 35.3159 74.6225 35.6709 74.5543 36.0134C74.4862 36.3559 74.318 36.6705 74.071 36.9174C73.824 37.1644 73.5094 37.3325 73.1668 37.4006C72.8242 37.4688 72.4691 37.4338 72.1464 37.3002C71.8237 37.1665 71.5479 36.9402 71.3538 36.6499C71.1598 36.3595 71.0562 36.0182 71.0562 35.6689C71.0567 35.2008 71.2429 34.7521 71.574 34.4211C71.9051 34.0901 72.354 33.9039 72.8222 33.9033Z" fill="url(#paint6_linear_1168_2057)"/>
<path d="M101.079 2.12207C99.9839 2.12344 98.9159 2.46358 98.0217 3.09581C97.1275 3.72804 96.4509 4.6214 96.0847 5.65332H92.2488C91.994 5.65333 91.7423 5.70843 91.5108 5.81485C91.2794 5.92127 91.0737 6.07648 90.9079 6.26985L81.5527 17.1816L75.837 11.4674C75.6731 11.3034 75.4784 11.1733 75.2641 11.0846C75.0499 10.9959 74.8202 10.9502 74.5883 10.9502H60.4599V14.4814H73.8568L80.4037 21.0268C80.5677 21.1908 80.7624 21.3208 80.9767 21.4096C81.1909 21.4983 81.4206 21.544 81.6525 21.5439H90.7865C91.2031 22.722 92.0229 23.7149 93.1009 24.3471C94.1789 24.9793 95.4458 25.2102 96.6776 24.9989C97.9094 24.7876 99.0269 24.1478 99.8324 23.1924C100.638 22.2371 101.08 21.0278 101.08 19.7783C101.08 18.5288 100.638 17.3195 99.8324 16.3642C99.0269 15.4089 97.9094 14.769 96.6776 14.5577C95.4458 14.3464 94.1789 14.5773 93.1009 15.2095C92.0229 15.8418 91.2031 16.8346 90.7865 18.0127H85.4923L93.0611 9.18457H96.0847C96.4085 10.1 96.9778 10.9089 97.7304 11.5227C98.483 12.1365 99.3899 12.5317 100.352 12.665C101.314 12.7983 102.294 12.6647 103.185 12.2787C104.077 11.8927 104.845 11.2692 105.405 10.4763C105.966 9.6834 106.298 8.75168 106.365 7.78296C106.431 6.81423 106.231 5.84579 105.784 4.98348C105.338 4.12117 104.662 3.39818 103.833 2.89354C103.003 2.38889 102.05 2.12201 101.079 2.12207ZM95.7809 18.0127C96.1302 18.0127 96.4716 18.1162 96.7621 18.3103C97.0525 18.5043 97.2789 18.78 97.4125 19.1026C97.5462 19.4253 97.5812 19.7803 97.513 20.1228C97.4449 20.4653 97.2767 20.7799 97.0297 21.0268C96.7827 21.2737 96.468 21.4419 96.1255 21.51C95.7829 21.5781 95.4278 21.5432 95.1051 21.4095C94.7824 21.2759 94.5065 21.0496 94.3125 20.7593C94.1184 20.4689 94.0149 20.1275 94.0149 19.7783C94.0154 19.3102 94.2016 18.8614 94.5327 18.5304C94.8638 18.1994 95.3127 18.0132 95.7809 18.0127ZM101.079 9.18457C100.73 9.18457 100.388 9.08102 100.098 8.88701C99.8075 8.693 99.5811 8.41725 99.4475 8.09462C99.3138 7.772 99.2788 7.41699 99.347 7.07449C99.4151 6.73199 99.5833 6.41739 99.8303 6.17046C100.077 5.92354 100.392 5.75538 100.735 5.68725C101.077 5.61912 101.432 5.65409 101.755 5.78772C102.078 5.92136 102.353 6.14766 102.547 6.43802C102.742 6.72837 102.845 7.06974 102.845 7.41895C102.845 7.88706 102.658 8.33584 102.327 8.66684C101.996 8.99784 101.547 9.18404 101.079 9.18457Z" fill="url(#paint7_linear_1168_2057)"/>
<path d="M79.8864 10.9502C80.8578 10.9503 81.8105 10.6835 82.6404 10.1789C83.4703 9.67422 84.1455 8.95119 84.5921 8.08882C85.0387 7.22644 85.2396 6.25791 85.1728 5.28908C85.106 4.32026 84.7741 3.38845 84.2134 2.59549C83.6526 1.80253 82.8846 1.17895 81.9933 0.792924C81.102 0.406893 80.1217 0.273265 79.1595 0.406648C78.1974 0.54003 77.2904 0.935289 76.5378 1.54922C75.7852 2.16315 75.2159 2.97212 74.8921 3.8877H60.4599V7.41895H74.8921C75.2583 8.45087 75.9349 9.34423 76.8291 9.97646C77.7233 10.6087 78.7912 10.9488 79.8864 10.9502ZM79.8864 3.8877C80.2357 3.8877 80.5772 3.99125 80.8676 4.18526C81.158 4.37927 81.3844 4.65502 81.5181 4.97765C81.6517 5.30027 81.6867 5.65528 81.6186 5.99778C81.5504 6.34028 81.3822 6.65488 81.1352 6.90181C80.8882 7.14873 80.5736 7.31689 80.231 7.38502C79.8884 7.45315 79.5333 7.41818 79.2106 7.28455C78.8879 7.15091 78.6121 6.92461 78.418 6.63425C78.224 6.3439 78.1204 6.00253 78.1204 5.65332C78.1209 5.18521 78.3072 4.73643 78.6382 4.40543C78.9693 4.07443 79.4182 3.88823 79.8864 3.8877Z" fill="url(#paint8_linear_1168_2057)"/>
<path d="M76.8721 26.3241C76.3331 27.4521 76.2103 28.7342 76.5254 29.9439C76.8405 31.1536 77.5733 32.2129 78.5941 32.9347C79.615 33.6565 80.8582 33.9942 82.104 33.8882C83.3499 33.7822 84.5181 33.2392 85.4023 32.3553C86.2864 31.4714 86.8295 30.3034 86.9355 29.0579C87.0416 27.8124 86.7038 26.5694 85.9818 25.5488C85.2599 24.5282 84.2002 23.7957 82.9902 23.4806C81.7803 23.1656 80.4978 23.2883 79.3696 23.8272L75.837 20.2955C75.6731 20.1315 75.4784 20.0015 75.2641 19.9127C75.0499 19.824 74.8202 19.7783 74.5883 19.7783H60.4599V23.3096H73.8568L76.8721 26.3241ZM83.4185 28.6064C83.4185 28.9557 83.315 29.297 83.1209 29.5874C82.9269 29.8777 82.651 30.104 82.3283 30.2377C82.0056 30.3713 81.6505 30.4063 81.308 30.3381C80.9654 30.27 80.6507 30.1019 80.4037 29.8549C80.1567 29.608 79.9885 29.2934 79.9204 28.9509C79.8522 28.6084 79.8872 28.2534 80.0209 27.9308C80.1545 27.6081 80.3809 27.3324 80.6713 27.1384C80.9618 26.9444 81.3032 26.8408 81.6525 26.8408C82.1207 26.8414 82.5696 27.0275 82.9007 27.3586C83.2318 27.6896 83.418 28.1383 83.4185 28.6064Z" fill="url(#paint9_linear_1168_2057)"/>
<path d="M88.3297 45.6L93.7691 38.8025C94.9258 39.2778 96.2134 39.3291 97.4043 38.9472C98.5951 38.5653 99.6126 37.7749 100.277 36.7156C100.941 35.6563 101.21 34.3963 101.035 33.1583C100.86 31.9202 100.253 30.7839 99.3211 29.95C98.3893 29.1161 97.1926 28.6383 95.9425 28.6011C94.6925 28.564 93.4695 28.9697 92.4897 29.7468C91.5099 30.5238 90.8364 31.6221 90.5882 32.8476C90.34 34.073 90.5331 35.3467 91.1333 36.4437L86.1018 42.7314H60.4599V46.2627H86.9507C87.2155 46.2627 87.477 46.2032 87.7157 46.0884C87.9544 45.9737 88.1643 45.8068 88.3297 45.6ZM95.7809 32.1377C96.1302 32.1377 96.4716 32.2412 96.7621 32.4353C97.0525 32.6293 97.2789 32.905 97.4125 33.2276C97.5462 33.5503 97.5812 33.9053 97.513 34.2478C97.4449 34.5903 97.2767 34.9049 97.0297 35.1518C96.7827 35.3987 96.468 35.5669 96.1255 35.635C95.7829 35.7031 95.4278 35.6682 95.1051 35.5345C94.7824 35.4009 94.5065 35.1746 94.3125 34.8842C94.1184 34.5939 94.0149 34.2525 94.0149 33.9033C94.0154 33.4352 94.2016 32.9864 94.5327 32.6554C94.8638 32.3244 95.3127 32.1382 95.7809 32.1377Z" fill="url(#paint10_linear_1168_2057)"/>
<defs>
<linearGradient id="paint0_linear_1168_2057" x1="107.203" y1="21.9693" x2="-32.0925" y2="34.341" gradientUnits="userSpaceOnUse">
<stop stop-color="#FF36A5"/>
<stop offset="1" stop-color="#40FBFF"/>
</linearGradient>
<linearGradient id="paint1_linear_1168_2057" x1="107.203" y1="21.9693" x2="-32.0925" y2="34.341" gradientUnits="userSpaceOnUse">
<stop stop-color="#FF36A5"/>
<stop offset="1" stop-color="#40FBFF"/>
</linearGradient>
<linearGradient id="paint2_linear_1168_2057" x1="107.203" y1="21.9693" x2="-32.0925" y2="34.341" gradientUnits="userSpaceOnUse">
<stop stop-color="#FF36A5"/>
<stop offset="1" stop-color="#40FBFF"/>
</linearGradient>
<linearGradient id="paint3_linear_1168_2057" x1="107.203" y1="21.9693" x2="-32.0925" y2="34.341" gradientUnits="userSpaceOnUse">
<stop stop-color="#FF36A5"/>
<stop offset="1" stop-color="#40FBFF"/>
</linearGradient>
<linearGradient id="paint4_linear_1168_2057" x1="107.203" y1="21.9693" x2="-32.0925" y2="34.341" gradientUnits="userSpaceOnUse">
<stop stop-color="#FF36A5"/>
<stop offset="1" stop-color="#40FBFF"/>
</linearGradient>
<linearGradient id="paint5_linear_1168_2057" x1="107.203" y1="21.9693" x2="-32.0925" y2="34.341" gradientUnits="userSpaceOnUse">
<stop stop-color="#FF36A5"/>
<stop offset="1" stop-color="#40FBFF"/>
</linearGradient>
<linearGradient id="paint6_linear_1168_2057" x1="107.203" y1="21.9693" x2="-32.0925" y2="34.341" gradientUnits="userSpaceOnUse">
<stop stop-color="#FF36A5"/>
<stop offset="1" stop-color="#40FBFF"/>
</linearGradient>
<linearGradient id="paint7_linear_1168_2057" x1="107.203" y1="21.9693" x2="-32.0925" y2="34.341" gradientUnits="userSpaceOnUse">
<stop stop-color="#FF36A5"/>
<stop offset="1" stop-color="#40FBFF"/>
</linearGradient>
<linearGradient id="paint8_linear_1168_2057" x1="107.203" y1="21.9693" x2="-32.0925" y2="34.341" gradientUnits="userSpaceOnUse">
<stop stop-color="#FF36A5"/>
<stop offset="1" stop-color="#40FBFF"/>
</linearGradient>
<linearGradient id="paint9_linear_1168_2057" x1="107.203" y1="21.9693" x2="-32.0925" y2="34.341" gradientUnits="userSpaceOnUse">
<stop stop-color="#FF36A5"/>
<stop offset="1" stop-color="#40FBFF"/>
</linearGradient>
<linearGradient id="paint10_linear_1168_2057" x1="107.203" y1="21.9693" x2="-32.0925" y2="34.341" gradientUnits="userSpaceOnUse">
<stop stop-color="#FF36A5"/>
<stop offset="1" stop-color="#40FBFF"/>
</linearGradient>
</defs>
</svg>
