<svg width="14" height="13" viewBox="0 0 14 13" fill="none" xmlns="http://www.w3.org/2000/svg">
<g clip-path="url(#clip0_915_942)">
<path d="M6.99066 6.43502C6.99066 5.98441 6.85185 5.59012 6.57423 5.25216C6.34866 4.98353 6.04935 4.77122 5.6763 4.61523C5.39 4.48525 5.11672 4.40726 4.85645 4.38126L7.05573 2.06753C7.08175 2.34483 7.15984 2.63513 7.28997 2.93843C7.46348 3.33705 7.69339 3.65768 7.97969 3.90032C8.33539 4.20362 8.76049 4.36393 9.25501 4.38126C9.29839 5.94108 9.31574 7.11528 9.30706 7.90386C9.29839 8.48446 9.28103 8.76609 9.25501 8.74876C8.73447 8.7141 8.29201 8.85708 7.92763 9.17771C7.63266 9.42901 7.39842 9.77564 7.2249 10.2176C7.09477 10.5469 7.01669 10.8718 6.99066 11.1925L4.85645 8.61877C5.11672 8.57544 5.39 8.48012 5.6763 8.33281C6.04935 8.15083 6.34866 7.92119 6.57423 7.64389C6.85185 7.28859 6.99066 6.88564 6.99066 6.43502ZM4.92151 12.9993C4.54846 12.9993 4.20143 12.9018 3.88043 12.7068C3.55944 12.5118 3.30567 12.2475 3.11915 11.9139C2.93262 11.5803 2.83936 11.2141 2.83936 10.8155C2.83936 10.4169 2.93262 10.0508 3.11915 9.71715C3.30567 9.38352 3.55944 9.11705 3.88043 8.91774C4.20143 8.71843 4.54846 8.61877 4.92151 8.61877C5.29457 8.61877 5.63943 8.71843 5.95609 8.91774C6.27275 9.11705 6.52434 9.38352 6.71087 9.71715C6.8974 10.0508 6.99066 10.4169 6.99066 10.8155C6.99066 11.2141 6.8974 11.5803 6.71087 11.9139C6.52434 12.2475 6.27275 12.5118 5.95609 12.7068C5.63943 12.9018 5.29457 12.9993 4.92151 12.9993ZM9.4372 8.74876C9.06414 8.74876 8.71712 8.65127 8.39612 8.45629C8.07512 8.26131 7.82135 7.99701 7.63483 7.66338C7.4483 7.32975 7.35504 6.96363 7.35504 6.56501C7.35504 6.16639 7.4483 5.80026 7.63483 5.46664C7.82135 5.13301 8.07512 4.86871 8.39612 4.67373C8.71712 4.47875 9.06414 4.38126 9.4372 4.38126C9.81025 4.38126 10.1573 4.47875 10.4783 4.67373C10.7993 4.86871 11.053 5.13301 11.2396 5.46664C11.4261 5.80026 11.5194 6.16639 11.5194 6.56501C11.5194 6.96363 11.4261 7.32975 11.2396 7.66338C11.053 7.99701 10.7993 8.26131 10.4783 8.45629C10.1573 8.65127 9.81025 8.74876 9.4372 8.74876ZM5.03864 4.38126C4.66558 4.38126 4.31856 4.28161 3.99756 4.0823C3.67656 3.88299 3.42279 3.61652 3.23627 3.28289C3.04974 2.94926 2.95648 2.58314 2.95648 2.18451C2.95648 1.78589 3.04974 1.41977 3.23627 1.08614C3.42279 0.752513 3.67656 0.488211 3.99756 0.293233C4.31856 0.0982552 4.66558 0.000766754 5.03864 0.000766754C5.41169 0.000766754 5.75872 0.0982552 6.07972 0.293233C6.40071 0.488211 6.65448 0.752513 6.841 1.08614C7.02753 1.41977 7.12079 1.78589 7.12079 2.18451C7.12079 2.58314 7.02753 2.94926 6.841 3.28289C6.65448 3.61652 6.40071 3.88299 6.07972 4.0823C5.75872 4.28161 5.41169 4.38126 5.03864 4.38126Z" fill="#999999"/>
</g>
<defs>
<clipPath id="clip0_915_942">
<rect width="8.68" height="13" fill="white" transform="matrix(1 0 0 -1 2.83936 13)"/>
</clipPath>
</defs>
</svg>
