<svg width="13" height="13" viewBox="0 0 13 13" fill="none" xmlns="http://www.w3.org/2000/svg">
<g clip-path="url(#clip0_982_4890)">
<path d="M6.68854 6.43502C6.68854 5.98441 6.82735 5.59012 7.10497 5.25216C7.33054 4.98353 7.62985 4.77122 8.0029 4.61523C8.2892 4.48525 8.56248 4.40726 8.82275 4.38126L6.62347 2.06753C6.59745 2.34483 6.51936 2.63513 6.38923 2.93843C6.21572 3.33705 5.98581 3.65768 5.69951 3.90032C5.34381 4.20362 4.9187 4.36393 4.42419 4.38126C4.38081 5.94108 4.36346 7.11528 4.37214 7.90386C4.38081 8.48446 4.39816 8.76609 4.42419 8.74876C4.94473 8.7141 5.38719 8.85708 5.75157 9.17771C6.04654 9.42901 6.28078 9.77564 6.4543 10.2176C6.58443 10.5469 6.66251 10.8718 6.68854 11.1925L8.82275 8.61877C8.56248 8.57544 8.2892 8.48012 8.0029 8.33281C7.62985 8.15083 7.33054 7.92119 7.10497 7.64389C6.82735 7.28859 6.68854 6.88564 6.68854 6.43502ZM8.75768 12.9993C9.13074 12.9993 9.47776 12.9018 9.79876 12.7068C10.1198 12.5118 10.3735 12.2475 10.5601 11.9139C10.7466 11.5803 10.8398 11.2141 10.8398 10.8155C10.8398 10.4169 10.7466 10.0508 10.5601 9.71715C10.3735 9.38352 10.1198 9.11705 9.79876 8.91774C9.47776 8.71843 9.13074 8.61877 8.75768 8.61877C8.38463 8.61877 8.03977 8.71843 7.72311 8.91774C7.40645 9.11705 7.15486 9.38352 6.96833 9.71715C6.7818 10.0508 6.68854 10.4169 6.68854 10.8155C6.68854 11.2141 6.7818 11.5803 6.96833 11.9139C7.15486 12.2475 7.40645 12.5118 7.72311 12.7068C8.03977 12.9018 8.38463 12.9993 8.75768 12.9993ZM4.242 8.74876C4.61506 8.74876 4.96208 8.65127 5.28308 8.45629C5.60408 8.26131 5.85784 7.99701 6.04437 7.66338C6.2309 7.32975 6.32416 6.96363 6.32416 6.56501C6.32416 6.16639 6.2309 5.80026 6.04437 5.46664C5.85784 5.13301 5.60408 4.86871 5.28308 4.67373C4.96208 4.47875 4.61506 4.38126 4.242 4.38126C3.86895 4.38126 3.52192 4.47875 3.20092 4.67373C2.87992 4.86871 2.62616 5.13301 2.43963 5.46664C2.25311 5.80026 2.15984 6.16639 2.15984 6.56501C2.15984 6.96363 2.25311 7.32975 2.43963 7.66338C2.62616 7.99701 2.87992 8.26131 3.20092 8.45629C3.52192 8.65127 3.86895 8.74876 4.242 8.74876ZM8.64056 4.38126C9.01362 4.38126 9.36064 4.28161 9.68164 4.0823C10.0026 3.88299 10.2564 3.61652 10.4429 3.28289C10.6295 2.94926 10.7227 2.58314 10.7227 2.18451C10.7227 1.78589 10.6295 1.41977 10.4429 1.08614C10.2564 0.752513 10.0026 0.488211 9.68164 0.293233C9.36064 0.0982552 9.01362 0.000766754 8.64056 0.000766754C8.26751 0.000766754 7.92048 0.0982552 7.59948 0.293233C7.27848 0.488211 7.02472 0.752513 6.83819 1.08614C6.65167 1.41977 6.5584 1.78589 6.5584 2.18451C6.5584 2.58314 6.65167 2.94926 6.83819 3.28289C7.02472 3.61652 7.27848 3.88299 7.59948 4.0823C7.92048 4.28161 8.26751 4.38126 8.64056 4.38126Z" fill="black"/>
</g>
<defs>
<clipPath id="clip0_982_4890">
<rect width="8.68" height="13" fill="white" transform="matrix(-1 0 0 -1 10.8398 13)"/>
</clipPath>
</defs>
</svg>
