<svg width="18" height="17" viewBox="0 0 18 17" fill="none" xmlns="http://www.w3.org/2000/svg">
<path d="M14.3415 2.83301H4.4248C3.86122 2.83301 3.32072 3.05689 2.9222 3.45541C2.52369 3.85392 2.2998 4.39442 2.2998 4.95801V12.0413C2.2998 12.6049 2.52369 13.1454 2.9222 13.5439C3.32072 13.9425 3.86122 14.1663 4.4248 14.1663H14.3415C14.9051 14.1663 15.4456 13.9425 15.8441 13.5439C16.2426 13.1454 16.4665 12.6049 16.4665 12.0413V4.95801C16.4665 4.39442 16.2426 3.85392 15.8441 3.45541C15.4456 3.05689 14.9051 2.83301 14.3415 2.83301ZM14.3415 4.24967L9.73731 7.41592C9.62962 7.47809 9.50748 7.51082 9.38314 7.51082C9.2588 7.51082 9.13665 7.47809 9.02897 7.41592L4.4248 4.24967H14.3415Z" fill="#AD186A"/>
</svg>
