<svg width="70" height="136" viewBox="0 0 70 136" fill="none" xmlns="http://www.w3.org/2000/svg">
<path d="M70.0004 20.2979H25.0004C11.1933 20.2979 0.000366211 31.4908 0.000366211 45.2979V90.298C0.000366211 104.105 11.1933 115.298 25.0004 115.298H70.0004V20.2979Z" fill="#F0F2F4"/>
<path fill-rule="evenodd" clip-rule="evenodd" d="M50.0004 49.6135V20.3066C61.0461 20.3066 70.0004 11.3523 70.0004 0.306641V49.6135H50.0004Z" fill="#F0F2F4"/>
<path fill-rule="evenodd" clip-rule="evenodd" d="M50.0004 85.991V115.298C61.0461 115.298 70.0004 124.252 70.0004 135.298V85.991H50.0004Z" fill="#F0F2F4"/>
<g clip-path="url(#clip0_321_8233)">
<path d="M34.8248 67.8626C34.8248 68.3132 34.6819 68.7075 34.3959 69.0455C34.1793 69.3055 33.8846 69.5178 33.512 69.6824C33.226 69.8124 32.9531 69.8904 32.6931 69.9164L34.8768 72.2301C34.9028 71.9615 34.9852 71.6712 35.1238 71.3592C35.2971 70.9606 35.5268 70.64 35.8127 70.3973C36.168 70.094 36.5926 69.9337 37.0866 69.9164C37.1299 68.3479 37.1472 67.1737 37.1386 66.3938C37.1299 65.8132 37.1126 65.5316 37.0866 65.5489C36.5666 65.5835 36.1204 65.4406 35.7477 65.1199C35.4531 64.8686 35.2191 64.522 35.0458 64.0801C34.9158 63.7421 34.8422 63.4171 34.8248 63.1052L32.6931 65.6789C32.9531 65.7222 33.226 65.8175 33.512 65.9648C33.8846 66.1468 34.1793 66.3765 34.3959 66.6538C34.6819 67.009 34.8248 67.412 34.8248 67.8626ZM32.7451 61.2984C32.3725 61.2984 32.0258 61.3959 31.7052 61.5908C31.3846 61.7858 31.1311 62.0501 30.9448 62.3837C30.7585 62.7174 30.6653 63.0835 30.6653 63.4821C30.6653 63.8807 30.7585 64.2469 30.9448 64.5805C31.1311 64.9141 31.3846 65.1806 31.7052 65.3799C32.0258 65.5792 32.3725 65.6789 32.7451 65.6789C33.1177 65.6789 33.4643 65.5792 33.785 65.3799C34.1056 65.1806 34.3591 64.9141 34.5454 64.5805C34.7317 64.2469 34.8248 63.8807 34.8248 63.4821C34.8248 63.0835 34.7317 62.7174 34.5454 62.3837C34.3591 62.0501 34.1056 61.7858 33.785 61.5908C33.4643 61.3959 33.1177 61.2984 32.7451 61.2984ZM37.2556 65.5489C36.8829 65.5489 36.5385 65.6464 36.2222 65.8414C35.9059 66.0363 35.6546 66.3006 35.4683 66.6343C35.282 66.9679 35.1888 67.334 35.1888 67.7326C35.1888 68.1313 35.282 68.4974 35.4683 68.831C35.6546 69.1646 35.9059 69.4289 36.2222 69.6239C36.5385 69.8189 36.8829 69.9164 37.2556 69.9164C37.6282 69.9164 37.9748 69.8189 38.2954 69.6239C38.6161 69.4289 38.8695 69.1646 39.0559 68.831C39.2422 68.4974 39.3353 68.1313 39.3353 67.7326C39.3353 67.334 39.2422 66.9679 39.0559 66.6343C38.8695 66.3006 38.6161 66.0363 38.2954 65.8414C37.9748 65.6464 37.6282 65.5489 37.2556 65.5489ZM32.8621 69.9164C32.4894 69.9164 32.145 70.016 31.8287 70.2153C31.5124 70.4147 31.2611 70.6811 31.0748 71.0148C30.8885 71.3484 30.7953 71.7145 30.7953 72.1131C30.7953 72.5117 30.8885 72.8779 31.0748 73.2115C31.2611 73.5451 31.5124 73.8094 31.8287 74.0044C32.145 74.1994 32.4916 74.2969 32.8686 74.2969C33.2455 74.2969 33.5922 74.1994 33.9085 74.0044C34.2248 73.8094 34.4761 73.5451 34.6624 73.2115C34.8487 72.8779 34.9418 72.5117 34.9418 72.1131C34.9418 71.7145 34.8487 71.3484 34.6624 71.0148C34.4761 70.6811 34.2248 70.4147 33.9085 70.2153C33.5922 70.016 33.2434 69.9164 32.8621 69.9164Z" fill="#111111"/>
</g>
<defs>
<clipPath id="clip0_321_8233">
<rect width="8.67" height="13" fill="white" transform="matrix(-1 0 0 -1 39.3353 74.2979)"/>
</clipPath>
</defs>
</svg>
