<svg width="13" height="14" viewBox="0 0 13 14" fill="none" xmlns="http://www.w3.org/2000/svg">
<g clip-path="url(#clip0_1168_1222)">
<path d="M6.31146 7.18795C6.31146 6.73734 6.17265 6.34305 5.89503 6.00509C5.66946 5.73645 5.37015 5.52415 4.9971 5.36816C4.7108 5.23818 4.43752 5.16019 4.17725 5.13419L6.37653 2.82046C6.40255 3.09776 6.48064 3.38806 6.61077 3.69136C6.78428 4.08998 7.01419 4.41061 7.30049 4.65325C7.65619 4.95654 8.0813 5.11686 8.57581 5.13419C8.61919 6.69401 8.63654 7.86821 8.62786 8.65679C8.61919 9.23738 8.60184 9.51902 8.57581 9.50169C8.05527 9.46702 7.61281 9.61001 7.24843 9.93064C6.95346 10.1819 6.71922 10.5286 6.5457 10.9705C6.41557 11.2998 6.33749 11.6248 6.31146 11.9454L4.17725 9.3717C4.43752 9.32837 4.7108 9.23305 4.9971 9.08574C5.37015 8.90376 5.66946 8.67412 5.89503 8.39681C6.17265 8.04152 6.31146 7.63857 6.31146 7.18795ZM4.24232 13.7522C3.86926 13.7522 3.52224 13.6547 3.20124 13.4597C2.88024 13.2648 2.62647 13.0005 2.43995 12.6668C2.25342 12.3332 2.16016 11.9671 2.16016 11.5684C2.16016 11.1698 2.25342 10.8037 2.43995 10.4701C2.62647 10.1364 2.88024 9.86998 3.20124 9.67067C3.52224 9.47136 3.86926 9.3717 4.24232 9.3717C4.61537 9.3717 4.96023 9.47136 5.27689 9.67067C5.59355 9.86998 5.84514 10.1364 6.03167 10.4701C6.2182 10.8037 6.31146 11.1698 6.31146 11.5684C6.31146 11.9671 6.2182 12.3332 6.03167 12.6668C5.84514 13.0005 5.59355 13.2648 5.27689 13.4597C4.96023 13.6547 4.61537 13.7522 4.24232 13.7522ZM8.758 9.50169C8.38494 9.50169 8.03792 9.4042 7.71692 9.20922C7.39592 9.01424 7.14216 8.74994 6.95563 8.41631C6.7691 8.08268 6.67584 7.71656 6.67584 7.31794C6.67584 6.91932 6.7691 6.55319 6.95563 6.21957C7.14216 5.88594 7.39592 5.62164 7.71692 5.42666C8.03792 5.23168 8.38494 5.13419 8.758 5.13419C9.13105 5.13419 9.47808 5.23168 9.79908 5.42666C10.1201 5.62164 10.3738 5.88594 10.5604 6.21957C10.7469 6.55319 10.8402 6.91932 10.8402 7.31794C10.8402 7.71656 10.7469 8.08268 10.5604 8.41631C10.3738 8.74994 10.1201 9.01424 9.79908 9.20922C9.47808 9.4042 9.13105 9.50169 8.758 9.50169ZM4.35944 5.13419C3.98638 5.13419 3.63936 5.03454 3.31836 4.83523C2.99736 4.63592 2.74359 4.36945 2.55707 4.03582C2.37054 3.70219 2.27728 3.33607 2.27728 2.93744C2.27728 2.53882 2.37054 2.1727 2.55707 1.83907C2.74359 1.50544 2.99736 1.24114 3.31836 1.04616C3.63936 0.851185 3.98638 0.753696 4.35944 0.753696C4.73249 0.753696 5.07952 0.851185 5.40052 1.04616C5.72152 1.24114 5.97528 1.50544 6.16181 1.83907C6.34833 2.1727 6.4416 2.53882 6.4416 2.93744C6.4416 3.33607 6.34833 3.70219 6.16181 4.03582C5.97528 4.36945 5.72152 4.63592 5.40052 4.83523C5.07952 5.03454 4.73249 5.13419 4.35944 5.13419Z" fill="#FF36A5"/>
</g>
<defs>
<clipPath id="clip0_1168_1222">
<rect width="8.68" height="13" fill="white" transform="matrix(1 0 0 -1 2.16016 13.7529)"/>
</clipPath>
</defs>
</svg>
