<svg width="70" height="136" viewBox="0 0 70 136" fill="none" xmlns="http://www.w3.org/2000/svg">
<path d="M0 20.2988H45C58.8071 20.2988 70 31.4917 70 45.2988V90.299C70 104.106 58.8071 115.299 45 115.299H0V20.2988Z" fill="#F0F2F4"/>
<path fill-rule="evenodd" clip-rule="evenodd" d="M20 49.6144V20.3076C8.95431 20.3076 0 11.3533 0 0.307617V49.6144H20Z" fill="#F0F2F4"/>
<path fill-rule="evenodd" clip-rule="evenodd" d="M20 85.992V115.299C8.95431 115.299 0 124.253 0 135.299V85.992H20Z" fill="#F0F2F4"/>
<g clip-path="url(#clip0_321_8244)">
<path d="M35.1755 67.8636C35.1755 68.3142 35.3185 68.7085 35.6044 69.0465C35.8211 69.3064 36.1157 69.5187 36.4883 69.6834C36.7743 69.8134 37.0473 69.8914 37.3072 69.9174L35.1235 72.2311C35.0975 71.9625 35.0152 71.6722 34.8765 71.3602C34.7032 70.9616 34.4736 70.6409 34.1876 70.3983C33.8323 70.095 33.4077 69.9347 32.9137 69.9174C32.8704 68.3489 32.8531 67.1747 32.8618 66.3948C32.8704 65.8142 32.8878 65.5325 32.9137 65.5499C33.4337 65.5845 33.88 65.4415 34.2526 65.1209C34.5472 64.8696 34.7812 64.523 34.9545 64.081C35.0845 63.7431 35.1582 63.4181 35.1755 63.1061L37.3072 65.6798C37.0473 65.7232 36.7743 65.8185 36.4883 65.9658C36.1157 66.1478 35.8211 66.3774 35.6044 66.6547C35.3185 67.01 35.1755 67.413 35.1755 67.8636ZM37.2552 61.2994C37.6279 61.2994 37.9745 61.3968 38.2951 61.5918C38.6158 61.7868 38.8692 62.0511 39.0555 62.3847C39.2419 62.7184 39.335 63.0845 39.335 63.4831C39.335 63.8817 39.2419 64.2478 39.0555 64.5815C38.8692 64.9151 38.6158 65.1816 38.2951 65.3809C37.9745 65.5802 37.6279 65.6798 37.2552 65.6798C36.8826 65.6798 36.536 65.5802 36.2154 65.3809C35.8947 65.1816 35.6413 64.9151 35.455 64.5815C35.2686 64.2478 35.1755 63.8817 35.1755 63.4831C35.1755 63.0845 35.2686 62.7184 35.455 62.3847C35.6413 62.0511 35.8947 61.7868 36.2154 61.5918C36.536 61.3968 36.8826 61.2994 37.2552 61.2994ZM32.7448 65.5499C33.1174 65.5499 33.4619 65.6473 33.7781 65.8423C34.0944 66.0373 34.3458 66.3016 34.5321 66.6352C34.7184 66.9689 34.8115 67.335 34.8115 67.7336C34.8115 68.1322 34.7184 68.4984 34.5321 68.832C34.3458 69.1656 34.0944 69.4299 33.7781 69.6249C33.4619 69.8199 33.1174 69.9174 32.7448 69.9174C32.3721 69.9174 32.0255 69.8199 31.7049 69.6249C31.3843 69.4299 31.1308 69.1656 30.9445 68.832C30.7582 68.4984 30.665 68.1322 30.665 67.7336C30.665 67.335 30.7582 66.9689 30.9445 66.6352C31.1308 66.3016 31.3843 66.0373 31.7049 65.8423C32.0255 65.6473 32.3721 65.5499 32.7448 65.5499ZM37.1383 69.9174C37.5109 69.9174 37.8553 70.017 38.1716 70.2163C38.4879 70.4156 38.7392 70.6821 38.9256 71.0157C39.1119 71.3494 39.205 71.7155 39.205 72.1141C39.205 72.5127 39.1119 72.8788 38.9256 73.2125C38.7392 73.5461 38.4879 73.8104 38.1716 74.0054C37.8553 74.2004 37.5087 74.2979 37.1318 74.2979C36.7548 74.2979 36.4082 74.2004 36.0919 74.0054C35.7756 73.8104 35.5243 73.5461 35.338 73.2125C35.1517 72.8788 35.0585 72.5127 35.0585 72.1141C35.0585 71.7155 35.1517 71.3494 35.338 71.0157C35.5243 70.6821 35.7756 70.4156 36.0919 70.2163C36.4082 70.017 36.757 69.9174 37.1383 69.9174Z" fill="#111111"/>
</g>
<defs>
<clipPath id="clip0_321_8244">
<rect width="8.67" height="13" fill="white" transform="matrix(1 0 0 -1 30.665 74.2988)"/>
</clipPath>
</defs>
</svg>
