<svg width="106" height="106" viewBox="0 0 106 106" fill="none" xmlns="http://www.w3.org/2000/svg">
<path d="M101.98 42.4447L94.6313 41.2183C93.7089 37.9518 92.3997 34.8027 90.7297 31.8317L95.0696 25.7562C96.4199 23.8651 96.208 21.2985 94.5647 19.6517L86.2861 11.3753C84.6425 9.73158 82.0762 9.51929 80.1835 10.8706L74.1083 15.2103C71.1368 13.54 67.9872 12.2309 64.7198 11.3087L63.4955 3.96158C63.1156 1.66607 61.1508 0 58.8236 0H47.1164C44.7892 0 42.8244 1.66607 42.4447 3.95971L41.2202 11.3087C37.953 12.2311 34.8032 13.54 31.8317 15.2103L25.7562 10.8704C23.864 9.51908 21.2977 9.73179 19.6541 11.3751L11.3743 19.6529C9.732 21.2985 9.52012 23.8651 10.8706 25.7565L15.2103 31.8317C13.54 34.8032 12.2309 37.9528 11.3087 41.2202L3.96137 42.4445C1.66607 42.8244 0 44.7892 0 47.1164V58.8236C0 61.1508 1.66607 63.1156 3.95951 63.4953L11.3087 64.7217C12.2311 67.9882 13.5403 71.1373 15.2103 74.1083L10.8704 80.1838C9.52012 82.075 9.732 84.6417 11.3753 86.2881L12.8382 87.751C13.1413 88.0539 13.5384 88.2054 13.9355 88.2054C14.3325 88.2054 14.7298 88.0539 15.0329 87.7508C15.639 87.1448 15.6388 86.1621 15.0329 85.5561L13.5711 84.0944C13.0037 83.526 12.9303 82.64 13.3962 81.9874L18.3167 75.0993C18.6742 74.5987 18.7023 73.9343 18.3885 73.4053C16.4503 70.1391 14.9907 66.6278 14.0505 62.9687C13.8976 62.374 13.4084 61.9254 12.8028 61.8243L4.46852 60.4336C3.67748 60.3026 3.10371 59.6256 3.10371 58.8236V54.5219H21.3256C22.1127 70.7594 35.1804 83.8273 51.4181 84.6144V102.836H47.1164C46.3144 102.836 45.6374 102.263 45.5062 101.47L44.1178 93.1376C44.0168 92.5318 43.568 92.0424 42.9732 91.8897C39.3133 90.9497 35.8013 89.4901 32.5348 87.5518C32.0059 87.2379 31.3413 87.266 30.8407 87.6236L23.9528 92.5438C23.3 93.0097 22.414 92.9361 21.8468 92.3702L20.1543 90.6776C19.5482 90.0714 18.5656 90.0718 17.9597 90.6776C17.3537 91.2837 17.3537 92.2663 17.9597 92.8723L19.6533 94.5661C21.2989 96.2084 23.8659 96.4203 25.7569 95.0698L31.8321 90.7302C34.8036 92.4004 37.9532 93.7095 41.2206 94.6319L42.4449 101.979C42.8244 104.274 44.7892 105.94 47.1164 105.94H58.8236C61.1508 105.94 63.1156 104.274 63.4953 101.98L64.7198 94.6315C67.987 93.7091 71.1368 92.4 74.1083 90.7297L80.1838 95.0696C82.076 96.4209 84.6423 96.2086 86.2861 94.5647L88.2186 92.6321C88.8247 92.0261 88.8247 91.0434 88.2186 90.4376C87.6126 89.8313 86.63 89.8315 86.0241 90.4376L84.0915 92.3702C83.5248 92.9367 82.6398 93.0099 81.9878 92.544L75.0997 87.6236C74.5991 87.2658 73.9345 87.2379 73.4057 87.5518C70.1391 89.4903 66.6272 90.9497 62.9673 91.8897C62.3724 92.0424 61.9236 92.532 61.8226 93.1376L60.434 101.472C60.3032 102.262 59.626 102.836 58.824 102.836H54.5219V84.6144C70.7594 83.8273 83.8271 70.7596 84.6142 54.5221H102.836V58.8238C102.836 59.6258 102.263 60.3028 101.47 60.434L93.1376 61.8224C92.5318 61.9234 92.0424 62.3722 91.8897 62.9671C90.9497 66.627 89.4901 70.1389 87.5518 73.4055C87.2379 73.9345 87.266 74.5989 87.6236 75.0995L92.5438 81.9874C93.0097 82.64 92.9367 83.5248 92.3702 84.0913L91.1432 85.3183C90.5371 85.9244 90.5371 86.907 91.1432 87.5129C91.7492 88.1189 92.7318 88.1189 93.3377 87.5129L94.5647 86.2859C96.2084 84.6421 96.4207 82.0758 95.0694 80.1833L90.7297 74.1083C92.4 71.1368 93.7091 67.9872 94.6313 64.7198L101.979 63.4955C104.274 63.1156 105.94 61.1508 105.94 58.8236V47.1164C105.94 44.7892 104.274 42.8244 101.98 42.4447ZM52.97 81.549C37.2114 81.549 24.391 68.7286 24.391 52.97C24.391 46.0874 26.8812 39.4351 31.4029 34.2387C31.9655 33.5921 31.8975 32.6119 31.2511 32.0493C30.6045 31.4865 29.6241 31.5548 29.0617 32.2012C24.3892 37.571 21.6742 44.3435 21.3266 51.4181H3.10371V47.1164C3.10371 46.3144 3.67748 45.6374 4.46996 45.5062L12.8024 44.1178C13.4082 44.0168 13.8976 43.568 14.0503 42.9732C14.9903 39.3133 16.4499 35.8013 18.3882 32.5348C18.7021 32.0057 18.674 31.3413 18.3164 30.8407L13.3962 23.9528C12.9303 23.3002 13.0037 22.414 13.5698 21.8468L21.8487 13.57C22.4154 13.0035 23.3004 12.9303 23.9524 13.3962L30.8405 18.3167C31.3411 18.6742 32.0055 18.7021 32.5345 18.3885C35.8011 16.4499 39.313 14.9905 42.9729 14.0505C43.5678 13.8978 44.0166 13.4082 44.1176 12.8026L45.5062 4.46852C45.637 3.67769 46.3142 3.10392 47.1162 3.10392H51.4179V21.3262C45.392 21.6167 39.64 23.5969 34.696 27.0997C33.9966 27.5953 33.8315 28.5639 34.3268 29.2632C34.8222 29.9626 35.7908 30.1279 36.4903 29.6324C41.3296 26.2036 47.0283 24.3912 52.9698 24.3912C68.7284 24.3912 81.5488 37.2116 81.5488 52.9702C81.5488 68.7288 68.7286 81.549 52.97 81.549ZM84.6144 51.4181C83.8273 35.1806 70.7596 22.1127 54.5219 21.3256V3.10371H58.8236C59.6256 3.10371 60.3026 3.67748 60.4338 4.46996L61.8222 12.8026C61.9232 13.4084 62.372 13.8978 62.9668 14.0505C66.6267 14.9905 70.1387 16.4501 73.4053 18.3885C73.9345 18.7023 74.5989 18.6744 75.0993 18.3167L81.9872 13.3964C82.64 12.9307 83.5246 13.0037 84.0913 13.5703L92.3687 21.8456C92.9361 22.414 93.0095 23.3002 92.5436 23.9526L87.6231 30.8407C87.2656 31.3413 87.2374 32.0057 87.5513 32.5348C89.4895 35.8009 90.9491 39.3122 91.8893 42.9713C92.0422 43.566 92.5313 44.0146 93.137 44.1157L101.471 45.5064C102.262 45.6372 102.836 46.3144 102.836 47.1164V51.4181H84.6144Z" fill="url(#paint0_linear_1168_2051)"/>
<path d="M54.8337 45.9215C54.8283 45.9072 54.8227 45.8929 54.8167 45.8788C54.5293 45.1805 53.8562 44.7296 53.1012 44.7296H53.0991C52.3435 44.7305 51.6702 45.183 51.384 45.8824C51.3792 45.894 51.3747 45.9057 51.3701 45.9175L46.3471 59.1062C46.0421 59.9072 46.4439 60.8038 47.2449 61.1088C48.0459 61.4138 48.9424 61.0117 49.2474 60.211L50.1177 57.9258H56.046L56.9067 60.2064C57.1414 60.8278 57.7317 61.2108 58.3591 61.2108C58.5412 61.2108 58.7264 61.1785 58.9066 61.1104C59.7084 60.8079 60.1133 59.9124 59.8106 59.1106L54.8337 45.9215ZM51.3002 54.8221L53.0958 50.1073L54.8751 54.8221H51.3002Z" fill="url(#paint1_linear_1168_2051)"/>
<path d="M40.0968 51.6195L39.5036 51.401C37.929 50.8218 37.1386 50.5309 36.4103 50.1345C36.0037 49.9128 35.9819 49.5015 36.0051 49.2762C36.0535 48.8073 36.3925 48.2201 37.1978 47.9774C39.1506 47.3891 40.9485 48.8172 40.9903 48.8508C41.6462 49.3951 42.6197 49.3084 43.1691 48.655C43.7205 47.9991 43.6357 47.02 42.9796 46.4686C42.8552 46.3641 39.8955 43.9233 36.3025 45.0057C34.4363 45.5676 33.1079 47.1187 32.9178 48.9569C32.7481 50.5975 33.5174 52.0931 34.9256 52.8601C35.8535 53.3654 36.7693 53.7023 38.4318 54.3139L39.0225 54.5314C39.6375 54.7581 41.0466 55.4027 40.8531 56.4865C40.711 57.2829 39.7538 58.1066 38.3979 58.1066C37.0349 58.1066 35.7221 57.5558 34.8861 56.6334C34.3107 55.9986 33.3293 55.9502 32.6941 56.5256C32.0591 57.1012 32.0108 58.0826 32.5863 58.7177C34.0007 60.2784 36.1733 61.2104 38.3979 61.2104C41.1587 61.2104 43.4762 59.453 43.9084 57.0321C44.2333 55.2148 43.4023 52.8386 40.0968 51.6195Z" fill="url(#paint2_linear_1168_2051)"/>
<path d="M68.3545 44.7296H64.6296C63.7726 44.7296 63.0778 45.4245 63.0778 46.2815V59.6585C63.0778 60.5155 63.7726 61.2104 64.6296 61.2104C65.4866 61.2104 66.1815 60.5155 66.1815 59.6585V55.3913C66.9646 55.3872 67.854 55.3832 68.3545 55.3832C71.3326 55.3832 73.7553 52.9936 73.7553 50.0562C73.7553 47.1193 71.3326 44.7296 68.3545 44.7296ZM68.3545 52.2797C67.854 52.2797 66.9661 52.2837 66.1815 52.2876V47.8334H68.3545C69.5997 47.8334 70.6516 48.8514 70.6516 50.0564C70.6516 51.2615 69.5997 52.2797 68.3545 52.2797Z" fill="url(#paint3_linear_1168_2051)"/>
<defs>
<linearGradient id="paint0_linear_1168_2051" x1="106.765" y1="23.1572" x2="-32.6406" y2="34.7104" gradientUnits="userSpaceOnUse">
<stop stop-color="#FF36A5"/>
<stop offset="1" stop-color="#40FBFF"/>
</linearGradient>
<linearGradient id="paint1_linear_1168_2051" x1="106.765" y1="23.1572" x2="-32.6406" y2="34.7104" gradientUnits="userSpaceOnUse">
<stop stop-color="#FF36A5"/>
<stop offset="1" stop-color="#40FBFF"/>
</linearGradient>
<linearGradient id="paint2_linear_1168_2051" x1="106.765" y1="23.1572" x2="-32.6406" y2="34.7104" gradientUnits="userSpaceOnUse">
<stop stop-color="#FF36A5"/>
<stop offset="1" stop-color="#40FBFF"/>
</linearGradient>
<linearGradient id="paint3_linear_1168_2051" x1="106.765" y1="23.1572" x2="-32.6406" y2="34.7104" gradientUnits="userSpaceOnUse">
<stop stop-color="#FF36A5"/>
<stop offset="1" stop-color="#40FBFF"/>
</linearGradient>
</defs>
</svg>
