<svg width="82" height="96" viewBox="0 0 82 96" fill="none" xmlns="http://www.w3.org/2000/svg">
<path fill-rule="evenodd" clip-rule="evenodd" d="M65.8664 17.4985C65.8664 16.6944 66.5165 16.0459 67.3186 16.0459L77.3031 16.0456C78.1052 16.0456 78.7553 16.6942 78.7553 17.4983L78.7555 27.4821C78.7555 28.2836 78.1055 28.9335 77.3033 28.9335C76.5007 28.9335 75.8504 28.2836 75.8504 27.4821L75.8502 18.9509L67.3186 18.9512C66.5165 18.9509 65.8664 18.3 65.8664 17.4985ZM3.18172 27.4838L3.18151 17.5C3.18151 16.6959 3.83156 16.0473 4.63373 16.0473L14.6182 16.0471C15.4203 16.0471 16.0704 16.6957 16.0706 17.4998C16.0706 18.3013 15.4205 18.9524 14.6184 18.9524L6.08681 18.9526L6.08702 27.4838C6.08702 28.2853 5.43655 28.9351 4.63437 28.9351C3.83219 28.9351 3.18172 28.2853 3.18172 27.4838ZM78.9032 59.3126L71.6007 61.6846C71.128 61.8376 70.7666 62.2232 70.6428 62.7052C69.9288 65.487 68.8221 68.1561 67.3532 70.6378C67.1 71.0662 67.0837 71.5936 67.3093 72.0366L70.7973 78.8825L64.7894 84.8901L57.9434 81.4026C57.5003 81.1786 56.9723 81.1932 56.5445 81.4479C54.0641 82.9154 51.3957 84.0216 48.612 84.7365C48.1302 84.8602 47.7458 85.2223 47.5918 85.6948L45.2189 92.9986L36.7223 92.9988L34.3491 85.6953C34.1954 85.2228 33.8102 84.8607 33.3289 84.7382C30.5477 84.0235 27.8787 82.9162 25.3963 81.4488C24.9685 81.1943 24.4407 81.1771 23.997 81.4036L17.1516 84.8916L11.1429 78.8842L14.6311 72.0381C14.8572 71.5951 14.8404 71.0677 14.5872 70.6393C13.1195 68.1588 12.0127 65.4908 11.298 62.7067C11.174 62.2245 10.8128 61.8391 10.3399 61.6861L3.03637 59.3145V56.5181L17.1459 56.5177C17.8991 69.0053 28.2973 78.9325 40.9707 78.9321C53.6441 78.9318 64.0417 69.004 64.7943 56.5164L78.9038 56.516L78.9032 59.3126ZM10.3191 38.8342L10.3195 53.6126L14.8925 53.6124L14.8923 45.8928C14.8923 44.1426 16.316 42.7182 18.0654 42.7182L24.4899 42.7179C26.24 42.7179 27.6636 44.1424 27.6636 45.8923L27.6638 53.612L32.2362 53.6118L32.2358 38.8333L21.2773 27.6139L10.3191 38.8342ZM43.9991 9.54304L43.9993 15.5089L29.508 21.6992L29.5078 15.7321L43.9991 9.54304ZM55.557 21.2386L46.9042 15.6755L46.904 10.0032L55.5568 15.5676L55.557 21.2386ZM35.1415 49.8257L44 46.0428L44.0002 53.612L35.1415 53.6122V49.8257ZM43.9996 27.7923L43.9998 33.7594L34.9934 37.6061C34.926 37.4678 34.8377 37.3381 34.7277 37.2256L30.9562 33.3634L43.9996 27.7923ZM43.9993 24.6338L29.508 30.8253L29.5078 24.8582L43.9991 18.6679L43.9993 24.6338ZM55.5572 30.3632L55.557 24.691L46.9042 19.1291L46.9044 24.8001L55.5572 30.3632ZM55.5578 48.6124L46.9051 43.0493L46.9049 37.3784L55.5576 42.9427L55.5578 48.6124ZM55.5576 39.4878L46.8207 33.8709H46.9049L46.9046 28.2525L55.5574 33.8167L55.5576 39.4878ZM35.1411 40.7023L35.1413 46.6672L43.9998 42.883L43.9996 36.9184L35.1411 40.7023ZM46.9051 53.6118L55.5578 53.6115V52.0659L46.9051 46.504V53.6118ZM61.8814 56.5166L20.0575 56.5177C20.8063 67.4009 29.8989 76.0272 40.9701 76.0268C52.0408 76.0265 61.133 67.3998 61.8814 56.5166ZM24.7589 53.6122L17.7972 53.6124L17.797 45.8928C17.797 45.7472 17.9203 45.6235 18.0657 45.6235L24.4901 45.6232C24.6358 45.6232 24.7587 45.7468 24.7587 45.8925L24.7589 53.6122ZM69.5309 28.3913L58.4618 28.3915L58.4625 53.6113L70.4657 53.6111L70.4651 29.3273C70.4648 28.8197 70.0371 28.3913 69.5309 28.3913ZM80.3552 53.6109L73.3706 53.6111L73.3699 29.3273C73.3699 27.2102 71.6476 25.4872 69.5307 25.4872L58.4616 25.4874L58.4614 14.7731C58.4614 14.2788 58.2103 13.8186 57.7946 13.5505L46.904 6.55087L46.9038 1.49054C46.9038 0.687728 46.2531 0.0366211 45.4509 0.0366211C44.6488 0.0366211 43.9987 0.687728 43.9987 1.49054L43.9989 6.38327L27.4846 13.4376C26.9496 13.6664 26.6025 14.1927 26.6025 14.7739L26.6029 28.9076L22.3162 24.5191C21.7471 23.9369 20.8074 23.9373 20.2383 24.5191L7.82761 37.226C7.56276 37.4976 7.41423 37.8612 7.41423 38.2405L7.41466 53.6126L1.58351 53.6128C0.781331 53.6128 0.130859 54.2639 0.130859 55.0655L0.131071 60.3695C0.131071 60.9996 0.536397 61.5577 1.13496 61.7511L8.69335 64.206C9.40379 66.7184 10.4077 69.139 11.6851 71.4201L8.07551 78.5047C7.78969 79.0664 7.89753 79.748 8.34269 80.1923L15.8435 87.6916C16.288 88.1382 16.9688 88.2461 17.53 87.9596L24.6147 84.3494C26.8987 85.6294 29.319 86.6328 31.8294 87.3414L34.2853 94.9006C34.4798 95.499 35.0377 95.9041 35.6667 95.9041L46.2739 95.9039C46.9036 95.9039 47.461 95.4987 47.6555 94.9002L50.1114 87.3407C52.6231 86.6297 55.0434 85.6273 57.326 84.3483L64.4106 87.9584C64.9712 88.2448 65.652 88.137 66.0972 87.6903L73.5975 80.1908C74.0427 79.7465 74.1505 79.0649 73.8647 78.5032L70.2549 71.4188C71.5336 69.1351 72.5375 66.7144 73.2473 64.2045L80.8046 61.7494C81.4032 61.556 81.8085 60.9979 81.8085 60.3678L81.8083 55.0638C81.8081 54.262 81.1574 53.6109 80.3552 53.6109Z" fill="url(#paint0_linear_1168_2031)"/>
<defs>
<linearGradient id="paint0_linear_1168_2031" x1="82.4448" y1="20.9921" x2="-25.2357" y2="28.5952" gradientUnits="userSpaceOnUse">
<stop stop-color="#FF36A5"/>
<stop offset="1" stop-color="#40FBFF"/>
</linearGradient>
</defs>
</svg>
