<svg width="9" height="13" viewBox="0 0 9 13" fill="none" xmlns="http://www.w3.org/2000/svg">
<g clip-path="url(#clip0_1_1546)">
<path d="M4.19427 6.43478C4.19427 5.98417 4.05546 5.58988 3.77784 5.25192C3.55227 4.98328 3.25296 4.77097 2.87991 4.61499C2.59361 4.48501 2.32033 4.40701 2.06006 4.38102L4.25934 2.06728C4.28537 2.34459 4.36345 2.63489 4.49358 2.93818C4.6671 3.3368 4.897 3.65743 5.1833 3.90007C5.539 4.20337 5.96411 4.36369 6.45862 4.38102C6.502 5.94084 6.51935 7.11504 6.51067 7.90361C6.502 8.48421 6.48465 8.76584 6.45862 8.74851C5.93808 8.71385 5.49562 8.85683 5.13124 9.17746C4.83627 9.42877 4.60203 9.7754 4.42852 10.2173C4.29838 10.5466 4.2203 10.8716 4.19427 11.1922L2.06006 8.61853C2.32033 8.5752 2.59361 8.47988 2.87991 8.33256C3.25296 8.15058 3.55227 7.92094 3.77784 7.64364C4.05546 7.28835 4.19427 6.8854 4.19427 6.43478ZM2.12513 12.999C1.75207 12.999 1.40505 12.9015 1.08405 12.7066C0.763049 12.5116 0.509286 12.2473 0.322759 11.9136C0.136232 11.58 0.0429688 11.2139 0.0429688 10.8153C0.0429688 10.4167 0.136232 10.0505 0.322759 9.7169C0.509286 9.38327 0.763049 9.1168 1.08405 8.91749C1.40505 8.71818 1.75207 8.61853 2.12513 8.61853C2.49818 8.61853 2.84304 8.71818 3.1597 8.91749C3.47636 9.1168 3.72796 9.38327 3.91448 9.7169C4.10101 10.0505 4.19427 10.4167 4.19427 10.8153C4.19427 11.2139 4.10101 11.58 3.91448 11.9136C3.72796 12.2473 3.47636 12.5116 3.1597 12.7066C2.84304 12.9015 2.49818 12.999 2.12513 12.999ZM6.64081 8.74851C6.26776 8.74851 5.92073 8.65102 5.59973 8.45605C5.27873 8.26107 5.02497 7.99677 4.83844 7.66314C4.65191 7.32951 4.55865 6.96339 4.55865 6.56477C4.55865 6.16614 4.65191 5.80002 4.83844 5.46639C5.02497 5.13276 5.27873 4.86846 5.59973 4.67348C5.92073 4.47851 6.26776 4.38102 6.64081 4.38102C7.01386 4.38102 7.36089 4.47851 7.68189 4.67348C8.00289 4.86846 8.25665 5.13276 8.44318 5.46639C8.62971 5.80002 8.72297 6.16614 8.72297 6.56477C8.72297 6.96339 8.62971 7.32951 8.44318 7.66314C8.25665 7.99677 8.00289 8.26107 7.68189 8.45605C7.36089 8.65102 7.01386 8.74851 6.64081 8.74851ZM2.24225 4.38102C1.8692 4.38102 1.52217 4.28136 1.20117 4.08205C0.88017 3.88274 0.626407 3.61627 0.43988 3.28264C0.253354 2.94902 0.16009 2.58289 0.16009 2.18427C0.16009 1.78565 0.253354 1.41953 0.43988 1.0859C0.626407 0.752269 0.88017 0.487966 1.20117 0.292989C1.52217 0.0980114 1.8692 0.000522599 2.24225 0.000522599C2.6153 0.000522599 2.96233 0.0980114 3.28333 0.292989C3.60433 0.487966 3.85809 0.752269 4.04462 1.0859C4.23114 1.41953 4.32441 1.78565 4.32441 2.18427C4.32441 2.58289 4.23114 2.94902 4.04462 3.28264C3.85809 3.61627 3.60433 3.88274 3.28333 4.08205C2.96233 4.28136 2.6153 4.38102 2.24225 4.38102Z" fill="#AD186A"/>
</g>
<defs>
<clipPath id="clip0_1_1546">
<rect width="8.68" height="13" fill="white" transform="matrix(1 0 0 -1 0.0429688 13)"/>
</clipPath>
</defs>
</svg>
