<svg width="14" height="14" viewBox="0 0 14 14" fill="none" xmlns="http://www.w3.org/2000/svg">
<g clip-path="url(#clip0_321_8606)">
<path d="M6.53955 7.30783C6.53955 6.85721 6.40074 6.46292 6.12312 6.12496C5.89755 5.85633 5.59824 5.64402 5.22519 5.48804C4.93889 5.35805 4.66561 5.28006 4.40534 5.25406L6.60462 2.94033C6.63064 3.21763 6.70872 3.50793 6.83886 3.81123C7.01237 4.20985 7.24228 4.53048 7.52857 4.77312C7.88428 5.07642 8.30938 5.23673 8.8039 5.25406C8.84728 6.81388 8.86463 7.98808 8.85595 8.77666C8.84728 9.35726 8.82992 9.63889 8.8039 9.62156C8.28336 9.5869 7.8409 9.72988 7.47652 10.0505C7.18155 10.3018 6.94731 10.6484 6.77379 11.0904C6.64366 11.4197 6.56558 11.7446 6.53955 12.0653L4.40534 9.49158C4.66561 9.44825 4.93889 9.35292 5.22519 9.20561C5.59824 9.02363 5.89755 8.79399 6.12312 8.51669C6.40074 8.1614 6.53955 7.75844 6.53955 7.30783ZM4.4704 13.8721C4.09735 13.8721 3.75032 13.7746 3.42932 13.5796C3.10832 13.3846 2.85456 13.1203 2.66803 12.7867C2.48151 12.4531 2.38824 12.0869 2.38824 11.6883C2.38824 11.2897 2.48151 10.9236 2.66803 10.5899C2.85456 10.2563 3.10832 9.98985 3.42932 9.79054C3.75032 9.59123 4.09735 9.49158 4.4704 9.49158C4.84346 9.49158 5.18831 9.59123 5.50498 9.79054C5.82164 9.98985 6.07323 10.2563 6.25976 10.5899C6.44629 10.9236 6.53955 11.2897 6.53955 11.6883C6.53955 12.0869 6.44629 12.4531 6.25976 12.7867C6.07323 13.1203 5.82164 13.3846 5.50498 13.5796C5.18831 13.7746 4.84346 13.8721 4.4704 13.8721ZM8.98609 9.62156C8.61303 9.62156 8.26601 9.52407 7.94501 9.32909C7.62401 9.13412 7.37024 8.86981 7.18372 8.53619C6.99719 8.20256 6.90393 7.83643 6.90393 7.43781C6.90393 7.03919 6.99719 6.67307 7.18372 6.33944C7.37024 6.00581 7.62401 5.74151 7.94501 5.54653C8.26601 5.35155 8.61303 5.25406 8.98609 5.25406C9.35914 5.25406 9.70617 5.35155 10.0272 5.54653C10.3482 5.74151 10.6019 6.00581 10.7885 6.33944C10.975 6.67307 11.0682 7.03919 11.0682 7.43781C11.0682 7.83643 10.975 8.20256 10.7885 8.53619C10.6019 8.86981 10.3482 9.13412 10.0272 9.32909C9.70617 9.52407 9.35914 9.62156 8.98609 9.62156ZM4.58752 5.25406C4.21447 5.25406 3.86744 5.15441 3.54645 4.9551C3.22545 4.75579 2.97168 4.48932 2.78516 4.15569C2.59863 3.82206 2.50537 3.45594 2.50537 3.05732C2.50537 2.6587 2.59863 2.29257 2.78516 1.95894C2.97168 1.62532 3.22545 1.36101 3.54645 1.16604C3.86744 0.971058 4.21447 0.873569 4.58752 0.873569C4.96058 0.873569 5.30761 0.971058 5.6286 1.16604C5.9496 1.36101 6.20337 1.62532 6.38989 1.95894C6.57642 2.29257 6.66968 2.6587 6.66968 3.05732C6.66968 3.45594 6.57642 3.82206 6.38989 4.15569C6.20337 4.48932 5.9496 4.75579 5.6286 4.9551C5.30761 5.15441 4.96058 5.25406 4.58752 5.25406Z" fill="white"/>
</g>
<defs>
<clipPath id="clip0_321_8606">
<rect width="8.68" height="13" fill="white" transform="matrix(1 0 0 -1 2.38824 13.873)"/>
</clipPath>
</defs>
</svg>
