<svg width="9" height="13" viewBox="0 0 9 13" fill="none" xmlns="http://www.w3.org/2000/svg">
<g clip-path="url(#clip0_982_4507)">
<path d="M4.15944 6.56501C4.15944 7.01562 4.01646 7.40991 3.73049 7.74787C3.51385 8.00784 3.21922 8.22015 2.84659 8.3848C2.56063 8.51478 2.28766 8.59278 2.02769 8.61877L4.21144 10.9325C4.23743 10.6639 4.31976 10.3736 4.45841 10.0616C4.63172 9.66299 4.86136 9.34236 5.14733 9.09972C5.50262 8.79642 5.92724 8.6361 6.42118 8.61877C6.46451 7.05029 6.48184 5.87609 6.47318 5.09618C6.46451 4.51558 6.44718 4.23394 6.42118 4.25128C5.90124 4.28594 5.45496 4.14296 5.08234 3.82233C4.7877 3.57102 4.55373 3.22439 4.38042 2.78245C4.25043 2.44448 4.17677 2.11952 4.15944 1.80756L2.02769 4.38126C2.28766 4.42459 2.56063 4.51991 2.84659 4.66723C3.21922 4.84921 3.51385 5.07885 3.73049 5.35615C4.01646 5.71144 4.15944 6.1144 4.15944 6.56501ZM2.07968 0.000766754C1.70706 0.000766754 1.36043 0.0982552 1.0398 0.293233C0.719172 0.488211 0.465701 0.752513 0.279389 1.08614C0.0930777 1.41977 -7.82013e-05 1.78589 -7.82013e-05 2.18451C-7.82013e-05 2.58314 0.0930777 2.94926 0.279389 3.28289C0.465701 3.61652 0.719172 3.88299 1.0398 4.0823C1.36043 4.28161 1.70706 4.38126 2.07968 4.38126C2.45231 4.38126 2.79893 4.28161 3.11956 4.0823C3.44019 3.88299 3.69366 3.61652 3.87997 3.28289C4.06629 2.94926 4.15944 2.58314 4.15944 2.18451C4.15944 1.78589 4.06629 1.41977 3.87997 1.08614C3.69366 0.752513 3.44019 0.488211 3.11956 0.293233C2.79893 0.0982552 2.45231 0.000766754 2.07968 0.000766754ZM6.59016 4.25128C6.21754 4.25128 5.87308 4.34877 5.55678 4.54374C5.24048 4.73872 4.98918 5.00302 4.80287 5.33665C4.61656 5.67028 4.5234 6.0364 4.5234 6.43502C4.5234 6.83365 4.61656 7.19977 4.80287 7.5334C4.98918 7.86703 5.24048 8.13133 5.55678 8.32631C5.87308 8.52128 6.21754 8.61877 6.59016 8.61877C6.96279 8.61877 7.30941 8.52128 7.63004 8.32631C7.95067 8.13133 8.20414 7.86703 8.39045 7.5334C8.57677 7.19977 8.66992 6.83365 8.66992 6.43502C8.66992 6.0364 8.57677 5.67028 8.39045 5.33665C8.20414 5.00302 7.95067 4.73872 7.63004 4.54374C7.30941 4.34877 6.96279 4.25128 6.59016 4.25128ZM2.19667 8.61877C1.82404 8.61877 1.47958 8.71843 1.16329 8.91774C0.846991 9.11705 0.595686 9.38352 0.409374 9.71715C0.223063 10.0508 0.129907 10.4169 0.129907 10.8155C0.129907 11.2141 0.223063 11.5803 0.409374 11.9139C0.595686 12.2475 0.846991 12.5118 1.16329 12.7068C1.47958 12.9018 1.82621 12.9993 2.20317 12.9993C2.58012 12.9993 2.92675 12.9018 3.24305 12.7068C3.55934 12.5118 3.81065 12.2475 3.99696 11.9139C4.18327 11.5803 4.27643 11.2141 4.27643 10.8155C4.27643 10.4169 4.18327 10.0508 3.99696 9.71715C3.81065 9.38352 3.55934 9.11705 3.24305 8.91774C2.92675 8.71843 2.57796 8.61877 2.19667 8.61877Z" fill="white"/>
</g>
<defs>
<clipPath id="clip0_982_4507">
<rect width="8.67" height="13" fill="white" transform="matrix(-1 0 0 -1 8.66992 13)"/>
</clipPath>
</defs>
</svg>
