<svg width="64" height="64" viewBox="0 0 64 64" fill="none" xmlns="http://www.w3.org/2000/svg">
<path d="M54.666 38.6667C53.9287 38.6667 53.3327 39.264 53.3327 40V45.3333C53.3327 46.068 52.7354 46.6667 51.9994 46.6667H51.8474C50.8767 43.4987 48.2874 41.0653 45.0314 40.3013L38.7847 38.86C40.502 37.4347 41.782 35.4853 42.342 33.2373C44.802 32.764 46.666 30.596 46.666 28C46.666 26.6973 46.03 25.5493 45.0634 24.8187L45.8914 22.7627C47.2367 19.3947 46.818 15.5813 44.7727 12.5613C42.8087 9.66268 39.718 8.00134 36.2927 8.00134H24.534C23.9714 8.00134 23.4687 8.35468 23.2794 8.88401C23.2474 8.97334 22.9727 9.77601 22.7954 10.9547C20.522 11.988 18.7087 13.776 17.8727 15.872C17.0194 18.008 17.1847 20.3707 18.35 22.7027L19.2887 24.5813C18.122 25.2813 17.3327 26.5453 17.3327 28.0013C17.3327 30.5707 19.1594 32.7227 21.6527 33.224C22.21 35.4773 23.4914 37.432 25.2127 38.8613L18.9607 40.304C15.7087 41.068 13.1207 43.5 12.15 46.668H11.998C11.262 46.668 10.6647 46.0693 10.6647 45.3347V40.0013C10.6647 39.2653 10.0687 38.668 9.33138 38.668C8.59405 38.668 7.99805 39.2653 7.99805 40.0013V45.3347C7.99805 47.3333 9.47538 48.9787 11.3927 49.2733L9.99538 54.1693C9.41538 56.2027 9.81405 58.3347 11.086 60.0213C12.3554 61.704 14.2914 62.668 16.3967 62.668H47.5967C49.702 62.668 51.638 61.7027 52.9074 60.0213C54.1794 58.3347 54.578 56.2027 53.998 54.1693L52.6007 49.2747C54.518 48.98 55.9954 47.3347 55.9954 45.336V40.0027C55.9954 39.2667 55.3994 38.6693 54.662 38.6693L54.666 38.6667ZM27.9994 40.5347C29.2434 41.0453 30.5927 41.3333 31.9994 41.3333C33.406 41.3333 34.7554 41.0453 35.9994 40.5347V42.6667C35.9994 44.872 34.2047 46.6667 31.9994 46.6667C29.794 46.6667 27.9994 44.872 27.9994 42.6667V40.5347ZM36.2927 10.6667C38.8207 10.6667 41.1047 11.9013 42.5647 14.056C44.114 16.3427 44.4314 19.2267 43.4167 21.7693L42.6674 23.6333V22.668C42.6674 19.7267 40.2754 17.3347 37.334 17.3347H26.7567C24.9687 15.0533 25.2514 12.116 25.558 10.668H36.294L36.2927 10.6667ZM20.3487 16.86C20.826 15.6627 21.7327 14.7213 22.7074 14.052C22.8354 15.3507 23.2034 16.7467 24.0034 18.0733C22.414 18.9973 21.3314 20.7 21.3314 22.668V22.7053L20.734 21.5093C19.906 19.8533 19.7754 18.2893 20.3474 16.86H20.3487ZM24.0927 31.8107C23.998 31.1547 23.33 30.6667 22.6674 30.6667C21.1967 30.6667 20.0007 29.4707 20.0007 28C20.0007 27.2653 20.598 26.6667 21.334 26.6667H22.6674C23.4047 26.6667 24.0007 26.0693 24.0007 25.3333V22.6667C24.0007 21.196 25.1967 20 26.6674 20H37.334C38.8047 20 40.0007 21.196 40.0007 22.6667V25.3333C40.0007 26.0693 40.5967 26.6667 41.334 26.6667H42.6674C43.4034 26.6667 44.0007 27.2653 44.0007 28C44.0007 29.4707 42.8047 30.6667 41.2287 30.6667C40.566 30.6667 40.0034 31.1547 39.9087 31.8107C39.3474 35.72 35.9474 38.6667 32.0007 38.6667C28.054 38.6667 24.654 35.72 24.0927 31.8107ZM50.7847 58.4133C50.0234 59.4213 48.8634 60 47.6007 60H16.3994C15.138 60 13.978 59.4213 13.2154 58.4133C12.4527 57.4013 12.214 56.12 12.562 54.9L14.1514 49.3347H17.3327C18.07 49.3347 18.666 48.7373 18.666 48.0013C18.666 47.2653 18.07 46.668 17.3327 46.668H14.9887C15.834 44.7907 17.518 43.3813 19.566 42.9013L25.3327 41.5707V42.668C25.3327 46.344 28.3234 49.3347 31.9994 49.3347C35.6754 49.3347 38.666 46.344 38.666 42.668V41.5707L44.4274 42.9C46.4794 43.3813 48.1647 44.7907 49.01 46.668H46.666C45.9287 46.668 45.3327 47.2653 45.3327 48.0013C45.3327 48.7373 45.9287 49.3347 46.666 49.3347H49.8474L51.4367 54.9C51.7847 56.1213 51.546 57.4027 50.7834 58.4147L50.7847 58.4133Z" fill="#AD186A"/>
<path d="M9.33333 12C10.0707 12 10.6667 11.4027 10.6667 10.6667V5.33337C10.6667 4.59871 11.264 4.00004 12 4.00004H17.3333C18.0707 4.00004 18.6667 3.40271 18.6667 2.66671C18.6667 1.93071 18.0707 1.33337 17.3333 1.33337H12C9.79467 1.33337 8 3.12804 8 5.33337V10.6667C8 11.4027 8.596 12 9.33333 12Z" fill="#AD186A"/>
<path d="M52.0007 1.33337H46.6673C45.93 1.33337 45.334 1.93071 45.334 2.66671C45.334 3.40271 45.93 4.00004 46.6673 4.00004H52.0007C52.7367 4.00004 53.334 4.59871 53.334 5.33337V10.6667C53.334 11.4027 53.93 12 54.6673 12C55.4047 12 56.0007 11.4027 56.0007 10.6667V5.33337C56.0007 3.12804 54.206 1.33337 52.0007 1.33337Z" fill="#AD186A"/>
</svg>
