<svg width="64" height="64" viewBox="0 0 64 64" fill="none" xmlns="http://www.w3.org/2000/svg">
<g clip-path="url(#clip0_1626_1248)">
<path d="M3.2002 64H33.0669C34.834 64 36.2666 62.5674 36.2666 60.7998V59.7334H38.3999C38.9893 59.7334 39.4668 59.2559 39.4668 58.6665C39.4668 58.0776 38.9893 57.6001 38.3999 57.6001H36.2666V49.0669H51.2002V51.2002C51.2002 51.7891 51.6777 52.2666 52.2666 52.2666C52.856 52.2666 53.3335 51.7891 53.3335 51.2002V49.0669H60.7998C62.5674 49.0669 64 47.6338 64 45.8667V3.2002C64 1.43262 62.5674 0 60.7998 0H22.3999C20.6328 0 19.2002 1.43262 19.2002 3.2002V12.7998H17.0669C16.4775 12.7998 16 13.2773 16 13.8667C16 14.4556 16.4775 14.9331 17.0669 14.9331H19.2002V29.8667H10.6665V27.7334C10.6665 27.144 10.189 26.6665 9.6001 26.6665C9.01074 26.6665 8.5332 27.144 8.5332 27.7334V29.8667H3.2002C1.43262 29.8667 0 31.2993 0 33.0669V60.7998C0 62.5674 1.43262 64 3.2002 64ZM33.0669 61.8667H3.2002C2.61084 61.8667 2.1333 61.3892 2.1333 60.7998V59.7334H34.1333V60.7998C34.1333 61.3892 33.6558 61.8667 33.0669 61.8667ZM51.3257 25.1167C51.5029 24.7598 51.8672 24.5337 52.2661 24.5337C52.665 24.5337 53.0293 24.7598 53.2065 25.1167L61.1807 40.5332H43.3525L46.2817 34.8706L51.3257 25.1167ZM43.168 36.2466L40.9502 40.5332H38.27L42.6284 32.1064C42.6567 32.0415 42.7212 31.9995 42.7925 32C42.8638 31.999 42.9282 32.041 42.9556 32.1064L44.1289 34.3809L43.168 36.2466ZM23.792 56.355L28.0225 48.1738C28.1729 47.8867 28.4233 47.8882 28.5718 48.1738L33.4473 57.6001H23.1465L23.7866 56.3584L23.792 56.355ZM20.7466 57.6001H17.8901L20.2666 53.667L21.6201 55.9072L20.7466 57.6001ZM60.7998 46.9331H36.2666V42.6665H61.8667V45.8667C61.8667 46.4556 61.3892 46.9331 60.7998 46.9331ZM2.1333 33.0669C2.1333 32.4775 2.61084 32 3.2002 32H28.7998C29.3892 32 29.8667 31.5225 29.8667 30.9331C29.8667 30.3442 29.3892 29.8667 28.7998 29.8667H21.3335V3.2002C21.3335 2.61084 21.811 2.1333 22.3999 2.1333H60.7998C61.3892 2.1333 61.8667 2.61084 61.8667 3.2002V37.2158L55.1006 24.1353C54.5576 23.0698 53.4624 22.3989 52.2661 22.3989C51.0698 22.3989 49.9746 23.0698 49.4316 24.1353L45.3335 32.0586L44.8511 31.1265C44.4561 30.3535 43.6611 29.8672 42.793 29.8672C41.9248 29.8672 41.1299 30.3535 40.7349 31.1265L36.2666 39.7632V37.3335C36.2666 36.7441 35.7891 36.2666 35.2002 36.2666C34.6108 36.2666 34.1333 36.7441 34.1333 37.3335V54.2817L30.4673 47.1924C30.0503 46.3779 29.2124 45.8657 28.2974 45.8657C27.3828 45.8657 26.5449 46.3779 26.1279 47.1924L22.77 53.6855L21.8345 52.1367C21.5244 51.5596 20.9219 51.1992 20.2666 51.1992C19.6113 51.1992 19.0088 51.5596 18.6987 52.1367L15.3984 57.6001H2.1333V33.0669Z" fill="#AD186A"/>
<path d="M25.6548 41.873C25.6685 41.9365 25.688 41.9985 25.7124 42.0585C25.7432 42.1152 25.7788 42.1689 25.8193 42.2187C25.8604 42.2802 25.9077 42.3369 25.9609 42.3881C25.9761 42.4023 25.9824 42.4204 25.9985 42.433C26.1924 42.5766 26.4253 42.6581 26.666 42.6664H29.8662C30.4551 42.6664 30.9326 42.1889 30.9326 41.6C30.9326 41.0107 30.4551 40.5331 29.8662 40.5331H28.8857L37.0991 30.2665C37.3374 29.9692 37.3989 29.5668 37.2603 29.2119C37.1216 28.8569 36.8037 28.6025 36.4268 28.5454C36.0503 28.4877 35.6714 28.6357 35.4331 28.933L27.7329 38.558V38.3998C27.7329 37.811 27.2554 37.3334 26.666 37.3334C26.0771 37.3334 25.5996 37.811 25.5996 38.3998V41.6C25.5996 41.6201 25.6104 41.6371 25.6113 41.6567C25.6177 41.7299 25.6323 41.8027 25.6548 41.873Z" fill="#AD186A"/>
<path d="M35.2002 10.1333C35.2002 6.89307 32.5732 4.2666 29.3335 4.2666C26.0933 4.2666 23.4668 6.89307 23.4668 10.1333C23.4668 13.3735 26.0933 16 29.3335 16C32.5718 15.9961 35.1958 13.3716 35.2002 10.1333ZM29.3335 13.8667C27.8232 13.8667 26.4619 12.957 25.8843 11.562C25.3062 10.167 25.626 8.56104 26.6934 7.49365C27.7612 6.42578 29.3672 6.10645 30.7622 6.68408C32.1572 7.26221 33.0669 8.62354 33.0669 10.1333C33.0669 12.1953 31.395 13.8667 29.3335 13.8667Z" fill="#AD186A"/>
<path d="M8.53223 34.1333C6.17578 34.1333 4.26562 36.0435 4.26562 38.3999C4.26562 40.7563 6.17578 42.6665 8.53223 42.6665C10.8887 42.6665 12.7988 40.7563 12.7988 38.3999C12.7988 36.0435 10.8887 34.1333 8.53223 34.1333ZM8.53223 40.5332C7.354 40.5332 6.39893 39.5781 6.39893 38.3999C6.39893 37.2217 7.354 36.2666 8.53223 36.2666C9.71045 36.2666 10.6655 37.2217 10.6655 38.3999C10.6655 39.5781 9.71045 40.5332 8.53223 40.5332Z" fill="#AD186A"/>
<path d="M42.1325 20.2666H52.799C54.7301 20.2637 56.4709 19.1045 57.2184 17.3242C57.9655 15.5439 57.5734 13.4893 56.2228 12.1094C54.8722 10.7295 52.8268 10.293 51.0304 11.0015C50.3986 8.68018 48.1457 7.18506 45.7609 7.50488C43.3766 7.82471 41.5968 9.86084 41.5993 12.2666C41.5993 12.4561 41.611 12.645 41.6344 12.833C39.6857 13.0942 38.2736 14.8213 38.4049 16.7827C38.5368 18.7446 40.1667 20.2681 42.1325 20.2666ZM42.1325 14.9331C42.2399 14.9341 42.3473 14.9448 42.4523 14.9653C42.5724 14.9897 42.696 14.9932 42.8175 14.9751L43.1896 14.9194C43.5241 14.8696 43.8151 14.6646 43.9743 14.3657C44.1335 14.0674 44.1413 13.7114 43.9958 13.4058C43.5197 12.416 43.6999 11.2354 44.4489 10.4316C45.1979 9.62842 46.3634 9.36621 47.384 9.77198C48.4049 10.1777 49.0724 11.168 49.0661 12.2666C49.0607 12.3984 49.0461 12.5298 49.0221 12.6592C48.9738 12.9937 49.0866 13.3315 49.3263 13.5693C49.5666 13.8076 49.9049 13.918 50.2394 13.8667L50.3459 13.8496C50.5671 13.8164 50.7726 13.7139 50.9323 13.5571C51.7931 12.7183 53.109 12.5586 54.1457 13.168C55.1818 13.7769 55.6823 15.0044 55.3678 16.1646C55.0534 17.3247 54.0011 18.1309 52.799 18.1333H42.1325C41.2487 18.1333 40.5324 17.417 40.5324 16.5332C40.5324 15.6499 41.2487 14.9331 42.1325 14.9331Z" fill="#AD186A"/>
<path d="M9.6001 20.2666C9.01074 20.2666 8.5332 20.7441 8.5332 21.3335V23.4668C8.5332 24.0557 9.01074 24.5332 9.6001 24.5332C10.189 24.5332 10.6665 24.0557 10.6665 23.4668V21.3335C10.6665 20.7441 10.189 20.2666 9.6001 20.2666Z" fill="#AD186A"/>
<path d="M10.6665 16C10.6665 15.4111 11.144 14.9331 11.7334 14.9331H12.7998C13.3892 14.9331 13.8667 14.4556 13.8667 13.8667C13.8667 13.2773 13.3892 12.7998 12.7998 12.7998H11.7334C9.96582 12.7998 8.5332 14.2329 8.5332 16V17.0669C8.5332 17.6558 9.01074 18.1333 9.6001 18.1333C10.189 18.1333 10.6665 17.6558 10.6665 17.0669V16Z" fill="#AD186A"/>
<path d="M53.3335 56.5332V55.4668C53.3335 54.8774 52.856 54.3999 52.2666 54.3999C51.6777 54.3999 51.2002 54.8774 51.2002 55.4668V56.5332C51.2002 57.1226 50.7227 57.6001 50.1333 57.6001H49.0669C48.4775 57.6001 48 58.0776 48 58.6665C48 59.2559 48.4775 59.7334 49.0669 59.7334H50.1333C51.9009 59.7334 53.3335 58.3008 53.3335 56.5332Z" fill="#AD186A"/>
<path d="M42.666 59.7334H44.7993C45.3887 59.7334 45.8662 59.2559 45.8662 58.6665C45.8662 58.0776 45.3887 57.6001 44.7993 57.6001H42.666C42.0771 57.6001 41.5996 58.0776 41.5996 58.6665C41.5996 59.2559 42.0771 59.7334 42.666 59.7334Z" fill="#AD186A"/>
</g>
<defs>
<clipPath id="clip0_1626_1248">
<rect width="64" height="64" fill="white"/>
</clipPath>
</defs>
</svg>
