<svg width="64" height="64" viewBox="0 0 64 64" fill="none" xmlns="http://www.w3.org/2000/svg">
<g clip-path="url(#clip0_1626_1258)">
<path d="M0.998047 17.6745V1.99892C0.998047 1.44605 1.44617 0.997925 1.99905 0.997925H17.6747C18.2275 0.997925 18.6757 1.44605 18.6757 1.99892C18.6757 2.5518 18.2275 2.99992 17.6747 2.99992H3.00005V17.6745C3.00005 18.2274 2.55192 18.6756 1.99905 18.6756C1.44617 18.6756 0.998047 18.2273 0.998047 17.6745ZM17.6748 61.0003H3.00005V46.3256C3.00005 45.7727 2.55192 45.3246 1.99905 45.3246C1.44617 45.3246 0.998047 45.7727 0.998047 46.3256V62.0013C0.998047 62.5542 1.44617 63.0023 1.99905 63.0023H17.6747C18.2275 63.0023 18.6757 62.5542 18.6757 62.0013C18.6757 61.4484 18.2275 61.0003 17.6748 61.0003ZM62.0015 0.997925H46.3258C45.7729 0.997925 45.3248 1.44605 45.3248 1.99892C45.3248 2.5518 45.7729 2.99992 46.3258 2.99992H61.0004V17.6745C61.0004 18.2274 61.4485 18.6756 62.0014 18.6756C62.5543 18.6756 63.0024 18.2274 63.0024 17.6745V1.99892C63.0025 1.44605 62.5544 0.997925 62.0015 0.997925ZM62.0015 45.3247C61.4487 45.3247 61.0005 45.7728 61.0005 46.3257V61.0003H46.3258C45.7729 61.0003 45.3248 61.4484 45.3248 62.0013C45.3248 62.5542 45.7729 63.0023 46.3258 63.0023H62.0015C62.5544 63.0023 63.0025 62.5542 63.0025 62.0013V46.3256C63.0025 45.7728 62.5544 45.3247 62.0015 45.3247ZM49.3813 42.611L32.5009 52.3586C32.346 52.4481 32.1732 52.4927 32.0003 52.4927C31.8274 52.4927 31.6545 52.4481 31.4997 52.3586L14.6193 42.611C14.3097 42.4322 14.1189 42.1018 14.1189 41.7442V22.2559C14.1189 21.8983 14.3097 21.5679 14.6193 21.389L31.4997 11.6414C31.8095 11.4624 32.191 11.4624 32.5009 11.6414L49.3813 21.389C49.6909 21.5679 49.8817 21.8983 49.8817 22.2559V41.7442C49.8817 42.1017 49.6908 42.4322 49.3813 42.611ZM17.1219 22.2558L32.0003 30.8443L46.8787 22.2558L32.0003 13.6642L17.1219 22.2558ZM16.1209 41.1663L30.9993 49.7578V32.578L16.1209 23.9895V41.1663ZM47.8797 41.1663V23.9895L33.0013 32.578V49.7579L47.8797 41.1663Z" fill="#AD186A" stroke="#AD186A"/>
</g>
<defs>
<clipPath id="clip0_1626_1258">
<rect width="64" height="64" fill="white"/>
</clipPath>
</defs>
</svg>
