<svg width="69" height="65" viewBox="0 0 69 65" fill="none" xmlns="http://www.w3.org/2000/svg">
<path d="M20.4022 50.0789C21.3114 48.7902 21.8424 47.2477 21.8424 45.5905C21.8424 41.0914 17.9346 37.4312 13.1312 37.4312C8.32781 37.4312 4.42016 41.0914 4.42016 45.5905C4.42016 47.2478 4.95135 48.7903 5.86047 50.0792C2.40504 51.4204 0 54.6345 0 58.2505V63.25C0 63.9404 0.597225 64.5 1.33399 64.5H24.9286C25.6653 64.5 26.2626 63.9404 26.2626 63.25V58.2505C26.2626 54.634 23.8575 51.4199 20.4022 50.0789ZM13.1312 39.9312C16.4634 39.9312 19.1744 42.4699 19.1744 45.5905C19.1744 48.713 16.4635 51.2534 13.1312 51.2534C9.79906 51.2534 7.08813 48.713 7.08813 45.5905C7.08813 42.4699 9.79906 39.9312 13.1312 39.9312ZM23.5946 62H2.66797V58.2505C2.66797 55.323 4.86638 52.7624 7.86585 52.0878C9.3295 53.1319 11.154 53.7534 13.1312 53.7534C15.1085 53.7534 16.9331 53.1319 18.3967 52.0878C21.3962 52.7619 23.5946 55.3227 23.5946 58.2505V62Z" fill="#AD186A"/>
<path d="M62.4335 50.0788C63.3425 48.79 63.8735 47.2477 63.8735 45.5905C63.8735 41.0914 59.9658 37.4312 55.1625 37.4312C50.3612 37.4312 46.4551 41.0914 46.4551 45.5905C46.4551 47.2473 46.9858 48.7895 47.8942 50.0782C44.4375 51.4188 42.0312 54.6335 42.0312 58.2505V63.25C42.0312 63.9404 42.6285 64.5 43.3652 64.5H66.9637C67.7005 64.5 68.2977 63.9404 68.2977 63.25V58.2505C68.2976 54.634 65.891 51.4197 62.4335 50.0788ZM55.1625 39.9312C58.4946 39.9312 61.2056 42.4699 61.2056 45.5905C61.2056 48.713 58.4946 51.2534 55.1625 51.2534C51.8323 51.2534 49.1231 48.713 49.1231 45.5905C49.1231 42.4699 51.8323 39.9312 55.1625 39.9312ZM65.6296 62H44.6991V58.2505C44.6991 55.3225 46.8984 52.7614 49.8988 52.0874C51.3619 53.1317 53.1859 53.7534 55.1625 53.7534C57.1397 53.7534 58.9643 53.1318 60.428 52.0877C63.4296 52.762 65.6295 55.3228 65.6295 58.2505V62H65.6296Z" fill="#AD186A"/>
<path d="M55.1999 33.5297C55.4184 33.6609 55.6684 33.727 55.9192 33.727C56.135 33.727 56.3513 33.678 56.5483 33.5792C56.9741 33.3659 57.2436 32.9534 57.2529 32.501L57.33 28.729C60.8637 27.9171 63.4846 24.8896 63.4846 21.3937C63.4846 17.736 60.694 14.6784 57.0034 13.9897C57.1933 13.1982 57.2909 12.3899 57.2909 11.5717C57.2908 5.46675 51.9905 0.5 45.4754 0.5H36.374C35.6373 0.5 35.04 1.05962 35.04 1.75C35.04 2.44037 35.6373 3 36.374 3H45.4754C50.5193 3 54.6229 6.84537 54.6229 11.5719C54.6229 12.3436 54.5116 13.1045 54.2935 13.8439H36.0716C32.0835 13.8439 28.7648 16.5737 28.1271 20.1437H24.5428C24.2412 20.1437 23.9485 20.2395 23.7124 20.4154L15.8116 26.3035L15.7087 21.3304C15.6955 20.6915 15.1702 20.1647 14.4908 20.1092C9.80957 19.7271 6.14258 15.977 6.14258 11.5716C6.14258 6.84537 10.2478 3 15.2939 3H24.3952C25.132 3 25.7292 2.44037 25.7292 1.75C25.7292 1.05962 25.132 0.5 24.3952 0.5H15.2939C8.77667 0.5 3.47461 5.46675 3.47461 11.5719C3.47461 14.3497 4.58769 17.0106 6.60894 19.0646C8.34072 20.8245 10.5993 22.0004 13.0633 22.4441L13.1963 28.88C13.2062 29.3555 13.503 29.7845 13.9621 29.9869C14.1432 30.0667 14.337 30.1059 14.5299 30.1059C14.8262 30.1059 15.1199 30.0135 15.3604 29.8342L25.0085 22.6439H28.1271C28.7648 26.2139 32.0835 28.9437 36.0716 28.9437H47.5542L55.1999 33.5297ZM30.6826 21.3937C30.6826 18.6092 33.1002 16.3439 36.0716 16.3439H55.4276C58.3991 16.3439 60.8166 18.6092 60.8166 21.3937C60.8166 23.989 58.6577 26.1984 55.9016 26.4235C55.222 26.479 54.6967 27.0059 54.6838 27.6449L54.6311 30.2201L48.6638 26.6407C48.4491 26.512 48.1995 26.4435 47.9446 26.4435H36.0716C33.1 26.4436 30.6826 24.1782 30.6826 21.3937Z" fill="#AD186A"/>
<path d="M38.1816 20.142C37.4449 20.142 36.8477 20.7033 36.8477 21.3937C36.8477 22.0841 37.4449 22.6437 38.1816 22.6437C38.9184 22.6437 39.5156 22.0841 39.5156 21.3937V21.3902C39.5156 20.6998 38.9184 20.142 38.1816 20.142Z" fill="#AD186A"/>
<path d="M45.752 20.142C45.0152 20.142 44.418 20.7033 44.418 21.3937C44.418 22.0841 45.0152 22.6437 45.752 22.6437C46.4887 22.6437 47.0859 22.0841 47.0859 21.3937V21.3902C47.0859 20.6998 46.4887 20.142 45.752 20.142Z" fill="#AD186A"/>
<path d="M53.3184 22.6437C54.0551 22.6437 54.6523 22.0841 54.6523 21.3937V21.3902C54.6523 20.6998 54.0551 20.142 53.3184 20.142C52.5816 20.142 51.9844 20.7033 51.9844 21.3937C51.9844 22.0841 52.5816 22.6437 53.3184 22.6437Z" fill="#AD186A"/>
<path d="M30.3846 3H30.3922C31.129 3 31.7225 2.44037 31.7225 1.75C31.7225 1.05963 31.1215 0.5 30.3848 0.5C29.648 0.5 29.0508 1.05963 29.0508 1.75C29.0508 2.44037 29.6479 3 30.3846 3Z" fill="#AD186A"/>
</svg>
