<svg width="13" height="13" viewBox="0 0 13 13" fill="none" xmlns="http://www.w3.org/2000/svg">
<g clip-path="url(#clip0_982_4885)">
<path d="M6.31146 6.43502C6.31146 5.98441 6.17265 5.59012 5.89503 5.25216C5.66946 4.98353 5.37015 4.77122 4.9971 4.61523C4.7108 4.48525 4.43752 4.40726 4.17725 4.38126L6.37653 2.06753C6.40255 2.34483 6.48064 2.63513 6.61077 2.93843C6.78428 3.33705 7.01419 3.65768 7.30049 3.90032C7.65619 4.20362 8.0813 4.36393 8.57581 4.38126C8.61919 5.94108 8.63654 7.11528 8.62786 7.90386C8.61919 8.48446 8.60184 8.76609 8.57581 8.74876C8.05527 8.7141 7.61281 8.85708 7.24843 9.17771C6.95346 9.42901 6.71922 9.77564 6.5457 10.2176C6.41557 10.5469 6.33749 10.8718 6.31146 11.1925L4.17725 8.61877C4.43752 8.57544 4.7108 8.48012 4.9971 8.33281C5.37015 8.15083 5.66946 7.92119 5.89503 7.64389C6.17265 7.28859 6.31146 6.88564 6.31146 6.43502ZM4.24232 12.9993C3.86926 12.9993 3.52224 12.9018 3.20124 12.7068C2.88024 12.5118 2.62647 12.2475 2.43995 11.9139C2.25342 11.5803 2.16016 11.2141 2.16016 10.8155C2.16016 10.4169 2.25342 10.0508 2.43995 9.71715C2.62647 9.38352 2.88024 9.11705 3.20124 8.91774C3.52224 8.71843 3.86926 8.61877 4.24232 8.61877C4.61537 8.61877 4.96023 8.71843 5.27689 8.91774C5.59355 9.11705 5.84514 9.38352 6.03167 9.71715C6.2182 10.0508 6.31146 10.4169 6.31146 10.8155C6.31146 11.2141 6.2182 11.5803 6.03167 11.9139C5.84514 12.2475 5.59355 12.5118 5.27689 12.7068C4.96023 12.9018 4.61537 12.9993 4.24232 12.9993ZM8.758 8.74876C8.38494 8.74876 8.03792 8.65127 7.71692 8.45629C7.39592 8.26131 7.14216 7.99701 6.95563 7.66338C6.7691 7.32975 6.67584 6.96363 6.67584 6.56501C6.67584 6.16639 6.7691 5.80026 6.95563 5.46664C7.14216 5.13301 7.39592 4.86871 7.71692 4.67373C8.03792 4.47875 8.38494 4.38126 8.758 4.38126C9.13105 4.38126 9.47808 4.47875 9.79908 4.67373C10.1201 4.86871 10.3738 5.13301 10.5604 5.46664C10.7469 5.80026 10.8402 6.16639 10.8402 6.56501C10.8402 6.96363 10.7469 7.32975 10.5604 7.66338C10.3738 7.99701 10.1201 8.26131 9.79908 8.45629C9.47808 8.65127 9.13105 8.74876 8.758 8.74876ZM4.35944 4.38126C3.98638 4.38126 3.63936 4.28161 3.31836 4.0823C2.99736 3.88299 2.74359 3.61652 2.55707 3.28289C2.37054 2.94926 2.27728 2.58314 2.27728 2.18451C2.27728 1.78589 2.37054 1.41977 2.55707 1.08614C2.74359 0.752513 2.99736 0.488211 3.31836 0.293233C3.63936 0.0982552 3.98638 0.000766754 4.35944 0.000766754C4.73249 0.000766754 5.07952 0.0982552 5.40052 0.293233C5.72152 0.488211 5.97528 0.752513 6.16181 1.08614C6.34833 1.41977 6.4416 1.78589 6.4416 2.18451C6.4416 2.58314 6.34833 2.94926 6.16181 3.28289C5.97528 3.61652 5.72152 3.88299 5.40052 4.0823C5.07952 4.28161 4.73249 4.38126 4.35944 4.38126Z" fill="black"/>
</g>
<defs>
<clipPath id="clip0_982_4885">
<rect width="8.68" height="13" fill="white" transform="matrix(1 0 0 -1 2.16016 13)"/>
</clipPath>
</defs>
</svg>
