<svg width="60" height="60" viewBox="0 0 60 60" fill="none" xmlns="http://www.w3.org/2000/svg">
<path d="M21.5625 16.875C21.5625 18.5438 22.0574 20.1751 22.9845 21.5626C23.9116 22.9502 25.2294 24.0316 26.7711 24.6702C28.3129 25.3088 30.0094 25.4759 31.6461 25.1504C33.2828 24.8248 34.7862 24.0212 35.9662 22.8412C37.1462 21.6612 37.9498 20.1578 38.2754 18.5211C38.6009 16.8844 38.4338 15.1879 37.7952 13.6461C37.1566 12.1044 36.0752 10.7866 34.6876 9.85947C33.3001 8.93235 31.6688 8.4375 30 8.4375C27.7622 8.4375 25.6161 9.32645 24.0338 10.9088C22.4514 12.4911 21.5625 14.6372 21.5625 16.875ZM35.1375 14.7469L29.175 20.7188C28.9098 20.98 28.5535 21.1279 28.1812 21.1313C27.9966 21.1316 27.8136 21.0953 27.6431 21.0245C27.4725 20.9537 27.3176 20.8498 27.1875 20.7188L24.8625 18.3938L26.85 16.4062L28.1812 17.7281L33.15 12.7594L35.1375 14.7469Z" fill="#AD186A"/>
<path d="M50.6248 45L54.9467 42.8812C55.0621 42.8282 55.1655 42.7524 55.2507 42.6582C55.3359 42.564 55.4011 42.4536 55.4423 42.3334C55.4835 42.2133 55.4998 42.0861 55.4904 41.9595C55.481 41.8329 55.4459 41.7095 55.3873 41.5968L49.2467 29.175C49.1937 29.0596 49.1178 28.9561 49.0237 28.871C48.9295 28.7858 48.819 28.7206 48.6989 28.6794C48.5788 28.6382 48.4516 28.6218 48.325 28.6313C48.1984 28.6407 48.075 28.6758 47.9623 28.7343L43.6498 30.8625C43.5357 30.9155 43.4333 30.991 43.349 31.0845C43.2646 31.1779 43.2 31.2874 43.1588 31.4064C43.1177 31.5254 43.101 31.6515 43.1096 31.7771C43.1183 31.9027 43.1521 32.0252 43.2092 32.1375L49.3404 44.5875C49.396 44.7004 49.4737 44.8011 49.569 44.8833C49.6643 44.9656 49.7752 45.0279 49.8951 45.0664C50.0149 45.1049 50.1413 45.1188 50.2667 45.1074C50.3921 45.096 50.5139 45.0595 50.6248 45ZM51.9561 40.0593L52.7717 41.7281L51.1873 42.5062L50.3623 40.8375L51.9561 40.0593Z" fill="#157B7D"/>
<path d="M47.5221 44.1469L42.4784 33.8907C41.119 34.3125 38.494 34.3782 33.6565 32.4094C26.4846 29.4938 22.144 36.6375 20.9346 39.9844C20.8474 40.2053 20.8473 40.4511 20.9343 40.6721C21.0213 40.8931 21.189 41.0729 21.4034 41.175C22.8378 41.8219 26.1471 41.1188 28.3128 37.2844L36.5628 42.45C37.6104 41.9337 38.4624 41.0916 38.9909 40.05L40.3221 40.5844C39.7959 41.6969 38.9675 42.639 37.9315 43.3032L44.2784 47.2782C45.0778 45.9771 46.1937 44.8999 47.5221 44.1469Z" fill="#157B7D"/>
<path d="M24.6095 57.2718C25.0065 57.5428 25.4946 57.6456 25.9671 57.5577C26.4397 57.4699 26.8582 57.1986 27.1314 56.8031L27.647 56.0531C27.9192 55.6565 28.0228 55.168 27.9349 54.6951C27.847 54.2221 27.5748 53.8035 27.1782 53.5312C26.7817 53.2589 26.2932 53.1554 25.8202 53.2433C25.3473 53.3312 24.9286 53.6034 24.6564 54L25.172 53.2593C25.4442 52.864 25.5483 52.3767 25.4613 51.9046C25.3743 51.4326 25.1033 51.0144 24.7079 50.7421C24.3126 50.4699 23.8253 50.3658 23.3532 50.4529C22.8812 50.5399 22.463 50.8109 22.1907 51.2062C22.4359 50.8093 22.5191 50.3334 22.4233 49.8769C22.3275 49.4204 22.0599 49.0181 21.6759 48.7533C21.2919 48.4884 20.8208 48.3813 20.36 48.4539C19.8992 48.5266 19.484 48.7735 19.2001 49.1437L18.6845 49.8937C18.8211 49.698 18.9179 49.4772 18.9693 49.2441C19.0206 49.0109 19.0255 48.7699 18.9837 48.5349C18.9419 48.2998 18.8543 48.0753 18.7257 47.8742C18.5972 47.673 18.4302 47.4991 18.2345 47.3625C18.0387 47.2258 17.818 47.129 17.5848 47.0777C17.3517 47.0264 17.1107 47.0214 16.8757 47.0632C16.6406 47.105 16.4161 47.1927 16.2149 47.3212C16.0138 47.4498 15.8399 47.6167 15.7032 47.8125L14.672 49.3031C14.3997 49.6997 14.2962 50.1882 14.3841 50.6611C14.472 51.134 14.7442 51.5527 15.1407 51.825C15.5373 52.0972 16.0258 52.2008 16.4988 52.1129C16.9717 52.025 17.3904 51.7528 17.6626 51.3562C17.526 51.5507 17.429 51.7703 17.3771 52.0023C17.3253 52.2343 17.3197 52.4742 17.3606 52.7084C17.4015 52.9426 17.4882 53.1664 17.6156 53.3671C17.743 53.5678 17.9087 53.7414 18.1032 53.8781C18.2978 54.0147 18.5173 54.1117 18.7493 54.1636C18.9813 54.2154 19.2213 54.221 19.4554 54.1801C19.9284 54.0974 20.3491 53.8303 20.6251 53.4375L21.1407 52.6968C21.0059 52.8932 20.9111 53.1142 20.8617 53.3472C20.8123 53.5802 20.8093 53.8207 20.8528 54.0549C20.8963 54.289 20.9856 54.5123 21.1154 54.712C21.2452 54.9117 21.4131 55.0839 21.6095 55.2187C22.0061 55.491 22.4946 55.5945 22.9675 55.5066C23.2017 55.4631 23.425 55.3739 23.6247 55.244C23.8244 55.1142 23.9966 54.9463 24.1314 54.75C23.8613 55.1481 23.76 55.637 23.8496 56.1096C23.9393 56.5823 24.2125 57.0002 24.6095 57.2718Z" fill="#157B7D"/>
<path d="M5.32462 43.9313L9.37462 46.2281C9.48239 46.2931 9.60213 46.3357 9.72672 46.3534C9.8513 46.3711 9.97818 46.3636 10.0998 46.3312C10.2214 46.2988 10.3352 46.2423 10.4345 46.165C10.5338 46.0877 10.6165 45.9912 10.6777 45.8813L17.6152 33.8719C17.6817 33.7637 17.7256 33.6432 17.7441 33.5177C17.7626 33.3921 17.7554 33.264 17.723 33.1413C17.6906 33.0186 17.6335 32.9037 17.5554 32.8037C17.4772 32.7037 17.3796 32.6205 17.2684 32.5594L13.2184 30.2531C13.11 30.1885 12.9898 30.1465 12.8648 30.1294C12.7398 30.1124 12.6127 30.1208 12.491 30.154C12.3693 30.1873 12.2556 30.2448 12.1567 30.323C12.0578 30.4012 11.9756 30.4986 11.9152 30.6094L4.97774 42.6188C4.91126 42.7269 4.86742 42.8474 4.8489 42.973C4.83038 43.0986 4.83755 43.2266 4.86999 43.3493C4.90242 43.472 4.95944 43.5869 5.03759 43.6869C5.11574 43.787 5.21339 43.8701 5.32462 43.9313Z" fill="#157B7D"/>
<path d="M44.4564 51.2062C44.6284 50.9238 44.7192 50.5994 44.7189 50.2687C44.7072 49.9629 44.6207 49.6646 44.4671 49.3998C44.3135 49.1351 44.0974 48.912 43.8377 48.75L28.7439 39.2531C26.1564 42.7312 22.6033 43.2938 20.8127 42.4781C20.2729 42.2241 19.8476 41.7773 19.6204 41.2257C19.3931 40.6741 19.3804 40.0574 19.5846 39.4969C20.0028 38.3726 20.5369 37.2949 21.1783 36.2813C20.2744 35.9438 19.4199 35.4866 18.6377 34.9219L12.0752 46.2375L14.0627 47.6906L14.5221 47.025C15.0096 46.3166 15.7584 45.8308 16.604 45.6743C17.4496 45.5178 18.3227 45.7036 19.0314 46.1906C19.364 46.4154 19.6504 46.7018 19.8752 47.0344L20.1002 46.9875C20.5203 46.9064 20.9525 46.9103 21.3711 46.9989C21.7897 47.0874 22.1864 47.2589 22.5377 47.5031C23.0711 47.8649 23.4802 48.3821 23.7096 48.9844C24.357 48.9851 24.9887 49.1847 25.5189 49.5563C25.8706 49.7965 26.171 50.1042 26.4027 50.4614C26.6345 50.8187 26.7929 51.2185 26.8689 51.6375C26.8734 51.7156 26.8734 51.7938 26.8689 51.8719C27.3617 51.9907 27.8197 52.2233 28.2064 52.5511C28.593 52.8789 28.8974 53.2928 29.0952 53.7595C29.293 54.2261 29.3786 54.7327 29.3453 55.2385C29.312 55.7442 29.1606 56.2352 28.9033 56.6719L30.9377 57.8625C31.348 58.111 31.8402 58.1864 32.306 58.0721C32.7719 57.9578 33.1733 57.6633 33.4221 57.2531C33.5906 56.9692 33.6811 56.6458 33.6846 56.3156C33.682 56.0064 33.6005 55.7029 33.448 55.4338C33.2954 55.1648 33.0768 54.9391 32.8127 54.7781L34.3408 55.7156C34.5446 55.8387 34.7706 55.9205 35.0059 55.9563C35.2413 55.9921 35.4814 55.9811 35.7125 55.9241C35.9437 55.8671 36.1613 55.7651 36.353 55.624C36.5447 55.4828 36.7068 55.3053 36.8299 55.1016C36.953 54.8978 37.0348 54.6718 37.0705 54.4364C37.1063 54.2011 37.0954 53.961 37.0384 53.7299C36.9813 53.4987 36.8793 53.2811 36.7382 53.0894C36.5971 52.8977 36.4196 52.7356 36.2158 52.6125L37.7721 53.55C38.1836 53.7986 38.677 53.8736 39.1438 53.7585C39.6106 53.6433 40.0125 53.3474 40.2611 52.9359C40.5098 52.5244 40.5848 52.031 40.4696 51.5642C40.3544 51.0974 40.0586 50.6955 39.6471 50.4469L41.9627 51.8437C42.1679 51.9671 42.3956 52.0484 42.6325 52.0831C42.8693 52.1178 43.1108 52.1051 43.3427 52.0458C43.5747 51.9865 43.7925 51.8818 43.9837 51.7377C44.1749 51.5935 44.3356 51.4129 44.4564 51.2062Z" fill="#157B7D"/>
<path d="M48.75 25.3125V9.37502C48.7507 9.25163 48.7271 9.12933 48.6804 9.0151C48.6338 8.90088 48.565 8.79699 48.4781 8.70939L41.9156 2.14689C41.828 2.06 41.7241 1.99126 41.6099 1.94461C41.4957 1.89795 41.3734 1.8743 41.25 1.87502H13.125C12.6277 1.87502 12.1508 2.07256 11.7992 2.42419C11.4475 2.77582 11.25 3.25273 11.25 3.75002V26.25H13.125V3.75002H40.3125V8.43752C40.3125 8.9348 40.51 9.41171 40.8617 9.76334C41.2133 10.115 41.6902 10.3125 42.1875 10.3125H46.875V25.3125H48.75Z" fill="#AD186A"/>
</svg>
