<svg width="120" height="120" viewBox="0 0 120 120" fill="none" xmlns="http://www.w3.org/2000/svg">
<path d="M69.375 99.375H84.375V103.125H69.375V99.375Z" fill="#157B7D"/>
<path d="M36.1084 99.375H50.6247V103.125H36.1084V99.375Z" fill="#157B7D"/>
<path d="M96.9511 98.0494L94.2998 100.701L101.406 107.807L117.715 87.4219L114.786 85.0781L101.095 102.193L96.9511 98.0494Z" fill="#157B7D"/>
<path d="M110.625 110.625H91.875V91.875H103.125V88.125H88.125V114.375H114.375V99.375H110.625V110.625Z" fill="#157B7D"/>
<path d="M36.1465 74.4787C40.699 79.0312 46.5452 82.2862 53.0759 83.655L56.0702 71.3325L54.8909 67.7981L49.2284 70.0875L47.4715 61.3031C41.8784 63.5812 37.5715 68.4619 36.1465 74.4787Z" fill="#AD186A"/>
<path d="M73.125 41.25V26.25C73.125 25.2169 72.2831 24.375 71.25 24.375H61.875C58.5506 24.375 55.5581 22.9256 53.4975 20.625H52.5C49.3987 20.625 46.875 23.1487 46.875 26.25V41.25C46.875 46.4194 51.0806 50.625 56.25 50.625H63.75C68.9194 50.625 73.125 46.4194 73.125 41.25ZM58.125 28.125H61.875V35.625H58.125V28.125ZM52.5 31.875C51.465 31.875 50.625 31.035 50.625 30C50.625 28.965 51.465 28.125 52.5 28.125C53.535 28.125 54.375 28.965 54.375 30C54.375 31.035 53.535 31.875 52.5 31.875ZM61.875 46.875H54.375V43.125H61.875C63.9431 43.125 65.625 41.4431 65.625 39.375H69.375C69.375 43.5113 66.0113 46.875 61.875 46.875ZM67.5 31.875C66.465 31.875 65.625 31.035 65.625 30C65.625 28.965 66.465 28.125 67.5 28.125C68.535 28.125 69.375 28.965 69.375 30C69.375 31.035 68.535 31.875 67.5 31.875Z" fill="#AD186A"/>
<path d="M67.9762 64.9294L68.9175 60.2231C68.6156 60.1669 68.3062 60.1294 67.9987 60.0881L63.7256 63.2494L67.9762 64.9294Z" fill="#AD186A"/>
<path d="M80.625 35.625C80.625 33.5569 78.9431 31.875 76.875 31.875V39.375C78.9431 39.375 80.625 37.6931 80.625 35.625Z" fill="#AD186A"/>
<path d="M83.8537 74.4788C82.4287 68.4619 78.1218 63.5813 72.5268 61.3013L70.7737 70.0706L64.9143 67.7513L63.7256 71.3194L66.8981 83.6625C73.44 82.2975 79.2937 79.0388 83.8537 74.4788Z" fill="#AD186A"/>
<path d="M61.421 66.3694L59.9041 65.7694L58.376 66.3882L59.3716 69.375H60.4178L61.421 66.3694Z" fill="#AD186A"/>
<path d="M60.0004 84.375C61.0692 84.375 62.1229 84.3131 63.1654 84.2138L60.3173 73.125H59.4942L56.7998 84.2138C57.8554 84.3131 58.9204 84.375 60.0004 84.375Z" fill="#AD186A"/>
<path d="M40.275 28.695C41.1562 28.3312 42.1163 28.125 43.125 28.125V26.25C43.125 21.4894 46.6931 17.5444 51.2944 16.9519C50.8613 15.7575 50.625 14.4675 50.625 13.125H54.375C54.375 17.2613 57.7387 20.625 61.875 20.625H71.25C74.3513 20.625 76.875 23.1487 76.875 26.25V28.125C77.8837 28.125 78.8438 28.3312 79.725 28.695L80.2988 25.83C80.5144 24.7425 80.625 23.6287 80.625 22.5169C80.625 13.2037 73.0463 5.625 63.7331 5.625H56.9719C51.6094 5.625 46.8562 8.8425 44.865 13.8225L44.6494 14.3625L43.8056 14.925C41.0306 16.7738 39.375 19.8694 39.375 23.2031C39.375 23.8575 39.4406 24.5138 39.5681 25.155L40.275 28.695Z" fill="#AD186A"/>
<path d="M64.6184 54.3319C64.3316 54.3507 64.0428 54.375 63.7503 54.375H56.2503C55.9578 54.375 55.6691 54.3507 55.3803 54.3319L54.6172 57.3825L59.9103 61.4082L65.3759 57.3657L64.6184 54.3319Z" fill="#AD186A"/>
<path d="M51.9858 60.09C51.6839 60.1312 51.3802 60.1668 51.082 60.2231L52.0195 64.9125L56.137 63.2456L51.9858 60.09Z" fill="#AD186A"/>
<path d="M60 95.625C58.2581 95.625 56.5388 95.4918 54.8344 95.2987C54.54 95.9906 54.375 96.735 54.375 97.5V99.375H65.625V97.5C65.625 96.7406 65.4619 96.0056 65.1731 95.3193C63.4744 95.5143 61.7494 95.625 60 95.625Z" fill="#157B7D"/>
<path d="M5.625 76.875V110.625H31.8769L31.875 76.875H5.625ZM9.375 80.625H13.125V84.375H9.375V80.625ZM28.125 106.875H9.375V103.125H28.125V106.875ZM28.125 99.375H9.375V95.625H28.125V99.375ZM28.125 91.875H9.375V88.125H28.125V91.875ZM28.125 84.375H16.875V80.625H28.125V84.375Z" fill="#157B7D"/>
<path d="M101.25 50.625C101.25 36.9019 94.5881 24.3806 83.535 16.7344C84.0375 18.4519 84.3206 20.2594 84.3544 22.1288C92.7131 29.2744 97.5 39.6038 97.5 50.625C97.5 71.3025 80.6775 88.125 60 88.125C50.6944 88.125 42.1875 84.6975 35.625 79.065V83.8744C42.7294 89.0963 51.1294 91.875 60 91.875C82.7456 91.875 101.25 73.3706 101.25 50.625Z" fill="#157B7D"/>
<path d="M54.375 112.5C54.375 113.533 55.2169 114.375 56.25 114.375H63.75C64.7831 114.375 65.625 113.533 65.625 112.5V103.125H54.375V112.5Z" fill="#157B7D"/>
<path d="M37.7381 15.9319C26.1338 23.43 18.75 36.4988 18.75 50.625C18.75 58.6763 21.0788 66.4275 25.4513 73.125H30.0731C25.3406 66.8494 22.5 59.0719 22.5 50.625C22.5 39.5813 27.3056 29.235 35.6944 22.0875C35.8744 19.8731 36.5831 17.7731 37.7381 15.9319Z" fill="#157B7D"/>
<path d="M43.125 39.375V31.875C41.0569 31.875 39.375 33.5569 39.375 35.625C39.375 37.6931 41.0569 39.375 43.125 39.375Z" fill="#AD186A"/>
</svg>
