<svg width="60" height="60" viewBox="0 0 60 60" fill="none" xmlns="http://www.w3.org/2000/svg">
<path d="M38.4671 27.7934H37.3246L37.6222 27.4958C38.1374 26.9806 38.1374 26.1453 37.6222 25.6301C37.1071 25.115 36.2718 25.115 35.7566 25.6301L33.7148 27.6719V31.9536H38.4673C39.6161 31.9536 40.5473 31.0223 40.5473 29.8735C40.5472 28.7246 39.6159 27.7934 38.4671 27.7934Z" fill="#157B7D"/>
<path d="M12.1828 12.3173H12.8947C13.8287 12.3173 14.7138 12.5303 15.5045 12.9095C15.695 12.495 15.8021 12.0342 15.8021 11.5481C15.8021 9.74576 14.3411 8.28467 12.5387 8.28467C10.7364 8.28467 9.27539 9.74576 9.27539 11.5481C9.27539 12.0342 9.3825 12.495 9.57305 12.9095C10.3637 12.5301 11.2488 12.3173 12.1828 12.3173Z" fill="#157B7D"/>
<path d="M12.5387 8.28467C12.1457 8.28467 11.7689 8.35428 11.4199 8.48154C12.4355 9.03479 13.1246 10.1115 13.1246 11.3494C13.1246 11.6876 13.0718 12.013 12.9761 12.3197C13.8799 12.3317 14.7369 12.5413 15.5045 12.9096C15.695 12.4951 15.8021 12.0343 15.8021 11.5482C15.8021 9.74576 14.3411 8.28467 12.5387 8.28467Z" fill="#157B7D"/>
<path d="M17.7848 19.0859C16.6651 19.0859 15.6116 18.5383 14.9665 17.6209C14.8781 17.4953 14.734 17.4203 14.5808 17.4203C14.4277 17.4203 14.2835 17.4953 14.1952 17.6209C13.55 18.5383 12.4964 19.0859 11.3767 19.0859H6.17906L6.01172 19.2024V21.145C6.01172 24.7497 8.93391 27.6719 12.5386 27.6719C16.1433 27.6719 19.0655 24.7497 19.0655 21.145V19.2024L18.9416 19.0859H17.7848Z" fill="#157B7D"/>
<path d="M18.9421 19.0858H17.7855C16.8316 19.0858 15.9266 18.6873 15.2805 18.0024V20.6606C15.2805 23.8902 12.9341 26.5703 9.85352 27.0934C10.6729 27.4639 11.5814 27.6719 12.5392 27.6719C16.1439 27.6719 19.0661 24.7497 19.0661 21.1451V19.2023L18.9421 19.0858Z" fill="#157B7D"/>
<path d="M33.7144 27.6719H6.17531C3.2502 27.6719 0.878906 30.0432 0.878906 32.9683V39.0425C0.878906 40.0132 1.66594 40.8003 2.63672 40.8003H21.0938V37.4954C21.0938 34.4346 23.575 31.9534 26.6357 31.9534H33.7144V27.6719Z" fill="#157B7D"/>
<path d="M19.5075 37.6327C19.5075 37.5489 19.5105 37.4658 19.5138 37.3827H0.878906V39.0424C0.878906 40.0132 1.66594 40.8002 2.63672 40.8002H20.3688C19.8223 39.8708 19.5075 38.7888 19.5075 37.6327Z" fill="#157B7D"/>
<path d="M26.6355 29.3597C24.1755 29.3597 22.0911 30.9631 21.3672 33.1815C22.4977 32.064 24.0512 31.3736 25.7664 31.3736C26.7065 31.3736 27.5975 31.5822 28.3975 31.9536H33.7142V29.3597H26.6355Z" fill="#157B7D"/>
<path d="M19.0655 19.2023H17.785C16.5802 19.2023 15.5153 18.6037 14.8712 17.6879C14.7295 17.4864 14.4322 17.4864 14.2907 17.6879C13.6465 18.6038 12.5817 19.2023 11.3769 19.2023H6.01172V18.3715C6.01172 14.9635 8.77453 12.2007 12.1826 12.2007H12.8946C16.3027 12.2007 19.0655 14.9635 19.0655 18.3715V19.2023Z" fill="#157B7D"/>
<path d="M13.0039 12.2035C14.393 13.3351 15.2807 15.0584 15.2807 16.9898V18.1713C15.924 18.8085 16.8089 19.2023 17.7859 19.2023H19.0664V18.3715C19.0664 14.9999 16.3617 12.2615 13.0039 12.2035Z" fill="#157B7D"/>
<path d="M15.9248 27.6719H9.15234V30.4503C9.15234 30.5479 9.18281 30.6432 9.23965 30.7226L10.8125 32.9247C10.8693 33.0041 10.8998 33.0994 10.8998 33.197V40.8004H14.1775V33.197C14.1775 33.0994 14.2079 33.0041 14.2648 32.9247L15.8377 30.7226C15.8944 30.6432 15.925 30.5479 15.925 30.4503V27.6719H15.9248Z" fill="#157B7D"/>
<path d="M10.9004 37.3828H14.178V40.8004H10.9004V37.3828Z" fill="#157B7D"/>
<path d="M25.7669 44.3919C29.4999 44.3919 32.526 41.3657 32.526 37.6328C32.526 33.8998 29.4999 30.8737 25.7669 30.8737C22.034 30.8737 19.0078 33.8998 19.0078 37.6328C19.0078 41.3657 22.034 44.3919 25.7669 44.3919Z" fill="#AD186A" stroke="white"/>
<path d="M31.8345 43.8918H19.6987C16.9096 43.8918 14.6484 46.153 14.6484 48.9422V55.2582C14.6484 56.229 15.4355 57.016 16.4062 57.016H36.8848V48.9422C36.8848 46.1529 34.6236 43.8918 31.8345 43.8918Z" fill="#AD186A"/>
<path d="M54.0708 43.8918H41.9351C39.1459 43.8918 36.8848 46.153 36.8848 48.9422V57.016H57.3633C58.3341 57.016 59.1211 56.229 59.1211 55.2582V48.9422C59.1211 46.1529 56.86 43.8918 54.0708 43.8918Z" fill="#AD186A"/>
<path d="M48.0032 43.8919C51.46 43.8919 54.2623 41.0896 54.2623 37.6328C54.2623 34.176 51.46 31.3737 48.0032 31.3737C44.5464 31.3737 41.7441 34.176 41.7441 37.6328C41.7441 41.0896 44.5464 43.8919 48.0032 43.8919Z" fill="#AD186A"/>
<path d="M26.6988 31.4431C27.8548 32.5788 28.5725 34.1591 28.5725 35.9075C28.5725 39.3643 25.7702 42.1666 22.3134 42.1666C21.9964 42.1666 21.6851 42.1426 21.3809 42.0971C22.5103 43.2066 24.058 43.8918 25.7662 43.8918C29.223 43.8918 32.0254 41.0895 32.0254 37.6327C32.0254 34.4928 29.7132 31.8935 26.6988 31.4431Z" fill="#AD186A"/>
<path d="M48.9352 31.4431C50.0911 32.5788 50.8089 34.1591 50.8089 35.9075C50.8089 39.3643 48.0066 42.1666 44.5498 42.1666C44.2328 42.1666 43.9214 42.1426 43.6172 42.0971C44.7466 43.2066 46.2943 43.8918 48.0026 43.8918C51.4594 43.8918 54.2617 41.0895 54.2617 37.6327C54.2617 34.4928 51.9496 31.8935 48.9352 31.4431Z" fill="#AD186A"/>
<path d="M33.3691 44.13V52.382C33.3691 53.0292 32.8445 53.5539 32.1973 53.5539H14.6484V55.2582C14.6484 56.229 15.4355 57.0161 16.4062 57.0161H36.8848V48.9422C36.8848 46.6881 35.4079 44.7797 33.3691 44.13Z" fill="#AD186A"/>
<path d="M55.6055 44.13V52.382C55.6055 53.0292 55.0808 53.5539 54.4336 53.5539H36.8848V57.0161H57.3633C58.3341 57.0161 59.1211 56.229 59.1211 55.2582V48.9422C59.1211 46.6881 57.6442 44.7797 55.6055 44.13Z" fill="#AD186A"/>
<path d="M43.9346 9.10107H45.6924V10.9761H43.9346V9.10107Z" fill="#AD186A"/>
<path d="M46.9111 9.10107H48.6689V10.9761H46.9111V9.10107Z" fill="#AD186A"/>
<path d="M43.9346 12.2651H45.6924V14.1401H43.9346V12.2651Z" fill="#AD186A"/>
<path d="M46.9111 12.2651H48.6689V14.1401H46.9111V12.2651Z" fill="#AD186A"/>
<path d="M43.9346 15.7128H45.6924V20.5663H43.9346V15.7128Z" fill="#AD186A"/>
<path d="M46.9111 15.7128H48.6689V20.5663H46.9111V15.7128Z" fill="#AD186A"/>
<path d="M23.2031 19.8823H32.8125C33.2979 19.8823 33.6914 19.4889 33.6914 19.0034C33.6914 18.5179 33.2979 18.1245 32.8125 18.1245H23.2031C22.7177 18.1245 22.3242 18.5179 22.3242 19.0034C22.3242 19.4889 22.7177 19.8823 23.2031 19.8823Z" fill="#157B7D"/>
<path d="M23.2031 15.4878H37.6574C38.1428 15.4878 38.5363 15.0944 38.5363 14.6089C38.5363 14.1234 38.1428 13.73 37.6574 13.73H23.2031C22.7177 13.73 22.3242 14.1234 22.3242 14.6089C22.3242 15.0944 22.7177 15.4878 23.2031 15.4878Z" fill="#157B7D"/>
<path d="M23.2031 11.0933H37.6574C38.1428 11.0933 38.5363 10.6999 38.5363 10.2144C38.5363 9.72885 38.1428 9.33545 37.6574 9.33545H23.2031C22.7177 9.33545 22.3242 9.72885 22.3242 10.2144C22.3242 10.6999 22.7177 11.0933 23.2031 11.0933Z" fill="#157B7D"/>
<path d="M46.5234 26.7676C46.038 26.7676 45.6445 27.161 45.6445 27.6465C45.6445 28.132 46.038 28.5254 46.5234 28.5254H54.5324C55.0178 28.5254 55.4113 28.132 55.4113 27.6465C55.4113 27.161 55.0178 26.7676 54.5324 26.7676H46.5234Z" fill="#157B7D"/>
<path d="M49.5956 6.04248H43.0078C41.8771 6.04248 40.957 6.96252 40.957 8.09326V22.054C40.957 23.1848 41.8771 24.1048 43.0078 24.1048H54.0117C55.1425 24.1048 56.0625 23.1848 56.0625 22.054V10.4667C56.0625 9.33592 55.1425 8.41588 54.0117 8.41588H51.6464V8.09326C51.6464 6.96252 50.7264 6.04248 49.5956 6.04248ZM49.8886 22.347H43.0078C42.8463 22.347 42.7148 22.2156 42.7148 22.054V8.09326C42.7148 7.93166 42.8463 7.80029 43.0078 7.80029H49.5956C49.7571 7.80029 49.8886 7.93166 49.8886 8.09326V22.347ZM54.0117 10.1737C54.1732 10.1737 54.3047 10.3051 54.3047 10.4667V22.054C54.3047 22.2156 54.1732 22.347 54.0117 22.347H51.6464V10.1737H54.0117Z" fill="#AD186A"/>
</svg>
