<svg width="60" height="60" viewBox="0 0 60 60" fill="none" xmlns="http://www.w3.org/2000/svg">
<g clip-path="url(#clip0_1628_1586)">
<path d="M59.0625 10.0969C59.3111 10.0969 59.5496 9.9981 59.7254 9.82229C59.9012 9.64647 60 9.40802 60 9.15938V4.425C60 4.17636 59.9012 3.9379 59.7254 3.76209C59.5496 3.58627 59.3111 3.4875 59.0625 3.4875H35.4281V1.37813C35.4306 1.19804 35.3973 1.01925 35.3301 0.852155C35.2629 0.685058 35.1631 0.53298 35.0367 0.404758C34.9102 0.276536 34.7595 0.174725 34.5933 0.10524C34.4272 0.0357557 34.2489 -1.71271e-05 34.0688 6.15149e-09H25.9219C25.563 0.00247525 25.2196 0.146787 24.9667 0.401451C24.7138 0.656116 24.5719 1.00046 24.5719 1.35938V3.51562H0.9375C0.68886 3.51563 0.450403 3.6144 0.274587 3.79021C0.0987721 3.96603 0 4.20448 0 4.45312L0 9.1875C0 9.43614 0.0987721 9.6746 0.274587 9.85041C0.450403 10.0262 0.68886 10.125 0.9375 10.125H3.75V35.325H0.9375C0.68886 35.325 0.450403 35.4238 0.274587 35.5996C0.0987721 35.7754 0 36.0139 0 36.2625L0 41.025C0 41.2736 0.0987721 41.5121 0.274587 41.6879C0.450403 41.8637 0.68886 41.9625 0.9375 41.9625H18.4219L9.225 58.6313C9.14272 58.7738 9.0994 58.9354 9.0994 59.1C9.0994 59.2646 9.14272 59.4262 9.225 59.5688C9.30662 59.7029 9.42065 59.8145 9.55661 59.8931C9.69258 59.9717 9.84611 60.0149 10.0031 60.0187H17.3719C17.5339 60.0161 17.6925 59.9716 17.8321 59.8894C17.9718 59.8073 18.0878 59.6903 18.1687 59.55L27.9656 41.9063H32.0344L41.8125 59.5125C41.8935 59.6528 42.0095 59.7698 42.1491 59.8519C42.2888 59.9341 42.4474 59.9786 42.6094 59.9812H49.9781C50.1351 59.9774 50.2887 59.9342 50.4246 59.8556C50.5606 59.777 50.6746 59.6654 50.7562 59.5312C50.8385 59.3887 50.8819 59.2271 50.8819 59.0625C50.8819 58.8979 50.8385 58.7363 50.7562 58.5938L41.5781 41.9063H59.0625C59.3111 41.9063 59.5496 41.8075 59.7254 41.6317C59.9012 41.4558 60 41.2174 60 40.9688V36.2344C60 35.9857 59.9012 35.7473 59.7254 35.5715C59.5496 35.3956 59.3111 35.2969 59.0625 35.2969H56.25V10.0969H59.0625ZM26.3906 1.875H33.6094V3.51562H26.3906V1.875ZM16.875 58.125H11.5594L20.4938 41.9063H25.8844L16.875 58.125ZM48.4594 58.125H43.125L34.1156 41.9063H39.5062L48.4594 58.125ZM58.1813 37.1437V40.0875H1.81875V37.1437H58.1813ZM5.54062 35.325V10.0969H54.4594V35.325H5.54062ZM1.79062 8.27812V5.33438H58.1813V8.27812H1.79062Z" fill="#157B7D"/>
<path d="M20.5125 12.45C19.3584 12.4481 18.2297 12.7888 17.2693 13.4288C16.3089 14.0688 15.5601 14.9794 15.1175 16.0454C14.675 17.1113 14.5588 18.2845 14.7835 19.4165C15.0082 20.5486 15.5637 21.5884 16.3798 22.4045C17.1959 23.2206 18.2358 23.7762 19.3678 24.0009C20.4998 24.2256 21.6731 24.1093 22.739 23.6668C23.8049 23.2243 24.7155 22.4754 25.3555 21.515C25.9956 20.5546 26.3362 19.4259 26.3344 18.2718C26.3319 16.7285 25.7177 15.2492 24.6264 14.1579C23.5352 13.0666 22.0558 12.4524 20.5125 12.45ZM20.5125 22.2843C19.7185 22.2862 18.9418 22.0524 18.2807 21.6127C17.6196 21.1729 17.1039 20.5469 16.7988 19.8139C16.4936 19.0808 16.4128 18.2738 16.5666 17.4948C16.7203 16.7158 17.1018 16 17.6625 15.4379C18.2233 14.8758 18.9383 14.4927 19.7169 14.3371C20.4955 14.1815 21.3027 14.2605 22.0365 14.5639C22.7702 14.8673 23.3974 15.3816 23.8387 16.0416C24.2801 16.7017 24.5156 17.4778 24.5156 18.2718C24.5156 19.3344 24.0942 20.3536 23.3437 21.1058C22.5932 21.858 21.5751 22.2819 20.5125 22.2843Z" fill="#AD186A"/>
<path d="M22.4348 16.1999L19.8941 18.7499L18.6285 17.5593C18.5536 17.4364 18.4513 17.3325 18.3298 17.2555C18.2082 17.1785 18.0705 17.1305 17.9274 17.1152C17.7842 17.1 17.6395 17.1179 17.5045 17.1676C17.3694 17.2173 17.2476 17.2974 17.1484 17.4018C17.0493 17.5061 16.9755 17.6319 16.9328 17.7693C16.8901 17.9068 16.8797 18.0522 16.9022 18.1943C16.9248 18.3365 16.9797 18.4715 17.0629 18.589C17.146 18.7065 17.2551 18.8033 17.3816 18.8718L19.2566 20.6718C19.4272 20.8315 19.6512 20.9218 19.8848 20.9249C20.1229 20.9216 20.3508 20.8277 20.5223 20.6624L23.691 17.5406C23.7984 17.3622 23.8434 17.1532 23.8189 16.9465C23.7944 16.7398 23.7018 16.5471 23.5557 16.3988C23.4095 16.2506 23.2182 16.1551 23.0119 16.1276C22.8055 16.1001 22.5959 16.142 22.416 16.2468L22.4348 16.1999Z" fill="#AD186A"/>
<path d="M43.2751 15.3187C43.251 15.112 43.1588 14.9191 43.013 14.7705C42.8671 14.622 42.676 14.5262 42.4697 14.4982C42.2634 14.4703 42.0537 14.5118 41.8736 14.6162C41.6935 14.7207 41.5533 14.8821 41.4751 15.075C41.0345 18.3562 39.7032 20.5875 37.4064 21.9C35.1095 23.2125 31.8751 23.5687 27.6095 22.9969C27.3989 23.0171 27.2014 23.108 27.049 23.2547C26.8967 23.4013 26.7984 23.5953 26.7701 23.8049C26.7419 24.0145 26.7854 24.2275 26.8935 24.4093C27.0016 24.5911 27.168 24.731 27.3657 24.8062C28.6243 24.9766 29.8926 25.0643 31.1626 25.0687C33.6447 25.1505 36.1058 24.5885 38.3064 23.4375C41.0907 21.8906 42.7689 19.1531 43.2751 15.3187Z" fill="#AD186A"/>
<path d="M23.1844 26.6719C23.0106 26.5085 22.7809 26.4174 22.5422 26.4174C22.3036 26.4174 22.0739 26.5085 21.9001 26.6719L20.5126 28.0688L19.1157 26.6719C19.0413 26.5527 18.9411 26.4518 18.8224 26.3765C18.7037 26.3012 18.5697 26.2536 18.4301 26.2372C18.2906 26.2207 18.1491 26.2358 18.0162 26.2814C17.8833 26.327 17.7623 26.4019 17.6622 26.5005C17.5621 26.5992 17.4855 26.719 17.438 26.8513C17.3905 26.9835 17.3733 27.1247 17.3878 27.2645C17.4022 27.4043 17.4479 27.539 17.5214 27.6588C17.5949 27.7785 17.6944 27.8802 17.8126 27.9563L19.2094 29.3532L17.8126 30.7407C17.699 30.8726 17.6245 31.0335 17.5972 31.2054C17.5699 31.3773 17.5911 31.5534 17.6582 31.7139C17.7254 31.8745 17.8359 32.0132 17.9774 32.1145C18.1189 32.2158 18.2858 32.2757 18.4594 32.2876C18.578 32.2894 18.6956 32.2671 18.8052 32.222C18.9148 32.1769 19.0141 32.1098 19.0969 32.0251L20.4938 30.6376L21.8813 32.0251C22.0604 32.1311 22.2697 32.1746 22.4762 32.1485C22.6828 32.1225 22.8748 32.0285 23.0219 31.8813C23.1691 31.7341 23.2631 31.5421 23.2892 31.3356C23.3152 31.1291 23.2717 30.9198 23.1657 30.7407L21.7782 29.3532L23.1657 27.9563C23.3317 27.7848 23.4261 27.5565 23.4296 27.3178C23.4331 27.0792 23.3454 26.8482 23.1844 26.6719Z" fill="#AD186A"/>
<path d="M45.0467 26.6719C44.8728 26.5085 44.6432 26.4174 44.4045 26.4174C44.1659 26.4174 43.9362 26.5085 43.7623 26.6719L42.3748 28.0688L40.9873 26.6719C40.9145 26.549 40.8145 26.4443 40.695 26.3659C40.5755 26.2874 40.4397 26.2374 40.2979 26.2195C40.1561 26.2016 40.0121 26.2164 39.8769 26.2628C39.7416 26.3091 39.6188 26.3857 39.5178 26.4867C39.4167 26.5878 39.3401 26.7106 39.2938 26.8458C39.2474 26.9811 39.2327 27.1251 39.2505 27.2669C39.2684 27.4087 39.3184 27.5445 39.3969 27.664C39.4753 27.7835 39.58 27.8835 39.7029 27.9563L41.0904 29.3532L39.7029 30.7407C39.5969 30.9198 39.5534 31.1291 39.5794 31.3356C39.6055 31.5421 39.6995 31.7341 39.8467 31.8813C39.9939 32.0285 40.1859 32.1225 40.3924 32.1486C40.5989 32.1746 40.8082 32.1311 40.9873 32.0251L42.3748 30.6376L43.7623 32.0251C43.9361 32.1926 44.1678 32.2866 44.4092 32.2876C44.5277 32.2894 44.6454 32.2671 44.755 32.222C44.8646 32.1769 44.9639 32.1099 45.0467 32.0251C45.2102 31.8512 45.3012 31.6215 45.3012 31.3829C45.3012 31.1442 45.2102 30.9146 45.0467 30.7407L43.6592 29.3532L45.0467 27.9563C45.2102 27.7824 45.3012 27.5528 45.3012 27.3141C45.3012 27.0755 45.2102 26.8458 45.0467 26.6719Z" fill="#AD186A"/>
<path d="M31.8746 25.7344C31.1589 25.7344 30.4592 25.9466 29.8641 26.3442C29.269 26.7419 28.8052 27.307 28.5313 27.9683C28.2574 28.6295 28.1858 29.3571 28.3254 30.0591C28.465 30.7611 28.8097 31.4059 29.3158 31.912C29.8219 32.4181 30.4667 32.7627 31.1686 32.9023C31.8706 33.042 32.5982 32.9703 33.2594 32.6964C33.9207 32.4225 34.4859 31.9587 34.8835 31.3636C35.2811 30.7685 35.4934 30.0688 35.4934 29.3531C35.4909 28.3941 35.1088 27.4751 34.4307 26.797C33.7526 26.1189 32.8336 25.7368 31.8746 25.7344ZM31.8746 31.1531C31.5222 31.1384 31.1818 31.0205 30.8958 30.814C30.6099 30.6075 30.3909 30.3215 30.2661 29.9916C30.1412 29.6616 30.1161 29.3023 30.1938 28.9582C30.2715 28.6141 30.4486 28.3005 30.7031 28.0562C30.9575 27.8119 31.2782 27.6478 31.6251 27.5842C31.9721 27.5206 32.3301 27.5603 32.6547 27.6985C32.9792 27.8367 33.256 28.0672 33.4507 28.3613C33.6454 28.6555 33.7493 29.0004 33.7496 29.3531C33.7485 29.5956 33.6987 29.8353 33.6031 30.0581C33.5076 30.281 33.3682 30.4823 33.1933 30.6502C33.0184 30.8181 32.8115 30.9491 32.585 31.0355C32.3585 31.1219 32.1169 31.1619 31.8746 31.1531Z" fill="#AD186A"/>
</g>
<defs>
<clipPath id="clip0_1628_1586">
<rect width="60" height="60" fill="white"/>
</clipPath>
</defs>
</svg>
