<svg width="120" height="120" viewBox="0 0 120 120" fill="none" xmlns="http://www.w3.org/2000/svg">
<path d="M115.499 35.3623H111.904V29.0023C111.904 24.3375 108.115 20.5374 103.45 20.5374C98.7855 20.5374 94.9854 24.3373 94.9854 29.0023V102.773C95.0081 102.933 94.9057 103.433 95.2584 103.991L102.017 114.492C102.324 114.981 102.87 115.277 103.45 115.277C104.031 115.277 104.565 114.982 104.884 114.492L111.642 103.991C111.995 103.433 111.892 102.944 111.904 102.773V38.7755H115.181V61.5417C115.181 62.486 115.943 63.2484 116.887 63.2484C117.82 63.2484 118.594 62.4863 118.594 61.5417V38.457C118.594 36.7502 117.206 35.3623 115.499 35.3623ZM103.45 110.408L99.6389 104.48H107.262L103.45 110.408ZM108.491 35.3623H98.3988V29.0023C98.3988 26.2149 100.663 23.9508 103.45 23.9508C106.226 23.9508 108.491 26.2149 108.491 29.0023V35.3623Z" fill="#AD186A"/>
<path d="M88.0228 25.0427V106.505C88.0228 111.341 84.0862 115.266 79.2621 115.266H10.1672C5.3318 115.266 1.40648 111.341 1.40648 106.505V88.4037C1.40648 87.4706 2.16891 86.697 3.1132 86.697C4.04625 86.697 4.81992 87.4706 4.81992 88.4037V106.505C4.81992 109.463 7.20914 111.852 10.1674 111.852H79.2626C82.2094 111.852 84.6101 109.463 84.6101 106.505V26.7495H71.7764C68.5793 26.7495 65.9852 24.1554 65.9852 20.9698V8.13609H10.1672C7.20914 8.13609 4.81969 10.5368 4.81969 13.4836V79.6547C4.81969 80.599 4.04602 81.3614 3.11297 81.3614C2.16867 81.3614 1.40625 80.5992 1.40625 79.6547V13.4834C1.40625 8.65945 5.33156 4.72266 10.167 4.72266H67.7025C68.1689 4.72266 68.6355 4.96172 68.9086 5.22328L87.522 23.8366C87.784 24.1099 88.0228 24.5763 88.0228 25.0427Z" fill="#157B7D"/>
<path d="M49.237 19.1152C49.237 22.5966 46.4041 25.4297 42.9112 25.4297H16.3902C12.8973 25.4297 10.0645 22.5968 10.0645 19.1152C10.0645 15.6223 12.8973 12.7894 16.3902 12.7894H42.9109C46.4041 12.7894 49.237 15.6223 49.237 19.1152Z" fill="#157B7D"/>
<path d="M25.591 40.2276C24.8588 39.6344 23.7844 39.7488 23.191 40.4831L16.6667 48.5594L14.2212 45.9339C13.5779 45.2435 12.499 45.2062 11.809 45.8484C11.119 46.491 11.0813 47.571 11.7235 48.2606L15.5101 52.3249C15.8335 52.672 16.2868 52.8682 16.7588 52.8682C16.7787 52.8682 16.7989 52.8677 16.8188 52.867C17.3133 52.8499 17.7755 52.6185 18.0865 52.2337L25.8462 42.6274C26.4387 41.8947 26.3244 40.8196 25.591 40.2276Z" fill="#157B7D"/>
<path d="M33.6882 43.2618H39.9603C40.9025 43.2618 41.667 42.498 41.667 41.5551C41.667 40.6122 40.9025 39.8484 39.9603 39.8484H33.6882C32.746 39.8484 31.9814 40.6122 31.9814 41.5551C31.9814 42.498 32.746 43.2618 33.6882 43.2618Z" fill="#157B7D"/>
<path d="M77.0012 39.8486H47.53C46.5878 39.8486 45.8232 40.6125 45.8232 41.5554C45.8232 42.4982 46.5878 43.2621 47.53 43.2621H77.0012C77.9434 43.2621 78.7079 42.4982 78.7079 41.5554C78.7079 40.6125 77.9434 39.8486 77.0012 39.8486Z" fill="#157B7D"/>
<path d="M33.6882 52.8681H64.8317C65.7739 52.8681 66.5384 52.1043 66.5384 51.1614C66.5384 50.2185 65.7739 49.4547 64.8317 49.4547H33.6882C32.746 49.4547 31.9814 50.2185 31.9814 51.1614C31.9814 52.1043 32.746 52.8681 33.6882 52.8681Z" fill="#157B7D"/>
<path d="M25.591 63.0597C24.8588 62.4674 23.7844 62.5802 23.191 63.3152L16.6667 71.3915L14.2212 68.766C13.5779 68.0756 12.499 68.0395 11.809 68.6805C11.119 69.3232 11.0813 70.4032 11.7235 71.0927L15.5101 75.157C15.8335 75.5041 16.2868 75.7003 16.7588 75.7003C16.7787 75.7003 16.7989 75.6998 16.8188 75.6991C17.3133 75.682 17.7755 75.4507 18.0865 75.0658L25.8462 65.4595C26.4387 64.7268 26.3244 63.6517 25.591 63.0597Z" fill="#157B7D"/>
<path d="M33.6882 66.094H39.9603C40.9025 66.094 41.667 65.3301 41.667 64.3873C41.667 63.4444 40.9025 62.6805 39.9603 62.6805H33.6882C32.746 62.6805 31.9814 63.4444 31.9814 64.3873C31.9814 65.3301 32.746 66.094 33.6882 66.094Z" fill="#157B7D"/>
<path d="M77.0012 62.6808H47.53C46.5878 62.6808 45.8232 63.4446 45.8232 64.3875C45.8232 65.3304 46.5878 66.0942 47.53 66.0942H77.0012C77.9434 66.0942 78.7079 65.3304 78.7079 64.3875C78.7079 63.4446 77.9434 62.6808 77.0012 62.6808Z" fill="#157B7D"/>
<path d="M33.6882 75.7003H64.8317C65.7739 75.7003 66.5384 74.9365 66.5384 73.9936C66.5384 73.0507 65.7739 72.2869 64.8317 72.2869H33.6882C32.746 72.2869 31.9814 73.0507 31.9814 73.9936C31.9814 74.9365 32.746 75.7003 33.6882 75.7003Z" fill="#157B7D"/>
<path d="M33.6882 88.9261H39.9603C40.9025 88.9261 41.667 88.1623 41.667 87.2194C41.667 86.2765 40.9025 85.5127 39.9603 85.5127H33.6882C32.746 85.5127 31.9814 86.2765 31.9814 87.2194C31.9814 88.1623 32.746 88.9261 33.6882 88.9261Z" fill="#157B7D"/>
<path d="M78.7079 87.2194C78.7079 86.2768 77.9434 85.5127 77.0012 85.5127H47.53C46.5878 85.5127 45.8232 86.2765 45.8232 87.2194C45.8232 88.1623 46.5878 88.9261 47.53 88.9261H77.0012C77.9434 88.9261 78.7079 88.1623 78.7079 87.2194Z" fill="#157B7D"/>
<path d="M33.6882 98.5325H64.8317C65.7739 98.5325 66.5384 97.7686 66.5384 96.8257C66.5384 95.8828 65.7739 95.119 64.8317 95.119H33.6882C32.746 95.119 31.9814 95.8828 31.9814 96.8257C31.9814 97.7686 32.746 98.5325 33.6882 98.5325Z" fill="#157B7D"/>
<path d="M24.9765 85.7911C24.3099 85.1245 23.2299 85.1245 22.5631 85.7911L18.7452 89.6093L14.927 85.7911C14.2604 85.1245 13.1804 85.1245 12.5136 85.7911C11.847 86.4572 11.847 87.5383 12.5136 88.2044L16.3318 92.0226L12.5136 95.8408C11.847 96.5069 11.847 97.5881 12.5136 98.2542C13.1802 98.9207 14.2602 98.9207 14.927 98.2542L18.7452 94.436L22.5634 98.2542C23.2299 98.9207 24.3099 98.9207 24.9767 98.2542C25.6433 97.5881 25.6433 96.5069 24.9767 95.8408L21.1583 92.0226L24.9765 88.2044C25.6433 87.5383 25.6433 86.4572 24.9765 85.7911Z" fill="#157B7D"/>
</svg>
