<svg width="50" height="50" viewBox="0 0 50 50" fill="none" xmlns="http://www.w3.org/2000/svg">
<rect x="26" width="18.95" height="18.95" fill="#AD186A"/>
<path d="M27.1982 18.9453H43.2139C44.0229 18.9453 44.6787 18.2895 44.6787 17.4805V1.46484C44.6787 0.655859 44.0229 0 43.2139 0H27.1982C26.3893 0 25.7334 0.655859 25.7334 1.46484V17.4805C25.7334 18.2895 26.3893 18.9453 27.1982 18.9453ZM28.6631 2.92969H41.749V16.0156H28.6631V2.92969Z" fill="#AD186A"/>
<path d="M20.167 0H4.15137C3.34238 0 2.68652 0.655859 2.68652 1.46484V17.4805C2.68652 18.2895 3.34238 18.9453 4.15137 18.9453H20.167C20.976 18.9453 21.6318 18.2895 21.6318 17.4805V1.46484C21.6318 0.655859 20.976 0 20.167 0ZM18.7021 16.0156H5.61621V2.92969H18.7021V16.0156Z" fill="#157B7D"/>
<path d="M20.167 23.0469H4.15137C3.34238 23.0469 2.68652 23.7027 2.68652 24.5117V40.5273C2.68652 41.3363 3.34238 41.9922 4.15137 41.9922H20.167C20.976 41.9922 21.6318 41.3363 21.6318 40.5273V24.5117C21.6318 23.7027 20.976 23.0469 20.167 23.0469ZM18.7021 39.0625H5.61621V25.9766H18.7021V39.0625Z" fill="#157B7D"/>
<path d="M46.5435 37.2975C45.726 35.8647 44.3332 34.8389 42.7223 34.4828L39.0143 33.6629V26.2695C39.0143 23.8464 37.0429 21.875 34.6198 21.875C32.1966 21.875 30.2252 23.8464 30.2252 26.2695V32.6951C28.6312 33.0554 27.1959 33.9478 26.1596 35.2523C24.8384 36.9153 24.3172 39.0581 24.726 41.139C25.1074 43.9022 27.3852 49.0683 27.4082 49.1204C27.6428 49.6502 28.1675 49.9919 28.7469 49.9922L43.0057 50H43.0065C43.5987 50 44.1327 49.6434 44.3595 49.0963C44.4275 48.9324 46.035 45.0489 47.0227 42.0238C47.5364 40.454 47.3617 38.7312 46.5435 37.2975ZM44.2382 41.1129C44.2381 41.1132 44.2381 41.1135 44.238 41.1138C43.5644 43.1771 42.5579 45.736 42.0213 47.0697L29.715 47.0631C29.002 45.3478 27.833 42.3046 27.624 40.7075C27.6195 40.673 27.6138 40.6389 27.6068 40.6049C27.3527 39.3584 27.6614 38.0718 28.4535 37.0748C28.926 36.48 29.5383 36.0303 30.2252 35.7554V39.7461C30.2252 40.5551 30.8811 41.2109 31.6901 41.2109C32.4991 41.2109 33.1549 40.5551 33.1549 39.7461V33.9864V33.9844V26.2695C33.1549 25.4618 33.8121 24.8047 34.6198 24.8047C35.4275 24.8047 36.0846 25.4618 36.0846 26.2695V34.8457C36.0846 35.5717 36.6163 36.188 37.3343 36.2946L37.3752 36.3007L42.0898 37.3434C42.9065 37.5239 43.5845 38.0232 43.9989 38.7494C44.4139 39.4768 44.499 40.3161 44.2382 41.1129Z" fill="#157B7D"/>
<path d="M36.6362 6.50815L34.5958 8.54858L33.776 7.72886C33.2041 7.15688 32.2765 7.15688 31.7044 7.72886C31.1324 8.30083 31.1324 9.22837 31.7044 9.80044L33.5599 11.6559C33.8459 11.9419 34.2208 12.085 34.5957 12.085C34.9705 12.085 35.3455 11.9419 35.6314 11.6559L38.7076 8.57974C39.2796 8.00776 39.2796 7.08022 38.7076 6.50815C38.1357 5.93608 37.2082 5.93608 36.6362 6.50815Z" fill="white"/>
</svg>
