<svg width="65" height="64" viewBox="0 0 65 64" fill="none" xmlns="http://www.w3.org/2000/svg">
<path d="M11.5498 21.0035C15.1397 21.0035 18.0498 18.0934 18.0498 14.5035C18.0498 10.9137 15.1397 8.00354 11.5498 8.00354C7.95995 8.00354 5.0498 10.9137 5.0498 14.5035C5.0498 18.0934 7.95995 21.0035 11.5498 21.0035Z" fill="#157B7D"/>
<path d="M52.5498 21.0035C56.1397 21.0035 59.0498 18.0934 59.0498 14.5035C59.0498 10.9137 56.1397 8.00354 52.5498 8.00354C48.96 8.00354 46.0498 10.9137 46.0498 14.5035C46.0498 18.0934 48.96 21.0035 52.5498 21.0035Z" fill="#AD186A"/>
<path d="M30.6918 39.2915C27.198 37.3976 24.2008 34.7056 21.9438 31.4345C19.1958 27.7805 16.3548 24.0035 10.0498 24.0035C7.66367 24.0062 5.37602 24.9552 3.68877 26.6425C2.00151 28.3298 1.05245 30.6174 1.0498 33.0035V56.0035C1.0498 56.2688 1.15516 56.5231 1.3427 56.7106C1.53023 56.8982 1.78459 57.0035 2.0498 57.0035H18.0498C18.315 57.0035 18.5694 56.8982 18.7569 56.7106C18.9444 56.5231 19.0498 56.2688 19.0498 56.0035V37.2285C21.8126 39.7999 24.9275 41.9646 28.3008 43.6575C28.682 43.8747 29.1112 43.9936 29.5498 44.0035C30.1098 44.0048 30.654 43.8175 31.0946 43.4718C31.5352 43.126 31.8465 42.642 31.9784 42.0978C32.1103 41.5535 32.0551 40.9806 31.8217 40.4715C31.5883 39.9625 31.1903 39.5468 30.6918 39.2915Z" fill="#157B7D"/>
<path d="M54.0499 24.0035C47.7499 24.0035 44.9039 27.7805 42.1559 31.4345C40.0822 34.4009 37.4123 36.9019 34.3169 38.7775C34.7741 39.5663 35.0259 40.4572 35.0491 41.3686C35.0724 42.2799 34.8663 43.1825 34.4499 43.9935C34.4839 43.9935 34.5169 44.0035 34.5499 44.0035C34.9885 43.9936 35.4177 43.8747 35.7989 43.6575C39.1722 41.9646 42.2871 39.7999 45.0499 37.2285V56.0035C45.0499 56.2688 45.1553 56.5231 45.3428 56.7106C45.5303 56.8982 45.7847 57.0035 46.0499 57.0035H62.0499C62.3151 57.0035 62.5695 56.8982 62.757 56.7106C62.9445 56.5231 63.0499 56.2688 63.0499 56.0035V33.0035C63.0472 30.6174 62.0982 28.3298 60.4109 26.6425C58.7237 24.9552 56.436 24.0062 54.0499 24.0035Z" fill="#AD186A"/>
</svg>
