<svg width="57" height="58" viewBox="0 0 57 58" fill="none" xmlns="http://www.w3.org/2000/svg">
<path d="M22 8.00354H56C56.2652 8.00354 56.5196 7.89818 56.7071 7.71065C56.8946 7.52311 57 7.26876 57 7.00354C57 6.73832 56.8946 6.48397 56.7071 6.29643C56.5196 6.1089 56.2652 6.00354 56 6.00354H22C21.7348 6.00354 21.4804 6.1089 21.2929 6.29643C21.1054 6.48397 21 6.73832 21 7.00354C21 7.26876 21.1054 7.52311 21.2929 7.71065C21.4804 7.89818 21.7348 8.00354 22 8.00354Z" fill="#157B7D"/>
<path d="M56 28.0035H22C21.7348 28.0035 21.4804 28.1089 21.2929 28.2964C21.1054 28.484 21 28.7383 21 29.0035C21 29.2688 21.1054 29.5231 21.2929 29.7106C21.4804 29.8982 21.7348 30.0035 22 30.0035H56C56.2652 30.0035 56.5196 29.8982 56.7071 29.7106C56.8946 29.5231 57 29.2688 57 29.0035C57 28.7383 56.8946 28.484 56.7071 28.2964C56.5196 28.1089 56.2652 28.0035 56 28.0035Z" fill="#AD186A"/>
<path d="M56 50.0035H22C21.7348 50.0035 21.4804 50.1089 21.2929 50.2964C21.1054 50.484 21 50.7383 21 51.0035C21 51.2688 21.1054 51.5231 21.2929 51.7106C21.4804 51.8982 21.7348 52.0035 22 52.0035H56C56.2652 52.0035 56.5196 51.8982 56.7071 51.7106C56.8946 51.5231 57 51.2688 57 51.0035C57 50.7383 56.8946 50.484 56.7071 50.2964C56.5196 50.1089 56.2652 50.0035 56 50.0035Z" fill="#157B7D"/>
<path d="M13 0.00354004H1C0.447715 0.00354004 0 0.451255 0 1.00354V13.0035C0 13.5558 0.447715 14.0035 1 14.0035H13C13.5523 14.0035 14 13.5558 14 13.0035V1.00354C14 0.451255 13.5523 0.00354004 13 0.00354004Z" fill="#157B7D"/>
<path d="M13 44.0035H1C0.447715 44.0035 0 44.4513 0 45.0035V57.0035C0 57.5558 0.447715 58.0035 1 58.0035H13C13.5523 58.0035 14 57.5558 14 57.0035V45.0035C14 44.4513 13.5523 44.0035 13 44.0035Z" fill="#157B7D"/>
<path d="M15.2069 20.3946L5.89992 32.4906L1.70692 28.2966C1.51832 28.1144 1.26571 28.0136 1.00352 28.0159C0.741321 28.0182 0.490509 28.1234 0.305101 28.3088C0.119692 28.4942 0.0145233 28.745 0.0122448 29.0072C0.00996641 29.2694 0.110761 29.522 0.292919 29.7106L5.29292 34.7106C5.48041 34.8981 5.73472 35.0035 5.99992 35.0036H6.06392C6.20613 34.9944 6.34475 34.955 6.47048 34.8879C6.5962 34.8208 6.70614 34.7276 6.79292 34.6146L16.7929 21.6146C16.8755 21.5107 16.9365 21.3914 16.9725 21.2636C17.0085 21.1359 17.0186 21.0023 17.0025 20.8706C16.9863 20.7389 16.944 20.6117 16.8782 20.4965C16.8124 20.3812 16.7243 20.2803 16.619 20.1994C16.5138 20.1186 16.3935 20.0595 16.2652 20.0257C16.1369 19.9918 16.0031 19.9838 15.8717 20.0022C15.7402 20.0205 15.6138 20.0648 15.4996 20.1325C15.3855 20.2003 15.286 20.29 15.2069 20.3966V20.3946Z" fill="#AD186A"/>
</svg>
