<svg width="60" height="60" viewBox="0 0 60 60" fill="none" xmlns="http://www.w3.org/2000/svg">
<g clip-path="url(#clip0_1628_1534)">
<path d="M54.477 3.75H28.1167C25.0661 3.75 22.5938 6.22284 22.5938 9.27292V22.2574C23.9872 22.95 25.4928 23.6989 26.8981 24.3974L29.0482 20.0954C30.3501 17.4939 33.5238 16.4369 36.1243 17.7365C38.7304 19.0407 39.7864 22.2057 38.4818 24.8122L34.649 32.4797C34.7506 33.4946 34.6604 34.5177 34.3743 35.5078H36.9048L30.2306 53.8605C29.8347 54.949 30.6 56.2193 31.8831 56.2193C32.6005 56.2193 33.2752 55.7767 33.5343 55.0616L40.6452 35.5078H41.877L49.0603 55.0676C49.3217 55.779 49.9946 56.2193 50.7114 56.2193C51.9103 56.2193 52.7892 55.0218 52.3603 53.8559L45.622 35.5078H54.477C57.5271 35.5078 59.9999 33.035 59.9999 29.9849V9.27292C59.9999 6.22284 57.5271 3.75 54.477 3.75ZM50.7105 27.9771H42.8237C41.8532 27.9771 41.0659 27.1898 41.0659 26.2193C41.0659 25.248 41.8532 24.4615 42.8237 24.4615H50.7105C51.6819 24.4615 52.4683 25.248 52.4683 26.2193C52.4683 27.1898 51.6819 27.9771 50.7105 27.9771ZM50.7105 21.3867H42.8237C41.8532 21.3867 41.0659 20.6003 41.0659 19.6289C41.0659 18.6584 41.8532 17.8711 42.8237 17.8711H50.7105C51.6819 17.8711 52.4683 18.6584 52.4683 19.6289C52.4683 20.6003 51.6819 21.3867 50.7105 21.3867ZM50.7105 14.7972H31.8831C30.9118 14.7972 30.1253 14.0099 30.1253 13.0394C30.1253 12.0689 30.9118 11.2816 31.8831 11.2816H50.7105C51.6819 11.2816 52.4683 12.0689 52.4683 13.0394C52.4683 14.0099 51.6819 14.7972 50.7105 14.7972Z" fill="#AD186A"/>
<path d="M30.9283 34.7539C31.246 33.8232 31.2437 32.851 30.9755 31.9638L35.338 23.2397C35.7719 22.3714 35.4204 21.3153 34.552 20.8813C33.6841 20.4469 32.628 20.799 32.1936 21.6673L28.4729 29.1078C26.2491 28.0005 22.8703 26.3205 20.1485 24.9669C17.6161 23.7076 15.8089 22.5783 12.7254 22.5783H11.1722C13.5732 22.5783 15.7159 21.4732 17.1185 19.7438C18.1888 18.4277 18.8287 16.7505 18.8287 14.9226C18.8287 10.6934 15.401 7.26562 11.1713 7.26562C6.94336 7.26562 3.51562 10.6934 3.51562 14.9226C3.51562 16.9537 4.30664 18.7994 5.59708 20.1691C6.99234 21.6527 8.974 22.5783 11.1708 22.5787C8.22556 22.5787 5.34622 23.7721 3.27484 25.849C1.16318 27.9552 0 30.7613 0 33.7505V39.3988C0 41.8304 1.57883 43.8995 3.76556 44.6356V54.4611C3.76556 55.432 4.55246 56.2189 5.52338 56.2189H16.8201C17.791 56.2189 18.5779 55.432 18.5779 54.4611V34.7108C20.2446 35.544 22.4341 36.6385 24.2056 37.5247C25.4475 38.1454 26.8987 38.2013 28.1927 37.6749C29.4832 37.1439 30.4779 36.0869 30.9215 34.7745C30.9238 34.7676 30.9261 34.7607 30.9283 34.7539Z" fill="#157B7D"/>
</g>
<defs>
<clipPath id="clip0_1628_1534">
<rect width="60" height="60" fill="white"/>
</clipPath>
</defs>
</svg>
