<svg width="45" height="44" viewBox="0 0 45 44" fill="none" xmlns="http://www.w3.org/2000/svg">
<g clip-path="url(#clip0_1314_3184)">
<path d="M44.0746 21.519L37.126 4.88762L30.4213 7.68895C30.5054 6.89819 30.5054 5.77933 30.0763 4.97174C29.1173 3.1799 26.8796 2.49849 25.0878 3.45751C23.2959 4.41652 22.6145 6.65423 23.5735 8.44607C23.91 9.077 24.4148 9.59016 25.0373 9.93507L17.8699 12.9215C17.7101 12.4167 17.4661 11.9372 17.1549 11.5082C17.2474 11.4577 17.3231 11.3988 17.3988 11.3231C17.5755 11.1465 17.6848 10.9109 17.6848 10.6585L17.6512 7.88244H18.2232C18.3578 7.88244 18.484 7.82355 18.5766 7.73102C18.6775 7.63848 18.728 7.50388 18.728 7.36928L18.627 0L17.6175 0.0168248L17.7101 6.87295L4.22497 6.9739L4.13243 0L3.12294 0.0168248L3.21548 7.49547C3.22389 7.77308 3.44261 7.98339 3.72022 7.9918H4.30909C4.30909 8.01704 4.34274 10.7679 4.34274 10.7679C4.35116 11.0707 4.50258 11.3484 4.74654 11.525L4.37639 12.1139C4.23338 12.341 4.0399 12.9047 4.0399 12.9047H4.03148L2.55931 18.398L2.94628 19.5925L2.39947 19.8365C1.89473 20.0636 1.49093 20.4758 1.29745 20.9974C1.10396 21.519 1.12078 22.091 1.34792 22.5958L8.82656 39.3028L15.8341 36.165C16.0865 36.0556 16.2631 35.8201 16.2884 35.5425C16.3136 35.2649 16.1874 34.9957 15.9603 34.8443C15.0602 34.2133 14.4377 33.5319 14.2526 32.9767C13.7815 31.5802 14.5302 30.0576 15.9351 29.5865C17.3315 29.1154 18.8542 29.8641 19.3253 31.269C19.5524 31.9336 19.5019 32.6654 19.1907 33.2964C19.0561 33.5656 19.1065 33.8852 19.3169 34.0956C19.5188 34.3143 19.8384 34.3816 20.1076 34.2554L25.929 31.6475C26.2066 31.5298 26.4422 31.3279 26.6104 31.0755L27.4937 30.7138C27.5947 31.5466 27.9059 32.3374 28.4023 33.0188C28.3097 33.0692 28.234 33.1365 28.1583 33.2122C27.9732 33.3889 27.8723 33.6329 27.8723 33.8852L27.9144 36.6529H27.3423C27.2077 36.6529 27.0815 36.7118 26.989 36.8044C26.888 36.8969 26.8376 37.0315 26.846 37.1661L26.9385 43.5175H27.948L27.8555 37.6708L41.3406 37.5615L41.4331 43.5259H42.4426L42.3501 37.0567C42.3417 36.7791 42.1229 36.5604 41.8453 36.552H41.2565C41.2565 36.5352 41.2649 36.5099 41.2649 36.4931L41.2228 33.7843C41.2228 33.4814 41.0714 33.1954 40.819 33.0272C41.0125 32.7159 41.1639 32.4804 41.1892 32.4299C41.3322 32.2112 41.4415 31.9672 41.5088 31.7064L41.5257 31.6475H41.5341L43.0062 26.1458L42.4678 24.4465L42.9558 24.2446C44.0157 23.8072 44.5205 22.6042 44.083 21.5442C44.083 21.5358 44.0746 21.5274 44.0746 21.519ZM8.83498 16.9594L8.75085 17.1025C8.17881 18.1119 7.14408 18.5578 7.13567 18.5578L6.76552 18.7092C6.76552 18.7092 7.34598 22.2172 7.50581 23.2351C7.59835 23.8408 7.48899 24.4633 7.18614 24.9933C6.96742 25.3046 6.6141 25.4896 6.23554 25.4896C5.97475 25.4812 5.86539 25.3466 5.82333 25.2709L4.18291 20.1478L3.87165 19.1803L3.61086 18.3727L5.03256 13.0813C5.07462 12.9299 5.14192 12.7869 5.22605 12.6523C5.22605 12.6523 5.48683 12.2317 5.78127 11.7774L16.0108 11.6933C16.4482 12.156 16.7679 12.7196 16.9446 13.3337L8.83498 16.9594ZM16.4903 10.6922H16.4735V10.6754L5.56254 10.7595C5.48683 10.7679 5.41953 10.7427 5.36065 10.7006V10.5997L5.327 8.0591C5.38588 8.02545 5.45318 8.00021 5.52048 8.00021L16.4482 7.91609C16.5239 7.90768 16.5912 7.93292 16.6501 7.97498L16.6922 10.6333C16.6333 10.667 16.5576 10.6922 16.4903 10.6922ZM25.5168 30.7222L20.36 33.0356C20.8563 31.0587 19.6618 29.0565 17.6848 28.5602C15.7079 28.0638 13.7058 29.2584 13.2094 31.2353C13.0328 31.9167 13.0664 32.6402 13.2851 33.3048C13.5712 34.1376 14.3367 34.8779 15.0349 35.4163L9.3229 37.9737L2.25646 22.1836C2.13869 21.9228 2.13028 21.6283 2.23964 21.3591C2.34059 21.0899 2.54248 20.8796 2.80327 20.7619L3.24913 20.56L4.89796 25.7C5.15034 26.1795 5.63826 26.4907 6.18506 26.4991C6.18506 26.4991 7.4974 26.5244 8.0358 25.5233V25.5065C8.45642 24.7662 8.61625 23.9081 8.48165 23.0669C8.35547 22.2593 8.01056 20.1478 7.86755 19.2981C8.54054 18.928 9.11259 18.3896 9.53321 17.7502L18.0718 13.9226C18.0718 13.9226 18.3074 13.788 18.4924 13.83C18.6018 13.8721 18.7027 13.9983 18.7532 14.1076L21.3947 20.1478C21.5041 20.4254 21.7817 20.5936 22.0761 20.5768C22.3706 20.56 22.6229 20.3581 22.7155 20.0805C22.9426 19.3149 23.4978 18.7008 24.2381 18.398C25.5505 17.8091 27.0983 18.3896 27.6872 19.7019C28.234 20.9133 27.7882 22.335 26.6441 23.0164C25.9122 23.4286 24.6335 23.3277 24.1203 23.2688C23.8512 23.2351 23.582 23.3529 23.4137 23.5716C23.4137 23.58 23.1697 23.8576 23.3296 24.3371L25.8281 29.9062C25.9206 30.1165 25.887 30.3688 25.7439 30.5455C25.6935 30.6212 25.6093 30.6885 25.5168 30.7222ZM40.2133 33.9273L40.2554 36.4679C40.1965 36.5099 40.1292 36.5352 40.0535 36.5267L29.1257 36.6109C29.05 36.6193 28.9827 36.594 28.9238 36.552L28.8818 33.9357L40.2133 33.9273ZM40.533 31.4456C40.4909 31.5971 40.4236 31.7401 40.3395 31.8747V31.8915C40.3395 31.8915 40.0871 32.3037 39.7927 32.758L39.6917 32.9178H29.6389L29.5548 32.8337C28.907 32.1439 28.52 31.2437 28.4696 30.2931L35.7547 27.2563C35.5949 27.5423 35.4435 27.8451 35.3005 28.148L36.2174 28.577C36.4025 28.1816 36.6044 27.7946 36.8147 27.4245C37.025 27.0544 37.311 26.7347 37.6391 26.4655C37.8831 26.2636 38.1439 26.1038 38.4299 25.9692L38.8 25.8177L38.7411 25.4223C38.7327 25.4139 38.7075 25.2289 38.657 24.9512C38.5056 24.0427 38.1859 22.0742 38.0597 21.3003C37.9672 20.6946 38.0766 20.072 38.3794 19.5421C38.5981 19.2308 38.9515 19.0373 39.33 19.0373C39.5908 19.0457 39.7002 19.1803 39.7422 19.2644L41.2228 23.8745L41.5341 24.8419L41.9547 26.1626L40.533 31.4456ZM43.1493 22.7304C43.0399 22.9912 42.8296 23.2015 42.5688 23.3108L42.1566 23.4875L40.6592 18.827C40.4068 18.3475 39.9189 18.0446 39.3805 18.0278C38.085 18.0615 37.5213 19.0121 37.5213 19.0121C37.1007 19.7524 36.9409 20.6104 37.0755 21.4517C37.2017 22.2677 37.5466 24.3708 37.6896 25.2204C37.4961 25.3298 37.311 25.456 37.1344 25.5906L26.8712 29.8809C26.846 29.7463 24.5073 24.4802 24.5073 24.4802C25.3402 24.539 26.2992 24.497 27.0142 24.1184L27.3339 23.9249C27.7209 23.6641 28.0574 23.3361 28.3181 22.9491L28.4275 22.7808C28.621 22.4612 28.764 22.1163 28.8565 21.7545C28.865 21.7377 28.865 21.7209 28.865 21.7041H28.8734C28.9659 21.376 29.008 21.0395 29.008 20.6946C29.008 20.3244 28.9491 19.9459 28.8397 19.5925C28.234 17.6493 26.1646 16.5725 24.2213 17.1782C23.2875 17.4726 22.5052 18.1288 22.0509 19.0037L21.4536 17.6661C21.2601 17.1866 19.973 14.36 19.687 13.7038C19.6197 13.5777 19.544 13.4515 19.4515 13.3421L26.1057 10.5997C26.3833 10.4819 26.5515 10.2043 26.5347 9.90983C26.5263 9.6154 26.3244 9.36303 26.0468 9.2789C24.6335 8.84987 23.8343 7.36087 24.2634 5.93917C24.3054 5.80457 24.3559 5.67839 24.4148 5.5522C24.7429 4.86238 25.3486 4.34081 26.0889 4.13891C27.3002 3.794 28.5873 4.3324 29.1846 5.44284C29.58 6.18313 29.4454 7.45341 29.3697 7.96656C29.3361 8.24417 29.4454 8.51337 29.6641 8.68162C29.8829 8.84987 30.1689 8.89193 30.4213 8.78257L36.5791 6.20837L43.1408 21.9059C43.2586 22.1667 43.2586 22.4696 43.1493 22.7304Z" fill="#AD186A" stroke="#AD186A" stroke-width="0.5"/>
<path d="M12.4593 39.5302L11.5623 39.9932L12.7274 42.2507L13.6244 41.7877L12.4593 39.5302Z" fill="#AD186A" stroke="#AD186A" stroke-width="0.5"/>
<path d="M5.44561 39.5711L4.28052 41.8286L5.17755 42.2916L6.34265 40.034L5.44561 39.5711Z" fill="#AD186A" stroke="#AD186A" stroke-width="0.5"/>
<path d="M8.45904 41.0169L8.39697 43.5566L9.40616 43.5813L9.46823 41.0415L8.45904 41.0169Z" fill="#AD186A" stroke="#AD186A" stroke-width="0.5"/>
<path d="M33.8023 1.42474L32.9053 1.8877L34.0704 4.14523L34.9674 3.68228L33.8023 1.42474Z" fill="#AD186A" stroke="#AD186A" stroke-width="0.5"/>
<path d="M41.3548 1.45878L40.1897 3.71631L41.0867 4.17926L42.2518 1.92173L41.3548 1.45878Z" fill="#AD186A" stroke="#AD186A" stroke-width="0.5"/>
<path d="M37.0676 0.109135L37.0055 2.64893L38.0147 2.67359L38.0768 0.133799L37.0676 0.109135Z" fill="#AD186A" stroke="#AD186A" stroke-width="0.5"/>
</g>
<defs>
<clipPath id="clip0_1314_3184">
<rect width="43.61" height="43.61" fill="white" transform="translate(0.893677)"/>
</clipPath>
</defs>
</svg>
