<svg width="45" height="44" viewBox="0 0 45 44" fill="none" xmlns="http://www.w3.org/2000/svg">
<g clip-path="url(#clip0_1314_3187)">
<path d="M30.9333 15.401H28.9986C28.8805 15.0261 28.7302 14.6631 28.5489 14.3148L29.9168 12.9468C30.0877 12.7758 30.1819 12.5485 30.1819 12.3067C30.1819 12.0648 30.0877 11.8374 29.9168 11.6665L28.3069 10.0565C27.9539 9.70379 27.3797 9.70362 27.0266 10.0566L25.6586 11.4246C25.3103 11.2432 24.9472 11.0929 24.5724 10.9749V9.0401C24.5723 8.54097 24.1662 8.13477 23.6669 8.13477H21.3901C20.891 8.13477 20.4849 8.54088 20.4849 9.0401V10.9749C20.1099 11.093 19.7469 11.2432 19.3985 11.4246L18.0305 10.0565C17.6775 9.7037 17.1032 9.70379 16.7503 10.0566L15.1404 11.6664C14.9694 11.8374 14.8752 12.0647 14.8752 12.3066C14.8752 12.5484 14.9694 12.7757 15.1404 12.9467L16.5084 14.3147C16.327 14.663 16.1767 15.0261 16.0586 15.4009H14.1239C13.6247 15.4009 13.2186 15.807 13.2186 16.3063V18.5831C13.2186 19.0822 13.6247 19.4883 14.1239 19.4883H16.0586C16.1768 19.8632 16.327 20.2264 16.5084 20.5746L15.1404 21.9426C14.7874 22.2956 14.7874 22.8699 15.1404 23.2229L16.7503 24.8328C17.1032 25.1858 17.6777 25.1857 18.0305 24.8328L19.3985 23.4648C19.7468 23.6461 20.11 23.7964 20.4849 23.9145V25.8492C20.4849 26.3484 20.891 26.7545 21.3901 26.7545H23.6669C24.1661 26.7545 24.5723 26.3484 24.5723 25.8492V23.9145C24.9471 23.7964 25.3102 23.6461 25.6585 23.4648L27.0265 24.8328C27.3796 25.1858 27.9539 25.1857 28.3069 24.8328L29.9167 23.2229C30.0877 23.0519 30.1818 22.8246 30.1818 22.5828C30.1818 22.341 30.0877 22.1136 29.9167 21.9426L28.5487 20.5746C28.73 20.2263 28.8804 19.8632 28.9984 19.4883H30.9332C31.4323 19.4883 31.8385 19.0822 31.8385 18.5831V16.3063C31.8386 15.8071 31.4324 15.401 30.9333 15.401ZM30.5611 18.2107H28.5118C28.2151 18.2107 27.9574 18.415 27.8898 18.704C27.7536 19.2862 27.525 19.8384 27.2103 20.3451C27.0536 20.5972 27.0914 20.924 27.3011 21.1339L28.7501 22.5828L27.6668 23.6661L26.2179 22.2172C26.008 22.0073 25.6813 21.9695 25.429 22.1262C24.9222 22.4409 24.37 22.6696 23.788 22.8058C23.499 22.8734 23.2946 23.131 23.2946 23.4279V25.4772H21.7628V23.4279C21.7628 23.1311 21.5584 22.8735 21.2694 22.8058C20.6874 22.6697 20.1352 22.4411 19.6283 22.1262C19.3763 21.9698 19.0495 22.0073 18.8395 22.2172L17.3906 23.6661L16.3074 22.5828L17.7563 21.1339C17.9661 20.9241 18.0038 20.5973 17.8472 20.3451C17.5325 19.8383 17.3039 19.2861 17.1677 18.704C17.1002 18.415 16.8424 18.2107 16.5457 18.2107H14.4964V16.6788H16.5457C16.8424 16.6788 17.1001 16.4745 17.1677 16.1855C17.3039 15.6034 17.5325 15.0512 17.8472 14.5444C18.0038 14.2923 17.9661 13.9655 17.7563 13.7556L16.3074 12.3067L17.3906 11.2234L18.8395 12.6723C19.0492 12.8822 19.3761 12.9199 19.6283 12.7633C20.1351 12.4486 20.6873 12.22 21.2694 12.0838C21.5584 12.0162 21.7628 11.7586 21.7628 11.4617V9.4124H23.2946V11.4617C23.2946 11.7585 23.499 12.0161 23.788 12.0838C24.3701 12.22 24.9222 12.4486 25.4291 12.7633C25.681 12.9198 26.0079 12.882 26.2179 12.6723L27.6668 11.2234L28.7501 12.3067L27.3011 13.7556C27.0913 13.9655 27.0536 14.2922 27.2103 14.5444C27.5249 15.051 27.7535 15.6032 27.8898 16.1855C27.9574 16.4745 28.215 16.6788 28.5118 16.6788H30.5611V18.2107Z" fill="#AD186A"/>
<path d="M22.5286 14.0225C20.6414 14.0225 19.1062 15.5578 19.1062 17.4448C19.1062 19.3319 20.6415 20.8672 22.5286 20.8672C24.4156 20.8672 25.9509 19.3319 25.9509 17.4448C25.9509 15.5578 24.4157 14.0225 22.5286 14.0225ZM22.5286 19.5895C21.346 19.5895 20.3838 18.6274 20.3838 17.4448C20.3838 16.2622 21.346 15.3001 22.5286 15.3001C23.7111 15.3001 24.6733 16.2622 24.6733 17.4448C24.6733 18.6274 23.7111 19.5895 22.5286 19.5895Z" fill="#AD186A"/>
<path d="M7.84214 16.8057H5.7228C5.37 16.8057 5.08398 17.0917 5.08398 17.4445C5.08398 17.7973 5.37 18.0833 5.7228 18.0833H7.84214C8.19494 18.0833 8.48096 17.7973 8.48096 17.4445C8.48096 17.0917 8.19494 16.8057 7.84214 16.8057Z" fill="#AD186A"/>
<path d="M39.3344 16.8057H37.2151C36.8622 16.8057 36.5763 17.0917 36.5763 17.4445C36.5763 17.7973 36.8622 18.0833 37.2151 18.0833H39.3344C39.6873 18.0833 39.9733 17.7973 39.9733 17.4445C39.9733 17.0917 39.6872 16.8057 39.3344 16.8057Z" fill="#AD186A"/>
<path d="M12.5954 27.378C12.346 27.1285 11.9415 27.1285 11.6919 27.378L10.1933 28.8766C9.94386 29.1261 9.94386 29.5306 10.1933 29.7801C10.4428 30.0295 10.8473 30.0295 11.0968 29.7801L12.5954 28.2815C12.8449 28.032 12.8449 27.6275 12.5954 27.378Z" fill="#AD186A"/>
<path d="M34.8639 5.10947C34.6143 4.85999 34.2099 4.85999 33.9603 5.10947L32.4618 6.60805C32.2123 6.85753 32.2123 7.26203 32.4618 7.51151C32.7113 7.76099 33.1157 7.76091 33.3653 7.51151L34.8639 6.01293C35.1134 5.76337 35.1134 5.35887 34.8639 5.10947Z" fill="#AD186A"/>
<path d="M22.5287 0C22.1758 0 21.8899 0.28602 21.8899 0.638817V2.75816C21.8899 3.11095 22.1758 3.39697 22.5287 3.39697C22.8816 3.39697 23.1675 3.11095 23.1675 2.75816V0.638817C23.1675 0.28602 22.8816 0 22.5287 0Z" fill="#AD186A"/>
<path d="M34.8639 28.8766L33.3653 27.378C33.1157 27.1285 32.7113 27.1285 32.4618 27.378C32.2123 27.6275 32.2123 28.0321 32.4618 28.2815L33.9603 29.7801C34.2099 30.0295 34.6143 30.0295 34.8639 29.7801C35.1134 29.5306 35.1134 29.1261 34.8639 28.8766Z" fill="#AD186A"/>
<path d="M12.5954 6.60805L11.0968 5.10947C10.8473 4.85999 10.4428 4.85999 10.1933 5.10947C9.94386 5.35895 9.94386 5.76345 10.1933 6.01293L11.6919 7.51151C11.9414 7.76099 12.3459 7.76099 12.5954 7.51151C12.8449 7.26195 12.8449 6.85745 12.5954 6.60805Z" fill="#AD186A"/>
<path d="M35.2733 15.8798C34.5859 10.0133 29.9355 5.36254 24.0966 4.65082C23.7469 4.6078 23.4278 4.85745 23.385 5.20761C23.3423 5.55785 23.5916 5.87641 23.9419 5.91917C29.2447 6.56548 33.3825 10.7226 34.0042 16.0285C34.0423 16.3536 34.3183 16.5929 34.6378 16.5929C34.6627 16.5929 34.6877 16.5915 34.713 16.5886C35.0636 16.5476 35.3144 16.2303 35.2733 15.8798Z" fill="#AD186A"/>
<path d="M34.7056 18.3016C34.355 18.257 34.0359 18.5051 33.9916 18.8552C33.5561 22.2953 31.6144 25.3307 28.6644 27.1828C27.3927 27.9813 26.6335 29.3479 26.6335 30.8383V33.4674H18.424V30.7801C18.424 29.3369 17.6698 27.9734 16.4558 27.2219C13.0227 25.0968 10.973 21.4209 10.973 17.3887C10.973 11.5668 15.3338 6.63633 21.1166 5.92001C21.4668 5.87665 21.7154 5.55758 21.672 5.20743C21.6287 4.85736 21.3098 4.60805 20.9595 4.652C14.57 5.44353 9.69498 10.9382 9.69507 17.3887C9.69507 19.6146 10.274 21.8077 11.3695 23.731C12.4313 25.5955 13.9576 27.1782 15.7831 28.3082C16.6238 28.8287 17.1461 29.7758 17.1461 30.78V33.5604C16.4965 33.7861 16.0281 34.403 16.0281 35.1284V36.0391C16.0281 36.4247 16.1613 36.7791 16.3825 37.0613C16.1613 37.3435 16.0281 37.6978 16.0281 38.0835V38.9941C16.0281 39.91 16.7733 40.6551 17.6891 40.6551H19.6976V42.0993C19.6976 42.9324 20.3753 43.6101 21.2083 43.6101H23.8485C24.6816 43.6101 25.3593 42.9324 25.3593 42.0993V40.6551H27.3677C28.2836 40.6551 29.0287 39.9099 29.0287 38.9941V38.0835C29.0287 37.6979 28.8955 37.3435 28.6742 37.0613C28.8955 36.7791 29.0287 36.4248 29.0287 36.0391V35.1284C29.0287 34.4029 28.5604 33.7861 27.9108 33.5604V30.8382C27.9108 29.7901 28.4463 28.8282 29.3435 28.2649C32.6188 26.2084 34.7749 22.8372 35.2587 19.0157C35.3034 18.6656 35.0556 18.3459 34.7056 18.3016ZM24.0818 42.0992C24.0818 42.2255 23.9751 42.3323 23.8488 42.3323H21.2086C21.0823 42.3323 20.9756 42.2256 20.9756 42.0992V40.6551H24.0818V42.0992ZM27.7514 38.994C27.7514 39.2018 27.5758 39.3773 27.3681 39.3773C26.2403 39.3773 18.7536 39.3773 17.6894 39.3773C17.4817 39.3773 17.3061 39.2018 17.3061 38.994V38.0834C17.3061 37.8757 17.4817 37.7001 17.6894 37.7001H27.3681C27.5758 37.7001 27.7514 37.8757 27.7514 38.0834V38.994ZM27.7514 36.039C27.7514 36.2468 27.5758 36.4223 27.3681 36.4223H17.6894C17.4817 36.4223 17.3061 36.2468 17.3061 36.039V35.1283C17.3061 34.9206 17.4817 34.7451 17.6894 34.7451H27.3681C27.5758 34.7451 27.7514 34.9206 27.7514 35.1283V36.039Z" fill="#AD186A"/>
</g>
<defs>
<clipPath id="clip0_1314_3187">
<rect width="43.61" height="43.61" fill="white" transform="translate(0.723633)"/>
</clipPath>
</defs>
</svg>
