<svg width="45" height="44" viewBox="0 0 45 44" fill="none" xmlns="http://www.w3.org/2000/svg">
<g clip-path="url(#clip0_1314_3185)">
<path d="M37.5015 27.3977C37.5015 27.7506 37.7875 28.0366 38.1403 28.0366H43.4748C43.8276 28.0366 44.1137 27.7506 44.1137 27.3977C44.1137 21.9218 42.0908 16.7216 38.4062 12.6936L39.7388 10.8599C39.9235 10.6058 39.8959 10.255 39.6739 10.0328C39.674 10.0327 39.674 10.0326 39.674 10.0325C35.0356 5.39395 28.8685 2.83936 22.3087 2.83936C21.9559 2.83936 21.6698 3.12529 21.6698 3.47817C21.6698 3.83106 21.9559 4.11699 22.3087 4.11699C28.2765 4.11699 33.9006 6.34851 38.2308 10.4149L37.0147 11.2987C32.9877 7.61499 27.7868 5.59275 22.3087 5.59275C19.0152 5.59275 15.8505 6.30874 12.9027 7.72095C12.5845 7.87333 12.4502 8.25492 12.6025 8.57305C12.755 8.89118 13.1366 9.02567 13.4546 8.87312C16.0378 7.63569 18.7985 6.96697 21.6698 6.88061V10.9405C19.672 11.0161 17.7329 11.4454 15.8974 12.2221C14.132 12.9685 12.5292 14.0062 11.1234 15.3089L8.25261 12.4382C9.08947 11.6517 9.99148 10.9346 10.9422 10.3025C11.236 10.1071 11.3158 9.71057 11.1204 9.4168C10.9251 9.12311 10.5285 9.04313 10.2347 9.23861C9.03734 10.0348 7.91191 10.9568 6.8898 11.9789C6.87668 11.992 6.86416 12.0057 6.85232 12.0199C2.75784 16.1347 0.503662 21.5936 0.503662 27.3977C0.503662 27.7506 0.789682 28.0366 1.14248 28.0366H6.47704C6.82984 28.0366 7.11586 27.7506 7.11586 27.3977C7.11586 23.3395 8.69621 19.5244 11.5657 16.6549C12.9613 15.2592 14.5861 14.1638 16.3951 13.3989C18.2675 12.6065 20.2571 12.2049 22.3087 12.2049C25.6365 12.2049 28.8702 13.3004 31.5035 15.3036L25.708 19.5152C24.8216 18.6731 23.6249 18.1548 22.3087 18.1548C19.5842 18.1548 17.3678 20.3713 17.3678 23.0957C17.3678 24.5471 17.9971 25.8542 18.9969 26.7589H18.5229C16.2729 26.7589 14.4424 28.5894 14.4424 30.8394V34.6253C14.4424 34.9781 14.7284 35.2641 15.0812 35.2641H29.5362C29.889 35.2641 30.175 34.9781 30.175 34.6253V30.8394C30.175 29.2311 29.2393 27.8374 27.8839 27.1731L30.6633 23.3483C30.8707 23.0629 30.8074 22.6634 30.5221 22.4559C30.2367 22.2485 29.8371 22.3118 29.6297 22.5972L26.5835 26.7892C26.423 26.7699 26.2601 26.7588 26.0945 26.7588H25.6205C26.6203 25.8541 27.2495 24.547 27.2495 23.0956C27.2495 22.1473 26.9805 21.261 26.5154 20.5078L36.3323 13.3738L31.3818 20.1859C31.1744 20.4713 31.2376 20.8708 31.5231 21.0783C31.6365 21.1607 31.7679 21.2004 31.8981 21.2004C32.0956 21.2004 32.2904 21.1091 32.4154 20.9371L34.4029 18.2023C35.1732 19.2138 35.8125 20.3144 36.3076 21.4842C37.0998 23.3565 37.5015 25.3462 37.5015 27.3977ZM5.85023 26.7589H1.79101C1.94381 21.7292 3.90064 17.0098 7.35094 13.3435L10.2198 16.2124C7.53424 19.1095 5.99971 22.8114 5.85023 26.7589ZM22.9475 10.9404V6.88129C27.7816 7.02915 32.3527 8.85225 35.9572 12.067L32.5788 14.5222C29.8371 12.3335 26.4563 11.0769 22.9475 10.9404ZM26.0945 28.0366C27.64 28.0366 28.8973 29.2939 28.8973 30.8394V33.9864H26.5611V32.9044C26.5611 32.5515 26.2751 32.2655 25.9223 32.2655C25.5695 32.2655 25.2835 32.5515 25.2835 32.9044V33.9864H19.3336V32.9044C19.3336 32.5515 19.0476 32.2655 18.6948 32.2655C18.342 32.2655 18.056 32.5515 18.056 32.9044V33.9864H15.7199V30.8394C15.7199 29.2938 16.9773 28.0366 18.5227 28.0366H26.0945ZM22.3087 26.7589C20.2887 26.7589 18.6454 25.1156 18.6454 23.0957C18.6454 21.0757 20.2887 19.4324 22.3087 19.4324C24.3286 19.4324 25.9719 21.0757 25.9719 23.0957C25.9719 25.1156 24.3286 26.7589 22.3087 26.7589ZM37.6378 13.7508C40.8536 17.3563 42.6783 21.9267 42.8262 26.7589H38.767C38.6915 24.761 38.2608 22.822 37.4841 20.9863C36.8978 19.6008 36.1248 18.3051 35.1841 17.1273L37.6378 13.7508Z" fill="#AD186A"/>
<path d="M29.5358 36.7397H20.0446C19.6918 36.7397 19.4058 37.0257 19.4058 37.3786C19.4058 37.7314 19.6918 38.0174 20.0446 38.0174H28.897V39.4926H15.7203V38.0174H17.0635C17.4163 38.0174 17.7023 37.7314 17.7023 37.3786C17.7023 37.0257 17.4163 36.7397 17.0635 36.7397H15.0814C14.7286 36.7397 14.4426 37.0257 14.4426 37.3786V40.1314C14.4426 40.4843 14.7286 40.7703 15.0814 40.7703H29.5358C29.8886 40.7703 30.1746 40.4843 30.1746 40.1314V37.3786C30.1746 37.0258 29.8886 36.7397 29.5358 36.7397Z" fill="#AD186A"/>
<path d="M43.4748 29.436H38.1403C37.7875 29.436 37.5015 29.722 37.5015 30.0749C37.5015 30.4277 37.7875 30.7137 38.1403 30.7137H43.4748C43.8276 30.7137 44.1137 30.4277 44.1137 30.0749C44.1137 29.722 43.8276 29.436 43.4748 29.436Z" fill="#AD186A"/>
<path d="M41.7541 32.1895H39.8611C39.5083 32.1895 39.2223 32.4754 39.2223 32.8283C39.2223 33.1812 39.5083 33.4671 39.8611 33.4671H41.7541C42.1069 33.4671 42.3929 33.1812 42.3929 32.8283C42.3929 32.4754 42.1069 32.1895 41.7541 32.1895Z" fill="#AD186A"/>
<path d="M6.47704 29.436H1.14248C0.789682 29.436 0.503662 29.722 0.503662 30.0749C0.503662 30.4277 0.789682 30.7137 1.14248 30.7137H6.47704C6.82984 30.7137 7.11586 30.4277 7.11586 30.0749C7.11586 29.722 6.82984 29.436 6.47704 29.436Z" fill="#AD186A"/>
<path d="M4.75625 32.1895H2.86331C2.51051 32.1895 2.22449 32.4754 2.22449 32.8283C2.22449 33.1812 2.51051 33.4671 2.86331 33.4671H4.75625C5.10905 33.4671 5.39507 33.1812 5.39507 32.8283C5.39507 32.4754 5.10905 32.1895 4.75625 32.1895Z" fill="#AD186A"/>
</g>
<defs>
<clipPath id="clip0_1314_3185">
<rect width="43.61" height="43.61" fill="white" transform="translate(0.503662)"/>
</clipPath>
</defs>
</svg>
