<svg width="44" height="44" viewBox="0 0 44 44" fill="none" xmlns="http://www.w3.org/2000/svg">
<g clip-path="url(#clip0_1314_3186)">
<path d="M43.0073 20.7973C42.6719 20.4499 42.257 20.21 41.8022 20.0949C42.072 19.666 42.2074 19.1663 42.1888 18.6462C42.1405 17.2884 40.9744 16.1835 39.5892 16.1835H34.5296L34.5246 8.60283C34.5246 6.9592 33.1874 5.62168 31.5435 5.62168C29.8995 5.62168 28.5623 6.9592 28.5623 8.60283V10.6091C28.5623 11.1238 28.4535 11.6206 28.2532 12.0741C24.5018 11.9333 21.4927 8.83906 21.4927 5.05373V4.1311C21.4927 3.54386 21.0153 3.06641 20.428 3.06641H9.44038C8.85314 3.06641 8.37569 3.54386 8.37569 4.1311V4.8551C8.37569 8.72992 5.22352 11.8821 1.34869 11.8821H1.17834C0.591097 11.8821 0.113647 12.3595 0.113647 12.9468V25.7231C0.113647 33.8953 6.76201 40.5437 14.9342 40.5437C20.7312 40.5437 25.9685 37.1806 28.3906 31.941H37.2962C37.8774 31.941 38.4457 31.7014 38.8553 31.2842C39.2585 30.8733 39.4751 30.3359 39.4645 29.771C39.4592 29.4835 39.3956 29.2094 39.2851 28.9598H39.5892C40.9744 28.9598 42.1405 27.8549 42.1888 26.497C42.2074 25.9727 42.07 25.4693 41.7955 25.0381C42.8669 24.7499 43.682 23.7947 43.7219 22.6641C43.7469 21.9638 43.493 21.3007 43.0073 20.7973ZM14.9342 39.2661C7.4667 39.2661 1.39128 33.1907 1.39128 25.7231V13.1597C5.95084 13.1364 9.65332 9.41998 9.65332 4.8551V4.34404H20.2151V5.05373C20.2151 9.24796 23.3403 12.7252 27.3842 13.2805C27.2308 13.4202 27.0651 13.549 26.8858 13.6631L23.3959 15.8837C23.0878 16.08 22.7321 16.1835 22.3671 16.1835H21.5812C21.343 15.3959 20.611 14.8207 19.7466 14.8207H16.1693C15.3365 14.8207 14.6265 15.3547 14.3626 16.0983H11.2291C10.3131 16.0983 9.56815 16.8436 9.56815 17.7592V28.7469C9.56815 29.6628 10.3131 30.4078 11.2291 30.4078H14.2528V36.6925C8.51377 36.3605 3.94655 31.5866 3.94655 25.7657V15.181C8.33443 14.8616 11.8313 11.2802 12.0163 6.85672H14.2528V12.4783C14.2528 12.8313 14.5389 13.1171 14.8916 13.1171C15.2443 13.1171 15.5304 12.8313 15.5304 12.4783V6.21791C15.5304 5.86489 15.2443 5.57909 14.8916 5.57909H11.3851C11.0324 5.57909 10.7463 5.86489 10.7463 6.21791V6.48774C10.7463 10.5895 7.40948 13.9263 3.30774 13.9263C2.95505 13.9263 2.66892 14.2121 2.66892 14.5651V25.7657C2.66892 32.5053 8.1521 37.9884 14.8916 37.9884C15.2443 37.9884 15.5304 37.7026 15.5304 37.3496V31.6199C15.6798 31.6615 15.8365 31.6854 15.9989 31.6854H19.7466C20.3728 31.6854 20.9298 31.3837 21.2795 30.9179L21.9609 31.3038C22.6962 31.7207 23.5313 31.941 24.3761 31.941H26.9686C24.6542 36.421 20.0311 39.2661 14.9342 39.2661ZM14.2528 29.1302H11.2291C11.0178 29.1302 10.8458 28.9582 10.8458 28.7469V17.7592C10.8458 17.5479 11.0178 17.3759 11.2291 17.3759H14.2528V29.1302ZM41.1224 23.8493H36.143C35.7903 23.8493 35.5041 24.1351 35.5041 24.4881C35.5041 24.8411 35.7903 25.1269 36.143 25.1269H39.6352C39.9849 25.1269 40.3116 25.2657 40.5548 25.5175C40.7977 25.7691 40.9244 26.1011 40.9118 26.4518C40.8878 27.1302 40.2943 27.6822 39.5892 27.6822H37.3354C37.3211 27.6822 37.3068 27.6835 37.2928 27.6842C37.2789 27.6835 37.2646 27.6822 37.2502 27.6822H36.143C35.7903 27.6822 35.5041 27.968 35.5041 28.321C35.5041 28.674 35.7903 28.9598 36.143 28.9598H37.2502C37.2646 28.9598 37.2789 28.9585 37.2928 28.9578C37.3068 28.9585 37.3211 28.9598 37.3354 28.9598C37.7962 28.9598 38.1785 29.3345 38.1872 29.7953C38.1912 30.0142 38.1047 30.2251 37.9436 30.3895C37.7726 30.5635 37.5367 30.6633 37.2965 30.6633H24.3761C23.7516 30.6633 23.1344 30.5006 22.591 30.1925L21.6631 29.6665V28.2215C21.6631 27.8688 21.377 27.5827 21.0243 27.5827C20.6716 27.5827 20.3855 27.8688 20.3855 28.2215V29.769C20.3855 30.1213 20.099 30.4078 19.7466 30.4078H15.9989C15.7407 30.4078 15.5304 30.1975 15.5304 29.9393V16.7371C15.5304 16.3848 15.8169 16.0983 16.1693 16.0983H19.7466C20.099 16.0983 20.3855 16.3848 20.3855 16.7371V25.2404C20.3855 25.5934 20.6716 25.8792 21.0243 25.8792C21.377 25.8792 21.6631 25.5934 21.6631 25.2404V17.4611H22.3671C22.9753 17.4611 23.5686 17.2884 24.0816 16.9617L27.5718 14.7408C28.9922 13.8371 29.84 12.2923 29.84 10.6091V8.60283C29.84 7.66356 30.6042 6.89931 31.5435 6.89931C32.4827 6.89931 33.247 7.66356 33.247 8.60316L33.252 16.3971C33.2523 16.9836 33.7301 17.4611 34.3167 17.4611H39.5892C40.2943 17.4611 40.8878 18.0131 40.9118 18.6915C40.9244 19.0422 40.7973 19.3742 40.5548 19.6258C40.3116 19.8776 39.9849 20.0164 39.6352 20.0164H36.143C35.7903 20.0164 35.5041 20.3022 35.5041 20.6552C35.5041 21.0082 35.7903 21.294 36.143 21.294H41.1683C41.518 21.294 41.8447 21.4327 42.088 21.6846C42.3308 21.9361 42.4576 22.2682 42.445 22.6189C42.421 23.2973 41.8274 23.8493 41.1224 23.8493Z" fill="#AD186A"/>
</g>
<defs>
<clipPath id="clip0_1314_3186">
<rect width="43.61" height="43.61" fill="white" transform="translate(0.113647)"/>
</clipPath>
</defs>
</svg>
