<svg width="44" height="44" viewBox="0 0 44 44" fill="none" xmlns="http://www.w3.org/2000/svg">
<g clip-path="url(#clip0_1314_3183)">
<path d="M0.624376 27.0845L5.42642 29.8569C5.50392 29.9016 5.58948 29.9306 5.67821 29.9423C5.76694 29.9539 5.85709 29.948 5.94352 29.9248C6.02996 29.9016 6.11098 29.8617 6.18196 29.8072C6.25294 29.7527 6.31249 29.6847 6.35722 29.6072L6.53021 29.3076L9.3112 30.9358C9.24545 31.1722 9.21213 31.4165 9.21214 31.6619C9.2108 32.0143 9.27937 32.3635 9.41388 32.6892C9.54838 33.0149 9.74616 33.3108 9.99576 33.5595C10.2448 33.8089 10.5406 34.0066 10.8663 34.1413C11.1919 34.276 11.541 34.345 11.8934 34.3443C11.9451 34.3443 11.9969 34.3423 12.0486 34.3394C12.0457 34.3905 12.0438 34.4416 12.0438 34.4936C12.043 34.8459 12.1119 35.1949 12.2464 35.5205C12.3808 35.8462 12.5783 36.1421 12.8274 36.3912C13.0766 36.6403 13.3724 36.8378 13.6981 36.9723C14.0237 37.1068 14.3727 37.1756 14.7251 37.1748C14.777 37.1748 14.8287 37.173 14.8802 37.1701C14.8774 37.2216 14.8754 37.2733 14.8754 37.3252C14.8746 37.6776 14.9434 38.0266 15.0779 38.3522C15.2124 38.6779 15.4098 38.9738 15.659 39.2229C15.9081 39.4721 16.204 39.6695 16.5296 39.804C16.8553 39.9385 17.2043 40.0073 17.5566 40.0066C17.7453 40.0065 17.9335 39.9868 18.1181 39.9478C18.2037 40.4735 18.4739 40.9515 18.88 41.296C19.2862 41.6405 19.8018 41.8291 20.3344 41.8278C20.6037 41.8281 20.8709 41.7801 21.1234 41.6862L21.2587 41.8214C21.5507 42.1139 21.9178 42.3202 22.3195 42.4175C22.7212 42.5148 23.142 42.4994 23.5355 42.3729C23.929 42.2464 24.28 42.0139 24.5498 41.7007C24.8196 41.3876 24.9978 41.0062 25.0648 40.5983C25.2493 40.6377 25.4374 40.6576 25.626 40.6579C25.9915 40.6584 26.3531 40.5841 26.6888 40.4395C27.0244 40.295 27.327 40.0833 27.5778 39.8176C27.8286 39.5518 28.0223 39.2375 28.1471 38.894C28.272 38.5505 28.3252 38.1852 28.3035 37.8204C28.3546 37.8233 28.4057 37.8251 28.4577 37.8251C28.8231 37.8258 29.1848 37.7517 29.5205 37.6073C29.8562 37.463 30.1588 37.2514 30.4097 36.9857C30.6605 36.72 30.8543 36.4057 30.9791 36.0623C31.1039 35.7188 31.157 35.3535 31.1353 34.9887C31.1864 34.9916 31.2375 34.9934 31.2894 34.9934C31.7808 34.9929 32.2626 34.8575 32.6823 34.602C33.1021 34.3465 33.4436 33.9807 33.6697 33.5444C33.8958 33.1082 33.9978 32.6182 33.9645 32.128C33.9313 31.6377 33.7641 31.166 33.4812 30.7642L37.2403 28.6028L37.8201 29.6072C37.9105 29.7637 38.0593 29.8779 38.2339 29.9247C38.4084 29.9714 38.5944 29.947 38.7509 29.8566L43.553 27.0845C43.7095 26.9941 43.8237 26.8453 43.8704 26.6707C43.9172 26.4962 43.8927 26.3102 43.8024 26.1537L37.5044 15.2453C37.414 15.0888 37.2652 14.9746 37.0907 14.9279C36.9161 14.8811 36.7302 14.9056 36.5737 14.9959L31.7716 17.7684C31.6151 17.8587 31.5009 18.0076 31.4542 18.1821C31.4074 18.3567 31.4319 18.5427 31.5222 18.6992L32.0792 19.6639L31.2831 19.9653C30.9179 20.1115 30.512 20.1197 30.1411 19.9884L24.8334 18.2192C24.5389 18.1184 24.2272 18.0774 23.9166 18.0986C23.606 18.1198 23.3028 18.2027 23.0247 18.3425L21.9685 18.8631C21.9585 18.8572 21.9489 18.8508 21.9384 18.8453L20.6803 18.1809C20.3413 17.9992 19.9631 17.9031 19.5785 17.9007C19.1939 17.8984 18.8146 17.9899 18.4734 18.1674L16.7939 19.0277C16.6665 19.0989 16.5234 19.1372 16.3776 19.1392L12.3743 19.185L12.6549 18.6989C12.7452 18.5424 12.7697 18.3564 12.7229 18.1819C12.6762 18.0073 12.562 17.8585 12.4055 17.7681L7.60368 14.9959C7.44718 14.9056 7.26122 14.8811 7.08668 14.9279C6.91214 14.9746 6.76333 15.0888 6.67296 15.2453L0.374981 26.1537C0.284625 26.3102 0.260139 26.4962 0.306909 26.6707C0.35368 26.8453 0.467875 26.9941 0.624376 27.0845ZM10.9593 32.5962C10.713 32.3477 10.5748 32.012 10.5748 31.6622C10.5748 31.3123 10.713 30.9766 10.9593 30.7281L13.3555 28.332C13.6035 28.0856 13.9391 27.9477 14.2886 27.9483C14.6382 27.9489 14.9733 28.088 15.2204 28.3352C15.4676 28.5824 15.6067 28.9175 15.6072 29.267C15.6078 29.6166 15.4698 29.9521 15.2234 30.2001L12.8274 32.5962C12.5795 32.8435 12.2436 32.9824 11.8934 32.9824C11.5432 32.9824 11.2073 32.8435 10.9593 32.5962ZM13.7911 35.4279C13.5449 35.1795 13.4067 34.844 13.4065 34.4943C13.4064 34.1445 13.5444 33.8089 13.7905 33.5604L13.7911 33.5598L16.1873 31.1637C16.4356 30.9191 16.7706 30.7825 17.1192 30.7839C17.4678 30.7852 17.8017 30.9242 18.0482 31.1707C18.2947 31.4172 18.4338 31.7512 18.4351 32.0998C18.4364 32.4484 18.2999 32.7834 18.0553 33.0317L15.6591 35.4279C15.4112 35.6752 15.0753 35.8141 14.7251 35.8141C14.3749 35.8141 14.039 35.6752 13.7911 35.4279ZM16.6228 38.2595C16.3754 38.0116 16.2365 37.6757 16.2365 37.3255C16.2365 36.9753 16.3754 36.6394 16.6228 36.3915L19.0189 33.9954C19.2666 33.7477 19.6026 33.6085 19.9529 33.6085C20.3032 33.6085 20.6392 33.7477 20.8869 33.9954C21.1347 34.2431 21.2738 34.5791 21.2738 34.9294C21.2738 35.2798 21.1347 35.6157 20.8869 35.8635C20.8641 35.8866 20.8429 35.9114 20.8236 35.9376C20.7521 35.9935 20.684 36.0535 20.6197 36.1175L18.7448 37.9923C18.6807 38.0567 18.6205 38.125 18.5646 38.1967C18.5385 38.2159 18.5139 38.237 18.4908 38.2597C18.2428 38.507 17.9069 38.6459 17.5567 38.6459C17.2065 38.6458 16.8707 38.5069 16.6228 38.2595ZM19.7087 40.2079C19.5428 40.0418 19.4496 39.8167 19.4496 39.5819C19.4496 39.3471 19.5428 39.1219 19.7087 38.9558L21.5834 37.0811C21.7494 36.9151 21.9746 36.8218 22.2095 36.8218C22.4443 36.8218 22.6695 36.9151 22.8355 37.0811C23.0015 37.2472 23.0948 37.4724 23.0948 37.7072C23.0948 37.942 23.0015 38.1672 22.8355 38.3332L20.9608 40.2079C20.7942 40.3729 20.5692 40.4654 20.3347 40.4654C20.1003 40.4654 19.8753 40.3729 19.7087 40.2079ZM23.4742 40.8581C23.3095 41.0224 23.0866 41.1153 22.8539 41.1166C22.6213 41.118 22.3974 41.0278 22.2307 40.8654L23.4818 39.6143C23.6442 39.781 23.7345 40.005 23.733 40.2377C23.7316 40.4705 23.6387 40.6933 23.4742 40.8581ZM26.5604 38.9098C26.3125 39.1571 25.9766 39.296 25.6264 39.296C25.2763 39.296 24.9404 39.1571 24.6925 38.9098C24.6693 38.8869 24.6445 38.8658 24.6182 38.8465C24.5624 38.775 24.5023 38.7069 24.4383 38.6426L24.3079 38.5122C24.4278 38.2009 24.4767 37.8668 24.4512 37.5343C24.4258 37.2017 24.3265 36.879 24.1606 36.5896C23.9948 36.3002 23.7665 36.0514 23.4924 35.8613C23.2184 35.6712 22.9054 35.5446 22.5762 35.4906C22.6507 35.1403 22.6549 34.7785 22.5884 34.4265C22.8392 34.2871 23.1286 34.2331 23.4129 34.2726C23.6972 34.3121 23.9609 34.443 24.1642 34.6456L26.5604 37.0418C26.8078 37.2897 26.9467 37.6256 26.9467 37.9758C26.9467 38.326 26.8078 38.6619 26.5604 38.9098ZM29.3922 36.0781C29.1437 36.3243 28.808 36.4625 28.4582 36.4625C28.1084 36.4625 27.7727 36.3243 27.5243 36.0781L25.128 33.6819C24.8876 33.4329 24.7546 33.0994 24.7575 32.7532C24.7605 32.4071 24.8992 32.0759 25.1439 31.831C25.3885 31.5861 25.7196 31.447 26.0657 31.4437C26.4119 31.4404 26.7455 31.5731 26.9948 31.8133V31.8138L29.391 34.2099C29.6385 34.4577 29.7776 34.7936 29.7777 35.1438C29.7779 35.4941 29.6391 35.8301 29.3917 36.0781H29.3922ZM32.2237 33.2464C31.9759 33.4938 31.64 33.6327 31.2898 33.6327C30.9397 33.6327 30.6038 33.4938 30.3559 33.2464L27.9597 30.8503C27.715 30.6019 27.5785 30.2669 27.5798 29.9183C27.5811 29.5697 27.7202 29.2358 27.9667 28.9893C28.2132 28.7428 28.5471 28.6037 28.8957 28.6024C29.2443 28.6011 29.5793 28.7376 29.8277 28.9823L32.2235 31.3789C32.4698 31.6273 32.608 31.963 32.608 32.3129C32.608 32.6627 32.4698 32.9984 32.2235 33.2469L32.2237 33.2464ZM36.6654 16.5169L42.2819 26.2449L38.66 28.336L33.043 18.6079L36.6654 16.5169ZM23.6272 19.565C23.7457 19.503 23.8758 19.4662 24.0092 19.4571C24.1426 19.448 24.2765 19.4668 24.4023 19.5122L29.7101 21.2814C30.3788 21.5108 31.107 21.4961 31.7659 21.24L32.7697 20.8597L36.5591 27.4229L32.5184 29.7461L30.791 28.0186C30.608 27.8356 30.3995 27.6802 30.1719 27.5571L24.7398 23.4848C24.3946 23.2264 23.9824 23.0727 23.5523 23.0419L22.7542 22.9714C22.3072 22.9285 21.8573 23.0141 21.4574 23.2183C21.0575 23.4225 20.7243 23.7367 20.497 24.1239L19.4389 25.864C19.4232 25.8934 19.3986 25.917 19.3687 25.9315C19.3387 25.9459 19.3049 25.9505 19.2722 25.9444L17.6623 25.7417C17.638 25.7386 17.6147 25.7303 17.5938 25.7174C17.573 25.7045 17.5552 25.6872 17.5417 25.6668C17.5282 25.6463 17.5192 25.6232 17.5154 25.599C17.5116 25.5748 17.5131 25.55 17.5198 25.5264L18.363 22.5368C18.3988 22.3975 18.4651 22.2679 18.5571 22.1574C18.6491 22.0468 18.7644 21.958 18.8948 21.8974L23.6272 19.565ZM16.3932 20.5019C16.7499 20.498 17.1005 20.4084 17.4153 20.2407L19.0948 19.3804C19.2409 19.3018 19.4045 19.2611 19.5704 19.2621C19.7363 19.2631 19.8993 19.3057 20.0445 19.3861L20.4611 19.606L18.292 20.6752C17.9899 20.8198 17.7227 21.028 17.5085 21.2854C17.2943 21.5429 17.1383 21.8435 17.051 22.1669L16.2078 25.1565C16.1479 25.3689 16.1345 25.5917 16.1686 25.8097C16.2027 26.0277 16.2835 26.2358 16.4054 26.4197C16.5273 26.6037 16.6874 26.7591 16.8749 26.8755C17.0624 26.9918 17.2728 27.0663 17.4917 27.0939L19.1016 27.2966C19.3952 27.336 19.694 27.2884 19.9608 27.1597C20.2277 27.031 20.451 26.8269 20.603 26.5726L21.6612 24.8326C21.7573 24.6636 21.9004 24.5261 22.073 24.4368C22.2457 24.3475 22.4406 24.3102 22.6341 24.3294L23.4322 24.3998C23.6093 24.4084 23.7798 24.4696 23.922 24.5756L27.786 27.4724C27.3159 27.6847 26.9172 28.0285 26.6379 28.4622C26.3586 28.8959 26.2106 29.4011 26.2117 29.9169C26.2117 29.9685 26.2136 30.0199 26.2164 30.0711C25.8516 30.0493 25.4863 30.1025 25.1428 30.2273C24.7994 30.3521 24.4851 30.5458 24.2194 30.7967C23.9537 31.0475 23.7421 31.3501 23.5978 31.6858C23.4534 32.0215 23.3793 32.3832 23.38 32.7486C23.38 32.8003 23.3819 32.8516 23.3847 32.9027C22.9051 32.8748 22.4268 32.9759 21.9994 33.1953C21.9521 33.1396 21.9028 33.0846 21.8503 33.0324C21.5827 32.7647 21.2614 32.5568 20.9075 32.4223C20.5537 32.2879 20.1754 32.23 19.7975 32.2525C19.8004 32.2014 19.8022 32.1503 19.8022 32.0983C19.803 31.733 19.7291 31.3713 19.5849 31.0356C19.4406 30.6999 19.2292 30.3972 18.9636 30.1463C18.698 29.8954 18.3839 29.7015 18.0405 29.5765C17.6972 29.4516 17.3319 29.3983 16.9671 29.4198C16.9887 29.0551 16.9355 28.6899 16.8106 28.3466C16.6857 28.0033 16.4919 27.6891 16.2411 27.4235C15.9903 27.1579 15.6878 26.9464 15.3522 26.8021C15.0166 26.6578 14.655 26.5837 14.2896 26.5844C13.9372 26.5831 13.588 26.6516 13.2623 26.7861C12.9365 26.9206 12.6407 27.1184 12.3919 27.368L10.0001 29.7605L7.21162 28.1276L11.5823 20.5572L16.3932 20.5019ZM7.51237 16.5169L11.1342 18.6079L5.51764 28.336L1.89588 26.2449L7.51237 16.5169ZM22.0887 17.1025C23.668 17.1025 25.2119 16.6342 26.5251 15.7567C27.8383 14.8793 28.8618 13.6322 29.4662 12.1731C30.0706 10.7139 30.2288 9.10835 29.9206 7.55935C29.6125 6.01034 28.852 4.58749 27.7353 3.47071C26.6185 2.35394 25.1957 1.5934 23.6466 1.28528C22.0976 0.977159 20.4921 1.13529 19.0329 1.73968C17.5738 2.34406 16.3267 3.36756 15.4492 4.68074C14.5718 5.99392 14.1034 7.53781 14.1034 9.11715C14.1059 11.2342 14.9479 13.2639 16.4449 14.7609C17.9419 16.2579 19.9716 17.1 22.0887 17.1025ZM22.0887 2.49482C23.3985 2.49481 24.6789 2.8832 25.768 3.61088C26.857 4.33856 27.7059 5.37286 28.2071 6.58296C28.7084 7.79307 28.8395 9.12464 28.584 10.4093C28.3285 11.6939 27.6978 12.874 26.7716 13.8001C25.8454 14.7263 24.6654 15.3571 23.3807 15.6126C22.0961 15.8681 20.7645 15.737 19.5544 15.2357C18.3443 14.7345 17.31 13.8856 16.5823 12.7965C15.8546 11.7075 15.4662 10.4271 15.4663 9.11724C15.4682 7.36147 16.1666 5.67817 17.4081 4.43664C18.6496 3.19512 20.3329 2.49683 22.0887 2.49482ZM19.0574 9.14927C18.9512 9.00307 18.9074 8.82066 18.9356 8.64216C18.9638 8.46365 19.0618 8.30368 19.208 8.19743C19.3542 8.09117 19.5366 8.04735 19.7151 8.07559C19.8936 8.10383 20.0536 8.20183 20.1599 8.34802L21.2028 9.7834L24.6749 6.93921C24.8148 6.82606 24.9938 6.77287 25.1729 6.79125C25.3519 6.80962 25.5164 6.89807 25.6304 7.03728C25.7444 7.1765 25.7988 7.35518 25.7816 7.53431C25.7643 7.71345 25.6769 7.8785 25.5385 7.99343L21.5079 11.2952C21.4361 11.354 21.353 11.3975 21.2638 11.4231C21.1746 11.4487 21.0811 11.4558 20.9891 11.4439C20.897 11.4321 20.8084 11.4015 20.7286 11.3542C20.6487 11.3069 20.5794 11.2438 20.5248 11.1687L19.0574 9.14927Z" fill="#AD186A"/>
</g>
<defs>
<clipPath id="clip0_1314_3183">
<rect width="43.61" height="43.61" fill="white" transform="translate(0.283691)"/>
</clipPath>
</defs>
</svg>
