<svg width="64" height="64" viewBox="0 0 64 64" fill="none" xmlns="http://www.w3.org/2000/svg">
<path d="M25 18H29V16H25C24.2089 16 23.4355 15.7654 22.7777 15.3259C22.1199 14.8864 21.6072 14.2616 21.3045 13.5307C21.0017 12.7998 20.9225 11.9956 21.0769 11.2196C21.2312 10.4437 21.6122 9.73098 22.1716 9.17157C22.731 8.61216 23.4437 8.2312 24.2196 8.07686C24.9956 7.92252 25.7998 8.00173 26.5307 8.30448C27.2616 8.60723 27.8864 9.11992 28.3259 9.77772C28.7654 10.4355 29 11.2089 29 12H31C30.9994 10.9779 30.7378 9.97296 30.2399 9.08035C29.7421 8.18774 29.0245 7.43709 28.1552 6.89957C28.3001 6.39339 28.5436 5.92081 28.8716 5.50895C29.1996 5.09708 29.6057 4.75403 30.0666 4.49948C30.5275 4.24492 31.0342 4.08388 31.5574 4.02557C32.0807 3.96727 32.6104 4.01286 33.116 4.15973C33.6216 4.3066 34.0933 4.55185 34.5039 4.88142C34.9145 5.21099 35.256 5.61839 35.5088 6.08026C35.7616 6.54212 35.9208 7.04935 35.9771 7.57285C36.0334 8.09635 35.9858 8.62582 35.837 9.13089C35.0978 9.73479 34.5468 10.5376 34.2492 11.4446C33.9517 12.3516 33.9198 13.3248 34.1576 14.2493L36.0944 13.7507C35.9377 13.1448 35.9743 12.5051 36.1992 11.9211C36.4241 11.3371 36.8259 10.838 37.3485 10.4937C37.8711 10.1494 38.4883 9.97711 39.1137 10.0009C39.739 10.0248 40.3413 10.2435 40.8362 10.6266C41.331 11.0097 41.6937 11.5379 41.8735 12.1374C42.0533 12.7368 42.0412 13.3775 41.8388 13.9696C41.6364 14.5618 41.254 15.076 40.745 15.44C40.2359 15.8041 39.6258 15.9999 39 16H35V18H39C39.6989 17.9997 40.39 17.8528 41.0286 17.5689C41.6673 17.2851 42.2393 16.8704 42.7079 16.3518C43.1764 15.8332 43.531 15.2221 43.7488 14.558C43.9665 13.8939 44.0427 13.1915 43.9722 12.4962C43.9018 11.8008 43.6864 11.128 43.3399 10.521C42.9934 9.91405 42.5235 9.38648 41.9605 8.97234C41.3975 8.55821 40.7539 8.2667 40.0713 8.11662C39.3887 7.96655 38.6822 7.96126 37.9974 8.10107C37.998 8.06732 38 8.03381 38 8C38.0001 6.57174 37.4907 5.19028 36.5634 4.10404C35.636 3.01779 34.3515 2.29802 32.9409 2.07415C31.5303 1.85029 30.0861 2.137 28.868 2.88276C27.6499 3.62851 26.7378 4.78436 26.2957 6.14249C25.4727 5.96039 24.6206 5.95375 23.7949 6.12301C22.9691 6.29226 22.1883 6.63361 21.5034 7.1248C20.8184 7.61599 20.2446 8.24601 19.8194 8.97379C19.3942 9.70157 19.1271 10.5108 19.0355 11.3487C18.9439 12.1866 19.03 13.0344 19.288 13.8368C19.546 14.6393 19.9702 15.3783 20.5329 16.0059C21.0956 16.6334 21.7843 17.1353 22.554 17.4789C23.3237 17.8225 24.1571 18.0001 25 18Z" fill="#157B7D"/>
<path d="M57 43.3453V25C56.9991 24.2046 56.6827 23.4421 56.1203 22.8797C55.5579 22.3173 54.7954 22.0009 54 22H47.828C47.6206 21.4156 47.2375 20.9096 46.7312 20.5515C46.2248 20.1934 45.6201 20.0008 45 20H38V22H45C45.2651 22.0003 45.5193 22.1058 45.7068 22.2932C45.8942 22.4807 45.9997 22.7349 46 23V27H35V29H49C49.2651 29.0003 49.5193 29.1058 49.7068 29.2932C49.8942 29.4807 49.9997 29.7349 50 30V42.2012C47.9112 42.6312 46.0139 43.7163 44.5842 45.2987C43.1544 46.8812 42.2667 48.8784 42.0501 51H19.4619C19.8149 50.3926 20.0006 49.7025 20 49V30C20.0003 29.7349 20.1058 29.4807 20.2932 29.2932C20.4807 29.1058 20.7349 29.0003 21 29H29V27H21C20.2046 27.0009 19.4421 27.3173 18.8797 27.8797C18.3173 28.4421 18.0009 29.2046 18 30V49C18 49.5304 17.7893 50.0391 17.4142 50.4142C17.0391 50.7893 16.5304 51 16 51C15.4696 51 14.9609 50.7893 14.5858 50.4142C14.2107 50.0391 14 49.5304 14 49V23C14.0003 22.7349 14.1058 22.4807 14.2932 22.2932C14.4807 22.1058 14.7349 22.0003 15 22H26V20H15C14.3799 20.0008 13.7752 20.1934 13.2688 20.5515C12.7625 20.9096 12.3794 21.4156 12.172 22H10C9.20463 22.0009 8.4421 22.3173 7.87968 22.8797C7.31727 23.4421 7.00091 24.2046 7 25V55H2V59C2.00091 59.7954 2.31727 60.5579 2.87968 61.1203C3.4421 61.6827 4.20463 61.9991 5 62H52C54.201 62.0008 56.3408 61.2751 58.0873 59.9356C59.8338 58.596 61.0894 56.7175 61.6592 54.5915C62.229 52.4655 62.0813 50.2109 61.2388 48.1775C60.3964 46.144 58.9064 44.4455 57 43.3453ZM49 27H48V24H54C54.2651 24.0003 54.5193 24.1058 54.7068 24.2932C54.8942 24.4807 54.9997 24.7349 55 25V42.4604C54.0294 42.1546 53.0176 41.9994 52 42V30C51.9991 29.2046 51.6827 28.4421 51.1203 27.8797C50.5579 27.3173 49.7954 27.0009 49 27ZM9 25C9.0003 24.7349 9.10576 24.4807 9.29323 24.2932C9.4807 24.1058 9.73488 24.0003 10 24H12V49C12.0012 50.0605 12.423 51.0772 13.1729 51.8271C13.9228 52.577 14.9395 52.9988 16 53H42.0501C42.1178 53.679 42.2553 54.3492 42.4604 55H9V25ZM5 60C4.73488 59.9997 4.4807 59.8942 4.29323 59.7068C4.10576 59.5193 4.0003 59.2651 4 59V57H43.3453C44.0225 58.1683 44.9276 59.1885 46.0069 60H5ZM52 60C50.4178 60 48.871 59.5308 47.5554 58.6518C46.2399 57.7727 45.2145 56.5233 44.609 55.0615C44.0035 53.5997 43.845 51.9911 44.1537 50.4393C44.4624 48.8874 45.2243 47.462 46.3432 46.3431C47.462 45.2243 48.8874 44.4624 50.4393 44.1537C51.9911 43.845 53.5997 44.0035 55.0615 44.609C56.5233 45.2145 57.7727 46.2398 58.6518 47.5554C59.5308 48.871 60 50.4177 60 52C59.9976 54.121 59.154 56.1544 57.6542 57.6542C56.1545 59.154 54.121 59.9976 52 60Z" fill="#157B7D"/>
<path d="M29.7072 39.2929L28.293 40.7071L32.0001 44.4141L41.7072 34.7071L40.293 33.2929L32.0001 41.5859L29.7072 39.2929Z" fill="#157B7D"/>
<path d="M36.7072 21.2929L32.0001 16.5859L27.293 21.2929L28.7072 22.7071L31.0001 20.4142V29H33.0001V20.4142L35.293 22.7071L36.7072 21.2929Z" fill="#157B7D"/>
<path d="M51.0001 51.5859L47.293 55.2929L48.7072 56.7071L53.0001 52.4141V46H51.0001V51.5859Z" fill="#157B7D"/>
</svg>
