<svg width="64" height="64" viewBox="0 0 64 64" fill="none" xmlns="http://www.w3.org/2000/svg">
<path d="M59.251 17.51H21.526V13.51C21.526 10.49 16.496 8.86 11.764 8.86C7.032 8.86 2 10.492 2 13.512V32.674V32.686C2.017 35.699 7.037 37.325 11.763 37.325C12.396 37.325 13.033 37.294 13.663 37.236V46.343C13.6641 47.0718 13.954 47.7704 14.4693 48.2857C14.9846 48.801 15.6832 49.0909 16.412 49.092H30.512L28.174 53.684C28.0964 53.8364 28.0591 54.0061 28.0658 54.177C28.0724 54.3479 28.1228 54.5142 28.2121 54.6601C28.3014 54.8059 28.4266 54.9265 28.5757 55.0101C28.7249 55.0938 28.893 55.1378 29.064 55.138H46.6C46.771 55.1378 46.9391 55.0938 47.0883 55.0101C47.2374 54.9265 47.3626 54.8059 47.4519 54.6601C47.5412 54.5142 47.5916 54.3479 47.5982 54.177C47.6049 54.0061 47.5676 53.8364 47.49 53.684L45.152 49.092H59.252C59.9806 49.0907 60.6789 48.8006 61.194 48.2853C61.7091 47.77 61.9989 47.0716 62 46.343V20.26C61.9995 19.531 61.7097 18.832 61.1943 18.3164C60.6789 17.8008 59.98 17.5108 59.251 17.51ZM30.7 53.138L32.76 49.094H42.905L44.965 53.138H30.7ZM15.853 28.5L15.79 28.513C13.1335 29.073 10.3895 29.073 7.733 28.513C7.715 28.513 7.695 28.505 7.676 28.501C5.263 27.923 4 26.954 4 26.288V22.788C5.01501 23.3866 6.11983 23.8178 7.272 24.065C7.295 24.065 7.317 24.075 7.342 24.079C8.79499 24.3949 10.2781 24.5514 11.765 24.546C13.2482 24.5508 14.7275 24.3946 16.177 24.08C16.201 24.08 16.227 24.071 16.251 24.065C17.404 23.8181 18.5098 23.3872 19.526 22.789V26.289C19.521 26.958 18.261 27.923 15.853 28.5ZM19.526 19.91C19.526 20.575 18.261 21.539 15.853 22.11L15.79 22.123C13.1336 22.6839 10.3894 22.6839 7.733 22.123C7.715 22.123 7.695 22.115 7.676 22.111C5.263 21.534 4 20.565 4 19.9V16.4C6.3974 17.6341 9.06877 18.2397 11.764 18.16C14.4586 18.2396 17.1293 17.634 19.526 16.4V19.91ZM11.764 10.867C16.502 10.867 19.526 12.437 19.526 13.517C19.526 14.597 16.502 16.167 11.764 16.167C7.026 16.167 4 14.593 4 13.512C4 12.431 7.024 10.862 11.764 10.862V10.867ZM4 32.672V29.179C5.01501 29.7776 6.11983 30.2088 7.272 30.456C7.295 30.456 7.317 30.466 7.342 30.47C8.79507 30.7854 10.2781 30.9419 11.765 30.937C13.2482 30.9414 14.7275 30.7851 16.177 30.471C16.201 30.471 16.227 30.462 16.251 30.456C17.4041 30.2088 18.5099 29.7776 19.526 29.179V32.679C19.519 33.761 16.497 35.328 11.764 35.328C7.031 35.328 4 33.754 4 32.672ZM21.447 33.288V37.072C21.447 37.3372 21.5524 37.5916 21.7399 37.7791C21.9274 37.9666 22.1818 38.072 22.447 38.072H26.776C27.0412 38.072 27.2956 37.9666 27.4831 37.7791C27.6706 37.5916 27.776 37.3372 27.776 37.072V26.48C27.776 26.2148 27.6706 25.9604 27.4831 25.7729C27.2956 25.5854 27.0412 25.48 26.776 25.48H22.448C22.251 25.48 22.0584 25.5382 21.8944 25.6473C21.7304 25.7563 21.6022 25.9114 21.526 26.093V19.51H59.251C59.4497 19.5105 59.64 19.5897 59.7804 19.7303C59.9208 19.8709 59.9997 20.0613 60 20.26V41.472H15.666V36.947C18.587 36.368 20.999 35.128 21.447 33.288ZM23.447 36.072V27.48H25.776V36.072H23.447ZM59.247 47.092H16.415C16.2164 47.0917 16.0261 47.0127 15.8857 46.8723C15.7453 46.7319 15.6663 46.5416 15.666 46.343V43.472H60V46.343C59.9997 46.5416 59.9207 46.7319 59.7803 46.8723C59.6399 47.0127 59.4496 47.0917 59.251 47.092H59.247Z" fill="#157B7D"/>
<path d="M31.2617 38.072H35.5907C35.8559 38.072 36.1103 37.9666 36.2978 37.7791C36.4854 37.5916 36.5907 37.3372 36.5907 37.072V30.811C36.5907 30.5458 36.4854 30.2914 36.2978 30.1039C36.1103 29.9164 35.8559 29.811 35.5907 29.811H31.2617C30.9965 29.811 30.7421 29.9164 30.5546 30.1039C30.3671 30.2914 30.2617 30.5458 30.2617 30.811V37.072C30.2617 37.3372 30.3671 37.5916 30.5546 37.7791C30.7421 37.9666 30.9965 38.072 31.2617 38.072ZM32.2617 31.811H34.5907V36.072H32.2617V31.811Z" fill="#157B7D"/>
<path d="M40.0742 38.072H44.3992C44.6644 38.072 44.9188 37.9666 45.1063 37.7791C45.2939 37.5916 45.3992 37.3372 45.3992 37.072V26.944C45.3992 26.6788 45.2939 26.4244 45.1063 26.2369C44.9188 26.0494 44.6644 25.944 44.3992 25.944H40.0742C39.809 25.944 39.5546 26.0494 39.3671 26.2369C39.1796 26.4244 39.0742 26.6788 39.0742 26.944V37.072C39.0742 37.3372 39.1796 37.5916 39.3671 37.7791C39.5546 37.9666 39.809 38.072 40.0742 38.072ZM41.0742 27.944H43.3992V36.072H41.0742V27.944Z" fill="#157B7D"/>
<path d="M48.8887 38.072H53.2177C53.4829 38.072 53.7372 37.9666 53.9248 37.7791C54.1123 37.5916 54.2177 37.3372 54.2177 37.072V22.384C54.2177 22.1188 54.1123 21.8644 53.9248 21.6769C53.7372 21.4894 53.4829 21.384 53.2177 21.384H48.8887C48.6235 21.384 48.3691 21.4894 48.1816 21.6769C47.994 21.8644 47.8887 22.1188 47.8887 22.384V37.072C47.8887 37.3372 47.994 37.5916 48.1816 37.7791C48.3691 37.9666 48.6235 38.072 48.8887 38.072ZM49.8887 23.384H52.2177V36.072H49.8887V23.384Z" fill="#157B7D"/>
<path d="M17.5502 44.17C17.4842 44.181 17.4199 44.2009 17.3592 44.229C17.2982 44.2501 17.2409 44.2805 17.1892 44.319C17.1402 44.359 17.0802 44.399 17.0402 44.439C16.897 44.577 16.7992 44.7552 16.7597 44.9501C16.7203 45.1449 16.741 45.3472 16.8192 45.53C16.8702 45.6533 16.9453 45.7652 17.0402 45.859C17.2275 46.0453 17.481 46.1498 17.7452 46.1498C18.0094 46.1498 18.2628 46.0453 18.4502 45.859C18.5447 45.7664 18.6198 45.6559 18.6713 45.5341C18.7228 45.4122 18.7496 45.2813 18.7502 45.149C18.7468 44.8822 18.6391 44.6274 18.4502 44.439C18.3337 44.3239 18.1907 44.2392 18.0337 44.1923C17.8768 44.1453 17.7108 44.1377 17.5502 44.17Z" fill="#157B7D"/>
<path d="M21.7405 44.319C21.6887 44.2801 21.631 44.2497 21.5695 44.229C21.5095 44.2008 21.4459 44.1809 21.3805 44.17C21.2523 44.14 21.1188 44.14 20.9905 44.17C20.9248 44.1808 20.8608 44.2006 20.8005 44.229C20.7394 44.2497 20.682 44.2801 20.6305 44.319C20.5764 44.354 20.5258 44.3941 20.4795 44.439C20.2937 44.6286 20.1896 44.8835 20.1895 45.149C20.1878 45.2794 20.212 45.4089 20.2605 45.53C20.3112 45.653 20.3856 45.7648 20.4795 45.859C20.5713 45.9499 20.6805 46.0213 20.8005 46.069C20.9824 46.1469 21.1835 46.1686 21.3777 46.1311C21.572 46.0937 21.7506 45.9989 21.8905 45.859C21.9815 45.7624 22.0555 45.6512 22.1095 45.53C22.1615 45.4096 22.1887 45.2801 22.1895 45.149C22.1864 44.8822 22.0786 44.6273 21.8895 44.439C21.8441 44.394 21.7942 44.3538 21.7405 44.319Z" fill="#157B7D"/>
<path d="M25.3299 44.439C25.2375 44.3495 25.1289 44.2782 25.0099 44.229C24.7628 44.13 24.4871 44.13 24.2399 44.229C24.121 44.2782 24.0124 44.3495 23.9199 44.439C23.8251 44.5334 23.7502 44.646 23.6999 44.77C23.6248 44.9529 23.6056 45.154 23.6448 45.3479C23.684 45.5417 23.7797 45.7196 23.9199 45.859C24.0105 45.9555 24.1208 46.0314 24.2433 46.0814C24.3658 46.1315 24.4977 46.1545 24.6299 46.149C24.7599 46.1513 24.8891 46.1279 25.0099 46.08C25.162 46.0157 25.2959 45.9149 25.3999 45.7867C25.504 45.6585 25.5749 45.5067 25.6065 45.3446C25.6381 45.1826 25.6294 45.0152 25.5812 44.8573C25.533 44.6994 25.4467 44.5558 25.3299 44.439Z" fill="#157B7D"/>
</svg>
