<svg width="64" height="64" viewBox="0 0 64 64" fill="none" xmlns="http://www.w3.org/2000/svg">
<path d="M55.5225 19.3262H38.9521V8.76367C38.9509 7.57627 38.4786 6.43788 37.639 5.59826C36.7994 4.75865 35.661 4.28641 34.4736 4.28516H8.47852C7.29113 4.28641 6.15273 4.75865 5.31311 5.59826C4.4735 6.43788 4.00125 7.57627 4 8.76367V23.1807C4.00071 23.7796 4.12136 24.3723 4.35484 24.9239C4.58833 25.4755 4.9299 25.9747 5.35943 26.3921C5.78895 26.8095 6.29773 27.1367 6.85574 27.3543C7.41374 27.5719 8.00968 27.6756 8.6084 27.6592C8.93465 27.6595 9.24746 27.7892 9.47815 28.0199C9.70884 28.2506 9.83858 28.5634 9.83887 28.8897V33.4111C9.83683 33.8577 9.9701 34.2945 10.2211 34.6638C10.4722 35.0332 10.8292 35.3179 11.2452 35.4803C11.6611 35.6428 12.1166 35.6755 12.5515 35.5741C12.9864 35.4727 13.3804 35.2419 13.6816 34.9121L19.0606 29.0918C20.4738 27.3463 23.0606 27.6628 25.0469 27.6593V38.2237C25.0483 39.4107 25.5205 40.5488 26.3599 41.3882C27.1993 42.2276 28.3374 42.6998 29.5245 42.7012H41.6797C42.2941 42.701 42.9019 42.8284 43.4646 43.0753C44.0272 43.3223 44.5324 43.6834 44.9482 44.1358L50.3154 49.9512C50.6195 50.2747 51.0133 50.5 51.4463 50.598C51.8793 50.696 52.3317 50.6623 52.7455 50.5013C53.1592 50.3402 53.5153 50.0591 53.7681 49.6942C54.0209 49.3292 54.1587 48.8969 54.164 48.453L54.1641 43.9326C54.1645 43.6061 54.2944 43.2932 54.5253 43.0623C54.7561 42.8315 55.069 42.7016 55.3955 42.7011C55.9939 42.7172 56.5894 42.6133 57.1469 42.3956C57.7045 42.1778 58.2128 41.8507 58.642 41.4334C59.0711 41.0161 59.4123 40.5171 59.6456 39.9658C59.8788 39.4146 59.9993 38.8222 60 38.2236V23.8037C59.9986 22.6166 59.5264 21.4786 58.687 20.6392C57.8476 19.7998 56.7095 19.3276 55.5225 19.3262ZM22.3174 25.6592C21.4277 25.6587 20.5477 25.8433 19.7333 26.2015C18.9189 26.5596 18.1879 27.0833 17.5869 27.7392L12.21 33.5576C12.1829 33.592 12.1452 33.6164 12.1028 33.627C12.0604 33.6376 12.0157 33.6338 11.9756 33.6162C11.9334 33.6019 11.8971 33.574 11.8724 33.5369C11.8476 33.4998 11.8359 33.4556 11.8389 33.4111V28.8896C11.8377 28.454 11.7488 28.0231 11.5773 27.6227C11.4059 27.2222 11.1555 26.8604 10.8411 26.5588C10.5267 26.2573 10.1548 26.0222 9.74751 25.8677C9.34024 25.7131 8.90599 25.6422 8.4707 25.6592C7.81465 25.6573 7.18611 25.3953 6.72295 24.9307C6.25978 24.4661 5.99979 23.8367 6 23.1807V8.76367C6.00089 8.1066 6.26231 7.4767 6.72693 7.01208C7.19155 6.54746 7.82145 6.28605 8.47852 6.28516H34.4736C35.1307 6.28605 35.7606 6.54747 36.2252 7.01208C36.6898 7.4767 36.9513 8.1066 36.9521 8.76367V19.3262H29.5244C28.3373 19.3276 27.1993 19.7998 26.3599 20.6392C25.5205 21.4786 25.0483 22.6166 25.0469 23.8037V25.6592L22.3174 25.6592ZM58 38.2236C57.9995 38.5597 57.9308 38.8921 57.7981 39.2008C57.6654 39.5096 57.4715 39.7882 57.228 40.0198C56.9845 40.2514 56.6966 40.4312 56.3816 40.5483C56.0666 40.6654 55.7311 40.7174 55.3955 40.7012C54.5387 40.702 53.7173 41.0427 53.1114 41.6486C52.5056 42.2544 52.1649 43.0758 52.1641 43.9326V48.4531C52.1609 48.6495 51.8964 48.7613 51.7871 48.5966L46.4199 42.7812C45.8166 42.1255 45.0839 41.6021 44.2679 41.244C43.452 40.886 42.5707 40.7011 41.6796 40.7012H29.5244C28.8675 40.7005 28.2378 40.4392 27.7733 39.9747C27.3088 39.5103 27.0476 38.8805 27.0469 38.2236C27.0469 38.2139 27.0469 26.6625 27.0469 26.6544V23.8037C27.0476 23.1468 27.3088 22.5171 27.7733 22.0526C28.2378 21.5881 28.8675 21.3269 29.5244 21.3262H55.5225C56.1793 21.3269 56.8091 21.5881 57.2736 22.0526C57.738 22.5171 57.9993 23.1468 58 23.8037V38.2236Z" fill="#157B7D"/>
<path d="M21.0464 46.9355C24.4617 42.9011 21.336 36.2846 15.9965 36.4034C14.775 36.402 13.578 36.7463 12.5439 37.3965C11.5098 38.0466 10.6808 38.9761 10.1526 40.0775C9.62441 41.179 9.41867 42.4073 9.55913 43.6208C9.6996 44.8342 10.1805 45.9831 10.9464 46.9347C9.2707 47.7522 7.81429 48.9578 6.69814 50.4512C5.58198 51.9447 4.83831 53.6829 4.52888 55.5215C4.47068 55.8758 4.49013 56.2385 4.5859 56.5846C4.68167 56.9306 4.85147 57.2517 5.08356 57.5257C5.31564 57.7997 5.60447 58.02 5.93007 58.1713C6.25567 58.3227 6.61026 58.4015 6.96931 58.4023H25.023C25.3817 58.3997 25.7356 58.3198 26.0606 58.1681C26.3856 58.0163 26.674 57.7963 26.9063 57.5229C27.1386 57.2496 27.3092 56.9294 27.4065 56.5842C27.5038 56.239 27.5256 55.8768 27.4703 55.5224C27.1581 53.6839 26.4127 51.9462 25.2956 50.453C24.1785 48.9598 22.722 47.754 21.0464 46.9355ZM15.9967 38.4033C17.178 38.4139 18.3073 38.8906 19.1389 39.7298C19.9705 40.5689 20.4371 41.7025 20.4371 42.8838C20.4371 44.0652 19.9705 45.1988 19.1389 46.0379C18.3072 46.877 17.1779 47.3537 15.9966 47.3643C14.8152 47.3537 13.6859 46.8769 12.8543 46.0378C12.0227 45.1987 11.5561 44.0651 11.5561 42.8837C11.5561 41.7024 12.0227 40.5688 12.8543 39.7297C13.686 38.8906 14.8153 38.4139 15.9967 38.4033ZM25.3883 56.2334C25.3436 56.2868 25.2877 56.3296 25.2246 56.3588C25.1614 56.388 25.0926 56.4029 25.023 56.4023H6.96931C6.89931 56.4044 6.82976 56.3904 6.7659 56.3617C6.70205 56.3329 6.64557 56.29 6.60071 56.2362C6.55585 56.1824 6.52379 56.1192 6.50694 56.0512C6.49009 55.9832 6.4889 55.9123 6.50344 55.8438C6.786 54.1776 7.5001 52.6145 8.57462 51.3101C9.64915 50.0057 11.0466 49.0056 12.6279 48.4092C13.6405 49.0335 14.8066 49.3642 15.9962 49.3643C17.1858 49.3643 18.352 49.0338 19.3647 48.4097C20.9462 49.0071 22.344 50.0076 23.4195 51.312C24.495 52.6164 25.2107 54.1793 25.4957 55.8457C25.5074 55.9142 25.5038 55.9845 25.4852 56.0515C25.4667 56.1185 25.4336 56.1806 25.3883 56.2334Z" fill="#157B7D"/>
<path d="M44.5165 52.2325C44.8799 51.6671 45.1065 51.0248 45.1783 50.3565C45.25 49.6882 45.1651 49.0123 44.93 48.3826C44.695 47.7529 44.3165 47.1867 43.8244 46.7288C43.3323 46.271 42.7403 45.9341 42.0953 45.745C41.4503 45.5559 40.7701 45.5198 40.1087 45.6395C39.4473 45.7592 38.8229 46.0314 38.2851 46.4346C37.7473 46.8378 37.3109 47.3607 37.0105 47.962C36.7101 48.5633 36.554 49.2263 36.5546 49.8984C36.556 50.7272 36.7971 51.5379 37.2491 52.2327C35.3013 53.2365 32.4467 56.8865 33.9588 59.0479C34.1362 59.257 34.3571 59.425 34.6061 59.5402C34.855 59.6553 35.126 59.715 35.4003 59.7149H46.3642C50.5873 59.0702 46.7833 53.2044 44.5165 52.2325ZM40.8827 47.5703C41.4957 47.5772 42.0812 47.8255 42.5122 48.2613C42.9433 48.6972 43.185 49.2855 43.185 49.8985C43.185 50.5115 42.9432 51.0997 42.5122 51.5356C42.0812 51.9714 41.4956 52.2197 40.8827 52.2266C40.2697 52.2197 39.6842 51.9714 39.2532 51.5355C38.8221 51.0997 38.5804 50.5114 38.5804 49.8984C38.5804 49.2854 38.8222 48.6971 39.2532 48.2613C39.6842 47.8254 40.2698 47.5771 40.8827 47.5703ZM35.5243 57.7148C35.6968 56.8218 36.0886 55.9857 36.6643 55.2816C37.2401 54.5775 37.9818 54.0275 38.8227 53.6811C39.4505 54.0386 40.1604 54.2266 40.8828 54.2266C41.6052 54.2265 42.3151 54.0386 42.9429 53.6811C43.7839 54.0278 44.5258 54.5778 45.102 55.2818C45.6782 55.9858 46.0706 56.8218 46.2441 57.7148H35.5243Z" fill="#157B7D"/>
<path d="M52.7619 26.3613H32.2834C32.0216 26.3664 31.7722 26.4741 31.5888 26.661C31.4054 26.848 31.3027 27.0995 31.3027 27.3614C31.3027 27.6233 31.4055 27.8747 31.5888 28.0617C31.7722 28.2486 32.0216 28.3562 32.2835 28.3613H52.7619C53.0237 28.3561 53.2729 28.2484 53.4562 28.0615C53.6395 27.8745 53.7421 27.6231 53.7421 27.3613C53.7421 27.0995 53.6395 26.8482 53.4562 26.6612C53.2729 26.4742 53.0237 26.3666 52.7619 26.3613Z" fill="#157B7D"/>
<path d="M45.6535 33.666H32.2834C32.0216 33.6711 31.7722 33.7787 31.5888 33.9657C31.4054 34.1527 31.3027 34.4041 31.3027 34.666C31.3027 34.9279 31.4055 35.1794 31.5888 35.3663C31.7722 35.5533 32.0216 35.6609 32.2835 35.666H45.6535C45.9154 35.6609 46.1648 35.5533 46.3481 35.3663C46.5315 35.1793 46.6342 34.9279 46.6342 34.666C46.6342 34.4041 46.5315 34.1527 46.3481 33.9657C46.1648 33.7787 45.9154 33.6711 45.6535 33.666Z" fill="#157B7D"/>
<path d="M31.9941 12.2744C31.9942 12.1431 31.9684 12.013 31.9182 11.8916C31.868 11.7703 31.7943 11.66 31.7014 11.5671C31.6085 11.4743 31.4983 11.4006 31.3769 11.3504C31.2556 11.3002 31.1255 11.2743 30.9941 11.2744H10.5156C10.2504 11.2744 9.99605 11.3798 9.80852 11.5673C9.62098 11.7548 9.51562 12.0092 9.51562 12.2744C9.51562 12.5396 9.62098 12.794 9.80852 12.9815C9.99605 13.1691 10.2504 13.2744 10.5156 13.2744H30.9941C31.1255 13.2745 31.2556 13.2487 31.3769 13.1984C31.4983 13.1482 31.6086 13.0746 31.7014 12.9817C31.7943 12.8888 31.868 12.7785 31.9182 12.6572C31.9684 12.5358 31.9942 12.4058 31.9941 12.2744Z" fill="#157B7D"/>
<path d="M19.173 18.5791H10.5158C10.254 18.5842 10.0046 18.6918 9.82122 18.8788C9.63786 19.0658 9.53515 19.3172 9.53516 19.5791C9.53517 19.841 9.63789 20.0925 9.82127 20.2794C10.0046 20.4664 10.254 20.574 10.5159 20.5791H19.173C19.4349 20.574 19.6843 20.4664 19.8677 20.2794C20.051 20.0924 20.1537 19.841 20.1537 19.5791C20.1537 19.3172 20.051 19.0658 19.8677 18.8788C19.6843 18.6918 19.4349 18.5842 19.173 18.5791Z" fill="#157B7D"/>
</svg>
