<svg width="64" height="64" viewBox="0 0 64 64" fill="none" xmlns="http://www.w3.org/2000/svg">
<path d="M32.0003 22.7954C29.521 22.7954 27.5039 24.8121 27.5039 27.2911C27.5039 29.7704 29.5209 31.7875 32.0003 31.7875C34.4796 31.7875 36.4966 29.7704 36.4966 27.2911C36.4966 24.8123 34.4796 22.7954 32.0003 22.7954ZM32.0003 30.0375C30.4859 30.0375 29.2539 28.8055 29.2539 27.2911C29.2539 25.7771 30.4859 24.5454 32.0003 24.5454C33.5146 24.5454 34.7466 25.7771 34.7466 27.2911C34.7466 28.8055 33.5146 30.0375 32.0003 30.0375ZM37.6891 44.0895C40.1861 43.1702 40.7103 41.8119 40.7103 40.8344C40.7103 36.0316 36.803 32.1244 32.0003 32.1244C27.1973 32.1244 23.2898 36.0316 23.2898 40.8344C23.2898 41.8119 23.8139 43.1702 26.3109 44.0895C27.8264 44.6475 29.8468 44.9548 32 44.9548C34.1533 44.9548 36.1738 44.6475 37.6891 44.0895ZM25.0398 40.8344C25.0398 36.9966 28.1623 33.8744 32.0003 33.8744C35.838 33.8744 38.9603 36.9966 38.9603 40.8344C38.9603 42.1414 35.8379 43.2048 32 43.2048C28.1621 43.2048 25.0398 42.1414 25.0398 40.8344ZM22.9589 46.6195C22.3229 46.6195 21.7975 46.2679 21.5535 45.6786C21.3094 45.0895 21.4323 44.4692 21.8818 44.0197C22.1815 43.7201 22.3466 43.3215 22.3466 42.8976C22.3466 42.4738 22.1815 42.0752 21.8819 41.7756L20.3496 40.2431C20.05 39.9435 19.6515 39.7784 19.2275 39.7784C18.8035 39.7784 18.405 39.9435 18.1055 40.2431C17.6558 40.693 17.0354 40.8158 16.4464 40.5716C15.8573 40.3276 15.5055 39.8022 15.5055 39.1662C15.5055 38.2914 14.7937 37.5796 13.9187 37.5796H11.7519C10.8769 37.5796 10.1651 38.2914 10.1651 39.1662C10.1651 39.8022 9.81337 40.3276 9.22412 40.5716C8.63475 40.8156 8.01475 40.6929 7.56512 40.2433C7.2655 39.9436 6.867 39.7784 6.443 39.7784C6.01912 39.7784 5.62063 39.9434 5.321 40.2433L3.78875 41.7755C3.48913 42.0753 3.324 42.4738 3.324 42.8976C3.324 43.3215 3.489 43.7199 3.78875 44.0197C4.23838 44.4694 4.36112 45.0896 4.11713 45.6786C3.87313 46.2679 3.34775 46.6195 2.71175 46.6195C1.83675 46.6195 1.125 47.3312 1.125 48.2062V50.3732C1.125 51.2481 1.83675 51.9599 2.71175 51.9599C3.34763 51.9599 3.873 52.3116 4.11713 52.9007C4.36112 53.49 4.23838 54.1102 3.78875 54.5597C3.48913 54.8595 3.324 55.258 3.324 55.6819C3.324 56.1059 3.489 56.5044 3.78875 56.8039L5.321 58.3364C5.62063 58.636 6.01912 58.8011 6.443 58.8011C6.86687 58.8011 7.26538 58.636 7.565 58.3364C8.0155 57.8857 8.636 57.7625 9.22475 58.0061C9.8135 58.25 10.165 58.776 10.165 59.4132C10.165 60.2881 10.8767 60.9999 11.7517 60.9999H13.9186C14.7936 60.9999 15.5054 60.2881 15.5054 59.4132C15.5054 58.7772 15.8571 58.252 16.4462 58.008C17.0352 57.7637 17.6556 57.8865 18.1053 58.3361C18.4049 58.6359 18.8034 58.8011 19.2274 58.8011C19.6513 58.8011 20.0498 58.6361 20.3495 58.3363L21.8816 56.8041C22.1815 56.5045 22.3466 56.106 22.3466 55.6819C22.3466 55.258 22.1815 54.8595 21.8819 54.5597C21.4323 54.1101 21.3094 53.4899 21.5535 52.9007C21.7975 52.3116 22.3229 51.9599 22.9589 51.9599C23.8337 51.9599 24.5455 51.2481 24.5455 50.3732V48.2062C24.5455 47.3312 23.8337 46.6195 22.9589 46.6195ZM22.7955 50.2136C21.518 50.2735 20.4321 51.035 19.9366 52.2311C19.4413 53.4271 19.6708 54.7336 20.5316 55.6792L19.2248 56.9861C18.279 56.125 16.9726 55.8955 15.7765 56.3911C14.5805 56.8865 13.8191 57.9725 13.7592 59.2499H11.9114C11.8515 57.9712 11.0904 56.8846 9.89462 56.3894C8.69887 55.8941 7.39237 56.1241 6.44575 56.986L5.13888 55.6792C5.99988 54.7336 6.22937 53.4272 5.73387 52.2311C5.2385 51.0351 4.1525 50.2736 2.875 50.2136V48.3656C4.15238 48.3057 5.2385 47.5443 5.73387 46.3481C6.22925 45.152 5.99988 43.8457 5.13888 42.9001L6.44575 41.5933C7.39137 42.4544 8.69775 42.6839 9.89375 42.1884C11.0899 41.693 11.8514 40.607 11.9113 39.3295H13.7594C13.8192 40.607 14.5806 41.6929 15.7767 42.1884C16.9726 42.684 18.2791 42.4544 19.2249 41.5933L20.5318 42.9001C19.6708 43.8457 19.4412 45.1521 19.9368 46.3481C20.4323 47.5441 21.5181 48.3056 22.7956 48.3656L22.7955 50.2136ZM12.8354 43.4782C9.63087 43.4782 7.02387 46.0853 7.02387 49.2897C7.02387 52.4942 9.63087 55.1012 12.8354 55.1012C16.0399 55.1012 18.6469 52.4942 18.6469 49.2897C18.6469 46.0853 16.0398 43.4782 12.8354 43.4782ZM12.8354 53.3512C10.5959 53.3512 8.77388 51.5293 8.77388 49.2897C8.77388 47.0502 10.5959 45.2282 12.8354 45.2282C15.0749 45.2282 16.8969 47.0502 16.8969 49.2897C16.8969 51.5293 15.0749 53.3512 12.8354 53.3512ZM48.6493 6.06537V3.875C48.6493 3.39175 49.041 3 49.5243 3C50.0075 3 50.3993 3.39175 50.3993 3.875V6.06525C50.3993 6.5485 50.0075 6.94025 49.5243 6.94025C49.041 6.94025 48.6493 6.54862 48.6493 6.06537ZM41.5635 6.24263C41.3219 5.82413 41.4653 5.289 41.8838 5.04738C42.3022 4.80563 42.8375 4.94925 43.079 5.36763L44.1741 7.2645C44.4158 7.683 44.2724 8.21813 43.8539 8.45975C43.7161 8.53938 43.5656 8.57712 43.4171 8.57712C43.1147 8.57712 42.8206 8.42025 42.6586 8.1395L41.5635 6.24263ZM36.2906 10.6405C36.5323 10.2219 37.0675 10.0786 37.4859 10.3202L39.3828 11.4154C39.8013 11.657 39.9446 12.1921 39.703 12.6106C39.541 12.8914 39.2469 13.0483 38.9445 13.0483C38.796 13.0483 38.6456 13.0105 38.5078 12.9309L36.6109 11.8357C36.1924 11.5941 36.049 11.059 36.2906 10.6405ZM57.4849 6.24263L56.3896 8.1395C56.2276 8.42025 55.9335 8.57712 55.6311 8.57712C55.4826 8.57712 55.3321 8.53938 55.1944 8.45975C54.7759 8.21813 54.6325 7.683 54.8741 7.2645L55.9694 5.36763C56.211 4.94913 56.7464 4.80563 57.1646 5.04738C57.5833 5.289 57.7266 5.82413 57.4849 6.24263ZM62.4376 11.8357L60.5408 12.9309C60.4029 13.0105 60.2525 13.0483 60.104 13.0483C59.8016 13.0483 59.5075 12.8914 59.3455 12.6106C59.1039 12.1921 59.2473 11.657 59.6658 11.4154L61.5626 10.3202C61.9813 10.0785 62.5163 10.222 62.7579 10.6405C62.9995 11.059 62.8561 11.5941 62.4376 11.8357ZM49.5243 9.19687C45.2853 9.19687 41.8365 12.6455 41.8365 16.8845C41.8365 19.0303 42.5394 20.118 43.2191 21.1699C43.8953 22.2161 44.592 23.2958 44.8838 25.7329C44.2188 26.0585 43.7585 26.7404 43.7585 27.5294V29.9601C43.7585 31.0636 44.6562 31.9614 45.7598 31.9614H46.0425V32.2156C46.0425 33.284 46.9116 34.1531 47.98 34.1531H51.0685C52.1367 34.1531 53.006 33.284 53.006 32.2156V31.9614H53.2887C54.3923 31.9614 55.29 31.0636 55.29 29.9601V27.5294C55.29 26.7404 54.8298 26.0585 54.1647 25.7329C54.4565 23.2956 55.1534 22.2161 55.8294 21.1698C56.5091 20.1178 57.212 19.0301 57.212 16.8844C57.2119 12.6455 53.7632 9.19687 49.5243 9.19687ZM53.5399 29.9603C53.5399 30.0965 53.4249 30.2115 53.2886 30.2115H52.1309C51.6476 30.2115 51.2559 30.6033 51.2559 31.0865V32.2158C51.2559 32.3174 51.17 32.4033 51.0684 32.4033H47.9799C47.8783 32.4033 47.7924 32.3174 47.7924 32.2158V31.0865C47.7924 30.6033 47.4006 30.2115 46.9174 30.2115H45.7596C45.6235 30.2115 45.5084 30.0965 45.5084 29.9603V27.5295C45.5084 27.3932 45.6234 27.2782 45.7596 27.2782H53.2885C53.4248 27.2782 53.5397 27.3932 53.5397 27.5295V29.9603H53.5399ZM54.3595 20.2201C53.6454 21.3253 52.7715 22.6795 52.4274 25.5282H50.3991V18.6576L52.8831 17.2235C53.3016 16.9819 53.445 16.4467 53.2034 16.0282C52.9618 15.6099 52.4266 15.4663 52.0081 15.708L49.5241 17.1421L47.0401 15.708C46.6218 15.4664 46.0865 15.6096 45.8449 16.0282C45.6032 16.4467 45.7466 16.9819 46.1651 17.2235L48.6491 18.6576V25.5282H46.6209C46.2769 22.6796 45.4029 21.3254 44.6888 20.2201C44.0488 19.2296 43.5864 18.514 43.5864 16.8845C43.5864 13.6105 46.25 10.9469 49.5241 10.9469C52.7981 10.9469 55.4618 13.6105 55.4618 16.8845C55.4619 18.514 54.9995 19.2296 54.3595 20.2201ZM52.4496 38.5532V48.1483C52.4496 52.4395 48.9584 55.9308 44.6673 55.9308H32.0464L34.9529 58.3182C35.3263 58.625 35.3804 59.1764 35.0736 59.5499C34.9006 59.7605 34.6497 59.8695 34.397 59.8695C34.2015 59.8695 34.0049 59.8044 33.8421 59.6706L29.0474 55.732C28.845 55.5658 28.7278 55.3177 28.7278 55.0559C28.7278 54.794 28.845 54.546 29.0473 54.3799L33.8421 50.4405C34.2154 50.1337 34.7668 50.1878 35.0736 50.5611C35.3804 50.9345 35.3264 51.4858 34.953 51.7926L32.0461 54.1809H44.6673C47.9935 54.1809 50.6996 51.4748 50.6996 48.1484V38.5534C50.6996 38.0701 51.0914 37.6784 51.5746 37.6784C52.0579 37.6784 52.4496 38.07 52.4496 38.5532ZM11.5505 29.1969V19.6019C11.5505 15.3106 15.0418 11.8195 19.3329 11.8195H31.9536L29.0473 9.43213C28.6739 9.12538 28.6198 8.574 28.9265 8.20063C29.2334 7.82713 29.7848 7.77313 30.158 8.07987L34.9528 12.0184C35.1551 12.1846 35.2724 12.4326 35.2724 12.6945C35.2724 12.9564 35.1551 13.2045 34.9528 13.3706L30.158 17.3099C29.7848 17.6165 29.2332 17.5626 28.9265 17.1893C28.6198 16.8159 28.6738 16.2645 29.0471 15.9578L31.954 13.5696H19.3329C16.0066 13.5696 13.3005 16.2757 13.3005 19.602V29.197C13.3005 29.6803 12.9087 30.072 12.4255 30.072C11.9423 30.072 11.5505 29.6801 11.5505 29.1969Z" fill="#157B7D"/>
</svg>
