<svg width="64" height="64" viewBox="0 0 64 64" fill="none" xmlns="http://www.w3.org/2000/svg">
<path d="M2.90329 27.9676H8.27199C8.58953 29.1127 9.04694 30.2142 9.63514 31.2466L5.83524 35.045C5.65379 35.2264 5.55173 35.4725 5.55173 35.7296C5.55173 35.9866 5.65379 36.2327 5.83524 36.4142L9.94059 40.5207C10.3186 40.8979 10.931 40.8979 11.309 40.5207L15.1093 36.72C16.1417 37.3078 17.2421 37.7656 18.3872 38.0828V43.4515C18.3872 43.986 18.8204 44.4192 19.3549 44.4192H25.1614C25.6959 44.4192 26.1291 43.986 26.1291 43.4515V38.0828C27.2741 37.7656 28.3746 37.3078 29.4069 36.72L33.2072 40.5207C33.5913 40.8836 34.192 40.8836 34.5757 40.5207L38.6818 36.4142C38.8632 36.2327 38.9653 35.9866 38.9653 35.7296C38.9653 35.4725 38.8632 35.2264 38.6818 35.045L34.8811 31.2466C35.4693 30.2142 35.9267 29.1127 36.2443 27.9676H41.613C42.1475 27.9676 42.5807 27.5344 42.5807 26.9999V21.1934C42.5807 20.6593 42.1475 20.2257 41.613 20.2257H36.2443C35.9267 19.081 35.4693 17.9795 34.8811 16.9471L38.681 13.1487C38.8625 12.9672 38.9645 12.7211 38.9645 12.4641C38.9645 12.207 38.8625 11.9609 38.681 11.7795L34.5757 7.67301C34.1976 7.29536 33.5852 7.29536 33.2072 7.67301L29.4069 11.4737C28.3746 10.8862 27.2738 10.4284 26.1291 10.1109V4.74181C26.1291 4.20766 25.6959 3.77407 25.1614 3.77407H19.3549C18.8204 3.77407 18.3872 4.20766 18.3872 4.74181V10.1109C17.2425 10.4284 16.1417 10.8862 15.1093 11.4737L11.309 7.67301C10.925 7.3101 10.3243 7.3101 9.94059 7.67301L5.83449 11.7795C5.65304 11.9609 5.55097 12.207 5.55097 12.4641C5.55097 12.7211 5.65304 12.9672 5.83449 13.1487L9.63514 16.9471C9.04694 17.9795 8.58953 19.081 8.27199 20.2257H2.90329C2.36876 20.2257 1.93555 20.6593 1.93555 21.1934V26.9999C1.93555 27.5344 2.36876 27.9676 2.90329 27.9676ZM3.87103 22.1612H9.02917C9.48393 22.1612 9.87746 21.8448 9.97461 21.4006C10.2922 19.9512 10.8664 18.5699 11.67 17.3225C11.9154 16.9399 11.861 16.4375 11.5393 16.1158L7.88716 12.4637L10.6248 9.72568L14.2761 13.3778C14.5978 13.7002 15.1006 13.7547 15.4839 13.5089C16.7318 12.7056 18.1127 12.1314 19.5621 11.8135C20.0059 11.716 20.3226 11.3225 20.3226 10.8677V5.70955H24.1936V10.8677C24.1936 11.3225 24.5104 11.716 24.9542 11.8135C26.4035 12.1314 27.7845 12.7056 29.0323 13.5089C29.4156 13.7547 29.9184 13.7002 30.2401 13.3778L33.8914 9.72568L36.6283 12.4637L32.977 16.1147C32.6546 16.4367 32.6005 16.9395 32.8462 17.3225C33.6499 18.5707 34.2234 19.9516 34.5405 21.4013C34.638 21.8455 35.0316 22.1623 35.486 22.1623H40.6452V26.0333H35.486C35.0316 26.0333 34.638 26.3497 34.5405 26.7939C34.2234 28.2432 33.6495 29.6241 32.8462 30.8708C32.6009 31.2538 32.6553 31.7562 32.977 32.0779L36.6291 35.7292L33.8914 38.468L30.2401 34.8155C29.9184 34.4934 29.4156 34.439 29.0323 34.6847C27.7852 35.4884 26.4047 36.0626 24.9553 36.3802C24.5108 36.4769 24.1936 36.8708 24.1936 37.3256V42.4837H20.3226V37.3256C20.3226 36.8708 20.0055 36.4769 19.5609 36.3802C18.1116 36.0626 16.731 35.4884 15.4839 34.6847C15.1006 34.439 14.5978 34.4934 14.2761 34.8155L10.6248 38.468L7.88792 35.73L11.5393 32.0786C11.8617 31.7569 11.9158 31.2542 11.67 30.8708C10.8664 29.623 10.2922 28.2417 9.97461 26.792C9.87708 26.3478 9.48393 26.0321 9.02917 26.0321H3.87103V22.1612Z" fill="#157B7D"/>
<path d="M22.2576 31.8386C26.5334 31.8386 29.9995 28.3729 29.9995 24.0966C29.9995 19.8208 26.5334 16.3547 22.2576 16.3547C17.9817 16.3547 14.5156 19.8208 14.5156 24.0966C14.5202 28.3702 17.984 31.834 22.2576 31.8386ZM22.2576 18.2902C25.464 18.2902 28.064 20.8902 28.064 24.0966C28.064 27.3034 25.464 29.9031 22.2576 29.9031C19.0512 29.9031 16.4511 27.3034 16.4511 24.0966C16.4545 20.891 19.0519 18.2936 22.2576 18.2902Z" fill="#157B7D"/>
<path d="M22.2584 34.7418C28.1375 34.7418 32.9036 29.9761 32.9036 24.0966C32.9036 18.2176 28.1375 13.4515 22.2584 13.4515C16.3794 13.4515 11.6133 18.2176 11.6133 24.0966C11.6205 29.973 16.3821 34.735 22.2584 34.7418ZM22.2584 15.387C27.0688 15.387 30.9681 19.2863 30.9681 24.0966C30.9681 28.907 27.0688 32.8063 22.2584 32.8063C17.4481 32.8063 13.5488 28.907 13.5488 24.0966C13.5541 19.2889 17.4504 15.3923 22.2584 15.387Z" fill="#157B7D"/>
<path d="M57.0968 48.2902V40.5483C57.0968 40.0141 56.6636 39.5805 56.1291 39.5805H54.1936V31.8386C54.1936 31.3044 53.7604 30.8708 53.2259 30.8708H44.5162C43.9817 30.8708 43.5485 31.3044 43.5485 31.8386V39.5805H38.7097C38.1752 39.5805 37.742 40.0141 37.742 40.5483V48.2902H6.77426C4.10314 48.2936 1.93895 50.4578 1.93555 53.1289V55.0644C1.93895 57.7359 4.10314 59.9001 6.77426 59.9031H57.0968C59.768 59.9001 61.9321 57.7359 61.9356 55.0644V53.1289C61.9321 50.4578 59.768 48.2936 57.0968 48.2902ZM55.1614 48.2902H48.3872V41.516H55.1614V48.2902ZM45.4839 32.8063H52.2581V39.5805H45.4839V32.8063ZM39.6775 41.516H46.4517V48.2902H39.6775V41.516ZM60.0001 55.0644C60.0001 56.668 58.7 57.9676 57.0968 57.9676H6.77426C5.17106 57.9676 3.87103 56.668 3.87103 55.0644V53.1289C3.87103 51.5257 5.17106 50.2257 6.77426 50.2257H57.0968C58.7 50.2257 60.0001 51.5257 60.0001 53.1289V55.0644Z" fill="#157B7D"/>
<path d="M31.9364 51.1934C30.3332 51.1934 29.0332 52.4935 29.0332 54.0967C29.0332 55.7002 30.3332 56.9999 31.9364 56.9999C33.5396 56.9999 34.8397 55.7002 34.8397 54.0967C34.8397 52.4935 33.5396 51.1934 31.9364 51.1934ZM31.9364 55.0644C31.4019 55.0644 30.9687 54.6312 30.9687 54.0967C30.9687 53.5625 31.4019 53.1289 31.9364 53.1289C32.471 53.1289 32.9042 53.5625 32.9042 54.0967C32.9042 54.6312 32.471 55.0644 31.9364 55.0644Z" fill="#157B7D"/>
<path d="M22.2587 51.1934C20.6555 51.1934 19.3555 52.4935 19.3555 54.0967C19.3555 55.7002 20.6555 56.9999 22.2587 56.9999C23.8619 56.9999 25.1619 55.7002 25.1619 54.0967C25.1619 52.4935 23.8619 51.1934 22.2587 51.1934ZM22.2587 55.0644C21.7242 55.0644 21.291 54.6312 21.291 54.0967C21.291 53.5625 21.7242 53.1289 22.2587 53.1289C22.7932 53.1289 23.2264 53.5625 23.2264 54.0967C23.2264 54.6312 22.7932 55.0644 22.2587 55.0644Z" fill="#157B7D"/>
<path d="M41.6122 51.1934C40.009 51.1934 38.709 52.4935 38.709 54.0967C38.709 55.7002 40.009 56.9999 41.6122 56.9999C43.2154 56.9999 44.5154 55.7002 44.5154 54.0967C44.5154 52.4935 43.2154 51.1934 41.6122 51.1934ZM41.6122 55.0644C41.0777 55.0644 40.6445 54.6312 40.6445 54.0967C40.6445 53.5625 41.0777 53.1289 41.6122 53.1289C42.1467 53.1289 42.58 53.5625 42.58 54.0967C42.58 54.6312 42.1467 55.0644 41.6122 55.0644Z" fill="#157B7D"/>
<path d="M12.581 51.1934C10.9778 51.1934 9.67773 52.4935 9.67773 54.0967C9.67773 55.7002 10.9778 56.9999 12.581 56.9999C14.1842 56.9999 15.4842 55.7002 15.4842 54.0967C15.4842 52.4935 14.1842 51.1934 12.581 51.1934ZM12.581 55.0644C12.0464 55.0644 11.6132 54.6312 11.6132 54.0967C11.6132 53.5625 12.0464 53.1289 12.581 53.1289C13.1155 53.1289 13.5487 53.5625 13.5487 54.0967C13.5487 54.6312 13.1155 55.0644 12.581 55.0644Z" fill="#157B7D"/>
<path d="M51.2899 51.1934C49.6867 51.1934 48.3867 52.4935 48.3867 54.0967C48.3867 55.7002 49.6867 56.9999 51.2899 56.9999C52.8931 56.9999 54.1932 55.7002 54.1932 54.0967C54.1932 52.4935 52.8931 51.1934 51.2899 51.1934ZM51.2899 55.0644C50.7554 55.0644 50.3222 54.6312 50.3222 54.0967C50.3222 53.5625 50.7554 53.1289 51.2899 53.1289C51.8245 53.1289 52.2577 53.5625 52.2577 54.0967C52.2577 54.6312 51.8245 55.0644 51.2899 55.0644Z" fill="#157B7D"/>
</svg>
