<svg width="64" height="64" viewBox="0 0 64 64" fill="none" xmlns="http://www.w3.org/2000/svg">
<g clip-path="url(#clip0_1173_4123)">
<path d="M19.1178 49.5789C19.9696 48.2901 20.4672 46.7476 20.4672 45.0905C20.4672 40.5914 16.8055 36.9311 12.3045 36.9311C7.8035 36.9311 4.14187 40.5914 4.14187 45.0905C4.14187 46.7477 4.63963 48.2902 5.4915 49.5791C2.25362 50.9204 0 54.1345 0 57.7505V62.75C0 63.4404 0.559625 64 1.25 64H23.3591C24.0495 64 24.6091 63.4404 24.6091 62.75V57.7505C24.6091 54.134 22.3555 50.9199 19.1178 49.5789ZM12.3045 39.4311C15.4269 39.4311 17.9672 41.9699 17.9672 45.0905C17.9672 48.213 15.427 50.7534 12.3045 50.7534C9.18213 50.7534 6.64187 48.213 6.64187 45.0905C6.64187 41.9699 9.18213 39.4311 12.3045 39.4311ZM22.1091 61.5H2.5V57.7505C2.5 54.823 4.56 52.2624 7.37063 51.5877C8.74212 52.6319 10.4517 53.2534 12.3045 53.2534C14.1572 53.2534 15.867 52.6319 17.2385 51.5877C20.0491 52.2619 22.1091 54.8226 22.1091 57.7505V61.5Z" fill="#157B7D"/>
<path d="M58.5025 49.5787C59.3543 48.29 59.8519 46.7476 59.8519 45.0905C59.8519 40.5914 56.1901 36.9311 51.6893 36.9311C47.1903 36.9311 43.5301 40.5914 43.5301 45.0905C43.5301 46.7472 44.0274 48.2895 44.8786 49.5781C41.6395 50.9187 39.3848 54.1335 39.3848 57.7505V62.75C39.3848 63.4404 39.9444 64 40.6348 64H62.7475C63.4379 64 63.9975 63.4404 63.9975 62.75V57.7505C63.9974 54.134 61.7424 50.9196 58.5025 49.5787ZM51.6893 39.4311C54.8116 39.4311 57.3519 41.9699 57.3519 45.0905C57.3519 48.213 54.8116 50.7534 51.6893 50.7534C48.5688 50.7534 46.0301 48.213 46.0301 45.0905C46.0301 41.9699 48.5688 39.4311 51.6893 39.4311ZM61.4974 61.5H41.8846V57.7505C41.8846 54.8225 43.9455 52.2614 46.757 51.5874C48.128 52.6316 49.8371 53.2534 51.6893 53.2534C53.542 53.2534 55.2518 52.6317 56.6233 51.5876C59.4359 52.262 61.4973 54.8227 61.4973 57.7505V61.5H61.4974Z" fill="#157B7D"/>
<path d="M51.7246 33.0297C51.9294 33.1609 52.1636 33.227 52.3986 33.227C52.6009 33.227 52.8035 33.178 52.9881 33.0792C53.3871 32.8659 53.6396 32.4534 53.6484 32.001L53.7206 28.229C57.0319 27.4171 59.4877 24.3896 59.4877 20.8937C59.4877 17.236 56.8729 14.1784 53.4146 13.4897C53.5925 12.6982 53.684 11.8899 53.684 11.0717C53.6839 4.96675 48.7172 0 42.6124 0H34.084C33.3936 0 32.834 0.559625 32.834 1.25C32.834 1.94037 33.3936 2.5 34.084 2.5H42.6124C47.3387 2.5 51.184 6.34537 51.184 11.0719C51.184 11.8436 51.0796 12.6045 50.8752 13.3439H33.8006C30.0636 13.3439 26.9539 16.0737 26.3562 19.6437H22.9976C22.715 19.6437 22.4407 19.7395 22.2195 19.9154L14.8161 25.8035L14.7197 20.8304C14.7074 20.1915 14.2151 19.6647 13.5785 19.6092C9.19198 19.2271 5.75586 15.477 5.75586 11.0716C5.75586 6.34537 9.60261 2.5 14.331 2.5H22.8594C23.5497 2.5 24.1094 1.94037 24.1094 1.25C24.1094 0.559625 23.5497 0 22.8594 0H14.331C8.22411 0 3.25586 4.96675 3.25586 11.0719C3.25586 13.8497 4.29886 16.5106 6.19286 18.5646C7.81561 20.3245 9.93198 21.5004 12.2409 21.9441L12.3655 28.38C12.3747 28.8555 12.6529 29.2845 13.0831 29.4869C13.2527 29.5667 13.4344 29.6059 13.6151 29.6059C13.8927 29.6059 14.168 29.5135 14.3934 29.3342L23.434 22.1439H26.3562C26.9539 25.7139 30.0636 28.4437 33.8006 28.4437H44.5602L51.7246 33.0297ZM28.7509 20.8937C28.7509 18.1092 31.0162 15.8439 33.8006 15.8439H51.938C54.7224 15.8439 56.9877 18.1092 56.9877 20.8937C56.9877 23.489 54.9647 25.6984 52.3821 25.9235C51.7454 25.979 51.2531 26.5059 51.241 27.1449L51.1916 29.7201L45.6 26.1407C45.3989 26.012 45.165 25.9435 44.9261 25.9435H33.8006C31.0161 25.9436 28.7509 23.6782 28.7509 20.8937Z" fill="#157B7D"/>
<path d="M35.7773 19.642C35.087 19.642 34.5273 20.2034 34.5273 20.8937C34.5273 21.5841 35.087 22.1437 35.7773 22.1437C36.4677 22.1437 37.0273 21.5841 37.0273 20.8937V20.8902C37.0273 20.1999 36.4677 19.642 35.7773 19.642Z" fill="#157B7D"/>
<path d="M42.8711 19.642C42.1807 19.642 41.6211 20.2034 41.6211 20.8937C41.6211 21.5841 42.1807 22.1437 42.8711 22.1437C43.5615 22.1437 44.1211 21.5841 44.1211 20.8937V20.8902C44.1211 20.1999 43.5615 19.642 42.8711 19.642Z" fill="#157B7D"/>
<path d="M49.9609 22.1437C50.6513 22.1437 51.2109 21.5841 51.2109 20.8937V20.8902C51.2109 20.1999 50.6513 19.642 49.9609 19.642C49.2706 19.642 48.7109 20.2034 48.7109 20.8937C48.7109 21.5841 49.2706 22.1437 49.9609 22.1437Z" fill="#157B7D"/>
<path d="M28.4725 2.5H28.4797C29.17 2.5 29.7262 1.94037 29.7262 1.25C29.7262 0.559625 29.163 0 28.4727 0C27.7823 0 27.2227 0.559625 27.2227 1.25C27.2227 1.94037 27.7822 2.5 28.4725 2.5Z" fill="#157B7D"/>
</g>
<defs>
<clipPath id="clip0_1173_4123">
<rect width="64" height="64" fill="white"/>
</clipPath>
</defs>
</svg>
