<svg width="64" height="64" viewBox="0 0 64 64" fill="none" xmlns="http://www.w3.org/2000/svg">
<path d="M30.5352 42.4145C32.6492 43.3358 34.8698 43.8206 37.168 43.8206C46.4383 43.8206 53.9728 36.2861 53.9728 27.0158C53.9728 17.7455 46.4383 10.2109 37.168 10.2109C27.8977 10.2109 20.3631 17.7551 20.3631 27.0255C20.3631 29.12 20.7801 31.1661 21.5462 33.1248L12.4407 42.2303C9.32798 41.8909 6.21525 42.9673 3.99464 45.1879C1.19222 47.9903 0.241914 52.2182 1.5704 55.9612C1.71585 56.3782 2.48191 57.3285 3.70373 56.4461L8.56192 51.5879L12.2177 55.2436L7.35949 60.1018C6.41889 61.217 7.42737 62.0897 7.84434 62.2352C8.96919 62.6327 10.1328 62.8267 11.2965 62.8267C14.0019 62.8267 16.6589 61.7697 18.6274 59.8109C20.848 57.5903 21.934 54.4776 21.5849 51.3648L30.5352 42.4145ZM22.9522 27.0255C22.9522 19.1806 29.3328 12.8097 37.168 12.8097C45.0128 12.8097 51.3837 19.1903 51.3837 27.0255C51.3837 34.8703 45.0031 41.2412 37.168 41.2412C35.568 41.2412 34.0068 40.9697 32.5134 40.4364L35.7716 37.1782C38.8843 37.5176 41.9971 36.4412 44.2177 34.2206C47.0201 31.4182 47.9704 27.1903 46.6419 23.4473C46.4965 23.0303 46.1377 22.72 45.711 22.623C45.2746 22.5261 44.8286 22.6521 44.5086 22.9721L39.6504 27.8303L35.9946 24.1745L40.8528 19.3164C41.1631 19.0061 41.2989 18.5503 41.2019 18.1139C41.1049 17.6776 40.7946 17.3285 40.3777 17.183C36.6346 15.8545 32.3971 16.8048 29.6043 19.6073C27.3837 21.8279 26.2977 24.9406 26.6468 28.0533L23.5922 31.1079C23.1656 29.7794 22.9522 28.4121 22.9522 27.0255ZM18.9377 51.1418C19.3837 53.6436 18.5789 56.2036 16.7946 57.9879C15.2237 59.5588 13.0613 60.3636 10.8892 60.2376L14.9619 56.1648C15.4662 55.6606 15.4662 54.8461 14.9619 54.3321L9.47343 48.8436C8.96919 48.3394 8.15464 48.3394 7.6407 48.8436L3.56798 52.9164C3.45161 50.7442 4.24676 48.5818 5.81767 47.0109C7.60192 45.2267 10.1619 44.4218 12.6637 44.8679C13.0807 44.9455 13.5074 44.8097 13.808 44.5091L28.9062 29.4109C29.2068 29.1103 29.3425 28.6836 29.2649 28.2667C28.8189 25.7648 29.6237 23.2048 31.408 21.4206C32.9789 19.8497 35.1413 19.0545 37.3134 19.1709L33.2407 23.2436C32.9983 23.4861 32.8625 23.8158 32.8625 24.1551C32.8625 24.4945 32.9983 24.8242 33.2407 25.0667L38.7292 30.5551C39.2334 31.0594 40.048 31.0594 40.5619 30.5551L44.6346 26.4824C44.751 28.6545 43.9559 30.817 42.3849 32.3879C40.6007 34.1721 38.031 34.977 35.5389 34.5309C35.1219 34.4533 34.6953 34.5891 34.3946 34.8897L19.2965 49.9976C18.9959 50.2982 18.8601 50.7248 18.9377 51.1418Z" fill="#157B7D"/>
<path d="M62.1382 21.9152L58.1624 20.5867C57.7551 19.2388 57.2121 17.9394 56.5624 16.7079L58.4339 12.9648C58.686 12.4703 58.5891 11.8691 58.1915 11.4715L52.703 5.98303C52.3151 5.59515 51.7139 5.48848 51.2097 5.74061L47.4666 7.61212C46.2351 6.96242 44.9357 6.41939 43.5879 6.01212L42.2594 2.03636C42.0945 1.52242 41.6 1.16364 41.0472 1.16364H33.2897C32.7369 1.16364 32.2424 1.52242 32.0679 2.04606L30.7394 6.02182C29.3915 6.42909 28.0921 6.97212 26.8606 7.62182L23.1175 5.7503C22.623 5.49818 22.0218 5.59515 21.6242 5.99273L16.1357 11.4812C15.7382 11.8788 15.6412 12.48 15.8933 12.9745L17.7648 16.7176C17.1151 17.9491 16.5721 19.2485 16.1648 20.5964L12.1891 21.9248C11.6654 22.0994 11.3066 22.5939 11.3066 23.1467V30.9042C11.3066 31.457 11.6654 31.9515 12.1891 32.1261L16.8048 33.6679C17.4836 33.8909 18.2109 33.5224 18.4436 32.8533C18.6666 32.1745 18.3079 31.4473 17.6291 31.2145L13.8957 29.9733V24.0776L17.6291 22.8364C18.0363 22.7006 18.3563 22.3709 18.4727 21.9442C18.9091 20.3345 19.5394 18.8121 20.3539 17.3964C20.5672 17.0182 20.5866 16.5624 20.3927 16.1745L18.6375 12.6545L22.8072 8.48485L26.3272 10.24C26.7151 10.4339 27.1709 10.4145 27.5491 10.2012C28.9648 9.38667 30.4969 8.75636 32.0969 8.32C32.5139 8.20364 32.8436 7.89333 32.9891 7.47636L34.2303 3.74303H40.126L41.3672 7.47636C41.503 7.88364 41.8327 8.20364 42.2594 8.32C43.8594 8.75636 45.3915 9.38667 46.8072 10.2012C47.1854 10.4145 47.6412 10.4339 48.0291 10.24L51.5491 8.48485L55.7188 12.6545L53.9636 16.1745C53.7697 16.5624 53.7794 17.0182 54.0024 17.3964C54.8169 18.8121 55.4472 20.3442 55.8836 21.9442C56 22.3612 56.3103 22.6909 56.7272 22.8364L60.4606 24.0776V29.9733L56.7272 31.2145C56.32 31.3503 56 31.68 55.8836 32.1067C55.4472 33.7067 54.8169 35.2388 54.0024 36.6545C53.7891 37.0327 53.7697 37.4885 53.9636 37.8764L55.7188 41.3964L51.5491 45.5661L48.0291 43.8109C47.6412 43.617 47.1854 43.6364 46.8072 43.8497C45.3915 44.6642 43.8594 45.2945 42.2594 45.7309C41.8424 45.8473 41.5127 46.1576 41.3672 46.5648L40.126 50.2982H34.2303L32.9891 46.5648C32.766 45.8861 32.0291 45.5273 31.3503 45.7503C30.6715 45.9733 30.303 46.7103 30.5357 47.3891L32.0776 52.0048C32.2521 52.5285 32.7466 52.8873 33.2994 52.8873H41.0569C41.6097 52.8873 42.1042 52.5285 42.2788 52.0048L43.6072 48.0291C44.9551 47.6218 46.2545 47.0788 47.486 46.4291L51.2291 48.3006C51.7236 48.5527 52.3248 48.4558 52.7224 48.0582L58.2109 42.5697C58.6085 42.1721 58.7054 41.5709 58.4533 41.0764L56.5818 37.3333C57.2315 36.1018 57.7745 34.8024 58.1818 33.4545L62.1575 32.1261C62.6812 31.9515 63.04 31.457 63.04 30.9042V23.1467C63.0206 22.5842 62.6715 22.0897 62.1382 21.9152Z" fill="#157B7D"/>
</svg>
