<svg width="64" height="64" viewBox="0 0 64 64" fill="none" xmlns="http://www.w3.org/2000/svg">
<path d="M46.7351 29.6235H17.3728C16.8895 29.6235 16.4978 29.2318 16.4978 28.7485C16.4978 28.2653 16.8895 27.8735 17.3728 27.8735H46.7351C47.2184 27.8735 47.6101 28.2653 47.6101 28.7485C47.6101 29.2318 47.2185 29.6235 46.7351 29.6235ZM17.3728 11.012H32.0539C32.5371 11.012 32.9289 10.6202 32.9289 10.137C32.9289 9.65375 32.5371 9.262 32.0539 9.262H17.3728C16.8895 9.262 16.4978 9.65375 16.4978 10.137C16.4978 10.6202 16.8895 11.012 17.3728 11.012ZM17.3728 17.2159H46.7351C47.2184 17.2159 47.6101 16.8241 47.6101 16.3409C47.6101 15.8576 47.2184 15.4659 46.7351 15.4659H17.3728C16.8895 15.4659 16.4978 15.8576 16.4978 16.3409C16.4978 16.8241 16.8895 17.2159 17.3728 17.2159ZM17.3728 23.4196H46.7351C47.2184 23.4196 47.6101 23.0279 47.6101 22.5446C47.6101 22.0614 47.2184 21.6696 46.7351 21.6696H17.3728C16.8895 21.6696 16.4978 22.0614 16.4978 22.5446C16.4978 23.0279 16.8895 23.4196 17.3728 23.4196ZM62.929 59.2695C62.929 59.8394 62.7079 60.3741 62.3066 60.7755L60.8295 62.2528C60.4283 62.654 59.8935 62.875 59.3236 62.8751C58.7536 62.8751 58.2189 62.6541 57.8175 62.2528L51.0288 55.464C50.6275 55.0628 50.4065 54.528 50.4065 53.9581C50.4065 53.8232 50.4198 53.6906 50.444 53.561L48.9988 52.1157C47.3328 53.1952 45.3495 53.825 43.2208 53.825C40.0223 53.825 37.1505 52.4067 35.1953 50.1684H25.7841V58.3459C25.7841 61.3192 19.5683 62.875 13.4281 62.875C7.28802 62.875 1.07227 61.3192 1.07227 58.3459V36.0671C1.07227 33.2427 6.68064 31.6978 12.5051 31.5499V2C12.5051 1.51675 12.8969 1.125 13.3801 1.125H43.0379C43.2699 1.125 43.4925 1.21713 43.6566 1.38125L51.3468 9.07125C51.5108 9.23525 51.603 9.45787 51.603 9.69V36.596C53.0266 38.408 53.879 40.6891 53.879 43.167C53.879 45.2956 53.2493 47.2789 52.1699 48.9449L53.6151 50.3901C53.7448 50.3659 53.8774 50.3526 54.0121 50.3526C54.5821 50.3526 55.1169 50.5736 55.5181 50.975L62.3069 57.7636C62.708 58.1649 62.929 58.6996 62.929 59.2695ZM43.9128 8.815H48.6154L43.9128 4.11237V8.815ZM2.82227 36.0671C2.82227 37.0104 6.56576 38.8464 13.4284 38.8464C20.2908 38.8464 24.0344 37.0104 24.0344 36.0671C24.0344 35.1239 20.2909 33.288 13.4284 33.288C6.56576 33.288 2.82227 35.1239 2.82227 36.0671ZM2.82227 43.4934C2.82227 44.4366 6.56576 46.2725 13.4284 46.2725C20.2908 46.2725 24.0344 44.4366 24.0344 43.4934V38.5095C21.7566 39.8864 17.5756 40.5962 13.4284 40.5962C9.28114 40.5962 5.10002 39.8864 2.82227 38.5094V43.4934ZM24.0343 58.3459V53.362C21.7565 54.7389 17.5755 55.4487 13.4283 55.4487C9.28101 55.4487 5.09989 54.7389 2.82214 53.362V58.3459C2.82214 59.2891 6.56564 61.125 13.4283 61.125C20.2908 61.125 24.0343 59.2891 24.0343 58.3459ZM24.0343 50.9196V45.9357C21.7565 47.3126 17.5755 48.0225 13.4283 48.0225C9.28101 48.0225 5.09989 47.3126 2.82214 45.9357V50.9196C2.82214 51.8629 6.56564 53.6987 13.4283 53.6987C20.2908 53.6987 24.0343 51.8629 24.0343 50.9196ZM33.9521 48.4184C33.0698 46.8671 32.563 45.0756 32.563 43.167C32.563 37.2901 37.3441 32.509 43.221 32.509C45.7266 32.509 48.0313 33.3802 49.853 34.8329V10.565H43.0379C42.5546 10.565 42.1629 10.1732 42.1629 9.69V2.875H14.2551V31.5475C20.114 31.6806 25.7843 33.2272 25.7843 36.0671V48.4184H33.9521ZM43.2209 52.075C48.1328 52.075 52.1289 48.0789 52.1289 43.167C52.1289 38.2551 48.1328 34.259 43.2209 34.259C38.309 34.259 34.3129 38.2551 34.3129 43.167C34.3129 48.0789 38.309 52.075 43.2209 52.075ZM50.3975 51.0394L51.4195 52.0614L52.1153 51.3655L51.0933 50.3435C50.8723 50.586 50.64 50.8181 50.3975 51.0394ZM61.179 59.2695C61.179 59.2103 61.1648 59.0965 61.0691 59.001L54.2804 52.2122C54.185 52.1167 54.0713 52.1026 54.012 52.1026C53.9528 52.1026 53.839 52.1169 53.7435 52.2124L52.2663 53.6896C52.1708 53.785 52.1566 53.8988 52.1566 53.958C52.1566 54.0173 52.1708 54.131 52.2663 54.2264L59.0551 61.0151C59.1506 61.1106 59.2643 61.1249 59.3235 61.1249C59.3828 61.1249 59.4965 61.1106 59.5919 61.0153L61.0691 59.5379C61.1648 59.4425 61.179 59.3288 61.179 59.2695ZM6.32927 43.7896C6.94889 43.7896 7.45427 43.2842 7.45427 42.6646C7.45427 42.045 6.94889 41.5396 6.32927 41.5396C5.70964 41.5396 5.20427 42.045 5.20427 42.6646C5.20427 43.2844 5.70964 43.7896 6.32927 43.7896ZM6.32927 56.324C5.70964 56.324 5.20427 56.8294 5.20427 57.449C5.20427 58.0686 5.70964 58.574 6.32927 58.574C6.94889 58.574 7.45427 58.0686 7.45427 57.449C7.45427 56.8294 6.94889 56.324 6.32927 56.324ZM6.32927 48.9319C5.70964 48.9319 5.20427 49.4372 5.20427 50.0569C5.20427 50.6765 5.70964 51.1819 6.32927 51.1819C6.94889 51.1819 7.45427 50.6765 7.45427 50.0569C7.45427 49.4372 6.94889 48.9319 6.32927 48.9319ZM51.0615 43.167C51.0615 47.4902 47.5443 51.0075 43.2209 51.0075C38.8976 51.0075 35.3804 47.4902 35.3804 43.167C35.3804 38.8438 38.8976 35.3265 43.2209 35.3265C47.5443 35.3265 51.0615 38.8438 51.0615 43.167ZM49.3115 43.167C49.3115 39.8086 46.5794 37.0765 43.2209 37.0765C39.8626 37.0765 37.1304 39.8086 37.1304 43.167C37.1304 46.5252 39.8625 49.2575 43.2209 49.2575C46.5793 49.2575 49.3115 46.5252 49.3115 43.167Z" fill="#157B7D"/>
</svg>
